<svg xmlns="http://www.w3.org/2000/svg" width="15.994" height="16" viewBox="0 0 15.994 16">
  <g id="Сгруппировать_14432" data-name="Сгруппировать 14432" transform="translate(-23.003 -329)">
    <path id="_360_1_" data-name="360 (1)" d="M7.186,10.424,4.948,12.662l-.884-.884.734-.734a11.293,11.293,0,0,1-2.928-.857C.327,9.456,0,8.6,0,8H0C0,8,0,7.993,0,7.987c0-.7.446-1.706,2.571-2.476a13,13,0,0,1,2.358-.586,13,13,0,0,1,.586-2.358C6.288.442,7.29.006,7.994.006H8V0c.592,0,1.452.323,2.184,1.861a11.242,11.242,0,0,1,.857,2.924l.734-.734.884.884L10.42,7.173,8.182,4.935l.884-.884.7.7C9.334,2.39,8.517,1.268,8.013,1.25a.038.038,0,0,1-.018.005c-.308,0-.834.448-1.3,1.737a11.228,11.228,0,0,0-.467,1.774l.02,0L7.429,5.949c-.473.013-.936.043-1.384.089-.046.448-.076.911-.089,1.384L4.772,6.238l0-.02A11.23,11.23,0,0,0,3,6.686c-1.29.467-1.747.993-1.747,1.3A.034.034,0,0,1,1.247,8h.005c0,.314.442.718,1.153,1.055a9.821,9.821,0,0,0,2.359.71l-.7-.7.884-.884Zm6.546-4.8-.974.974q.124.041.243.084c1.29.467,1.747,1.009,1.747,1.317,0,.287-.409.784-1.562,1.236a10.779,10.779,0,0,1-1.968.537c.034-.39.058-.788.07-1.193,0-.068,0-.137,0-.205h-1.25c0,.057,0,.113,0,.169-.014.481-.045.953-.093,1.407-.438.044-.891.074-1.354.087l-.154,0v1.25l.19,0c.384-.011.764-.033,1.135-.065a10.7,10.7,0,0,1-.528,1.915C8.783,14.294,8.287,14.75,8,14.75c-.308,0-.84-.5-1.307-1.789q-.043-.119-.084-.243l-.974.974C6.388,15.556,7.331,16,8,16s1.648-.487,2.4-2.4a12.5,12.5,0,0,0,.659-2.527,12.581,12.581,0,0,0,2.584-.668C15.588,9.639,16,8.676,16,8s-.4-1.622-2.266-2.375Z" transform="translate(23 329)" fill="#1a2936"/>
  </g>
</svg>
