<svg xmlns="http://www.w3.org/2000/svg" xmlns:xlink="http://www.w3.org/1999/xlink" width="206.652" height="185.29" viewBox="0 0 206.652 185.29">
  <defs>
    <linearGradient id="linear-gradient" x1="0.5" x2="0.5" y2="1" gradientUnits="objectBoundingBox">
      <stop offset="0" stop-color="#00b7fc"/>
      <stop offset="1" stop-color="#31cdfe"/>
    </linearGradient>
    <linearGradient id="linear-gradient-2" x1="0.5" x2="0.5" y2="1" gradientUnits="objectBoundingBox">
      <stop offset="0" stop-color="#721fbd"/>
      <stop offset="1" stop-color="#3a1e96"/>
    </linearGradient>
    <linearGradient id="linear-gradient-5" y2="0.295" xlink:href="#linear-gradient-2"/>
    <linearGradient id="linear-gradient-7" x1="0.96" y1="0.314" x2="0.091" y2="0.703" xlink:href="#linear-gradient"/>
  </defs>
  <g id="Group_14420" data-name="Group 14420" transform="translate(-8.788 0.001)">
    <path id="Path_4252" data-name="Path 4252" d="M513.43,185.293H430.967a9.7,9.7,0,0,1-9.7-9.7V9.7a9.7,9.7,0,0,1,9.7-9.7H513.43a9.7,9.7,0,0,1,9.7,9.7V175.594a9.7,9.7,0,0,1-9.7,9.7" transform="translate(-366.349 -0.004)" fill="#1d2238"/>
    <path id="Path_4357" data-name="Path 4357" d="M0,0H91.987V156.95H0Z" transform="translate(59.855 14.17)" fill="#edf1f8"/>
    <path id="Path_4253" data-name="Path 4253" d="M756.732,41.172H740.367a1.32,1.32,0,1,1,0-2.64h16.366a1.32,1.32,0,0,1,0,2.64" transform="translate(-642.7 -33.51)" fill="#fff"/>
    <path id="Path_4254" data-name="Path 4254" d="M806.636,758.688h8.618a16.668,16.668,0,0,0,5.652-8.1,13.729,13.729,0,0,0-7.871,3.427,11.545,11.545,0,0,0,1.724-5.37,34.828,34.828,0,0,0-.17-5.716,14.6,14.6,0,0,0-6.991,8.349,19.341,19.341,0,0,0-1.481-5.521,31.247,31.247,0,0,0-.992,6.552c-.018,2.214.206,4.587,1.51,6.376" transform="translate(-700.163 -646.078)" fill="#651fb4"/>
    <rect id="Rectangle_8165" data-name="Rectangle 8165" width="91.987" height="58.458" transform="translate(59.855 112.662)" fill="#fff"/>
    <rect id="Rectangle_8166" data-name="Rectangle 8166" width="5.162" height="27.015" transform="translate(101.375 85.646)" fill="#1d2238"/>
    <path id="Path_4255" data-name="Path 4255" d="M684.868,479.745H648.288a2.071,2.071,0,0,1-2.071-2.071V463.346a10.17,10.17,0,0,1,10.17-10.17h28.481Z" transform="translate(-561.972 -394.098)" fill="url(#linear-gradient)"/>
    <rect id="Rectangle_8168" data-name="Rectangle 8168" width="34.77" height="4.763" transform="translate(84.245 67.6)" fill="#d5f5ff"/>
    <path id="Path_4256" data-name="Path 4256" d="M656.387,453.175a10.17,10.17,0,0,0-10.17,10.17v14.328a2.071,2.071,0,0,0,2.071,2.071h36.581V453.175Z" transform="translate(-561.972 -394.098)" fill="none"/>
    <path id="Path_4257" data-name="Path 4257" d="M894.01,479.745H878.454V461.189a8.013,8.013,0,0,1,8.013-8.013h.724a8.013,8.013,0,0,1,8.013,8.013V478.55a1.2,1.2,0,0,1-1.195,1.195" transform="translate(-763.934 -394.098)" fill="#1d2238"/>
    <path id="Path_4258" data-name="Path 4258" d="M522.391,937.8l2.359-.054,2.359-.041,4.718-.08q4.718-.063,9.437-.1c3.146-.033,6.291-.04,9.437-.06l9.437-.02,9.437.019c3.146.02,6.291.026,9.437.06s6.291.062,9.437.1l4.719.081,2.359.041,2.359.054-2.359.054-2.359.041-4.719.081q-4.718.063-9.437.1c-3.146.033-6.291.04-9.437.06l-9.437.019-9.437-.02c-3.146-.019-6.291-.027-9.437-.06s-6.291-.062-9.437-.1l-4.718-.08-2.359-.041Z" transform="translate(-454.289 -815.236)" fill="#d8dee8"/>
    <path id="Path_4259" data-name="Path 4259" d="M522.391,1012.147l2.359-.054,2.359-.041,4.718-.08q4.718-.063,9.437-.1c3.146-.033,6.291-.04,9.437-.06l9.437-.02,9.437.019c3.146.02,6.291.026,9.437.06s6.291.062,9.437.1l4.719.081,2.359.041,2.359.054-2.359.054-2.359.041-4.719.081q-4.718.063-9.437.1c-3.146.033-6.291.04-9.437.06l-9.437.019-9.437-.02c-3.146-.019-6.291-.027-9.437-.06s-6.291-.062-9.437-.1l-4.718-.08-2.359-.041Z" transform="translate(-454.289 -879.887)" fill="#d8dee8"/>
    <path id="Path_4260" data-name="Path 4260" d="M522.391,1086.49l2.359-.054,2.359-.041,4.718-.08q4.718-.063,9.437-.1c3.146-.033,6.291-.04,9.437-.06l9.437-.02,9.437.019c3.146.02,6.291.026,9.437.06s6.291.062,9.437.1l4.719.081,2.359.041,2.359.054-2.359.054-2.359.041-4.719.081q-4.718.063-9.437.1c-3.146.033-6.291.04-9.437.06l-9.437.019-9.437-.02c-3.146-.019-6.291-.027-9.437-.06s-6.291-.062-9.437-.1l-4.718-.08-2.359-.041Z" transform="translate(-454.289 -944.537)" fill="#d8dee8"/>
    <path id="Path_4261" data-name="Path 4261" d="M522.391,1160.833l2.359-.054,2.359-.041,4.718-.08q4.718-.063,9.437-.1c3.146-.033,6.291-.04,9.437-.06l9.437-.02,9.437.019c3.146.02,6.291.026,9.437.06s6.291.062,9.437.1l4.719.081,2.359.041,2.359.054-2.359.054-2.359.041-4.719.081q-4.718.063-9.437.1c-3.146.033-6.291.04-9.437.06l-9.437.019-9.437-.02c-3.146-.019-6.291-.027-9.437-.06s-6.291-.062-9.437-.1l-4.718-.08-2.359-.041Z" transform="translate(-454.289 -1009.189)" fill="#d8dee8"/>
    <path id="Path_4262" data-name="Path 4262" d="M522.391,1235.176l2.359-.054,2.359-.041,4.718-.08q4.718-.063,9.437-.1c3.146-.033,6.291-.04,9.437-.06l9.437-.02,9.437.019c3.146.02,6.291.026,9.437.06s6.291.062,9.437.1l4.719.081,2.359.041,2.359.054-2.359.054-2.359.041-4.719.081q-4.718.063-9.437.1c-3.146.033-6.291.04-9.437.06l-9.437.019-9.437-.02c-3.146-.019-6.291-.027-9.437-.06s-6.291-.062-9.437-.1l-4.718-.08-2.359-.041Z" transform="translate(-454.289 -1073.84)" fill="#d8dee8"/>
    <path id="Path_4263" data-name="Path 4263" d="M648.176,719.683h-13.3a15.081,15.081,0,0,1-10.322-9.088,16.779,16.779,0,0,1,11.978,3.727,19.349,19.349,0,0,1-8.4-16.243,15.47,15.47,0,0,1,9.13,5.556A39.409,39.409,0,0,1,642.677,713a16.047,16.047,0,0,1,1.767-8.417,21.138,21.138,0,0,1,3.733,15.1" transform="translate(-543.137 -607.074)" fill="url(#linear-gradient-2)"/>
    <path id="Path_4338" data-name="Path 4338" d="M182.1,1075.539H163.812l.03.078a36.229,36.229,0,0,1,1.835,19.372l-2.947,16.491c-.809,4.527,2.21,8.766,6.243,8.766h7.983c4.028,0,7.045-4.229,6.245-8.752l-2.945-16.642a36.229,36.229,0,0,1,1.846-19.312" transform="translate(-141.402 -935.326)" fill="url(#linear-gradient-2)"/>
    <path id="Intersection_12" data-name="Intersection 12" d="M8906.9,19305.986a8.352,8.352,0,0,1,.129-1.242l.454-2.543h19.563l.452,2.559a8.4,8.4,0,0,1,.126,1.227Z" transform="translate(-8885.694 -19128.594)" stroke="rgba(0,0,0,0)" stroke-miterlimit="10" stroke-width="1" fill="url(#linear-gradient)"/>
    <path id="Intersection_11" data-name="Intersection 11" d="M8908.443,19298.73l.678-3.791H8926.1l.672,3.791Z" transform="translate(-8886.04 -19128.594)" fill="#31cdfe" stroke="rgba(0,0,0,0)" stroke-miterlimit="10" stroke-width="1"/>
    <path id="Path_4339" data-name="Path 4339" d="M172.958,1075.539h-9.145l.03.078a36.229,36.229,0,0,1,1.835,19.372l-2.947,16.491c-.809,4.527,2.21,8.766,6.243,8.766h7.983c4.028,0,7.045-4.229,6.245-8.752l-2.945-16.642a36.228,36.228,0,0,1,1.846-19.312Z" transform="translate(-141.402 -935.326)" fill="none"/>
    <path id="Path_4340" data-name="Path 4340" d="M124.109,705.72a.241.241,0,0,1-.239-.209c-.042-.3-4.3-30.744-14.995-55.17a.241.241,0,0,1,.442-.193c10.721,24.489,14.989,54.993,15.03,55.3a.241.241,0,0,1-.206.272l-.033,0" transform="translate(-94.664 -565.266)" fill="#1d2238"/>
    <path id="Path_4341" data-name="Path 4341" d="M95.067,849.964s-3.509-6.176-14.145-6.332c0,0,5.518,9.7,14.145,6.332" transform="translate(-70.373 -733.652)" fill="#1d2238"/>
    <path id="Path_4342" data-name="Path 4342" d="M200.008,839.106s-1.125-7.256,6.543-15.7c0,0,1.76,11.4-6.543,15.7" transform="translate(-173.883 -716.059)" fill="#1d2238"/>
    <path id="Path_4343" data-name="Path 4343" d="M223.563,957.693s-1.125-7.256,6.543-15.7c0,0,1.76,11.4-6.543,15.7" transform="translate(-194.367 -819.186)" fill="#1d2238"/>
    <path id="Path_4344" data-name="Path 4344" d="M110.707,972.91s6.242-1.775,14.114,6.423c0,0-9.806,2.779-14.114-6.423" transform="translate(-96.274 -845.936)" fill="#1d2238"/>
    <path id="Path_4345" data-name="Path 4345" d="M168.226,726.621s-.923-5.949,5.365-12.876c0,0,1.443,9.345-5.365,12.876" transform="translate(-146.254 -620.697)" fill="#1d2238"/>
    <path id="Path_4346" data-name="Path 4346" d="M85.394,732.2s4.018-.94,8.842,4.523c0,0-6.312,1.471-8.842-4.523" transform="translate(-74.262 -636.691)" fill="#1d2238"/>
    <path id="Path_4347" data-name="Path 4347" d="M135.214,659.45s-.615-3.451,2.959-7.6c0,0,.962,5.422-2.959,7.6" transform="translate(-117.552 -566.875)" fill="#1d2238"/>
    <path id="Path_4348" data-name="Path 4348" d="M85.075,582.261s2.119-1.669-.566-6.65-3.462,4.912-1.711,6.07,2.277.581,2.277.581" transform="translate(-71.189 -499.361)" fill="url(#linear-gradient-5)"/>
    <path id="Path_4349" data-name="Path 4349" d="M73.545,600.82s-3.171,1.287-5.71-5.8,7.2-.423,6.925,2.592-1.214,3.209-1.214,3.209" transform="translate(-58.624 -514.709)" fill="url(#linear-gradient-2)"/>
    <g id="Group_14421" data-name="Group 14421" transform="translate(19.153 34.544)">
      <path id="Path_4351" data-name="Path 4351" d="M995.428,12.139v-.007L931.6.306h0a2.539,2.539,0,0,0-3.026,2.022L921.554,40.2a2.529,2.529,0,0,0,.014.994l.05.193a2.535,2.535,0,0,0,1.968,1.769L987.66,55.029a2.535,2.535,0,0,0,2.471-.947l.116-.162a2.53,2.53,0,0,0,.369-.923l7.017-37.874a2.539,2.539,0,0,0-2.2-2.985" transform="translate(-801.39 -0.221)" fill="url(#linear-gradient-7)"/>
      <path id="Path_4352" data-name="Path 4352" d="M1470.045,375.344c2.325,1.856,4.588,3.781,6.836,5.722s4.465,3.917,6.666,5.91,4.381,4.01,6.537,6.052,4.291,4.109,6.366,6.241c-2.326-1.855-4.589-3.78-6.837-5.721s-4.465-3.917-6.665-5.911-4.38-4.01-6.536-6.053-4.291-4.109-6.367-6.24" transform="translate(-1307.287 -346.156)" fill="#1a2936"/>
      <path id="Path_4353" data-name="Path 4353" d="M921.26,365.738c2.7-1.246,5.437-2.406,8.18-3.545s5.5-2.236,8.271-3.309,5.548-2.119,8.34-3.131,5.6-1.994,8.433-2.893c-2.7,1.247-5.436,2.407-8.179,3.547s-5.5,2.236-8.271,3.308-5.549,2.117-8.341,3.13-5.6,1.994-8.432,2.894" transform="translate(-801.158 -325.42)" fill="#1a2936"/>
      <path id="Path_4354" data-name="Path 4354" d="M1081.008,39.337c-3.3,1.225-6.568,2.512-9.841,3.8l-4.9,1.954c-.817.324-1.63.656-2.444.987l-2.441.994-2.441.993-2.435,1.007-4.868,2.019c-.812.334-1.621.678-2.43,1.02l-2.427,1.026-.925.391a5.661,5.661,0,0,1-6.13-1.136l-.723-.7-1.9-1.827c-.634-.608-1.263-1.221-1.9-1.824l-3.822-3.629L1029.47,42.6l-1.923-1.8-1.923-1.8c-.641-.6-1.281-1.2-1.928-1.8l-3.872-3.578c-2.6-2.37-5.189-4.743-7.829-7.068l-.062.064,27.495,26.7a5.855,5.855,0,0,0,6.382,1.182l35.234-15.075Z" transform="translate(-884.783 -24.474)" fill="#1a2936"/>
    </g>
    <g id="Group_14424" data-name="Group 14424" transform="translate(2.795 66.076)">
      <path id="Path_4351-2" data-name="Path 4351" d="M931.957,1.933h0L922.937.261h0a.359.359,0,0,0-.428.286L921.517,5.9a.357.357,0,0,0,0,.14l.007.027a.358.358,0,0,0,.278.25l9.055,1.678a.358.358,0,0,0,.349-.134l.016-.023a.358.358,0,0,0,.052-.13l.992-5.352a.359.359,0,0,0-.312-.422" transform="translate(-801.407 -0.221)" fill="url(#linear-gradient-7)"/>
      <path id="Path_4352-2" data-name="Path 4352" d="M1470.045,375.344c.329.262.648.534.966.809s.631.554.942.835.619.567.924.855.606.581.9.882c-.329-.262-.649-.534-.966-.809s-.631-.554-.942-.835-.619-.567-.924-.855-.606-.581-.9-.882" transform="translate(-1343.915 -371.191)" fill="#1a2936"/>
      <path id="Path_4353-2" data-name="Path 4353" d="M921.26,354.68c.382-.176.768-.34,1.156-.5s.778-.316,1.169-.468.784-.3,1.179-.442.791-.282,1.192-.409c-.382.176-.768.34-1.156.5s-.778.316-1.169.468-.784.3-1.179.442-.791.282-1.192.409" transform="translate(-801.158 -348.954)" fill="#1a2936"/>
      <path id="Path_4354-2" data-name="Path 4354" d="M1021.7,28.358c-.466.173-.928.355-1.391.536l-.692.276-.345.14-.345.14-.345.14-.344.142-.688.285-.343.144-.343.145-.131.055a.8.8,0,0,1-.866-.161l-.1-.1-.268-.258c-.09-.086-.178-.173-.269-.258l-.54-.513-.27-.256-.272-.255-.272-.255c-.091-.085-.181-.17-.272-.254l-.547-.506c-.367-.335-.733-.67-1.106-1l-.009.009,3.886,3.773a.827.827,0,0,0,.9.167l4.979-2.13Z" transform="translate(-890.835 -26.23)" fill="#1a2936"/>
    </g>
    <g id="Group_14425" data-name="Group 14425" transform="matrix(0.899, -0.438, 0.438, 0.899, 11.187, 129.147)">
      <path id="Path_4351-3" data-name="Path 4351" d="M928.114,1.315h0l-5.7-1.056h0a.227.227,0,0,0-.27.181l-.627,3.383a.226.226,0,0,0,0,.089l0,.017a.226.226,0,0,0,.176.158l5.723,1.06a.226.226,0,0,0,.221-.085l.01-.014a.226.226,0,0,0,.033-.082l.627-3.383a.227.227,0,0,0-.2-.267" transform="translate(-801.408 -0.221)" fill="url(#linear-gradient-7)"/>
      <path id="Path_4352-3" data-name="Path 4352" d="M1470.045,375.344c.208.166.41.338.611.511s.4.35.6.528.391.358.584.541.383.367.569.557c-.208-.166-.41-.338-.611-.511s-.4-.35-.6-.528-.391-.358-.584-.541-.383-.367-.569-.557" transform="translate(-1346.133 -372.707)" fill="#1a2936"/>
      <path id="Path_4353-3" data-name="Path 4353" d="M921.26,354.01c.241-.111.486-.215.731-.317s.491-.2.739-.3.5-.189.745-.28.5-.178.753-.258c-.241.111-.486.215-.731.317s-.491.2-.739.3-.5.189-.745.28-.5.178-.753.258" transform="translate(-801.158 -350.379)" fill="#1a2936"/>
      <path id="Path_4354-3" data-name="Path 4354" d="M1018.1,27.693c-.295.109-.587.224-.879.339l-.437.175-.218.088-.218.089-.218.089-.218.09-.435.18-.217.091-.217.092-.083.035a.506.506,0,0,1-.548-.1l-.065-.062-.17-.163-.17-.163-.342-.324-.171-.162-.172-.161-.172-.161-.172-.161-.346-.32c-.232-.212-.464-.424-.7-.631l-.005.006,2.456,2.385a.523.523,0,0,0,.57.106l3.147-1.347Z" transform="translate(-891.202 -26.336)" fill="#1a2936"/>
    </g>
  </g>
</svg>
