<svg xmlns="http://www.w3.org/2000/svg" xmlns:xlink="http://www.w3.org/1999/xlink" width="134.739" height="47.67" viewBox="0 0 134.739 47.67"><defs><linearGradient id="a" x1="0.5" x2="0.5" y2="1" gradientUnits="objectBoundingBox"><stop offset="0" stop-color="#721fbd"/><stop offset="1" stop-color="#3a1e96"/></linearGradient><linearGradient id="b" x1="0.5" x2="0.5" y2="1" gradientUnits="objectBoundingBox"><stop offset="0" stop-color="#00b7fc"/><stop offset="1" stop-color="#31cdfe"/></linearGradient></defs><g transform="translate(-983.456 -393.8)"><path d="M10590.411,17247.99l2.026-2.027,2.069,2.027-2.026,2Zm-36.181.135-1.861,1.865-2.048-2.025,2.021-2,1.888,1.842,1.889-1.842,2.048,2-2.026,2.025Zm31.188-3.654h-26.771a5.462,5.462,0,0,1-3.841-1.7q-1.356,1.7-4.9,1.7a5.458,5.458,0,0,1-3.84-1.7q-1.358,1.7-4.9,1.7-3.079,0-4.3-1.75a10.891,10.891,0,0,1-6.23,1.75h-3.152a6.181,6.181,0,0,1-4.222-1.277,4.8,4.8,0,0,1-1.437-3.785,17.894,17.894,0,0,1,.485-3.857l2.16.273a19.625,19.625,0,0,0-.32,2.848,2.826,2.826,0,0,0,.979,2.395,4.805,4.805,0,0,0,2.957.758h2.551a11.825,11.825,0,0,0,5.542-1.061,6.114,6.114,0,0,1-.069-.982l-.026-11.756,2.507-.342v11.361c0,1.857.854,2.779,2.555,2.779h.048a3.962,3.962,0,0,0,2.473-.633,2.483,2.483,0,0,0,.792-2.061v-3.4l2.485-.346v4.527a5.875,5.875,0,0,1-.069.918,5.111,5.111,0,0,0,3.035.992h.026a3.966,3.966,0,0,0,2.472-.633,2.484,2.484,0,0,0,.793-2.061v-3.4l2.485-.346v4.527a6.534,6.534,0,0,1-.069.918,5.111,5.111,0,0,0,3.035.992h31.257q2.578,0,2.576-2.693l-.021-5.814,2.507-.346v6.943a4.377,4.377,0,0,1-1.277,3.387,5.473,5.473,0,0,1-3.806,1.17Zm-57.911-8.023v-1.936h1.333a2.53,2.53,0,0,1-.415-1.4,2.283,2.283,0,0,1,.735-1.775,2.734,2.734,0,0,1,1.91-.668,4.117,4.117,0,0,1,1.792.486v1.77a4.845,4.845,0,0,0-1.585-.35,1.425,1.425,0,0,0-.888.268.859.859,0,0,0-.333.7,1.472,1.472,0,0,0,.395.967h3.2l-.55,1.936Zm18.076-4.3-1.866,1.867-2.048-2.027,2.026-2,1.888,1.84,1.884-1.84,2.048,2-2.026,2.027Zm31.045-11.266a4.752,4.752,0,0,1-2.619-4.348,4.838,4.838,0,0,1,.692-2.576,4.785,4.785,0,0,1,1.927-1.775,5.968,5.968,0,0,1,2.78-.637,5.4,5.4,0,0,1,2.671.637,3.831,3.831,0,0,1,1.667,1.832l-2.178,1.17a2.384,2.384,0,0,0-2.178-1.334,2.479,2.479,0,0,0-1.818.719,3.024,3.024,0,0,0,0,3.926,2.456,2.456,0,0,0,1.818.719,2.355,2.355,0,0,0,2.178-1.332l2.178,1.189a3.9,3.9,0,0,1-1.667,1.8,5.359,5.359,0,0,1-2.671.645A5.968,5.968,0,0,1,10576.629,17220.877Zm-11.353,0a4.7,4.7,0,0,1-1.939-1.775,4.89,4.89,0,0,1-.685-2.572,4.954,4.954,0,0,1,.676-2.566,4.783,4.783,0,0,1,1.849-1.785,5.522,5.522,0,0,1,2.654-.637,5.366,5.366,0,0,1,2.52.586,4.476,4.476,0,0,1,1.811,1.691,4.93,4.93,0,0,1,.675,2.621l-7.161,1.385a2.176,2.176,0,0,0,.961,1.078,3.3,3.3,0,0,0,1.61.363,3.793,3.793,0,0,0,1.343-.225,3.269,3.269,0,0,0,1.087-.715l1.493,1.625a5.016,5.016,0,0,1-4,1.563A6.357,6.357,0,0,1,10565.276,17220.877Zm.831-6.525a2.718,2.718,0,0,0-.7,1.889l4.715-.918a2.091,2.091,0,0,0-.81-1.205,2.414,2.414,0,0,0-1.48-.445A2.287,2.287,0,0,0,10566.107,17214.352Zm-29.421,6.551a4.3,4.3,0,0,1-1.736-1.748,5.785,5.785,0,0,1,0-5.258,4.351,4.351,0,0,1,1.736-1.744,5.028,5.028,0,0,1,2.473-.611,3.683,3.683,0,0,1,2.9,1.17v-1.025h2.81v9.686h-2.68v-1.117a3.709,3.709,0,0,1-3.026,1.26A5.007,5.007,0,0,1,10536.687,17220.9Zm1.178-6.326a3.084,3.084,0,0,0,0,3.906,2.526,2.526,0,0,0,3.546,0,3.068,3.068,0,0,0,0-3.906,2.517,2.517,0,0,0-3.546,0Zm54.525,6.795v-5.113a2.519,2.519,0,0,0-.507-1.721,1.852,1.852,0,0,0-1.455-.566,2.235,2.235,0,0,0-1.692.658,2.716,2.716,0,0,0-.633,1.953v4.789h-2.806v-13.354h2.806v4.676a3.809,3.809,0,0,1,1.352-.857,4.943,4.943,0,0,1,1.728-.295,4,4,0,0,1,2.909,1.078,4.3,4.3,0,0,1,1.1,3.205v5.547Zm-36.526,0V17211.1a9.806,9.806,0,0,0-3.49,1.2l-.991-2.182a10.934,10.934,0,0,1,2.811-1.168,12.148,12.148,0,0,1,3.112-.391,12.363,12.363,0,0,1,3.144.391,10.576,10.576,0,0,1,2.8,1.168l-.986,2.182a9.659,9.659,0,0,0-3.478-1.2v10.275Zm-8.4,0v-9.686h2.806v9.686Zm-25.991,0v-12.6h6.156a5.988,5.988,0,0,1,3.538.879,2.78,2.78,0,0,1,1.229,2.391,3,3,0,0,1-1.672,2.77,3.349,3.349,0,0,1,1.693,1.148,3.144,3.144,0,0,1,.61,1.969,2.91,2.91,0,0,1-1.286,2.547,6.548,6.548,0,0,1-3.754.893Zm2.9-2.2h3.4a3.214,3.214,0,0,0,1.736-.381,1.3,1.3,0,0,0,.589-1.17q0-1.564-2.325-1.566h-3.4Zm0-5.24h2.9a2.89,2.89,0,0,0,1.637-.381,1.383,1.383,0,0,0,0-2.221,2.981,2.981,0,0,0-1.637-.367h-2.9Zm23.237-4.053a1.519,1.519,0,0,1,0-2.225,2,2,0,0,1,2.521-.018,1.362,1.362,0,0,1,.484,1.078,1.527,1.527,0,0,1-.484,1.16,1.966,1.966,0,0,1-2.521,0Z" transform="translate(-9477 -16811)" fill="#1a2936"/><g transform="translate(983.456 393.8)"><g transform="translate(0.657)"><path d="M-1068.94,1909.57l-14.75-17.215a4.676,4.676,0,0,0-3.549-1.631h-16.63s-5.347-.089-5.789-.013a4.256,4.256,0,0,0-1.194.423c-.051.025-3.178,1.489-1.367,5.672,1.84,4.246,8.351,1.993,8.351,37.689h16.63a4.676,4.676,0,0,0,3.549-1.631l14.75-17.215A4.674,4.674,0,0,0-1068.94,1909.57Zm-10.295,5.419a.615.615,0,0,1-.615.615h-1.453a.615.615,0,0,1-.615-.615v-1.456a.615.615,0,0,1,.615-.615h1.453a.615.615,0,0,1,.615.615Zm0-3.307a.615.615,0,0,1-.615.615h-1.453a.615.615,0,0,1-.615-.615v-1.453a.615.615,0,0,1,.615-.615h1.453a.615.615,0,0,1,.615.615Zm3.363,3.307a.615.615,0,0,1-.615.615h-1.456a.615.615,0,0,1-.615-.615v-1.456a.615.615,0,0,1,.615-.615h1.456a.615.615,0,0,1,.615.615Zm0-3.307a.615.615,0,0,1-.615.615h-1.456a.615.615,0,0,1-.615-.615v-1.453a.615.615,0,0,1,.615-.615h1.456a.615.615,0,0,1,.615.615Z" transform="translate(1112.784 -1890.679)" fill="url(#a)"/></g><path d="M-1086.429,1928.833a10.519,10.519,0,0,1-9.286,10.448,10.466,10.466,0,0,1-1.237.074,10.36,10.36,0,0,1-2.715-.358c-.5-.171-.991-.343-1.479-.514-2.995-1.054-5.74-2.078-7.863-3.043-.343-.156-.67-.309-.976-.462,0,0,0,0-.007,0a8.652,8.652,0,0,1-1.229-.827,8.754,8.754,0,0,1-2.354-2.954,8.608,8.608,0,0,1-.853-3.471v-31.037a4.864,4.864,0,0,1,3-4.749,3.436,3.436,0,0,0-2.153,2.875,3.874,3.874,0,0,0,2.649,3.285.052.052,0,0,1,.022.007c.071.022.145.045.216.071l.037.011c1.825.607,4.049,1.274,6.142,1.885,3.724,1.08,7.051,1.97,7.051,1.97v.03a10.526,10.526,0,0,1,8.44,10.317,10.461,10.461,0,0,1-2.868,7.218A10.513,10.513,0,0,1-1086.429,1928.833Z" transform="translate(1114.427 -1891.685)" fill="url(#b)"/></g></g></svg>