<svg xmlns="http://www.w3.org/2000/svg" xmlns:xlink="http://www.w3.org/1999/xlink" width="101.472" height="140.685" viewBox="0 0 101.472 140.685">
  <defs>
    <linearGradient id="linear-gradient" x1="0.061" y1="0.661" x2="0.844" y2="0.6" gradientUnits="objectBoundingBox">
      <stop offset="0" stop-color="#00b7fc"/>
      <stop offset="1" stop-color="#31cdfe"/>
    </linearGradient>
  </defs>
  <g id="Group_14660" data-name="Group 14660" transform="translate(-29.494 -213.47)">
    <g id="Group_12613" data-name="Group 12613" transform="translate(28.845 213.47)">
      <g id="Group_12581" data-name="Group 12581" transform="translate(22.618)">
        <g id="Group_12580" data-name="Group 12580" transform="translate(0.915)">
          <path id="Path_44" data-name="Path 44" d="M-1051.753,1916.975l-20.532-23.964a6.51,6.51,0,0,0-4.941-2.271h-23.15s-7.443-.125-8.058-.018a5.913,5.913,0,0,0-1.662.589c-.071.034-4.423,2.073-1.9,7.9,2.561,5.911,11.624,2.774,11.624,52.464h23.15a6.508,6.508,0,0,0,4.941-2.271l20.532-23.964A6.507,6.507,0,0,0-1051.753,1916.975Zm-14.331,7.544a.856.856,0,0,1-.855.856h-2.022a.856.856,0,0,1-.855-.856v-2.027a.856.856,0,0,1,.855-.855h2.022a.856.856,0,0,1,.855.855Zm0-4.6a.856.856,0,0,1-.855.855h-2.022a.856.856,0,0,1-.855-.855v-2.022a.856.856,0,0,1,.855-.855h2.022a.856.856,0,0,1,.855.855Zm4.682,4.6a.856.856,0,0,1-.855.856h-2.027a.856.856,0,0,1-.855-.856v-2.027a.856.856,0,0,1,.855-.855h2.027a.856.856,0,0,1,.855.855Zm0-4.6a.856.856,0,0,1-.855.855h-2.027a.856.856,0,0,1-.855-.855v-2.022a.856.856,0,0,1,.855-.855h2.027a.856.856,0,0,1,.855.855Z" transform="translate(1112.784 -1890.679)" fill="#651fb4"/>
        </g>
        <path id="Path_45" data-name="Path 45" d="M-1075.453,1943.3a14.643,14.643,0,0,1-12.926,14.543,14.493,14.493,0,0,1-1.721.1,14.42,14.42,0,0,1-3.78-.5c-.695-.239-1.379-.477-2.058-.715-4.169-1.468-7.99-2.893-10.945-4.236-.477-.218-.933-.43-1.358-.643-.005,0-.005,0-.01,0a12.077,12.077,0,0,1-1.711-1.151,12.187,12.187,0,0,1-3.277-4.112,11.984,11.984,0,0,1-1.187-4.832v-43.2a6.771,6.771,0,0,1,4.179-6.61,4.784,4.784,0,0,0-3,4c0,2.095,1.836,3.878,3.687,4.573a.071.071,0,0,1,.031.01c.1.031.2.062.3.1.021.005.036.01.052.015,2.54.845,5.636,1.773,8.549,2.624,5.185,1.5,9.815,2.742,9.815,2.742v.042a14.652,14.652,0,0,1,11.749,14.362,14.561,14.561,0,0,1-3.992,10.048A14.635,14.635,0,0,1-1075.453,1943.3Z" transform="translate(1114.427 -1891.586)" fill="url(#linear-gradient)"/>
      </g>
      <path id="Intersection_8" data-name="Intersection 8" d="M3947.865,19357.4a6.507,6.507,0,0,1,0-11.594,7.935,7.935,0,0,1,3.71-.852,7.189,7.189,0,0,1,3.564.852,5.091,5.091,0,0,1,2.22,2.436l-2.906,1.563a3.169,3.169,0,0,0-2.9-1.777,3.268,3.268,0,0,0-2.425.959,4.05,4.05,0,0,0,0,5.234,3.291,3.291,0,0,0,2.425.959,3.141,3.141,0,0,0,2.9-1.777l2.906,1.582a5.165,5.165,0,0,1-2.22,2.4,7.071,7.071,0,0,1-3.564.867A7.983,7.983,0,0,1,3947.865,19357.4Zm-15.132,0a6.281,6.281,0,0,1-2.595-2.367,6.929,6.929,0,0,1-.01-6.85,6.317,6.317,0,0,1,2.473-2.377,7.292,7.292,0,0,1,3.54-.852,7.2,7.2,0,0,1,3.359.779,6.007,6.007,0,0,1,2.41,2.254,6.568,6.568,0,0,1,.9,3.5l-9.552,1.846a2.873,2.873,0,0,0,1.285,1.441,4.414,4.414,0,0,0,2.147.477,4.955,4.955,0,0,0,1.787-.3,4.3,4.3,0,0,0,1.456-.949l1.991,2.16a6.7,6.7,0,0,1-5.326,2.09A8.466,8.466,0,0,1,3932.733,19357.4Zm1.105-8.7a3.62,3.62,0,0,0-.94,2.518l6.29-1.223a2.8,2.8,0,0,0-1.081-1.605,3.224,3.224,0,0,0-1.967-.6A3.065,3.065,0,0,0,3933.838,19348.7Zm-39.231,8.734a5.839,5.839,0,0,1-2.312-2.326,7.717,7.717,0,0,1,0-7.012,5.8,5.8,0,0,1,2.313-2.322,6.7,6.7,0,0,1,3.3-.818,4.923,4.923,0,0,1,3.866,1.559v-1.369h3.744v12.912h-3.578v-1.484a4.931,4.931,0,0,1-4.031,1.68A6.7,6.7,0,0,1,3894.607,19357.434Zm1.573-8.437a4.1,4.1,0,0,0,0,5.209,3.353,3.353,0,0,0,4.727,0,4.079,4.079,0,0,0,0-5.209,3.368,3.368,0,0,0-4.727,0Zm72.7,9.061v-6.816a3.354,3.354,0,0,0-.672-2.287,2.462,2.462,0,0,0-1.948-.76,2.975,2.975,0,0,0-2.254.877,3.632,3.632,0,0,0-.837,2.6v6.383h-3.744v-17.809h3.744v6.24a4.947,4.947,0,0,1,1.8-1.139,6.591,6.591,0,0,1,2.308-.395,5.33,5.33,0,0,1,3.875,1.441,5.7,5.7,0,0,1,1.475,4.27v7.391Zm-48.7,0v-13.7a13.074,13.074,0,0,0-4.659,1.605l-1.319-2.906a14.45,14.45,0,0,1,3.744-1.559,16.446,16.446,0,0,1,4.153-.525,16.627,16.627,0,0,1,4.187.525,13.97,13.97,0,0,1,3.734,1.559l-1.319,2.906a12.857,12.857,0,0,0-4.635-1.605v13.7Zm-11.208,0v-12.912h3.744v12.912Zm-34.66,0v-16.8h8.208a8.04,8.04,0,0,1,4.718,1.178,3.727,3.727,0,0,1,1.646,3.193,4.043,4.043,0,0,1-2.235,3.7,4.459,4.459,0,0,1,2.259,1.523,4.223,4.223,0,0,1,.813,2.631,3.875,3.875,0,0,1-1.714,3.393,8.771,8.771,0,0,1-5,1.188Zm3.866-2.926h4.538a4.289,4.289,0,0,0,2.313-.506,1.721,1.721,0,0,0,.784-1.559q0-2.089-3.1-2.088h-4.538Zm0-6.986h3.866a3.9,3.9,0,0,0,2.181-.5,1.682,1.682,0,0,0,.745-1.49,1.646,1.646,0,0,0-.745-1.475,3.985,3.985,0,0,0-2.181-.492h-3.866Zm30.984-5.4a2.034,2.034,0,0,1,0-2.977,2.385,2.385,0,0,1,1.68-.6,2.434,2.434,0,0,1,1.68.574,1.849,1.849,0,0,1,.648,1.441,2.039,2.039,0,0,1-.648,1.549,2.347,2.347,0,0,1-1.68.607A2.385,2.385,0,0,1,3909.164,19342.746Z" transform="translate(-3871 -19256.328)" fill="#1a2936" stroke="rgba(0,0,0,0)" stroke-miterlimit="10" stroke-width="1"/>
      <path id="Intersection_7" data-name="Intersection 7" d="M3965.587,19393.281l2.731-2.727,2.79,2.727-2.731,2.7Zm-48.763.189-2.507,2.508-2.76-2.727,2.726-2.7,2.542,2.477,2.541-2.477,2.76,2.7-2.726,2.727Zm48.052-4.932h-42.1a7.355,7.355,0,0,1-5.175-2.293q-1.833,2.291-6.606,2.293a7.363,7.363,0,0,1-5.175-2.293q-1.833,2.291-6.6,2.293-4.155,0-5.8-2.357a14.693,14.693,0,0,1-8.4,2.357h-4.245a8.321,8.321,0,0,1-5.687-1.719,6.46,6.46,0,0,1-1.937-5.1,24.471,24.471,0,0,1,.647-5.2l2.916.369a25.691,25.691,0,0,0-.433,3.842,3.836,3.836,0,0,0,1.314,3.229,6.466,6.466,0,0,0,3.987,1.021h3.437a15.957,15.957,0,0,0,7.473-1.426,8.49,8.49,0,0,1-.093-1.334l-.034-15.838,3.384-.467v15.311q0,3.753,3.437,3.754a.173.173,0,0,1,.032,0,.164.164,0,0,1,.031,0,5.358,5.358,0,0,0,3.335-.852,3.35,3.35,0,0,0,1.066-2.775v-4.586l3.35-.467v6.1a8.9,8.9,0,0,1-.093,1.242,6.973,6.973,0,0,0,4.09,1.334h.034a5.342,5.342,0,0,0,3.33-.852,3.337,3.337,0,0,0,1.071-2.775v-4.586l3.345-.467v6.1a8.214,8.214,0,0,1-.093,1.242,6.977,6.977,0,0,0,4.094,1.334h42.127q3.476,0,3.471-3.627l-.029-7.844,3.379-.467v9.361a5.9,5.9,0,0,1-1.719,4.563,7.36,7.36,0,0,1-5.131,1.578Zm-84.074-10.818v-2.605h1.8a3.4,3.4,0,0,1-.56-1.889,3.072,3.072,0,0,1,.993-2.391,3.688,3.688,0,0,1,2.571-.895,5.594,5.594,0,0,1,2.42.646v2.391a6.468,6.468,0,0,0-2.137-.467,1.876,1.876,0,0,0-1.193.355,1.149,1.149,0,0,0-.453.949,1.982,1.982,0,0,0,.526,1.3h4.309l-.74,2.605Zm24.367-5.8-2.512,2.512-2.756-2.725,2.726-2.7,2.542,2.477,2.541-2.477,2.76,2.7-2.726,2.725Z" transform="translate(-3872 -19256)" fill="#1a2936" stroke="rgba(0,0,0,0)" stroke-miterlimit="10" stroke-width="1"/>
    </g>
  </g>
</svg>
