<svg xmlns="http://www.w3.org/2000/svg" xmlns:xlink="http://www.w3.org/1999/xlink" width="16" height="16" viewBox="0 0 16 16"><defs><clipPath id="a"><rect width="16" height="16" fill="#1a2936" stroke="#707070" stroke-width="1"/></clipPath><linearGradient id="b" x1="0.5" x2="0.5" y2="1" gradientUnits="objectBoundingBox"><stop offset="0" stop-color="#00b7fc"/><stop offset="1" stop-color="#31cdfe"/></linearGradient></defs><g clip-path="url(#a)"><g transform="translate(-0.001 0.019)"><path d="M10.77,15.286V13.642c-.123.008-.248.013-.373.013H5.571c-.125,0-.25,0-.373-.013v1.645a.7.7,0,0,1-.679.679.682.682,0,0,1-.679-.679V13.38A5.578,5.578,0,0,1,0,8.083V6.758a.68.68,0,0,1,.679-.677H12.908V3.091c0-1.089-.473-1.766-.746-1.766s-.746.677-.746,1.766a.679.679,0,1,1-1.359,0c0-1.734.916-3.091,2.071-3.091S14.2,1.356,14.2,3.091v2.99h1.122A.68.68,0,0,1,16,6.758V8.083a5.67,5.67,0,0,1-3.873,5.293v1.91a.679.679,0,0,1-1.359,0Zm-9.444-7.2a4.247,4.247,0,0,0,4.246,4.246H10.36a4.247,4.247,0,0,0,4.246-4.246V7.4H1.325Z" fill="url(#b)"/></g></g></svg>