<svg xmlns="http://www.w3.org/2000/svg" xmlns:xlink="http://www.w3.org/1999/xlink" width="16" height="16" viewBox="0 0 16 16"><defs><clipPath id="a"><rect width="16" height="16" transform="translate(0.354)" fill="#1a2936" stroke="#707070" stroke-width="1"/></clipPath><linearGradient id="b" x1="0.5" x2="0.5" y2="1" gradientUnits="objectBoundingBox"><stop offset="0" stop-color="#00b7fc"/><stop offset="1" stop-color="#31cdfe"/></linearGradient></defs><g transform="translate(-0.354)" clip-path="url(#a)"><g transform="translate(0.087 4.202)"><path d="M13.113,11.119v-.475H2.854v.475a.679.679,0,1,1-1.359,0v-.475H.68A.682.682,0,0,1,0,9.964V6.227a.682.682,0,0,1,.68-.68h.815V2.038A2.044,2.044,0,0,1,3.533,0h8.9a2.044,2.044,0,0,1,2.039,2.038v3.51h.85a.682.682,0,0,1,.679.68V9.964a.711.711,0,0,1-.714.679h-.815v.475a.7.7,0,0,1-.679.68A.681.681,0,0,1,13.113,11.119Zm1.528-1.8V6.907H14a.646.646,0,0,1-.206.033H2.174a.676.676,0,0,1-.21-.033h-.64V9.319h.637a.675.675,0,0,1,.424,0H13.58a.676.676,0,0,1,.425,0ZM13.112,5.548V2.072a.681.681,0,0,0-.68-.679h-8.9a.682.682,0,0,0-.679.679V5.548h1.8A2,2,0,0,1,6.638,3.713h2.69a2,2,0,0,1,1.984,1.835Zm-3.149,0a.666.666,0,0,0-.636-.475H6.638A.666.666,0,0,0,6,5.548Z" fill="url(#b)"/></g></g></svg>