<?xml version="1.0" encoding="UTF-8"?>
<svg width="50px" height="144px" viewBox="0 0 50 144" version="1.1" xmlns="http://www.w3.org/2000/svg" xmlns:xlink="http://www.w3.org/1999/xlink">
    <title>Artboard</title>
    <defs>
        <linearGradient x1="74.2%" y1="53.3%" x2="111.7%" y2="64%" id="linearGradient-1">
            <stop stop-color="#00CFFF" offset="0%"></stop>
            <stop stop-color="#0074FF" offset="100%"></stop>
        </linearGradient>
        <linearGradient x1="112.8%" y1="82.1%" x2="35%" y2="73.4%" id="linearGradient-2">
            <stop stop-color="#00CFFF" offset="0%"></stop>
            <stop stop-color="#0074FF" offset="100%"></stop>
        </linearGradient>
    </defs>
    <g id="Artboard" stroke="none" stroke-width="1" fill="none" fill-rule="evenodd">
        <g id="Mask-Group-14265" transform="translate(-121.952942, -115.288961)">
            <g id="Group" transform="translate(217.641546, 214.922777) rotate(90.000000) translate(-217.641546, -214.922777) translate(2.718769, -2.718768)">
                <g transform="translate(214.922777, 217.641546) rotate(-15.008914) translate(-214.922777, -217.641546) translate(40.267968, 39.140781)" id="Path">
                    <g transform="translate(174.654810, 182.346721) rotate(45.000000) translate(-174.654810, -182.346721) translate(55.567660, 54.434671)">
                        <path d="M184.383795,190.831889 C184.380436,205.902617 177.372297,220.115657 165.418919,229.294088 C153.46554,238.472519 137.925005,241.573534 123.364358,237.685807 C121.063626,236.896555 118.796904,236.106304 116.548188,235.317053 C102.743793,230.458506 90.0907643,225.736002 80.3046485,221.289586 C78.7251456,220.568357 77.2146646,219.865133 75.8032152,219.160909 C75.7862098,219.160909 75.7862098,219.160909 75.7692044,219.143903 C73.7747331,218.037927 71.8788438,216.762846 70.1024001,215.33269 C65.5396129,211.637064 61.8383428,206.990164 59.256947,201.716354 C56.8408154,196.715258 55.5015138,191.262631 55.3256875,185.711258 L55.3256875,42.6477076 C55.3184114,33.2731016 60.4539055,24.6499272 68.6999536,20.1905573 C64.0474723,23.0234593 59.2389412,28.1570938 59.2389412,34.011958 C59.2389412,40.9481664 65.3178767,46.8540468 71.4428269,49.1547794 C71.4782683,49.1586127 71.5124257,49.1702262 71.5428587,49.1887902 C71.8689626,49.2888221 72.2120718,49.3948558 72.5431772,49.514894 C72.6121992,49.5318995 72.6632155,49.5489049 72.715232,49.5659103 C81.1279106,52.3668021 91.3781742,55.4377799 101.024245,58.2536764 C118.192712,63.2322616 133.524593,67.3355681 133.524593,67.3355681 C156.151352,72.0146285 172.392238,91.9252905 172.42898,115.030754 C172.455656,127.407548 167.722324,139.320744 159.208771,148.304348 C174.741205,156.8148 184.393837,173.120757 184.383795,190.831889 Z" fill="url(#linearGradient-1)" fill-rule="nonzero" transform="translate(119.854741, 129.759269) rotate(38.015660) translate(-119.854741, -129.759269) "></path>
                        <path d="M182.848613,187.137451 C182.845254,202.208179 175.837116,216.421219 163.883737,225.59965 C151.930358,234.778081 136.389823,237.879096 121.829177,233.991369 C119.528444,233.202118 117.261722,232.411866 115.013006,231.622615 C101.208611,226.764068 88.5555824,222.041564 78.7694666,217.595149 C77.1899637,216.873919 75.6794827,216.170695 74.2680333,215.466471 C74.2510279,215.466471 74.2510279,215.466471 74.2340225,215.449465 C72.2395512,214.34349 70.3436619,213.068408 68.5672182,211.638252 C64.004431,207.942626 60.3031609,203.295727 57.7217651,198.021917 C55.3056335,193.020821 53.9663319,187.568193 53.7905057,182.016821 L53.7905057,38.9532699 C53.7832295,29.5786639 58.9187236,20.9554895 67.1647717,16.4961196 C62.5122904,19.3290216 57.7037594,24.4626561 57.7037594,30.3175203 C57.7037594,37.2537287 63.7826949,43.1596091 69.907645,45.4603417 C69.9430864,45.464175 69.9772438,45.4757885 70.0076769,45.4943525 C70.3337807,45.5943844 70.6768899,45.7004181 71.0079954,45.8204563 C71.0770173,45.8374617 71.1280336,45.8544672 71.1800501,45.8714726 C79.5927287,48.6723644 89.8429923,51.7433422 99.4890636,54.5592387 C116.65753,59.5378239 131.989412,63.6411304 131.989412,63.6411304 C154.61617,68.3201908 170.857056,88.2308528 170.893799,111.336316 C170.920474,123.71311 166.187143,135.626306 157.673589,144.60991 C173.206023,153.120363 182.858655,169.426319 182.848613,187.137451 Z" stroke="#1A2936" stroke-width="0.500059246" transform="translate(118.319559, 126.064832) rotate(38.015660) translate(-118.319559, -126.064832) "></path>
                    </g>
                    <g transform="translate(174.654810, 174.654810) rotate(45.000000) translate(-174.654810, -174.654810) translate(55.567660, 46.742759)">
                        <path d="M184.383795,190.831889 C184.380436,205.902617 177.372297,220.115657 165.418919,229.294088 C153.46554,238.472519 137.925005,241.573534 123.364358,237.685807 C121.063626,236.896555 118.796904,236.106304 116.548188,235.317053 C102.743793,230.458506 90.0907643,225.736002 80.3046485,221.289586 C78.7251456,220.568357 77.2146646,219.865133 75.8032152,219.160909 C75.7862098,219.160909 75.7862098,219.160909 75.7692044,219.143903 C73.7747331,218.037927 71.8788438,216.762846 70.1024001,215.33269 C65.5396129,211.637064 61.8383428,206.990164 59.256947,201.716354 C56.8408154,196.715258 55.5015138,191.262631 55.3256875,185.711258 L55.3256875,42.6477076 C55.3184114,33.2731016 60.4539055,24.6499272 68.6999536,20.1905573 C64.0474723,23.0234593 59.2389412,28.1570938 59.2389412,34.011958 C59.2389412,40.9481664 65.3178767,46.8540468 71.4428269,49.1547794 C71.4782683,49.1586127 71.5124257,49.1702262 71.5428587,49.1887902 C71.8689626,49.2888221 72.2120718,49.3948558 72.5431772,49.514894 C72.6121992,49.5318995 72.6632155,49.5489049 72.715232,49.5659103 C81.1279106,52.3668021 91.3781742,55.4377799 101.024245,58.2536764 C118.192712,63.2322616 133.524593,67.3355681 133.524593,67.3355681 C156.151352,72.0146285 172.392238,91.9252905 172.42898,115.030754 C172.455656,127.407548 167.722324,139.320744 159.208771,148.304348 C174.741205,156.8148 184.393837,173.120757 184.383795,190.831889 Z" fill="url(#linearGradient-2)" fill-rule="nonzero" transform="translate(119.854741, 129.759269) rotate(38.015660) translate(-119.854741, -129.759269) "></path>
                        <path d="M182.848613,187.137451 C182.845254,202.208179 175.837116,216.421219 163.883737,225.59965 C151.930358,234.778081 136.389823,237.879096 121.829177,233.991369 C119.528444,233.202118 117.261722,232.411866 115.013006,231.622615 C101.208611,226.764068 88.5555824,222.041564 78.7694666,217.595149 C77.1899637,216.873919 75.6794827,216.170695 74.2680333,215.466471 C74.2510279,215.466471 74.2510279,215.466471 74.2340225,215.449465 C72.2395512,214.34349 70.3436619,213.068408 68.5672182,211.638252 C64.004431,207.942626 60.3031609,203.295727 57.7217651,198.021917 C55.3056335,193.020821 53.9663319,187.568193 53.7905057,182.016821 L53.7905057,38.9532699 C53.7832295,29.5786639 58.9187236,20.9554895 67.1647717,16.4961196 C62.5122904,19.3290216 57.7037594,24.4626561 57.7037594,30.3175203 C57.7037594,37.2537287 63.7826949,43.1596091 69.907645,45.4603417 C69.9430864,45.464175 69.9772438,45.4757885 70.0076769,45.4943525 C70.3337807,45.5943844 70.6768899,45.7004181 71.0079954,45.8204563 C71.0770173,45.8374617 71.1280336,45.8544672 71.1800501,45.8714726 C79.5927287,48.6723644 89.8429923,51.7433422 99.4890636,54.5592387 C116.65753,59.5378239 131.989412,63.6411304 131.989412,63.6411304 C154.61617,68.3201908 170.857056,88.2308528 170.893799,111.336316 C170.920474,123.71311 166.187143,135.626306 157.673589,144.60991 C173.206023,153.120363 182.858655,169.426319 182.848613,187.137451 Z" stroke="#1A2936" stroke-width="0.500059246" transform="translate(118.319559, 126.064832) rotate(38.015660) translate(-118.319559, -126.064832) "></path>
                    </g>
                </g>
            </g>
        </g>
    </g>
</svg>