<?xml version="1.0" encoding="UTF-8"?>
<svg width="13px" height="17px" viewBox="0 0 13 17" version="1.1" xmlns="http://www.w3.org/2000/svg" xmlns:xlink="http://www.w3.org/1999/xlink">
    <title>colored_pin</title>
    <defs>
        <linearGradient x1="50%" y1="0%" x2="50%" y2="100%" id="linearGradient-1">
            <stop stop-color="#00B7FC" offset="0%"></stop>
            <stop stop-color="#31CDFE" offset="100%"></stop>
        </linearGradient>
    </defs>
    <g id="Page-1" stroke="none" stroke-width="1" fill="none" fill-rule="evenodd">
        <g id="colored_pin" transform="translate(-0.000519, 0.000000)" fill="url(#linearGradient-1)" fill-rule="nonzero">
            <path d="M6.4725191,16.264 L6.4725191,16.264 C5.30111234,15.4195493 4.21705593,14.4601124 3.2365191,13.4 C2.36756052,12.478553 1.61984472,11.4498977 1.0115191,10.339 C0.377285464,9.21185677 0.030082923,7.94599271 0.000519097509,6.653 C-0.0445457521,3.03059092 2.85024486,0.0548427832 6.4725191,0 C10.0953431,0.0542983656 12.9910243,3.03004244 12.9465191,6.653 C12.9165677,7.94574978 12.5690203,9.21127583 11.9345191,10.338 C11.3262932,11.4492658 10.5785723,12.4782642 9.7095191,13.4 C8.72861336,14.460407 7.64422939,15.4201722 6.4725191,16.265 L6.4725191,16.264 Z M6.4725191,3.679 C5.01750606,3.69984566 3.85416646,4.89495339 3.8725191,6.35 C3.85360685,7.80560236 5.01695104,9.00160968 6.4725191,9.023 C7.92785137,9.0010628 9.09087815,7.80538181 9.0725191,6.35 C9.09031863,4.89517414 7.92729656,3.70039262 6.4725191,3.679 L6.4725191,3.679 Z" id="Исключение_1-2"></path>
        </g>
    </g>
</svg>