<svg width="208" height="186" viewBox="0 0 208 186" fill="none" xmlns="http://www.w3.org/2000/svg">
<path d="M138.967 185.644H56.504C53.9314 185.644 51.4641 184.622 49.645 182.803C47.8259 180.984 46.804 178.517 46.804 175.944V10.0511C46.804 7.47847 47.8259 5.01124 49.645 3.19214C51.4641 1.37304 53.9314 0.351074 56.504 0.351074L138.967 0.351074C141.54 0.351074 144.007 1.37304 145.826 3.19214C147.645 5.01124 148.667 7.47847 148.667 10.0511V175.945C148.667 178.518 147.645 180.985 145.826 182.804C144.007 184.623 141.54 185.645 138.967 185.645" fill="#1D2238"/>
<path d="M51.741 14.5249H143.728V171.475H51.741V14.5249Z" fill="#EDF1F8"/>
<path d="M105.918 8.01695H89.5532C89.2031 8.01695 88.8673 7.87788 88.6198 7.63033C88.3722 7.38278 88.2332 7.04704 88.2332 6.69695C88.2332 6.34687 88.3722 6.01112 88.6198 5.76357C88.8673 5.51602 89.2031 5.37695 89.5532 5.37695H105.919C106.269 5.37695 106.605 5.51602 106.853 5.76357C107.1 6.01112 107.239 6.34687 107.239 6.69695C107.239 7.04704 107.1 7.38278 106.853 7.63033C106.605 7.87788 106.268 8.01695 105.918 8.01695Z" fill="white"/>
<path d="M98.3591 112.965H106.977C109.636 110.898 111.607 108.074 112.629 104.865C109.707 105.137 106.948 106.338 104.758 108.292C105.768 106.672 106.36 104.827 106.482 102.922C106.582 101.015 106.525 99.1035 106.312 97.2061C102.992 98.9834 100.488 101.975 99.3212 105.555C99.1037 103.652 98.6045 101.791 97.8401 100.034C97.2782 102.177 96.9456 104.373 96.8481 106.586C96.8301 108.8 97.0541 111.173 98.3581 112.962" fill="#651FB4"/>
<path d="M143.728 113.017H51.741V171.475H143.728V113.017Z" fill="white"/>
<path d="M98.423 86.001H93.261V113.016H98.423V86.001Z" fill="#1D2238"/>
<path d="M114.782 86.0021H78.2021C77.9302 86.0021 77.6609 85.9485 77.4096 85.8445C77.1583 85.7404 76.93 85.5878 76.7377 85.3955C76.5454 85.2032 76.3928 84.9749 76.2888 84.7236C76.1847 84.4724 76.1311 84.2031 76.1311 83.9311V69.6031C76.1311 66.9059 77.2026 64.3191 79.1099 62.4118C81.0171 60.5046 83.6039 59.4331 86.3011 59.4331H114.782V86.0021Z" fill="url(#paint0_linear_1_325)"/>
<path d="M110.901 67.9551H76.1311V72.7181H110.901V67.9551Z" fill="#D5F5FF"/>
<path d="M121.962 86.0021H106.406V67.4461C106.406 65.3209 107.25 63.2828 108.753 61.7801C110.256 60.2773 112.294 59.4331 114.419 59.4331H115.143C117.268 59.4331 119.306 60.2773 120.809 61.7801C122.312 63.2828 123.156 65.3209 123.156 67.4461V84.8071C123.155 85.1236 123.028 85.4268 122.805 85.6506C122.581 85.8745 122.278 86.0008 121.961 86.0021" fill="#1D2238"/>
<path d="M59.988 122.919L62.347 122.865L64.7061 122.824L69.4241 122.744C72.5694 122.702 75.715 122.669 78.861 122.644C82.007 122.611 85.152 122.604 88.298 122.584L97.735 122.564L107.172 122.583C110.318 122.603 113.463 122.609 116.609 122.643C119.755 122.677 122.9 122.705 126.046 122.743L130.765 122.824L133.124 122.865L135.483 122.919L133.124 122.973L130.765 123.014L126.046 123.095C122.901 123.137 119.755 123.17 116.609 123.195C113.463 123.228 110.318 123.235 107.172 123.255L97.735 123.274L88.298 123.254C85.152 123.235 82.007 123.227 78.861 123.194C75.715 123.161 72.5701 123.132 69.4241 123.094L64.7061 123.014L62.347 122.973L59.988 122.919Z" fill="#D8DEE8"/>
<path d="M59.988 132.615L62.347 132.561L64.7061 132.52L69.4241 132.44C72.5694 132.398 75.715 132.365 78.861 132.34C82.007 132.307 85.152 132.3 88.298 132.28L97.735 132.26L107.172 132.279C110.318 132.299 113.463 132.305 116.609 132.339C119.755 132.373 122.9 132.401 126.046 132.439L130.765 132.52L133.124 132.561L135.483 132.615L133.124 132.669L130.765 132.71L126.046 132.791C122.901 132.833 119.755 132.867 116.609 132.891C113.463 132.924 110.318 132.931 107.172 132.951L97.735 132.97L88.298 132.95C85.152 132.931 82.007 132.923 78.861 132.89C75.715 132.857 72.5701 132.828 69.4241 132.79L64.7061 132.71L62.347 132.669L59.988 132.615Z" fill="#D8DEE8"/>
<path d="M59.988 142.308L62.347 142.254L64.7061 142.213L69.4241 142.133C72.5694 142.091 75.715 142.058 78.861 142.033C82.007 142 85.152 141.993 88.298 141.973L97.735 141.953L107.172 141.972C110.318 141.992 113.463 141.998 116.609 142.032C119.755 142.066 122.9 142.094 126.046 142.132L130.765 142.213L133.124 142.254L135.483 142.308L133.124 142.362L130.765 142.403L126.046 142.484C122.901 142.526 119.755 142.559 116.609 142.584C113.463 142.617 110.318 142.624 107.172 142.644L97.735 142.663L88.298 142.643C85.152 142.624 82.007 142.616 78.861 142.583C75.715 142.55 72.5701 142.521 69.4241 142.483L64.7061 142.403L62.347 142.362L59.988 142.308Z" fill="#D8DEE8"/>
<path d="M59.988 151.999L62.347 151.945L64.7061 151.904L69.4241 151.824C72.5694 151.782 75.715 151.749 78.861 151.724C82.007 151.691 85.152 151.684 88.298 151.664L97.735 151.644L107.172 151.663C110.318 151.683 113.463 151.689 116.609 151.723C119.755 151.757 122.9 151.785 126.046 151.823L130.765 151.904L133.124 151.945L135.483 151.999L133.124 152.053L130.765 152.094L126.046 152.175C122.901 152.217 119.755 152.25 116.609 152.275C113.463 152.308 110.318 152.315 107.172 152.335L97.735 152.354L88.298 152.334C85.152 152.315 82.007 152.307 78.861 152.274C75.715 152.241 72.5701 152.212 69.4241 152.174L64.7061 152.094L62.347 152.053L59.988 151.999Z" fill="#D8DEE8"/>
<path d="M59.988 161.691L62.347 161.637L64.7061 161.596L69.4241 161.516C72.5694 161.474 75.715 161.441 78.861 161.416C82.007 161.383 85.152 161.376 88.298 161.356L97.735 161.336L107.172 161.355C110.318 161.375 113.463 161.381 116.609 161.415C119.755 161.449 122.9 161.477 126.046 161.515L130.765 161.596L133.124 161.637L135.483 161.691L133.124 161.745L130.765 161.786L126.046 161.867C122.901 161.909 119.755 161.942 116.609 161.967C113.463 162 110.318 162.007 107.172 162.027L97.735 162.046L88.298 162.026C85.152 162.007 82.007 161.999 78.861 161.966C75.715 161.933 72.5701 161.904 69.4241 161.866L64.7061 161.786L62.347 161.745L59.988 161.691Z" fill="#D8DEE8"/>
<path d="M96.925 112.964H83.6249C81.3072 112.376 79.1625 111.245 77.3677 109.665C75.573 108.085 74.1798 106.101 73.303 103.876C77.6273 103.523 81.9203 104.859 85.2809 107.603C82.6502 105.798 80.5066 103.37 79.041 100.536C77.5755 97.7024 76.8334 94.55 76.881 91.3599C80.4877 92.0684 83.7243 94.0381 86.011 96.9159C88.2379 99.7738 90.06 102.925 91.426 106.281C91.2381 103.367 91.849 100.457 93.1929 97.8639C96.3113 102.24 97.6451 107.639 96.925 112.964Z" fill="url(#paint1_linear_1_325)"/>
<path d="M32.584 140.568H14.296L14.326 140.646C16.6928 146.815 17.3274 153.514 16.161 160.018L13.214 176.509C12.405 181.036 15.424 185.275 19.457 185.275H27.44C31.468 185.275 34.485 181.046 33.685 176.523L30.74 159.881C29.5883 153.396 30.2266 146.719 32.586 140.569" fill="url(#paint2_linear_1_325)"/>
<path d="M13.0925 177.748C13.1045 177.331 13.1475 176.916 13.2214 176.505L13.6755 173.962H33.238L33.6902 176.521C33.7622 176.926 33.8043 177.336 33.8162 177.748H13.0925Z" fill="url(#paint3_linear_1_325)"/>
<path d="M14.2893 170.492L14.967 166.701H31.9456L32.6184 170.492H14.2893Z" fill="#31CDFE"/>
<path d="M21.3311 140.809C21.2727 140.809 21.2162 140.788 21.1723 140.749C21.1283 140.711 21.0998 140.658 21.0921 140.6C21.0501 140.3 16.7921 109.856 6.09706 85.4299C6.07146 85.3713 6.0702 85.305 6.09355 85.2454C6.11689 85.1859 6.16294 85.138 6.22155 85.1124C6.28017 85.0868 6.34655 85.0856 6.40609 85.1089C6.46563 85.1323 6.51346 85.1783 6.53906 85.2369C17.2601 109.726 21.5281 140.23 21.5691 140.537C21.5734 140.568 21.5716 140.6 21.5636 140.631C21.5556 140.662 21.5416 140.69 21.5225 140.716C21.5033 140.741 21.4794 140.762 21.4521 140.778C21.4247 140.794 21.3945 140.805 21.3631 140.809H21.3311Z" fill="#1D2238"/>
<path d="M16.5801 116.667C16.5801 116.667 13.0711 110.491 2.43506 110.335C2.43506 110.335 7.95306 120.035 16.5801 116.667Z" fill="#1D2238"/>
<path d="M18.011 123.402C18.011 123.402 16.886 116.146 24.554 107.702C24.554 107.702 26.314 119.102 18.011 123.402Z" fill="#1D2238"/>
<path d="M21.0821 138.862C21.0821 138.862 19.9571 131.606 27.6251 123.162C27.6251 123.162 29.3851 134.562 21.0821 138.862Z" fill="#1D2238"/>
<path d="M6.31909 127.329C6.31909 127.329 12.5611 125.554 20.4331 133.752C20.4331 133.752 10.6271 136.531 6.31909 127.329Z" fill="#1D2238"/>
<path d="M13.8581 106.279C13.8581 106.279 12.9351 100.33 19.2231 93.4028C19.2231 93.4028 20.6661 102.748 13.8581 106.279Z" fill="#1D2238"/>
<path d="M3.01807 95.8643C3.01807 95.8643 7.03607 94.9244 11.8601 100.387C11.8601 100.387 5.54807 101.858 3.01807 95.8643Z" fill="#1D2238"/>
<path d="M9.54813 92.9301C9.54813 92.9301 8.93313 89.4791 12.5071 85.3301C12.5071 85.3301 13.4691 90.7521 9.54813 92.9301Z" fill="#1D2238"/>
<path d="M5.77202 83.255C5.77202 83.255 7.89103 81.586 5.20603 76.605C2.52103 71.624 1.74402 81.517 3.49502 82.675C5.24602 83.833 5.77202 83.256 5.77202 83.256" fill="url(#paint4_linear_1_325)"/>
<path d="M6.80705 86.4659C6.80705 86.4659 3.63605 87.7529 1.09705 80.6659C-1.44195 73.5789 8.29706 80.2429 8.02206 83.2579C7.74706 86.2729 6.80805 86.4669 6.80805 86.4669" fill="url(#paint5_linear_1_325)"/>
<path d="M205.077 46.817V46.81L141.249 34.984C140.917 34.9133 140.575 34.9098 140.241 34.9737C139.908 35.0376 139.591 35.1677 139.309 35.3562C139.027 35.5446 138.786 35.7878 138.599 36.0711C138.412 36.3545 138.285 36.6724 138.223 37.006L131.203 74.878C131.142 75.207 131.147 75.5448 131.217 75.872L131.267 76.065C131.4 76.5125 131.655 76.9145 132.002 77.2267C132.349 77.5388 132.776 77.749 133.235 77.834L197.309 89.707C197.768 89.792 198.242 89.7486 198.678 89.5815C199.114 89.4144 199.495 89.1301 199.78 88.76L199.896 88.598C200.079 88.3178 200.204 88.004 200.265 87.675L207.282 49.801C207.345 49.4592 207.338 49.108 207.26 48.7692C207.182 48.4304 207.036 48.1111 206.829 47.8313C206.623 47.5514 206.362 47.3169 206.061 47.1423C205.76 46.9676 205.427 46.8566 205.082 46.816" fill="url(#paint6_linear_1_325)"/>
<path d="M173.797 64.0869C176.122 65.9429 178.385 67.8679 180.633 69.8089C182.881 71.7499 185.098 73.7259 187.299 75.7189C189.5 77.7119 191.68 79.7289 193.836 81.7709C195.992 83.8129 198.127 85.8799 200.202 88.0119C197.876 86.1569 195.613 84.2319 193.365 82.2909C191.117 80.3499 188.9 78.3739 186.7 76.3799C184.5 74.3859 182.32 72.3699 180.164 70.3269C178.008 68.2839 175.873 66.2179 173.797 64.0869Z" fill="#1A2936"/>
<path d="M131.141 75.2169C133.841 73.9709 136.578 72.8109 139.321 71.6719C142.064 70.5329 144.821 69.4359 147.592 68.3629C150.363 67.2899 153.14 66.2439 155.932 65.2319C158.724 64.2199 161.532 63.2379 164.365 62.3389C161.665 63.5859 158.929 64.7459 156.186 65.8859C153.443 67.0259 150.686 68.1219 147.915 69.1939C145.144 70.2659 142.366 71.3109 139.574 72.3239C136.782 73.3369 133.974 74.3179 131.142 75.2179" fill="#1A2936"/>
<path d="M207.264 49.762C203.964 50.987 200.696 52.274 197.423 53.562L192.523 55.516C191.706 55.84 190.893 56.172 190.079 56.503L187.638 57.497L185.197 58.49L182.762 59.497L177.894 61.516C177.082 61.85 176.273 62.194 175.464 62.536L173.037 63.562L172.112 63.953C171.091 64.3845 169.966 64.5068 168.876 64.3049C167.787 64.1029 166.78 63.5856 165.982 62.817L165.259 62.117L163.359 60.29C162.725 59.682 162.096 59.069 161.459 58.466L157.637 54.837L155.726 53.025L153.803 51.225L151.88 49.425C151.239 48.825 150.599 48.225 149.952 47.625L146.08 44.047C143.48 41.677 140.891 39.304 138.251 36.979L138.189 37.043L165.684 63.743C166.513 64.5475 167.561 65.0889 168.696 65.2993C169.832 65.5096 171.004 65.3794 172.066 64.925L207.3 49.85L207.264 49.762Z" fill="#1A2936"/>
<path d="M125.231 68.1433L116.211 66.4713C116.164 66.4613 116.115 66.4608 116.068 66.4698C116.021 66.4788 115.976 66.4972 115.936 66.5239C115.897 66.5506 115.862 66.5849 115.836 66.625C115.81 66.6651 115.792 66.7101 115.783 66.7573L114.791 72.1103C114.782 72.1565 114.782 72.2041 114.791 72.2503L114.798 72.2773C114.817 72.3405 114.853 72.3973 114.902 72.4415C114.951 72.4856 115.011 72.5153 115.076 72.5273L124.131 74.2053C124.196 74.2173 124.263 74.2111 124.324 74.1875C124.386 74.1638 124.44 74.1236 124.48 74.0713L124.496 74.0483C124.522 74.0088 124.539 73.9646 124.548 73.9183L125.54 68.5663C125.549 68.5179 125.548 68.4682 125.537 68.4202C125.526 68.3723 125.505 68.3271 125.475 68.2875C125.446 68.2479 125.409 68.2148 125.367 68.1902C125.324 68.1655 125.277 68.1499 125.228 68.1443" fill="url(#paint7_linear_1_325)"/>
<path d="M120.811 70.5845C121.14 70.8465 121.459 71.1185 121.777 71.3935C122.095 71.6685 122.408 71.9475 122.719 72.2285C123.03 72.5095 123.338 72.7955 123.643 73.0835C123.948 73.3715 124.249 73.6645 124.543 73.9655C124.214 73.7035 123.894 73.4315 123.577 73.1565C123.26 72.8815 122.946 72.6025 122.635 72.3215C122.324 72.0405 122.016 71.7545 121.711 71.4665C121.406 71.1785 121.105 70.8855 120.811 70.5845Z" fill="#1A2936"/>
<path d="M114.783 72.1574C115.165 71.9814 115.551 71.8174 115.939 71.6574C116.327 71.4974 116.717 71.3414 117.108 71.1894C117.499 71.0374 117.892 70.8894 118.287 70.7474C118.682 70.6054 119.078 70.4654 119.479 70.3384C119.097 70.5144 118.711 70.6784 118.323 70.8384C117.935 70.9984 117.545 71.1544 117.154 71.3064C116.763 71.4584 116.37 71.6064 115.975 71.7484C115.58 71.8904 115.184 72.0304 114.783 72.1574Z" fill="#1A2936"/>
<path d="M125.546 68.5591C125.08 68.7321 124.618 68.9141 124.155 69.0951L123.463 69.3711L123.118 69.5111L122.773 69.6511L122.428 69.7911L122.084 69.9331L121.396 70.2181L121.053 70.3621L120.71 70.5071L120.579 70.5621C120.435 70.6229 120.276 70.6401 120.122 70.6115C119.968 70.5829 119.826 70.5097 119.713 70.4011L119.613 70.3011L119.345 70.0431C119.255 69.9571 119.167 69.8701 119.076 69.7851L118.536 69.2721L118.266 69.0161L117.994 68.7611L117.722 68.5061C117.631 68.4211 117.541 68.3361 117.45 68.2521L116.903 67.7461C116.536 67.4111 116.17 67.0761 115.797 66.7461L115.788 66.7551L119.674 70.5281C119.791 70.6414 119.939 70.7178 120.099 70.7475C120.259 70.7772 120.424 70.759 120.574 70.6951L125.553 68.5651L125.546 68.5591Z" fill="#1A2936"/>
<path d="M117.461 74.9886L111.874 76.5358C111.845 76.5432 111.817 76.5564 111.793 76.5746C111.769 76.5928 111.749 76.6157 111.733 76.6419C111.718 76.668 111.708 76.697 111.704 76.7271C111.7 76.7571 111.703 76.7876 111.711 76.8168L112.629 80.1327C112.636 80.1617 112.65 80.1889 112.668 80.2128L112.675 80.228C112.704 80.2588 112.74 80.2812 112.78 80.2926C112.82 80.3041 112.863 80.3042 112.903 80.293L118.512 78.7393C118.552 78.7281 118.589 78.7061 118.617 78.6755C118.646 78.6449 118.665 78.607 118.673 78.566L118.676 78.5491C118.68 78.5196 118.678 78.4896 118.67 78.4609L117.752 75.145C117.744 75.1148 117.729 75.0866 117.709 75.0623C117.689 75.038 117.665 75.0181 117.637 75.0038C117.609 74.9895 117.579 74.9811 117.547 74.9791C117.516 74.9772 117.485 74.9818 117.455 74.9925" fill="url(#paint8_linear_1_325)"/>
<path d="M115.625 77.5991C115.885 77.6573 116.142 77.7234 116.398 77.7909C116.655 77.8584 116.911 77.9304 117.169 78.0028C117.426 78.0752 117.677 78.1534 117.931 78.2334C118.184 78.3134 118.436 78.3955 118.686 78.4848C118.427 78.4267 118.17 78.3606 117.913 78.2931C117.657 78.2256 117.4 78.1536 117.142 78.0812C116.885 78.0088 116.634 77.9306 116.38 77.8507C116.127 77.7707 115.875 77.6885 115.625 77.5991Z" fill="#1A2936"/>
<path d="M112.635 80.1619C112.803 79.9565 112.978 79.7557 113.154 79.5567C113.329 79.3577 113.507 79.1619 113.687 78.9633C113.866 78.7648 114.053 78.5744 114.234 78.3853C114.414 78.1962 114.605 78.0063 114.798 77.8235C114.63 78.0289 114.455 78.2297 114.279 78.4287C114.104 78.6277 113.925 78.8236 113.746 79.0221C113.567 79.2206 113.38 79.411 113.199 79.6001C113.019 79.7893 112.828 79.9791 112.635 80.1619Z" fill="#1A2936"/>
<path d="M117.749 75.1409C117.531 75.3681 117.319 75.5994 117.107 75.8307L116.791 76.1794L116.633 76.354L116.476 76.5295L116.319 76.705L116.163 76.8814L115.851 77.2337L115.695 77.4106L115.541 77.5883L115.481 77.6562C115.416 77.7309 115.331 77.785 115.236 77.8117C115.14 77.8384 115.039 77.8365 114.945 77.8063L114.859 77.779L114.635 77.7069L114.411 77.6349L113.961 77.4934L113.737 77.4226L113.512 77.3532L113.287 77.2838L113.061 77.2144L112.61 77.0783C112.309 76.9893 112.007 76.9004 111.704 76.8176L111.703 76.8252L114.955 77.8936C115.053 77.9259 115.158 77.9284 115.258 77.9009C115.357 77.8735 115.446 77.8172 115.514 77.7392L117.753 75.1499L117.749 75.1409Z" fill="#1A2936"/>
<defs>
<linearGradient id="paint0_linear_1_325" x1="95.4566" y1="59.4331" x2="95.4566" y2="86.0021" gradientUnits="userSpaceOnUse">
<stop stop-color="#00B7FC"/>
<stop offset="1" stop-color="#31CDFE"/>
</linearGradient>
<linearGradient id="paint1_linear_1_325" x1="85.2098" y1="91.3599" x2="85.2098" y2="112.964" gradientUnits="userSpaceOnUse">
<stop stop-color="#721FBD"/>
<stop offset="1" stop-color="#3A1E96"/>
</linearGradient>
<linearGradient id="paint2_linear_1_325" x1="23.4483" y1="140.568" x2="23.4483" y2="185.275" gradientUnits="userSpaceOnUse">
<stop stop-color="#721FBD"/>
<stop offset="1" stop-color="#3A1E96"/>
</linearGradient>
<linearGradient id="paint3_linear_1_325" x1="23.4543" y1="173.962" x2="23.4543" y2="177.748" gradientUnits="userSpaceOnUse">
<stop stop-color="#00B7FC"/>
<stop offset="1" stop-color="#31CDFE"/>
</linearGradient>
<linearGradient id="paint4_linear_1_325" x1="2.55786" y1="75.2124" x2="6.8259" y2="75.8288" gradientUnits="userSpaceOnUse">
<stop stop-color="#721FBD"/>
<stop offset="1" stop-color="#3A1E96"/>
</linearGradient>
<linearGradient id="paint5_linear_1_325" x1="4.35105" y1="77.5161" x2="4.35105" y2="86.5573" gradientUnits="userSpaceOnUse">
<stop stop-color="#721FBD"/>
<stop offset="1" stop-color="#3A1E96"/>
</linearGradient>
<linearGradient id="paint6_linear_1_325" x1="204.278" y1="52.1421" x2="146.988" y2="87.772" gradientUnits="userSpaceOnUse">
<stop stop-color="#00B7FC"/>
<stop offset="1" stop-color="#31CDFE"/>
</linearGradient>
<linearGradient id="paint7_linear_1_325" x1="125.115" y1="68.8962" x2="117.019" y2="73.9302" gradientUnits="userSpaceOnUse">
<stop stop-color="#00B7FC"/>
<stop offset="1" stop-color="#31CDFE"/>
</linearGradient>
<linearGradient id="paint8_linear_1_325" x1="117.602" y1="75.45" x2="114.396" y2="80.5488" gradientUnits="userSpaceOnUse">
<stop stop-color="#00B7FC"/>
<stop offset="1" stop-color="#31CDFE"/>
</linearGradient>
</defs>
</svg>
