<?xml version="1.0" encoding="UTF-8"?>
<svg width="69px" height="200px" viewBox="0 0 69 200" version="1.1" xmlns="http://www.w3.org/2000/svg" xmlns:xlink="http://www.w3.org/1999/xlink">
    <title>Artboard</title>
    <defs>
        <linearGradient x1="74.2%" y1="53.3%" x2="111.7%" y2="64%" id="linearGradient-1">
            <stop stop-color="#00CFFF" offset="0%"></stop>
            <stop stop-color="#0074FF" offset="100%"></stop>
        </linearGradient>
        <linearGradient x1="112.8%" y1="82.1%" x2="35%" y2="73.4%" id="linearGradient-2">
            <stop stop-color="#00CFFF" offset="0%"></stop>
            <stop stop-color="#0074FF" offset="100%"></stop>
        </linearGradient>
    </defs>
    <g id="Artboard" stroke="none" stroke-width="1" fill="none" fill-rule="evenodd">
        <g id="contact-us-right-shape" transform="translate(-157.253302, -102.921909)">
            <g id="Mask_Group_12" transform="translate(225.772439, 223.388229) rotate(90.000000) translate(-225.772439, -223.388229) translate(2.384210, -2.384210)">
                <g id="Group_13183" transform="translate(223.388229, 225.772439) rotate(19.014406) translate(-223.388229, -225.772439) translate(48.650062, 47.186481)">
                    <g id="Group_13180" transform="translate(174.738168, 182.433750) rotate(45.000000) translate(-174.738168, -182.433750) translate(55.594180, 54.460651)">
                        <path d="M184.471796,190.922968 C184.468436,206.000889 177.456952,220.220712 165.497869,229.403524 C153.538785,238.586336 137.990833,241.68883 123.423237,237.799248 C121.121406,237.00962 118.853603,236.218991 116.603814,235.429363 C102.79283,230.568497 90.1337622,225.84374 80.3429757,221.395202 C78.7627189,220.673628 77.2515171,219.970068 75.839394,219.265508 C75.8223805,219.265508 75.8223805,219.265508 75.805367,219.248495 C73.8099438,218.141991 71.9131496,216.866301 70.1358581,215.435462 C65.5708932,211.738073 61.8678566,207.088955 59.2852287,201.812628 C56.867944,196.809145 55.5280031,191.353916 55.352093,185.799893 L55.352093,42.6680622 C55.3448134,33.288982 60.4827585,24.6616919 68.7327422,20.2001937 C64.0780404,23.0344478 59.2672144,28.1705324 59.2672144,34.028191 C59.2672144,40.9677099 65.3490512,46.876409 71.4769246,49.1782396 C71.512383,49.1820748 71.5465567,49.1936939 71.5770042,49.2122667 C71.9032637,49.3123463 72.2465367,49.4184307 72.5778001,49.5385262 C72.6468551,49.5555397 72.6978957,49.5725532 72.749937,49.5895668 C81.1666307,52.3917953 91.4217865,55.4642388 101.072462,58.2814793 C118.249122,63.2624406 133.588321,67.3677055 133.588321,67.3677055 C156.225878,72.0489992 172.474516,91.969164 172.511276,115.085655 C172.537964,127.468356 167.802374,139.387238 159.284757,148.37513 C174.824604,156.889644 184.481843,173.203382 184.471796,190.922968 Z" id="Path_46" fill="url(#linearGradient-1)" fill-rule="nonzero" transform="translate(119.911944, 129.821200) rotate(38.015660) translate(-119.911944, -129.821200) "></path>
                        <path d="M182.935881,187.226767 C182.932521,202.304688 175.921038,216.524511 163.961954,225.707323 C152.002871,234.890135 136.454919,237.992629 121.887322,234.103047 C119.585492,233.313419 117.317688,232.52279 115.067899,231.733162 C101.256915,226.872296 88.5978476,222.147539 78.8070611,217.699001 C77.2268043,216.977427 75.7156025,216.273867 74.3034795,215.569307 C74.2864659,215.569307 74.2864659,215.569307 74.2694524,215.552294 C72.2740292,214.44579 70.3772351,213.1701 68.5999435,211.739261 C64.0349786,208.041872 60.331942,203.392754 57.7493141,198.116427 C55.3320294,193.112944 53.9920886,187.657715 53.8161784,182.103692 L53.8161784,38.9718612 C53.8088988,29.592781 58.9468439,20.965491 67.1968276,16.5039928 C62.5421258,19.3382468 57.7312998,24.4743315 57.7312998,30.33199 C57.7312998,37.2715089 63.8131366,43.180208 69.94101,45.4820387 C69.9764684,45.4858738 70.0106421,45.4974929 70.0410896,45.5160657 C70.3673491,45.6161453 70.7106221,45.7222297 71.0418856,45.8423252 C71.1109405,45.8593387 71.1619811,45.8763523 71.2140225,45.8933658 C79.6307162,48.6955944 89.885872,51.7680378 99.536547,54.5852784 C116.713207,59.5662397 132.052407,63.6715045 132.052407,63.6715045 C154.689964,68.3527982 170.938602,88.272963 170.975362,111.389454 C171.002049,123.772155 166.266459,135.691037 157.748843,144.678929 C173.28869,153.193443 182.945929,169.507181 182.935881,187.226767 Z" id="Path_122" stroke="#1A2936" stroke-width="0.500297911" transform="translate(118.376030, 126.124999) rotate(38.015660) translate(-118.376030, -126.124999) "></path>
                    </g>
                    <g id="Group_13182" transform="translate(174.738168, 174.738168) rotate(45.000000) translate(-174.738168, -174.738168) translate(55.594180, 46.765068)">
                        <path d="M184.471796,190.922968 C184.468436,206.000889 177.456952,220.220712 165.497869,229.403524 C153.538785,238.586336 137.990833,241.68883 123.423237,237.799248 C121.121406,237.00962 118.853603,236.218991 116.603814,235.429363 C102.79283,230.568497 90.1337622,225.84374 80.3429757,221.395202 C78.7627189,220.673628 77.2515171,219.970068 75.839394,219.265508 C75.8223805,219.265508 75.8223805,219.265508 75.805367,219.248495 C73.8099438,218.141991 71.9131496,216.866301 70.1358581,215.435462 C65.5708932,211.738073 61.8678566,207.088955 59.2852287,201.812628 C56.867944,196.809145 55.5280031,191.353916 55.352093,185.799893 L55.352093,42.6680622 C55.3448134,33.288982 60.4827585,24.6616919 68.7327422,20.2001937 C64.0780404,23.0344478 59.2672144,28.1705324 59.2672144,34.028191 C59.2672144,40.9677099 65.3490512,46.876409 71.4769246,49.1782396 C71.512383,49.1820748 71.5465567,49.1936939 71.5770042,49.2122667 C71.9032637,49.3123463 72.2465367,49.4184307 72.5778001,49.5385262 C72.6468551,49.5555397 72.6978957,49.5725532 72.749937,49.5895668 C81.1666307,52.3917953 91.4217865,55.4642388 101.072462,58.2814793 C118.249122,63.2624406 133.588321,67.3677055 133.588321,67.3677055 C156.225878,72.0489992 172.474516,91.969164 172.511276,115.085655 C172.537964,127.468356 167.802374,139.387238 159.284757,148.37513 C174.824604,156.889644 184.481843,173.203382 184.471796,190.922968 Z" id="Path_46-2" fill="url(#linearGradient-2)" fill-rule="nonzero" transform="translate(119.911944, 129.821200) rotate(38.015660) translate(-119.911944, -129.821200) "></path>
                        <path d="M182.935881,187.226767 C182.932521,202.304688 175.921038,216.524511 163.961954,225.707323 C152.002871,234.890135 136.454919,237.992629 121.887322,234.103047 C119.585492,233.313419 117.317688,232.52279 115.067899,231.733162 C101.256915,226.872296 88.5978476,222.147539 78.8070611,217.699001 C77.2268043,216.977427 75.7156025,216.273867 74.3034795,215.569307 C74.2864659,215.569307 74.2864659,215.569307 74.2694524,215.552294 C72.2740292,214.44579 70.3772351,213.1701 68.5999435,211.739261 C64.0349786,208.041872 60.331942,203.392754 57.7493141,198.116427 C55.3320294,193.112944 53.9920886,187.657715 53.8161784,182.103692 L53.8161784,38.9718612 C53.8088988,29.592781 58.9468439,20.965491 67.1968276,16.5039928 C62.5421258,19.3382468 57.7312998,24.4743315 57.7312998,30.33199 C57.7312998,37.2715089 63.8131366,43.180208 69.94101,45.4820387 C69.9764684,45.4858738 70.0106421,45.4974929 70.0410896,45.5160657 C70.3673491,45.6161453 70.7106221,45.7222297 71.0418856,45.8423252 C71.1109405,45.8593387 71.1619811,45.8763523 71.2140225,45.8933658 C79.6307162,48.6955944 89.885872,51.7680378 99.536547,54.5852784 C116.713207,59.5662397 132.052407,63.6715045 132.052407,63.6715045 C154.689964,68.3527982 170.938602,88.272963 170.975362,111.389454 C171.002049,123.772155 166.266459,135.691037 157.748843,144.678929 C173.28869,153.193443 182.945929,169.507181 182.935881,187.226767 Z" id="Path_122-2" stroke="#1A2936" stroke-width="0.500297911" transform="translate(118.376030, 126.124999) rotate(38.015660) translate(-118.376030, -126.124999) "></path>
                    </g>
                </g>
            </g>
        </g>
    </g>
</svg>