<?xml version="1.0" encoding="UTF-8"?>
<svg width="202px" height="192px" viewBox="0 0 202 192" version="1.1" xmlns="http://www.w3.org/2000/svg" xmlns:xlink="http://www.w3.org/1999/xlink">
    <title>Group_14674</title>
    <defs>
        <rect id="path-1" x="0" y="0" width="201.031" height="191.462"></rect>
        <linearGradient x1="50%" y1="0%" x2="50%" y2="100%" id="linearGradient-3">
            <stop stop-color="#00B7FC" offset="0%"></stop>
            <stop stop-color="#31CDFE" offset="100%"></stop>
        </linearGradient>
        <linearGradient x1="50%" y1="0%" x2="50%" y2="100%" id="linearGradient-4">
            <stop stop-color="#721FBD" offset="0%"></stop>
            <stop stop-color="#3A1E96" offset="100%"></stop>
        </linearGradient>
        <linearGradient x1="50%" y1="0%" x2="50%" y2="100%" id="linearGradient-5">
            <stop stop-color="#00B7FC" offset="0%"></stop>
            <stop stop-color="#31CDFE" offset="100%"></stop>
        </linearGradient>
        <linearGradient x1="50%" y1="0%" x2="50%" y2="100%" id="linearGradient-6">
            <stop stop-color="#721FBD" offset="0%"></stop>
            <stop stop-color="#3A1E96" offset="100%"></stop>
        </linearGradient>
        <linearGradient x1="50%" y1="0%" x2="50%" y2="100%" id="linearGradient-7">
            <stop stop-color="#00B7FC" offset="0%"></stop>
            <stop stop-color="#31CDFE" offset="100%"></stop>
        </linearGradient>
    </defs>
    <g id="Page-1" stroke="none" stroke-width="1" fill="none" fill-rule="evenodd">
        <g id="contact-us-header" transform="translate(0.237000, 0.250000)">
            <g id="Group_14674" transform="translate(0.000000, 0.000000)">
                <g id="Group_14672-Clipped">
                    <mask id="mask-2" fill="white">
                        <use xlink:href="#path-1"></use>
                    </mask>
                    <g id="Rectangle_8261"></g>
                    <g id="Group_14672" mask="url(#mask-2)" fill-rule="nonzero">
                        <g transform="translate(0.000000, -0.000505)">
                            <path d="M179.771,159.918505 L22.917,159.918505 C19.3271491,159.918505 16.417,157.008356 16.417,153.418505 L16.417,48.3645052 C16.417,44.7746543 19.3271491,41.8645052 22.917,41.8645052 L179.771,41.8645052 C183.360851,41.8645052 186.271,44.7746543 186.271,48.3645052 L186.271,153.420505 C186.271,157.010356 183.360851,159.920505 179.771,159.920505" id="Path_4741" fill="#2D366C"></path>
                            <rect id="Rectangle_8257" fill="#FFFFFF" x="24.766" y="50.2135052" width="153.155" height="101.356"></rect>
                            <path d="M16.418,137.732505 L16.418,153.419505 C16.418,157.009356 19.3281491,159.919505 22.918,159.919505 L179.77,159.919505 C183.359851,159.919505 186.27,157.009356 186.27,153.419505 L186.27,137.732505 L16.418,137.732505 Z" id="Path_4742" fill="#2D366C"></path>
                            <path d="M135.384,186.217505 L123.7,174.531505 L76.981,174.531505 L65.294,186.217505 C64.577,186.935505 64.994,191.462505 66.465,191.462505 L134.214,191.462505 C135.689,191.462505 135.994,186.826505 135.385,186.217505" id="Path_4743" fill="#2D366C"></path>
                            <path d="M123.698,174.529505 L121.331,159.917505 L79.348,159.917505 L76.981,174.529505 L65.295,186.216505 C65.295,186.216505 134.823,186.391505 135.385,186.216505 L123.698,174.529505 Z" id="Path_4744" fill="#22294D"></path>
                            <polygon id="Path_4745" fill="#F2CF53" points="147.152 128.473505 60.105 128.473505 55.535 82.5195052 147.152 75.6645052"></polygon>
                            <polygon id="Path_4746" fill="#F0C73D" points="103.629 111.822505 55.535 82.5225052 147.152 75.6645052"></polygon>
                            <polyline id="Path_4747" fill="#F5DE6C" points="147.152 75.6645052 103.197 108.134505 55.535 82.5195052"></polyline>
                            <rect id="Rectangle_8258" fill="#FFFFFF" x="117.682" y="118.711505" width="20.269" height="1.472"></rect>
                            <rect id="Rectangle_8259" fill="#FFFFFF" x="117.682" y="116.293505" width="20.269" height="1.472"></rect>
                            <rect id="Rectangle_8260" fill="#FFFFFF" x="117.682" y="121.130505" width="20.269" height="1.472"></rect>
                            <path d="M191.142,191.462505 C191.142,191.462505 213.392,157.910505 191.142,117.762505 C191.142,117.762505 155.177,144.399505 168.112,191.462505 L191.142,191.462505 Z" id="Path_4748" fill="url(#linearGradient-3)"></path>
                            <path d="M165.707,164.042505 C165.733,163.803505 165.759,163.564505 165.787,163.326505 C169.422626,168.626458 173.566946,173.558848 178.161,178.053505 C179.205,169.815505 180.591,161.270505 182.141,153.136505 L182.123,153.149505 C179.022416,148.624808 176.167297,143.936711 173.57,139.105505 C173.661333,138.938172 173.753,138.771505 173.845,138.605505 C176.403167,143.382418 179.213465,148.019962 182.264,152.498505 C184.964,138.428505 188.147,125.664505 190.874,117.971505 C191.047,117.836505 191.143,117.764505 191.143,117.764505 C191.206,117.877505 191.263,117.990505 191.326,118.103505 C188.619,125.711505 185.457,138.380505 182.765,152.373505 C189.115,147.540505 194.589,143.129505 199.307,139.038505 C199.346,139.215505 199.388,139.393505 199.426,139.569505 C194.638,143.711505 189.084,148.178505 182.631,153.078505 C181.061,161.312505 179.658,169.978505 178.608,178.318505 C185.92024,175.795629 192.975185,172.581074 199.677,168.718505 C199.636333,168.927172 199.595,169.134839 199.553,169.341505 C192.865236,173.168871 185.829778,176.353778 178.541,178.853505 C178.003,183.184505 177.561,187.424505 177.241,191.465505 L176.763,191.465505 C177.087,187.365505 177.538,183.053505 178.088,178.650505 C173.490858,174.203166 169.344075,169.312776 165.708,164.050505" id="Path_4749" fill="#FFFFFF"></path>
                            <path d="M160.252,191.461505 C160.252,191.461505 147.115,171.649505 160.252,147.946505 C160.252,147.946505 181.488,163.674505 173.852,191.461505 L160.252,191.461505 Z" id="Path_4750" fill="url(#linearGradient-4)"></path>
                            <path d="M175.27,175.271505 C175.254,175.130505 175.239,174.989505 175.223,174.848505 C173.076635,177.979386 170.629692,180.89321 167.917,183.548505 C167.3,178.684505 166.482,173.638505 165.567,168.835505 L165.578,168.843505 C167.408247,166.171699 169.093997,163.40373 170.628,160.551505 L170.465,160.251505 C168.955065,163.071123 167.296049,165.808332 165.495,168.451505 C164.258247,161.549772 162.559765,154.738806 160.411,148.064505 C160.311,147.985505 160.252,147.942505 160.252,147.942505 C160.215,148.009505 160.181,148.075505 160.144,148.142505 C162.282208,154.766131 163.971044,161.526486 165.199,168.377505 C161.45,165.524505 158.218,162.919505 155.432,160.504505 C155.409,160.604505 155.384,160.714505 155.362,160.818505 C158.189,163.263505 161.468,165.901505 165.279,168.795505 C166.207,173.657505 167.034,178.772505 167.654,183.695505 C163.336491,182.204914 159.170968,180.305985 155.214,178.024505 C155.238,178.147505 155.262,178.269505 155.286,178.391505 C159.234864,180.65172 163.389117,182.532467 167.693,184.008505 C168.011,186.566505 168.271,189.069505 168.459,191.455505 L168.741,191.455505 C168.55,189.032505 168.284,186.487505 167.959,183.888505 C170.673722,181.261946 173.122283,178.373582 175.269,175.265505" id="Path_4751" fill="#FFFFFF"></path>
                            <path d="M8.868,191.462505 C8.868,191.462505 -11.085,161.373505 8.868,125.371505 C8.868,125.371505 41.121,149.259505 29.521,191.462505 L8.868,191.462505 Z" id="Path_4752" fill="url(#linearGradient-5)"></path>
                            <path d="M31.678,166.872505 C31.654,166.658505 31.632,166.443505 31.606,166.230505 C28.3446624,170.983614 24.6270253,175.406932 20.506,179.437505 C19.57,172.049505 18.327,164.386505 16.937,157.091505 L16.954,157.103505 C19.7341732,153.045771 22.2945234,148.841723 24.624,144.509505 C24.542,144.359505 24.46,144.209505 24.378,144.061505 C22.0844033,148.345445 19.5645086,152.504323 16.829,156.520505 C14.405,143.902505 11.553,132.456505 9.107,125.556505 C8.952,125.435505 8.865,125.370505 8.865,125.370505 C8.809,125.470505 8.757,125.570505 8.701,125.670505 C11.129,132.493505 13.964,143.854505 16.379,156.402505 C10.685,152.068505 5.779,148.112505 1.545,144.444505 C1.51,144.602505 1.473,144.762505 1.439,144.920505 C5.733,148.634505 10.713,152.640505 16.501,157.034505 C17.909,164.418505 19.167,172.188505 20.108,179.669505 C13.5504893,177.405734 7.22384214,174.521675 1.214,171.056505 C1.25,171.243839 1.287,171.430172 1.325,171.615505 C7.32257731,175.050955 13.632504,177.909759 20.17,180.153505 C20.652,184.037505 21.049,187.838505 21.334,191.462505 L21.763,191.462505 C21.473,187.782505 21.068,183.917505 20.575,179.969505 C24.6973563,175.979016 28.4154114,171.591042 31.675,166.869505" id="Path_4753" fill="#FFFFFF"></path>
                            <path d="M44.207,191.462505 C44.207,191.462505 58.745,169.538505 44.207,143.306505 C44.207,143.306505 20.707,160.712505 29.159,191.462505 L44.207,191.462505 Z" id="Path_4754" fill="url(#linearGradient-6)"></path>
                            <path d="M27.587,173.545505 C27.604,173.389505 27.62,173.233505 27.639,173.078505 C30.0147795,176.541363 32.7225945,179.764283 35.724,182.701505 C36.406,177.318505 37.313,171.734505 38.324,166.419505 L38.312,166.427505 C36.2857519,163.471307 34.4200544,160.408212 32.723,157.251505 C32.782,157.142505 32.843,157.033505 32.902,156.925505 C34.5729811,160.046615 36.4089117,163.076568 38.402,166.002505 C39.7700665,158.364686 41.6496305,150.827387 44.028,143.441505 L44.203,143.306505 C44.245,143.380505 44.282,143.454505 44.323,143.528505 C41.9571373,150.858621 40.0882316,158.339923 38.729,165.921505 C42.879,162.763505 46.456,159.880505 49.538,157.207505 C49.563,157.323505 49.591,157.439505 49.615,157.554505 C46.487,160.261505 42.858,163.180505 38.641,166.381505 C37.615,171.762505 36.698,177.423505 36.012,182.874505 C40.7902624,181.225786 45.4001821,179.124584 49.779,176.599505 C49.752,176.735505 49.725,176.871505 49.698,177.006505 C45.3281398,179.50791 40.7308892,181.589229 35.968,183.222505 C35.616,186.052505 35.328,188.822505 35.12,191.462505 L34.807,191.462505 C35.019,188.781505 35.314,185.962505 35.672,183.088505 C32.6683342,180.181597 29.9591791,176.985076 27.584,173.545505" id="Path_4755" fill="#FFFFFF"></path>
                            <path d="M79.467,30.0305052 C78.9743927,28.4520364 77.6452574,27.2782045 76.018,26.9845052 C75.7373177,24.6842083 74.4542392,22.6256045 72.5126854,21.3604891 C70.5711315,20.0953738 68.1696711,19.7531341 65.952,20.4255052 C64.7111099,14.0241308 59.090665,9.41172847 52.5702067,9.44360829 C46.0497485,9.47582001 40.4749106,14.1432433 39.297,20.5565052 C38.9779242,20.5203665 38.6571137,20.501672 38.336,20.5005052 C35.0077779,20.5031299 31.9731962,22.4058106 30.521,25.4005052 C28.1059681,24.7293742 25.5630312,25.9241252 24.538,28.2115052 C24.477,28.2115052 24.419,28.1935052 24.357,28.1935052 C23.2965674,28.1954097 22.4021271,28.9837155 22.267,30.0355052 L79.467,30.0305052 Z" id="Path_4756" fill="#E9F0FD"></path>
                            <path d="M164.455,29.4595052 C164.270561,28.6352202 163.610213,28.0016649 162.779,27.8515052 C162.645449,26.7617287 162.037314,25.7866068 161.117423,25.1872317 C160.197533,24.5878567 159.059853,24.4254531 158.009,24.7435052 C157.420132,21.7111369 154.757292,19.5266169 151.668313,19.5417021 C148.579333,19.5569442 145.938069,21.7675017 145.379,24.8055052 C143.247129,24.5606001 141.286213,25.9986049 140.879,28.1055052 C140.820084,28.0959188 140.760642,28.0899078 140.701,28.0875052 C139.915091,28.0891466 139.253284,28.6755148 139.157,29.4555052 L164.455,29.4595052 Z" id="Path_4757" fill="#E9F0FD"></path>
                            <path d="M120.583,12.9175052 C120.341951,11.8444103 119.482194,11.0197046 118.4,10.8235052 C118.226795,9.40422333 117.435037,8.13410501 116.237001,7.35367469 C115.038966,6.57324437 113.55721,6.36233972 112.189,6.77750522 C111.42424,2.82725979 107.956382,-0.019471846 103.932837,6.21724894e-15 C99.9092925,0.019672455 96.4692931,2.90000671 95.743,6.85750522 C95.546449,6.83509311 95.3488226,6.82340911 95.151,6.82250522 C92.5843777,6.82340581 90.3773421,8.64074277 89.884,11.1595052 C89.8072359,11.1467265 89.7297544,11.1387111 89.652,11.1355052 C88.6287638,11.1374151 87.7670662,11.9009392 87.642,12.9165052 L120.583,12.9175052 Z" id="Path_4758" fill="#E9F0FD"></path>
                            <path d="M118.234,38.9825052 C115.270021,32.1809749 108.5166,27.8199113 101.097934,27.9167848 C93.6792683,28.0136584 87.0420243,32.5495784 84.2566557,39.4261841 C81.4712871,46.3027899 83.0809505,54.1791191 88.341,59.4115052 C87.697,60.9545052 86.549,64.5835052 86.549,64.5835052 C86.549,64.5835052 89.849,62.5675052 91.279,61.7965052 C98.1005112,66.2541844 107.040086,65.7011419 113.26014,60.4366525 C119.480194,55.1721632 121.503028,46.4469125 118.234,38.9825052" id="Path_4759" fill="url(#linearGradient-7)"></path>
                        </g>
                    </g>
                </g>
                <g id="hi_" transform="translate(88.715000, 33.340000)" fill="#FFFFFF" fill-rule="nonzero" font-family="Helvetica" font-size="19" font-weight="normal">
                    <text id="hi!">
                        <tspan x="0" y="19">hi!</tspan>
                    </text>
                </g>
            </g>
        </g>
    </g>
</svg>