<?xml version="1.0" encoding="UTF-8"?>
<svg width="69px" height="165px" viewBox="0 0 69 165" version="1.1" xmlns="http://www.w3.org/2000/svg" xmlns:xlink="http://www.w3.org/1999/xlink">
    <title>Artboard</title>
    <defs>
        <linearGradient x1="74.2%" y1="46.7%" x2="111.7%" y2="36%" id="linearGradient-1">
            <stop stop-color="#00CFFF" offset="0%"></stop>
            <stop stop-color="#0074FF" offset="100%"></stop>
        </linearGradient>
        <linearGradient x1="112.8%" y1="17.9%" x2="35%" y2="26.6%" id="linearGradient-2">
            <stop stop-color="#00CFFF" offset="0%"></stop>
            <stop stop-color="#0074FF" offset="100%"></stop>
        </linearGradient>
    </defs>
    <g id="Artboard" stroke="none" stroke-width="1" fill="none" fill-rule="evenodd">
        <g id="contact-us-left-shape" transform="translate(-248.373219, -113.495343)">
            <g id="Mask_Group_14265" transform="translate(217.641114, 214.922345) rotate(90.000000) translate(-217.641114, -214.922345) translate(2.718768, -2.718768)">
                <g id="Group_13183" transform="translate(214.922345, 217.641114) rotate(15.008914) translate(-214.922345, -217.641114) translate(40.267888, 39.140701)">
                    <g id="Group_13180" transform="translate(174.654457, 174.654457) rotate(-45.000000) translate(-174.654457, -174.654457) translate(55.567806, 46.742406)">
                        <path d="M184.382796,64.9922125 C184.379436,49.9214844 177.371297,35.7084443 165.417919,26.5300132 C153.46454,17.351582 137.924005,14.2505676 123.363358,18.1382944 C121.062626,18.9275457 118.795904,19.7177973 116.547188,20.5070486 C102.742793,25.3655956 90.089764,30.0880992 80.3036482,34.5345149 C78.7241453,35.2557445 77.2136644,35.9589684 75.802215,36.6631927 C75.7852095,36.6631927 75.7852095,36.6631927 75.7682041,36.6801981 C73.7737328,37.7861739 71.8778436,39.0612556 70.1013998,40.4914115 C65.5386126,44.1870371 61.8373426,48.833937 59.2559467,54.1077469 C56.8406296,59.1070061 55.5013488,64.5575038 55.3246873,70.106841 L55.3246873,213.176394 C55.3174111,222.551 60.4529052,231.174174 68.6989533,235.633544 C64.046472,232.800642 59.2369407,227.667007 59.2369407,221.812143 C59.2369407,214.875935 65.3158762,208.970054 71.4408263,206.669322 C71.4762677,206.665488 71.5104252,206.653875 71.5408582,206.635311 C71.866962,206.535279 72.2100712,206.429245 72.5411767,206.309207 C72.6101986,206.292202 72.6612149,206.275196 72.7132314,206.258191 C81.12591,203.457299 91.3761736,200.386321 101.022245,197.570425 C118.190711,192.59184 133.522593,188.488533 133.522593,188.488533 C156.149351,183.809473 172.390237,163.898811 172.42698,140.793347 C172.455802,128.417174 167.725011,116.503702 159.213773,107.518753 C174.743574,99.0068919 184.393672,82.7017119 184.382796,64.9922125 L184.382796,64.9922125 Z" id="Path_46" fill="url(#linearGradient-1)" fill-rule="nonzero" transform="translate(119.853741, 126.064832) rotate(-38.015660) translate(-119.853741, -126.064832) "></path>
                        <path d="M182.848614,68.6866502 C182.845254,53.6159221 175.837115,39.402882 163.883737,30.2244509 C151.930358,21.0460197 136.389823,17.9450053 121.829176,21.8327321 C119.528444,22.6219834 117.261722,23.412235 115.013006,24.2014863 C101.208611,29.0600333 88.5555823,33.7825369 78.7694664,38.2289526 C77.1899635,38.9501822 75.6794826,39.6534061 74.2680332,40.3576304 C74.2510278,40.3576304 74.2510278,40.3576304 74.2340224,40.3746358 C72.239551,41.4806116 70.3436618,42.7556933 68.5672181,44.1858493 C64.0044308,47.8814748 60.3031608,52.5283747 57.7217649,57.8021846 C55.3064478,62.8014438 53.9671671,68.2519415 53.7905055,73.8012787 L53.7905055,216.870831 C53.7832293,226.245437 58.9187234,234.868612 67.1647715,239.327982 C62.5122902,236.49508 57.7027589,231.361445 57.7027589,225.506581 C57.7027589,218.570372 63.7816944,212.664492 69.9066445,210.36376 C69.942086,210.359926 69.9762434,210.348313 70.0066764,210.329749 C70.3327802,210.229717 70.6758895,210.123683 71.0069949,210.003645 C71.0760169,209.986639 71.1270331,209.969634 71.1790497,209.952629 C79.5917282,207.151737 89.8419919,204.080759 99.4880631,201.264862 C116.656529,196.286277 131.988411,192.182971 131.988411,192.182971 C154.615169,187.50391 170.856056,167.593248 170.892798,144.487785 C170.92162,132.111612 166.190829,120.19814 157.679591,111.21319 C173.209392,102.70133 182.85949,86.3961496 182.848614,68.6866502 L182.848614,68.6866502 Z" id="Path_122" stroke="#1A2936" stroke-width="0.500059246" transform="translate(118.319560, 129.759270) rotate(-38.015660) translate(-118.319560, -129.759270) "></path>
                    </g>
                    <g id="Group_13182" transform="translate(174.654457, 182.346368) rotate(-45.000000) translate(-174.654457, -182.346368) translate(55.567806, 54.434317)">
                        <path d="M184.382796,64.9922125 C184.379436,49.9214844 177.371297,35.7084443 165.417919,26.5300132 C153.46454,17.351582 137.924005,14.2505676 123.363358,18.1382944 C121.062626,18.9275457 118.795904,19.7177973 116.547188,20.5070486 C102.742793,25.3655956 90.089764,30.0880992 80.3036482,34.5345149 C78.7241453,35.2557445 77.2136644,35.9589684 75.802215,36.6631927 C75.7852095,36.6631927 75.7852095,36.6631927 75.7682041,36.6801981 C73.7737328,37.7861739 71.8778436,39.0612556 70.1013998,40.4914115 C65.5386126,44.1870371 61.8373426,48.833937 59.2559467,54.1077469 C56.8406296,59.1070061 55.5013488,64.5575038 55.3246873,70.106841 L55.3246873,213.176394 C55.3174111,222.551 60.4529052,231.174174 68.6989533,235.633544 C64.046472,232.800642 59.2369407,227.667007 59.2369407,221.812143 C59.2369407,214.875935 65.3158762,208.970054 71.4408263,206.669322 C71.4762677,206.665488 71.5104252,206.653875 71.5408582,206.635311 C71.866962,206.535279 72.2100712,206.429245 72.5411767,206.309207 C72.6101986,206.292202 72.6612149,206.275196 72.7132314,206.258191 C81.12591,203.457299 91.3761736,200.386321 101.022245,197.570425 C118.190711,192.59184 133.522593,188.488533 133.522593,188.488533 C156.149351,183.809473 172.390237,163.898811 172.42698,140.793347 C172.455802,128.417174 167.725011,116.503702 159.213773,107.518753 C174.743574,99.0068919 184.393672,82.7017119 184.382796,64.9922125 L184.382796,64.9922125 Z" id="Path_46-2" fill="url(#linearGradient-2)" fill-rule="nonzero" transform="translate(119.853741, 126.064832) rotate(-38.015660) translate(-119.853741, -126.064832) "></path>
                        <path d="M182.848614,68.6866502 C182.845254,53.6159221 175.837115,39.402882 163.883737,30.2244509 C151.930358,21.0460197 136.389823,17.9450053 121.829176,21.8327321 C119.528444,22.6219834 117.261722,23.412235 115.013006,24.2014863 C101.208611,29.0600333 88.5555823,33.7825369 78.7694664,38.2289526 C77.1899635,38.9501822 75.6794826,39.6534061 74.2680332,40.3576304 C74.2510278,40.3576304 74.2510278,40.3576304 74.2340224,40.3746358 C72.239551,41.4806116 70.3436618,42.7556933 68.5672181,44.1858493 C64.0044308,47.8814748 60.3031608,52.5283747 57.7217649,57.8021846 C55.3064478,62.8014438 53.9671671,68.2519415 53.7905055,73.8012787 L53.7905055,216.870831 C53.7832293,226.245437 58.9187234,234.868612 67.1647715,239.327982 C62.5122902,236.49508 57.7027589,231.361445 57.7027589,225.506581 C57.7027589,218.570372 63.7816944,212.664492 69.9066445,210.36376 C69.942086,210.359926 69.9762434,210.348313 70.0066764,210.329749 C70.3327802,210.229717 70.6758895,210.123683 71.0069949,210.003645 C71.0760169,209.986639 71.1270331,209.969634 71.1790497,209.952629 C79.5917282,207.151737 89.8419919,204.080759 99.4880631,201.264862 C116.656529,196.286277 131.988411,192.182971 131.988411,192.182971 C154.615169,187.50391 170.856056,167.593248 170.892798,144.487785 C170.92162,132.111612 166.190829,120.19814 157.679591,111.21319 C173.209392,102.70133 182.85949,86.3961496 182.848614,68.6866502 L182.848614,68.6866502 Z" id="Path_122-2" stroke="#1A2936" stroke-width="0.500059246" transform="translate(118.319560, 129.759270) rotate(-38.015660) translate(-118.319560, -129.759270) "></path>
                    </g>
                </g>
            </g>
        </g>
    </g>
</svg>