<svg width="24" height="24" viewBox="0 0 24 24" fill="none" xmlns="http://www.w3.org/2000/svg">
<mask id="mask0_1_13534" style="mask-type:luminance" maskUnits="userSpaceOnUse" x="0" y="0" width="24" height="24">
<path d="M24 0H0V24H24V0Z" fill="white"/>
</mask>
<g mask="url(#mask0_1_13534)">
<path d="M1.241 3.724H22.759C23.0881 3.724 23.4038 3.85475 23.6365 4.08748C23.8693 4.32021 24 4.63587 24 4.965V19.034C24 19.197 23.9679 19.3583 23.9055 19.5089C23.8432 19.6595 23.7518 19.7963 23.6365 19.9115C23.5213 20.0268 23.3845 20.1182 23.2339 20.1805C23.0833 20.2429 22.922 20.275 22.759 20.275H1.241C1.07803 20.275 0.916655 20.2429 0.76609 20.1805C0.615525 20.1182 0.478718 20.0268 0.36348 19.9115C0.248243 19.7963 0.156832 19.6595 0.0944655 19.5089C0.0320994 19.3583 0 19.197 0 19.034L0 4.965C0 4.63587 0.130748 4.32021 0.36348 4.08748C0.596213 3.85475 0.911866 3.724 1.241 3.724Z" fill="#00B2E8"/>
<path d="M13.486 11.702L23.798 19.709C23.686 19.8838 23.5317 20.0274 23.3494 20.1266C23.167 20.2257 22.9626 20.2771 22.755 20.276H1.241C1.03344 20.2771 0.828986 20.2257 0.646632 20.1266C0.464279 20.0274 0.309951 19.8838 0.197998 19.709L10.51 11.702H13.486Z" fill="#1BBBED"/>
<path d="M23.578 4.041L12.986 12.086C12.7012 12.3013 12.354 12.4178 11.997 12.4178C11.64 12.4178 11.2928 12.3013 11.008 12.086L0.414001 4.041C0.639104 3.83624 0.932701 3.72315 1.237 3.724H22.754C23.0583 3.72315 23.3519 3.83624 23.577 4.041H23.578Z" fill="#31CDFC"/>
</g>
</svg>
