<svg width="146" height="147" viewBox="0 0 146 147" fill="none" xmlns="http://www.w3.org/2000/svg">
<mask id="mask0_1_74" style="mask-type:luminance" maskUnits="userSpaceOnUse" x="0" y="0" width="148" height="147">
<path d="M147.001 0.952148H0.577148V146.609H147.001V0.952148Z" fill="white"/>
</mask>
<g mask="url(#mask0_1_74)">
<mask id="mask1_1_74" style="mask-type:luminance" maskUnits="userSpaceOnUse" x="0" y="0" width="148" height="147">
<path d="M147.001 0.952148H0.577148V146.609H147.001V0.952148Z" fill="white"/>
</mask>
<g mask="url(#mask1_1_74)">
<g opacity="0.298">
<mask id="mask2_1_74" style="mask-type:luminance" maskUnits="userSpaceOnUse" x="0" y="0" width="148" height="147">
<path d="M147.001 0.952148H0.577148V146.609H147.001V0.952148Z" fill="white"/>
</mask>
<g mask="url(#mask2_1_74)">
<path d="M145.355 1.69616C142.249 2.68691 139.496 4.5554 137.428 7.07616L87.4592 67.9902C84.8936 71.1263 83.5242 75.0712 83.5949 79.1224C83.6656 83.1737 85.1717 87.0684 87.8452 90.1132L136.726 145.648L136.941 145.891H137.213V145.133L88.3892 89.6432C85.8257 86.7279 84.3811 82.9969 84.3129 79.1154C84.2448 75.234 85.5576 71.4546 88.0172 68.4512L137.986 7.53416C139.96 5.11926 142.593 3.32977 145.565 2.38316V2.62616C145.8 2.56733 146.039 2.52919 146.28 2.51216V1.41016L145.355 1.69616ZM68.1552 123.47L63.8192 122.941C63.7435 122.929 63.6668 122.924 63.5902 122.927C63.1384 122.929 62.7029 123.096 62.3655 123.396C62.0281 123.696 61.8121 124.11 61.7582 124.558L61.2292 128.922C61.1671 129.414 61.3025 129.909 61.6057 130.301C61.9088 130.693 62.355 130.948 62.8462 131.011L67.1822 131.54C67.4228 131.569 67.6669 131.55 67.9003 131.485C68.1336 131.419 68.3517 131.308 68.5419 131.158C68.7321 131.007 68.8906 130.821 69.0084 130.609C69.1262 130.397 69.2009 130.164 69.2282 129.923L69.7722 125.544C69.8289 125.055 69.6912 124.564 69.3886 124.175C69.0861 123.787 68.6431 123.535 68.1552 123.47ZM68.5272 129.837C68.4926 130.113 68.3588 130.366 68.1509 130.55C67.9429 130.734 67.6749 130.836 67.3972 130.837C67.3537 130.84 67.3101 130.835 67.2682 130.823L62.9322 130.294C62.7823 130.276 62.6376 130.227 62.5065 130.152C62.3755 130.077 62.2606 129.977 62.1688 129.857C62.0769 129.737 62.0098 129.6 61.9714 129.454C61.933 129.308 61.9241 129.156 61.9452 129.006L62.4742 124.642C62.5078 124.369 62.6394 124.117 62.8446 123.933C63.0498 123.749 63.3147 123.646 63.5902 123.642H63.7332L68.0692 124.186C68.3685 124.225 68.6402 124.381 68.8251 124.62C69.01 124.858 69.093 125.161 69.0562 125.46L68.5272 129.837ZM69.3862 113.352L65.0502 112.808C64.9792 112.796 64.9071 112.792 64.8352 112.794C64.3819 112.796 63.9447 112.962 63.605 113.262C63.2654 113.562 63.0465 113.976 62.9892 114.425L62.4652 118.82C62.4055 119.31 62.5421 119.803 62.8452 120.192C63.1482 120.58 63.593 120.833 64.0822 120.895L68.4182 121.424C68.9056 121.481 69.3958 121.343 69.7819 121.04C70.168 120.737 70.4186 120.294 70.4792 119.807L71.0082 115.428C71.0399 115.185 71.0231 114.939 70.9588 114.703C70.8945 114.467 70.7839 114.246 70.6334 114.053C70.483 113.86 70.2957 113.698 70.0825 113.578C69.8692 113.458 69.6342 113.382 69.3912 113.353M69.7632 119.721C69.7286 119.997 69.5948 120.25 69.3869 120.434C69.1789 120.618 68.9109 120.72 68.6332 120.721H68.5042L64.1682 120.177C64.0189 120.16 63.8745 120.114 63.7435 120.04C63.6125 119.967 63.4976 119.867 63.4056 119.749C63.3136 119.63 63.2463 119.494 63.2078 119.349C63.1692 119.203 63.1602 119.052 63.1812 118.903L63.7102 114.524C63.7413 114.246 63.8736 113.988 64.0819 113.801C64.2902 113.614 64.56 113.51 64.8402 113.508C64.8836 113.506 64.9272 113.51 64.9692 113.522L69.3052 114.051C69.4547 114.071 69.5989 114.119 69.7295 114.195C69.8601 114.27 69.9745 114.37 70.0662 114.49C70.1579 114.61 70.2251 114.746 70.2639 114.892C70.3026 115.038 70.3123 115.19 70.2922 115.339L69.7632 119.721ZM78.0342 124.686L73.6842 124.157C73.6132 124.145 73.5411 124.141 73.4692 124.143C73.0152 124.142 72.5766 124.307 72.2364 124.608C71.8962 124.909 71.678 125.324 71.6232 125.774L71.0942 130.153C71.0374 130.642 71.1752 131.134 71.4777 131.522C71.7802 131.91 72.2233 132.164 72.7112 132.228L77.0612 132.757C77.3018 132.786 77.5459 132.767 77.7793 132.702C78.0126 132.636 78.2307 132.525 78.4209 132.375C78.6111 132.224 78.7696 132.038 78.8874 131.826C79.0052 131.614 79.0799 131.381 79.1072 131.14L79.6512 126.776C79.7105 126.285 79.5741 125.791 79.2714 125.4C78.9688 125.009 78.5243 124.752 78.0342 124.686ZM78.4062 131.055C78.3716 131.331 78.2379 131.584 78.0299 131.768C77.8219 131.952 77.5539 132.054 77.2762 132.055H77.1472L72.7972 131.511C72.6484 131.493 72.5047 131.446 72.3744 131.372C72.2441 131.298 72.1298 131.198 72.038 131.08C71.9462 130.962 71.8788 130.826 71.8397 130.681C71.8006 130.537 71.7906 130.386 71.8102 130.237L72.3392 125.858C72.3737 125.583 72.5075 125.329 72.7155 125.145C72.9235 124.961 73.1914 124.859 73.4692 124.858H73.5982L77.9482 125.402C78.2466 125.443 78.517 125.6 78.7015 125.838C78.886 126.076 78.9699 126.377 78.9352 126.676L78.4062 131.055ZM79.2652 114.57L74.9292 114.026C74.8432 114.026 74.7722 114.012 74.7002 114.012C74.2463 114.015 73.809 114.184 73.4714 114.487C73.1337 114.79 72.9191 115.207 72.8682 115.658L72.3242 120.037C72.2674 120.526 72.4052 121.018 72.7077 121.406C73.0102 121.794 73.4533 122.048 73.9412 122.112L78.2912 122.656C78.7807 122.713 79.2729 122.573 79.6593 122.267C80.0458 121.961 80.295 121.515 80.3522 121.025L80.8812 116.646C80.9409 116.157 80.8042 115.664 80.5012 115.275C80.1981 114.886 79.7533 114.633 79.2642 114.571M79.6362 120.939C79.6051 121.218 79.4728 121.475 79.2645 121.662C79.0562 121.849 78.7863 121.954 78.5062 121.955C78.4627 121.958 78.4191 121.953 78.3772 121.941L74.0272 121.412C73.7276 121.368 73.4571 121.208 73.2729 120.968C73.0887 120.728 73.0052 120.425 73.0402 120.124L73.5692 115.745C73.6028 115.468 73.7358 115.212 73.9436 115.025C74.1513 114.838 74.4198 114.733 74.6992 114.729C74.7422 114.729 74.7852 114.743 74.8282 114.743L79.1782 115.287C79.3275 115.304 79.4719 115.351 79.6029 115.424C79.7338 115.498 79.8487 115.597 79.9408 115.716C80.0328 115.834 80.1 115.97 80.1386 116.116C80.1771 116.261 80.1862 116.412 80.1652 116.561L79.6362 120.939ZM131.494 145.68L130.721 144.721C130.578 144.549 130.435 144.392 130.292 144.221L84.2962 93.4782C82.9187 91.9534 81.2372 90.734 79.3598 89.8985C77.4825 89.063 75.451 88.6299 73.3962 88.6272C70.4896 88.6225 67.6485 89.4899 65.2402 91.1172L8.42717 129.137C6.65147 130.335 5.1538 131.9 4.03549 133.727C2.91718 135.554 2.20433 137.6 1.94517 139.726L1.30117 145.09L1.20117 145.89H2.14517V145.175H2.00217L2.66017 139.809C2.90595 137.786 3.58384 135.839 4.64787 134.101C5.71191 132.363 7.13722 130.874 8.82717 129.735L65.6222 91.7032C68.4117 89.8354 71.7806 89.0346 75.1122 89.4472C78.4439 89.8598 81.5155 91.4583 83.7652 93.9502L129.756 144.706C129.899 144.863 130.028 145.021 130.156 145.178V145.893H131.673L131.494 145.68Z" fill="white"/>
<path d="M68.1551 123.47L63.8191 122.941C63.7434 122.929 63.6667 122.924 63.5901 122.927C63.1383 122.929 62.7028 123.095 62.3654 123.396C62.028 123.696 61.812 124.11 61.7581 124.558L61.2291 128.922C61.167 129.413 61.3025 129.909 61.6056 130.301C61.9087 130.693 62.3549 130.948 62.8461 131.011L67.1821 131.54C67.4228 131.569 67.6668 131.55 67.9002 131.485C68.1335 131.419 68.3516 131.308 68.5418 131.158C68.732 131.007 68.8905 130.821 69.0083 130.609C69.1261 130.397 69.2008 130.164 69.2281 129.923L69.7721 125.544C69.8288 125.055 69.6911 124.564 69.3885 124.175C69.086 123.787 68.643 123.534 68.1551 123.47ZM67.3971 130.123H67.3541L63.0181 129.579C62.9067 129.565 62.8055 129.507 62.7359 129.419C62.6664 129.331 62.6342 129.219 62.6461 129.107L63.1901 124.728C63.1972 124.627 63.2424 124.532 63.3167 124.463C63.391 124.394 63.4887 124.356 63.5901 124.356H63.6471L67.9831 124.885C68.0386 124.893 68.092 124.913 68.1401 124.942C68.1882 124.971 68.2301 125.009 68.2634 125.054C68.2967 125.099 68.3207 125.151 68.334 125.205C68.3473 125.26 68.3497 125.317 68.3411 125.372L67.8121 129.751C67.7983 129.852 67.749 129.945 67.673 130.013C67.597 130.082 67.4992 130.12 67.3971 130.123ZM69.3861 113.352L65.0501 112.808C64.9791 112.796 64.907 112.792 64.8351 112.794C64.3818 112.795 63.9446 112.962 63.6049 113.262C63.2653 113.562 63.0464 113.975 62.9891 114.425L62.4601 118.818C62.4004 119.307 62.537 119.801 62.8401 120.189C63.1431 120.578 63.5879 120.831 64.0771 120.893L68.4131 121.422C68.9005 121.479 69.3907 121.341 69.7768 121.038C70.1629 120.735 70.4135 120.292 70.4741 119.805L71.0031 115.426C71.0348 115.183 71.018 114.937 70.9537 114.701C70.8894 114.465 70.7788 114.244 70.6283 114.051C70.4779 113.857 70.2906 113.696 70.0774 113.576C69.8641 113.456 69.6291 113.381 69.3861 113.352ZM68.6281 120.005H68.5851L64.2491 119.476C64.1364 119.458 64.0349 119.398 63.9656 119.307C63.8963 119.216 63.8646 119.102 63.8771 118.989L64.4211 114.61C64.4293 114.505 64.4766 114.408 64.5534 114.336C64.6303 114.265 64.7311 114.225 64.8361 114.224H64.8771L69.2131 114.768C69.3267 114.784 69.4294 114.844 69.4991 114.935C69.5687 115.026 69.5996 115.141 69.5851 115.255L69.0411 119.634C69.0298 119.736 68.9812 119.831 68.9046 119.899C68.8281 119.968 68.7289 120.006 68.6261 120.006M78.0261 124.685L73.6761 124.156C73.6051 124.144 73.533 124.14 73.4611 124.142C73.0071 124.141 72.5685 124.306 72.2283 124.607C71.8881 124.907 71.6699 125.322 71.6151 125.773L71.0861 130.152C71.0294 130.641 71.1671 131.132 71.4696 131.521C71.7721 131.909 72.2152 132.163 72.7031 132.227L77.0531 132.756C77.2937 132.785 77.5378 132.766 77.7712 132.701C78.0045 132.635 78.2226 132.524 78.4128 132.374C78.603 132.223 78.7615 132.037 78.8793 131.825C78.9971 131.613 79.0718 131.38 79.0991 131.139L79.6431 126.775C79.7024 126.284 79.566 125.79 79.2633 125.399C78.9607 125.008 78.5162 124.751 78.0261 124.685ZM77.2681 131.34H77.2271L72.8771 130.811C72.8209 130.804 72.7668 130.786 72.718 130.757C72.6692 130.728 72.6267 130.69 72.5932 130.645C72.5597 130.599 72.5359 130.547 72.5231 130.492C72.5104 130.437 72.509 130.38 72.5191 130.324L73.0481 125.945C73.0594 125.843 73.108 125.748 73.1845 125.68C73.2611 125.611 73.3603 125.573 73.4631 125.573H73.5061L77.8561 126.117C77.966 126.132 78.0654 126.191 78.1325 126.279C78.1996 126.368 78.2289 126.479 78.2141 126.589L77.6851 130.968C77.6738 131.07 77.6252 131.165 77.5486 131.233C77.4721 131.302 77.3729 131.34 77.2701 131.34M79.2591 114.569L74.9231 114.025C74.8371 114.025 74.7661 114.011 74.6941 114.011C74.2402 114.014 73.8029 114.183 73.4653 114.486C73.1276 114.789 72.913 115.206 72.8621 115.657L72.3181 120.036C72.2613 120.525 72.3991 121.016 72.7016 121.405C73.0041 121.793 73.4472 122.047 73.9351 122.111L78.2851 122.655C78.7746 122.712 79.2668 122.572 79.6532 122.266C80.0397 121.96 80.2889 121.514 80.3461 121.024L80.8751 116.645C80.9348 116.156 80.7981 115.663 80.4951 115.274C80.192 114.885 79.7472 114.632 79.2581 114.57M78.5001 121.238H78.4571L74.1071 120.694C74.0515 120.686 73.9981 120.667 73.95 120.638C73.9019 120.609 73.86 120.57 73.8268 120.525C73.7935 120.48 73.7695 120.428 73.7562 120.374C73.7428 120.319 73.7404 120.263 73.7491 120.207L74.2781 115.828C74.2889 115.724 74.3369 115.628 74.4132 115.557C74.4895 115.486 74.5889 115.445 74.6931 115.442C74.7071 115.442 74.7221 115.456 74.7361 115.456L79.0861 115.985C79.1988 116.003 79.3003 116.063 79.3696 116.154C79.4388 116.245 79.4705 116.359 79.4581 116.472L78.9141 120.851C78.9033 120.955 78.8552 121.051 78.7789 121.122C78.7026 121.193 78.6032 121.234 78.4991 121.237M78.0271 124.686L73.6771 124.157C73.6061 124.145 73.534 124.141 73.4621 124.143C73.0081 124.142 72.5695 124.307 72.2293 124.608C71.8891 124.908 71.6709 125.323 71.6161 125.774L71.0871 130.153C71.0303 130.642 71.1681 131.133 71.4706 131.522C71.7731 131.91 72.2162 132.164 72.7041 132.228L77.0541 132.757C77.2947 132.786 77.5388 132.767 77.7722 132.702C78.0055 132.636 78.2236 132.525 78.4138 132.375C78.604 132.224 78.7625 132.038 78.8803 131.826C78.9981 131.614 79.0728 131.381 79.1001 131.14L79.6441 126.776C79.7034 126.285 79.567 125.791 79.2643 125.4C78.9617 125.009 78.5172 124.752 78.0271 124.686ZM77.2691 131.341H77.2271L72.8771 130.812C72.8209 130.805 72.7668 130.787 72.718 130.758C72.6692 130.729 72.6267 130.69 72.5932 130.645C72.5597 130.599 72.5359 130.547 72.5231 130.492C72.5104 130.437 72.509 130.381 72.5191 130.325L73.0481 125.946C73.0594 125.844 73.108 125.748 73.1845 125.68C73.2611 125.611 73.3603 125.573 73.4631 125.573H73.5061L77.8561 126.117C77.966 126.132 78.0654 126.191 78.1325 126.279C78.1996 126.368 78.2289 126.479 78.2141 126.589L77.6851 130.968C77.6738 131.07 77.6252 131.166 77.5486 131.234C77.4721 131.303 77.3719 131.341 77.2691 131.341ZM68.1551 123.47L63.8191 122.941C63.7434 122.929 63.6667 122.924 63.5901 122.927C63.1383 122.929 62.7028 123.096 62.3654 123.397C62.028 123.697 61.812 124.11 61.7581 124.558L61.2291 128.922C61.167 129.413 61.3025 129.91 61.6056 130.302C61.9087 130.694 62.3549 130.948 62.8461 131.011L67.1821 131.541C67.4228 131.57 67.6668 131.551 67.9002 131.486C68.1335 131.42 68.3516 131.309 68.5418 131.159C68.732 131.008 68.8905 130.822 69.0083 130.61C69.1261 130.398 69.2008 130.165 69.2281 129.924L69.7721 125.544C69.8288 125.055 69.6911 124.565 69.3885 124.176C69.086 123.788 68.643 123.534 68.1551 123.47ZM67.3971 130.123H67.3541L63.0181 129.58C62.9067 129.566 62.8055 129.507 62.7359 129.419C62.6664 129.331 62.6342 129.22 62.6461 129.108L63.1901 124.728C63.1972 124.627 63.2424 124.532 63.3167 124.463C63.391 124.394 63.4887 124.356 63.5901 124.356H63.6471L67.9831 124.885C68.0386 124.893 68.092 124.913 68.1401 124.942C68.1882 124.971 68.2301 125.009 68.2634 125.054C68.2967 125.099 68.3207 125.151 68.334 125.205C68.3473 125.26 68.3497 125.317 68.3411 125.372L67.8121 129.752C67.7983 129.853 67.749 129.945 67.673 130.013C67.597 130.082 67.4992 130.12 67.3971 130.123ZM79.2601 114.57L74.9241 114.026C74.8381 114.026 74.7671 114.012 74.6951 114.012C74.2412 114.015 73.8039 114.184 73.4663 114.487C73.1286 114.79 72.914 115.207 72.8631 115.658L72.3191 120.037C72.2623 120.526 72.4001 121.017 72.7026 121.406C73.0051 121.794 73.4482 122.048 73.9361 122.112L78.2861 122.656C78.7756 122.713 79.2678 122.573 79.6542 122.267C80.0407 121.961 80.2899 121.515 80.3471 121.025L80.8761 116.646C80.9358 116.157 80.7991 115.664 80.4961 115.275C80.193 114.886 79.7482 114.633 79.2591 114.571M78.5011 121.239H78.4581L74.1081 120.695C74.0525 120.687 73.9991 120.668 73.951 120.639C73.9029 120.61 73.861 120.571 73.8278 120.526C73.7945 120.481 73.7705 120.429 73.7572 120.375C73.7438 120.32 73.7414 120.264 73.7501 120.208L74.2791 115.829C74.2899 115.725 74.3379 115.629 74.4142 115.558C74.4905 115.487 74.5899 115.446 74.6941 115.443C74.7081 115.443 74.7231 115.457 74.7371 115.457L79.0871 115.986C79.1998 116.004 79.3013 116.064 79.3706 116.155C79.4398 116.246 79.4715 116.36 79.4591 116.473L78.9151 120.852C78.9043 120.956 78.8563 121.052 78.78 121.123C78.7037 121.194 78.6042 121.235 78.5001 121.238M69.3861 113.352L65.0501 112.808C64.9791 112.796 64.907 112.792 64.8351 112.794C64.3818 112.795 63.9446 112.962 63.6049 113.262C63.2653 113.562 63.0464 113.975 62.9891 114.425L62.4601 118.818C62.4004 119.307 62.537 119.801 62.8401 120.189C63.1431 120.578 63.5879 120.831 64.0771 120.893L68.4131 121.422C68.9005 121.479 69.3907 121.341 69.7768 121.038C70.1629 120.735 70.4135 120.292 70.4741 119.805L71.0031 115.426C71.0348 115.183 71.018 114.937 70.9537 114.701C70.8894 114.465 70.7788 114.244 70.6283 114.051C70.4779 113.857 70.2906 113.696 70.0774 113.576C69.8641 113.456 69.6291 113.381 69.3861 113.352ZM68.6281 120.005H68.5851L64.2491 119.476C64.1364 119.458 64.0349 119.398 63.9656 119.307C63.8963 119.216 63.8646 119.102 63.8771 118.989L64.4211 114.61C64.4293 114.505 64.4766 114.408 64.5534 114.336C64.6303 114.265 64.7311 114.225 64.8361 114.224H64.8771L69.2131 114.768C69.3267 114.784 69.4294 114.844 69.4991 114.935C69.5687 115.026 69.5996 115.141 69.5851 115.255L69.0411 119.634C69.0298 119.736 68.9812 119.831 68.9046 119.899C68.8281 119.968 68.7289 120.006 68.6261 120.006M146.414 1.22402C146.233 1.09101 146.023 1.00341 145.801 0.968599C145.58 0.933792 145.353 0.952801 145.14 1.02402C141.899 2.05069 139.026 3.99606 136.869 6.62402L86.9151 67.552C84.2392 70.8151 82.8091 74.9225 82.8798 79.1419C82.9505 83.3613 84.5173 87.4184 87.3011 90.59L136.182 146.125C136.448 146.417 136.818 146.591 137.212 146.612V145.138L88.3891 89.643C85.8259 86.7279 84.3814 82.997 84.3133 79.1158C84.2451 75.2346 85.5578 71.4554 88.0171 68.452L137.986 7.53502C139.961 5.11933 142.596 3.32977 145.57 2.38402V2.62702C145.805 2.5682 146.044 2.53005 146.285 2.51302C146.519 2.45544 146.759 2.42656 147 2.42702V2.38302C147.001 2.15721 146.948 1.93446 146.846 1.73302C146.744 1.53157 146.595 1.35714 146.413 1.22402M68.1551 123.47L63.8191 122.941C63.7434 122.929 63.6667 122.924 63.5901 122.927C63.1383 122.929 62.7028 123.095 62.3654 123.396C62.028 123.696 61.812 124.11 61.7581 124.558L61.2291 128.922C61.167 129.413 61.3025 129.909 61.6056 130.301C61.9087 130.693 62.3549 130.948 62.8461 131.011L67.1821 131.54C67.4228 131.569 67.6668 131.55 67.9002 131.485C68.1335 131.419 68.3516 131.308 68.5418 131.158C68.732 131.007 68.8905 130.821 69.0083 130.609C69.1261 130.397 69.2008 130.164 69.2281 129.923L69.7721 125.544C69.8288 125.055 69.6911 124.564 69.3885 124.175C69.086 123.787 68.643 123.534 68.1551 123.47ZM67.3971 130.123H67.3541L63.0181 129.579C62.9067 129.565 62.8055 129.507 62.7359 129.419C62.6664 129.331 62.6342 129.219 62.6461 129.107L63.1901 124.728C63.1972 124.627 63.2424 124.532 63.3167 124.463C63.391 124.394 63.4887 124.356 63.5901 124.356H63.6471L67.9831 124.885C68.0386 124.893 68.092 124.913 68.1401 124.942C68.1882 124.971 68.2301 125.009 68.2634 125.054C68.2967 125.099 68.3207 125.151 68.334 125.205C68.3473 125.26 68.3497 125.317 68.3411 125.372L67.8121 129.751C67.7983 129.852 67.749 129.945 67.673 130.013C67.597 130.082 67.4992 130.12 67.3971 130.123ZM69.3861 113.352L65.0501 112.808C64.9791 112.796 64.907 112.792 64.8351 112.794C64.3818 112.795 63.9446 112.962 63.6049 113.262C63.2653 113.562 63.0464 113.975 62.9891 114.425L62.4601 118.818C62.4004 119.307 62.537 119.801 62.8401 120.189C63.1431 120.578 63.5879 120.831 64.0771 120.893L68.4131 121.422C68.9005 121.479 69.3907 121.341 69.7768 121.038C70.1629 120.735 70.4135 120.292 70.4741 119.805L71.0031 115.426C71.0348 115.183 71.018 114.937 70.9537 114.701C70.8894 114.465 70.7788 114.244 70.6283 114.051C70.4779 113.857 70.2906 113.696 70.0774 113.576C69.8641 113.456 69.6291 113.381 69.3861 113.352ZM68.6281 120.005H68.5851L64.2491 119.476C64.1364 119.458 64.0349 119.398 63.9656 119.307C63.8963 119.216 63.8646 119.102 63.8771 118.989L64.4211 114.61C64.4293 114.505 64.4766 114.408 64.5534 114.336C64.6303 114.265 64.7311 114.225 64.8361 114.224H64.8771L69.2131 114.768C69.3267 114.784 69.4294 114.844 69.4991 114.935C69.5687 115.026 69.5996 115.141 69.5851 115.255L69.0411 119.634C69.0298 119.736 68.9812 119.831 68.9046 119.899C68.8281 119.968 68.7289 120.006 68.6261 120.006M78.0261 124.685L73.6761 124.156C73.6051 124.144 73.533 124.14 73.4611 124.142C73.0071 124.141 72.5685 124.306 72.2283 124.607C71.8881 124.907 71.6699 125.322 71.6151 125.773L71.0861 130.152C71.0294 130.641 71.1671 131.132 71.4696 131.521C71.7721 131.909 72.2152 132.163 72.7031 132.227L77.0531 132.756C77.2937 132.785 77.5378 132.766 77.7712 132.701C78.0045 132.635 78.2226 132.524 78.4128 132.374C78.603 132.223 78.7615 132.037 78.8793 131.825C78.9971 131.613 79.0718 131.38 79.0991 131.139L79.6431 126.775C79.7024 126.284 79.566 125.79 79.2633 125.399C78.9607 125.008 78.5172 124.752 78.0271 124.686M77.2681 131.34H77.2271L72.8771 130.811C72.8209 130.804 72.7668 130.786 72.718 130.757C72.6692 130.728 72.6267 130.69 72.5932 130.645C72.5597 130.599 72.5359 130.547 72.5231 130.492C72.5104 130.437 72.509 130.38 72.5191 130.324L73.0481 125.945C73.0594 125.843 73.108 125.748 73.1845 125.68C73.2611 125.611 73.3603 125.573 73.4631 125.573H73.5061L77.8561 126.117C77.966 126.132 78.0654 126.191 78.1325 126.279C78.1996 126.368 78.2289 126.479 78.2141 126.589L77.6851 130.968C77.6738 131.07 77.6252 131.165 77.5486 131.233C77.4721 131.302 77.3729 131.34 77.2701 131.34M79.2591 114.569L74.9231 114.025C74.8371 114.025 74.7661 114.011 74.6941 114.011C74.2402 114.014 73.8029 114.183 73.4653 114.486C73.1276 114.789 72.913 115.206 72.8621 115.657L72.3181 120.036C72.2613 120.525 72.3991 121.016 72.7016 121.405C73.0041 121.793 73.4472 122.047 73.9351 122.111L78.2851 122.655C78.7746 122.712 79.2668 122.572 79.6532 122.266C80.0397 121.96 80.2889 121.514 80.3461 121.024L80.8751 116.645C80.9348 116.156 80.7981 115.663 80.4951 115.274C80.192 114.885 79.7472 114.632 79.2581 114.57M78.5001 121.238H78.4571L74.1071 120.694C74.0515 120.686 73.9981 120.667 73.95 120.638C73.9019 120.609 73.86 120.57 73.8268 120.525C73.7935 120.48 73.7695 120.428 73.7562 120.374C73.7428 120.319 73.7404 120.263 73.7491 120.207L74.2781 115.828C74.2889 115.724 74.3369 115.628 74.4132 115.557C74.4895 115.486 74.5889 115.445 74.6931 115.442C74.7071 115.442 74.7221 115.456 74.7361 115.456L79.0861 115.985C79.1988 116.003 79.3003 116.063 79.3696 116.154C79.4388 116.245 79.4705 116.359 79.4581 116.472L78.9141 120.851C78.9033 120.955 78.8552 121.051 78.7789 121.122C78.7026 121.193 78.6032 121.234 78.4991 121.237M131.258 144.261C131.115 144.089 130.972 143.918 130.814 143.746L84.8261 92.991C82.3481 90.2445 78.9636 88.4825 75.2925 88.0278C71.6214 87.5731 67.9093 88.4561 64.8361 90.515L8.02608 128.552C6.16425 129.804 4.59445 131.443 3.42384 133.357C2.25323 135.27 1.50938 137.414 1.24308 139.642L0.585079 145.008C0.564785 145.209 0.586104 145.411 0.647703 145.603C0.709302 145.795 0.809857 145.973 0.943079 146.124C1.07614 146.274 1.23901 146.395 1.42134 146.479C1.60366 146.563 1.80143 146.608 2.00208 146.611H2.14508V145.18H2.00208L2.66008 139.814C2.90586 137.791 3.58374 135.844 4.64778 134.106C5.71181 132.368 7.13712 130.879 8.82708 129.74L65.6221 91.703C68.412 89.835 71.7814 89.0341 75.1136 89.4472C78.4457 89.8602 81.5176 91.4594 83.7671 93.952L129.758 144.708C129.901 144.865 130.03 145.023 130.158 145.18V146.611C130.409 146.609 130.656 146.541 130.874 146.416C131.092 146.291 131.274 146.112 131.403 145.896C131.417 145.853 131.446 145.824 131.46 145.782C131.478 145.752 131.488 145.717 131.489 145.682C131.58 145.447 131.607 145.191 131.567 144.942C131.527 144.693 131.421 144.459 131.26 144.265" fill="white"/>
</g>
</g>
</g>
</g>
</svg>
