<svg width="24" height="24" viewBox="0 0 24 24" fill="none" xmlns="http://www.w3.org/2000/svg">
<mask id="mask0_1_13464" style="mask-type:luminance" maskUnits="userSpaceOnUse" x="0" y="0" width="24" height="24">
<path d="M24 0H0V24H24V0Z" fill="white"/>
</mask>
<g mask="url(#mask0_1_13464)">
<path d="M23.353 0.648007C23.1485 0.44199 22.9051 0.278626 22.637 0.16739C22.3689 0.0561544 22.0813 -0.00073974 21.791 7.26148e-06H13.377C13.0869 -0.000484891 12.7995 0.0564279 12.5314 0.167468C12.2633 0.278509 12.0198 0.441483 11.815 0.647007L0.647014 11.815C0.441739 12.0202 0.278899 12.2637 0.167797 12.5318C0.0566962 12.7999 -0.000488281 13.0873 -0.000488281 13.3775C-0.000488281 13.6677 0.0566962 13.9551 0.167797 14.2232C0.278899 14.4913 0.441739 14.7349 0.647014 14.94L9.06001 23.353C9.26516 23.5583 9.50874 23.7211 9.77684 23.8322C10.0449 23.9433 10.3323 24.0005 10.6225 24.0005C10.9127 24.0005 11.2001 23.9433 11.4682 23.8322C11.7363 23.7211 11.9799 23.5583 12.185 23.353L23.353 12.185C23.5585 11.9802 23.7215 11.7367 23.8326 11.4686C23.9436 11.2006 24.0005 10.9132 24 10.623V2.20901C24.0008 1.91896 23.944 1.63164 23.8329 1.36369C23.7218 1.09574 23.5587 0.852485 23.353 0.648007ZM19.531 5.17201C19.3926 5.17201 19.2572 5.13095 19.1421 5.05404C19.027 4.97712 18.9373 4.86779 18.8843 4.73989C18.8313 4.61198 18.8175 4.47123 18.8445 4.33544C18.8715 4.19966 18.9381 4.07493 19.036 3.97703C19.1339 3.87914 19.2587 3.81247 19.3944 3.78546C19.5302 3.75845 19.671 3.77231 19.7989 3.82529C19.9268 3.87827 20.0361 3.96799 20.113 4.08311C20.19 4.19822 20.231 4.33356 20.231 4.47201C20.231 4.65766 20.1573 4.83571 20.026 4.96698C19.8947 5.09826 19.7167 5.17201 19.531 5.17201Z" fill="#31CDFE"/>
<path d="M9.061 23.3519C9.26615 23.5572 9.50973 23.7201 9.77783 23.8312C10.0459 23.9423 10.3333 23.9995 10.6235 23.9995C10.9137 23.9995 11.2011 23.9423 11.4692 23.8312C11.7373 23.7201 11.9809 23.5572 12.186 23.3519L23.353 12.1849C23.5585 11.9801 23.7215 11.7367 23.8325 11.4686C23.9436 11.2005 24.0005 10.9131 24 10.6229V2.20895C24.0007 1.9189 23.9439 1.63158 23.8329 1.36363C23.7218 1.09568 23.5587 0.852427 23.353 0.647949L20.028 3.97195C20.0933 4.03722 20.145 4.1147 20.1804 4.19997C20.2157 4.28525 20.2339 4.37665 20.2339 4.46895C20.2339 4.56125 20.2157 4.65265 20.1804 4.73792C20.145 4.8232 20.0933 4.90068 20.028 4.96595C19.9627 5.03122 19.8853 5.08299 19.8 5.11831C19.7147 5.15363 19.6233 5.17181 19.531 5.17181C19.4387 5.17181 19.3473 5.15363 19.262 5.11831C19.1768 5.08299 19.0993 5.03122 19.034 4.96595L4.854 19.1459L9.061 23.3519Z" fill="url(#paint0_linear_1_13464)"/>
<path d="M12 9.94901C12.4369 9.94901 12.864 9.81945 13.2273 9.57672C13.5905 9.334 13.8737 8.989 14.0409 8.58536C14.2081 8.18171 14.2518 7.73756 14.1666 7.30905C14.0813 6.88055 13.8709 6.48694 13.562 6.17801C13.2531 5.86907 12.8595 5.65869 12.431 5.57345C12.0025 5.48822 11.5583 5.53196 11.1547 5.69916C10.751 5.86635 10.406 6.14948 10.1633 6.51275C9.92057 6.87602 9.79102 7.30311 9.79102 7.74001C9.79181 8.32563 10.0248 8.88703 10.4389 9.30113C10.853 9.71523 11.4144 9.94821 12 9.94901ZM12 6.93601C12.1582 6.93601 12.3129 6.98293 12.4445 7.07083C12.576 7.15874 12.6786 7.28368 12.7391 7.42986C12.7997 7.57604 12.8155 7.73689 12.7846 7.89208C12.7538 8.04726 12.6776 8.18981 12.5657 8.30169C12.4538 8.41357 12.3113 8.48977 12.1561 8.52063C12.0009 8.5515 11.84 8.53566 11.6939 8.47511C11.5477 8.41456 11.4227 8.31202 11.3348 8.18046C11.2469 8.0489 11.2 7.89423 11.2 7.73601C11.2 7.52383 11.2843 7.32035 11.4343 7.17032C11.5844 7.02029 11.7878 6.93601 12 6.93601Z" fill="white"/>
<path d="M12 14.051C11.5631 14.051 11.136 14.1806 10.7728 14.4233C10.4095 14.666 10.1264 15.011 9.95917 15.4147C9.79197 15.8183 9.74823 16.2625 9.83346 16.691C9.9187 17.1195 10.1291 17.5131 10.438 17.822C10.747 18.131 11.1406 18.3413 11.5691 18.4266C11.9976 18.5118 12.4417 18.4681 12.8454 18.3009C13.249 18.1337 13.594 17.8505 13.8367 17.4873C14.0795 17.124 14.209 16.6969 14.209 16.26C14.2082 15.6744 13.9752 15.113 13.5611 14.6989C13.147 14.2848 12.5856 14.0518 12 14.051ZM12 17.064C11.8418 17.064 11.6871 17.0171 11.5556 16.9292C11.424 16.8413 11.3215 16.7164 11.2609 16.5702C11.2004 16.424 11.1845 16.2631 11.2154 16.108C11.2463 15.9528 11.3224 15.8102 11.4343 15.6983C11.5462 15.5865 11.6888 15.5103 11.8439 15.4794C11.9991 15.4485 12.16 15.4644 12.3062 15.5249C12.4523 15.5855 12.5773 15.688 12.6652 15.8196C12.7531 15.9511 12.8 16.1058 12.8 16.264C12.7998 16.476 12.7153 16.6793 12.5653 16.8291C12.4153 16.9789 12.212 17.064 12 17.064Z" fill="#EDF1F8"/>
<path d="M16.519 11.3H7.48102C7.29457 11.3 7.11576 11.3741 6.98392 11.506C6.85208 11.6378 6.77802 11.8166 6.77802 12.003C6.77802 12.1895 6.85208 12.3683 6.98392 12.5001C7.11576 12.632 7.29457 12.706 7.48102 12.706H16.518C16.7045 12.706 16.8833 12.632 17.0151 12.5001C17.1469 12.3683 17.221 12.1895 17.221 12.003C17.221 11.8166 17.1469 11.6378 17.0151 11.506C16.8833 11.3741 16.7055 11.3 16.519 11.3Z" fill="white"/>
<path d="M16.519 12.6999C16.7054 12.6999 16.8842 12.6259 17.0161 12.494C17.1479 12.3622 17.222 12.1834 17.222 11.9969C17.222 11.8105 17.1479 11.6317 17.0161 11.4998C16.8842 11.368 16.7054 11.2939 16.519 11.2939H12.7L11.3 12.6999H16.519Z" fill="#EDF1F8"/>
</g>
<defs>
<linearGradient id="paint0_linear_1_13464" x1="14.427" y1="0.647949" x2="14.427" y2="23.9995" gradientUnits="userSpaceOnUse">
<stop stop-color="#00B7FC"/>
<stop offset="1" stop-color="#31CDFE"/>
</linearGradient>
</defs>
</svg>
