<svg width="52" height="52" viewBox="0 0 52 52" fill="none" xmlns="http://www.w3.org/2000/svg">
<g filter="url(#filter0_d_1_21474)">
<path d="M37 3H15C10.0294 3 6 7.02944 6 12V34C6 38.9706 10.0294 43 15 43H37C41.9706 43 46 38.9706 46 34V12C46 7.02944 41.9706 3 37 3Z" fill="white"/>
</g>
<g filter="url(#filter1_d_1_21474)">
<path d="M16.7191 30.921C16.4338 30.9198 16.1523 30.8553 15.8951 30.732L22.6671 23.939L24.5541 25.832C24.9427 26.2052 25.4607 26.4137 25.9996 26.4137C26.5384 26.4137 27.0564 26.2052 27.4451 25.832L29.3321 23.939L36.1031 30.732C35.8481 30.8559 35.5685 30.9205 35.2851 30.921H16.7191ZM30.2641 23.001L37.0471 16.201C37.1848 16.4699 37.2565 16.7679 37.2561 17.07V28.94C37.2557 29.2421 37.1841 29.5398 37.0471 29.809L30.2641 23.001ZM14.7371 28.94V17.065C14.7381 16.7626 14.8111 16.4647 14.9501 16.196L21.7371 23.001L14.9501 29.81C14.8116 29.5408 14.7386 29.2427 14.7371 28.94ZM25.4871 24.898L23.1371 22.534L15.8951 15.269C16.1536 15.1501 16.4345 15.0874 16.7191 15.085H35.2841C35.5668 15.0867 35.8458 15.1495 36.1021 15.269L28.8641 22.534L26.5121 24.898C26.3728 25.0245 26.1901 25.0922 26.0021 25.087C25.8125 25.0927 25.628 25.025 25.4871 24.898Z" fill="url(#paint0_linear_1_21474)"/>
</g>
<defs>
<filter id="filter0_d_1_21474" x="0" y="0" width="52" height="52" filterUnits="userSpaceOnUse" color-interpolation-filters="sRGB">
<feFlood flood-opacity="0" result="BackgroundImageFix"/>
<feColorMatrix in="SourceAlpha" type="matrix" values="0 0 0 0 0 0 0 0 0 0 0 0 0 0 0 0 0 0 127 0" result="hardAlpha"/>
<feOffset dy="3"/>
<feGaussianBlur stdDeviation="3"/>
<feColorMatrix type="matrix" values="0 0 0 0 0.262745 0 0 0 0 0.470588 0 0 0 0 0.603922 0 0 0 0.161 0"/>
<feBlend mode="normal" in2="BackgroundImageFix" result="effect1_dropShadow_1_21474"/>
<feBlend mode="normal" in="SourceGraphic" in2="effect1_dropShadow_1_21474" result="shape"/>
</filter>
<filter id="filter1_d_1_21474" x="8.73706" y="12.085" width="34.519" height="27.836" filterUnits="userSpaceOnUse" color-interpolation-filters="sRGB">
<feFlood flood-opacity="0" result="BackgroundImageFix"/>
<feColorMatrix in="SourceAlpha" type="matrix" values="0 0 0 0 0 0 0 0 0 0 0 0 0 0 0 0 0 0 127 0" result="hardAlpha"/>
<feOffset dy="3"/>
<feGaussianBlur stdDeviation="3"/>
<feColorMatrix type="matrix" values="0 0 0 0 0.0392157 0 0 0 0 0.733333 0 0 0 0 0.988235 0 0 0 0.404 0"/>
<feBlend mode="normal" in2="BackgroundImageFix" result="effect1_dropShadow_1_21474"/>
<feBlend mode="normal" in="SourceGraphic" in2="effect1_dropShadow_1_21474" result="shape"/>
</filter>
<linearGradient id="paint0_linear_1_21474" x1="25.9966" y1="15.085" x2="25.9966" y2="30.921" gradientUnits="userSpaceOnUse">
<stop stop-color="#00B7FC"/>
<stop offset="1" stop-color="#31CDFE"/>
</linearGradient>
</defs>
</svg>
