<svg width="16" height="16" viewBox="0 0 16 16" fill="none" xmlns="http://www.w3.org/2000/svg">
<mask id="mask0_1_14049" style="mask-type:luminance" maskUnits="userSpaceOnUse" x="0" y="0" width="16" height="16">
<path d="M16 0H0V16H16V0Z" fill="white"/>
</mask>
<g mask="url(#mask0_1_14049)">
<path d="M6.08703 9.03297H4.10003C3.78703 9.03297 3.67603 8.91997 3.67603 8.60597C3.67603 7.7973 3.67603 6.98863 3.67603 6.17997C3.67603 5.86897 3.79403 5.75097 4.10303 5.74997H6.08703C6.08703 5.69497 6.08703 4.52697 6.08703 3.98997C6.06405 3.20395 6.25262 2.42618 6.63303 1.73797C7.03004 1.04421 7.66429 0.517206 8.41902 0.253966C8.91036 0.0795656 9.4287 -0.00642931 9.95003 -3.40331e-05H11.917C12.199 -3.40331e-05 12.324 0.124966 12.324 0.408966C12.324 1.16963 12.324 1.9303 12.324 2.69097C12.324 2.97797 12.204 3.09097 11.916 3.09597C11.379 3.10197 10.841 3.09597 10.304 3.11997C10.1917 3.10374 10.0772 3.11392 9.96956 3.14968C9.86189 3.18543 9.76404 3.24579 9.68378 3.32597C9.60351 3.40614 9.54303 3.50391 9.50714 3.61154C9.47125 3.71916 9.46094 3.83366 9.47703 3.94597C9.46403 4.53997 9.47203 5.13397 9.47203 5.74597H11.787C12.115 5.74597 12.227 5.85897 12.227 6.18797C12.227 6.99197 12.227 7.7963 12.227 8.60097C12.227 8.92597 12.122 9.02897 11.792 9.02897H9.46403V15.538C9.46403 15.885 9.35503 15.996 9.01203 15.996H6.51203C6.21203 15.996 6.09102 15.878 6.09102 15.576C6.09102 13.456 6.09102 9.10397 6.09102 9.02997L6.08703 9.03297Z" fill="#3D6AD6"/>
</g>
</svg>
