<svg xmlns="http://www.w3.org/2000/svg" xmlns:xlink="http://www.w3.org/1999/xlink" width="16" height="16" viewBox="0 0 16 16"><defs><clipPath id="a"><rect width="16" height="16" transform="translate(0.34)" fill="#1a2936" stroke="#707070" stroke-width="1"/></clipPath><linearGradient id="b" x1="0.5" x2="0.5" y2="1" gradientUnits="objectBoundingBox"><stop offset="0" stop-color="#00b7fc"/><stop offset="1" stop-color="#31cdfe"/></linearGradient></defs><g transform="translate(-0.34)" clip-path="url(#a)"><g transform="translate(1.52 1.302)"><path d="M16.681,4H14.227a.613.613,0,0,0,0,1.227H15.2l-2.02,2.02a.613.613,0,1,0,.867.867l2.02-2.02v.973a.613.613,0,0,0,1.227,0V4.613A.626.626,0,0,0,16.681,4Z" transform="translate(-3.519 -4)" fill="url(#b)"/><path d="M6.094,5.227h.973A.613.613,0,1,0,7.067,4H4.613A.626.626,0,0,0,4,4.613V7.067a.613.613,0,0,0,1.227,0V6.094l2.02,2.02a.613.613,0,1,0,.867-.868Z" transform="translate(-4 -4)" fill="url(#b)"/><path d="M16.067,14.227V15.2l-2.02-2.02a.613.613,0,1,0-.867.868l2.02,2.02h-.973a.613.613,0,0,0,0,1.227h2.454a.621.621,0,0,0,.613-.613V14.227a.613.613,0,0,0-1.227,0Z" transform="translate(-3.519 -3.899)" fill="url(#b)"/><path d="M7.247,13.18,5.227,15.2v-.973a.613.613,0,1,0-1.227,0v2.454a.618.618,0,0,0,.613.613H7.067a.613.613,0,1,0,0-1.227H6.094l2.02-2.02a.613.613,0,1,0-.868-.867Z" transform="translate(-4 -3.899)" fill="url(#b)"/></g></g></svg>