<svg width="18" height="20" viewBox="0 0 18 20" fill="none" xmlns="http://www.w3.org/2000/svg">
<path d="M17.8991 18.903V6.44096C17.8992 6.27912 17.8596 6.11972 17.7838 5.97675C17.708 5.83379 17.5982 5.71161 17.4641 5.62096L9.55412 0.279958C9.39054 0.169343 9.19759 0.110229 9.00012 0.110229C8.80265 0.110229 8.6097 0.169343 8.44612 0.279958L0.534121 5.62096C0.400056 5.71161 0.290287 5.83379 0.214444 5.97675C0.138601 6.11972 0.0990021 6.27912 0.0991214 6.44096V18.903C0.0991214 19.1653 0.203319 19.4168 0.388793 19.6023C0.574266 19.7878 0.825823 19.892 1.08812 19.892H16.9131C17.1749 19.8912 17.4257 19.7866 17.6105 19.6012C17.7953 19.4158 17.8991 19.1647 17.8991 18.903ZM15.9241 17.911H2.07712V6.96696L8.99912 2.29396L15.9221 6.96696L15.9241 17.911Z" fill="#1A2936"/>
</svg>
