<svg xmlns="http://www.w3.org/2000/svg" width="16" height="12.001" viewBox="0 0 16 12.001"><path d="M4.8,12h0A3.171,3.171,0,0,1,1.7,9.75H0v-1.5H1.7A3.17,3.17,0,0,1,4.8,6a3.435,3.435,0,0,1,.539.043,3.235,3.235,0,0,1,1.993,1.12,2.863,2.863,0,0,1,.659,2.089,2.927,2.927,0,0,1-1.023,1.956A3.31,3.31,0,0,1,4.8,12Zm0-4.5A1.56,1.56,0,0,0,3.2,8.979,1.554,1.554,0,0,0,4.754,10.5H4.8A1.557,1.557,0,0,0,6.4,9.074V9A1.554,1.554,0,0,0,4.8,7.5ZM16,9.75H8.8v-1.5H16v1.5ZM8.8,6h0A3.17,3.17,0,0,1,5.7,3.75H0V2.25H5.7A3.169,3.169,0,0,1,8.8,0a3.435,3.435,0,0,1,.539.043,3.235,3.235,0,0,1,1.993,1.12,2.863,2.863,0,0,1,.659,2.089,2.926,2.926,0,0,1-1.023,1.956A3.312,3.312,0,0,1,8.8,6Zm0-4.5A1.561,1.561,0,0,0,7.2,2.979,1.554,1.554,0,0,0,8.754,4.5H8.8a1.556,1.556,0,0,0,1.6-1.426V3A1.554,1.554,0,0,0,8.8,1.5ZM16,3.75H12.8V2.25H16v1.5Z" transform="translate(0 0)" fill="#1a2936"/></svg>