<svg xmlns="http://www.w3.org/2000/svg" width="24" height="22.995" viewBox="0 0 24 22.995"><g transform="translate(0 4.541)"><path d="M45.054,150.254h4.9V131.8h-4.9a.455.455,0,0,0-.454.454V149.8a.455.455,0,0,0,.454.454Z" transform="translate(-44.6 -131.8)" fill="#14c0fc"/><g transform="translate(0 0)"><path d="M49.385,131.8v17.886H44.6v.114a.455.455,0,0,0,.454.454h4.9V131.8Z" transform="translate(-44.6 -131.8)" fill="#14c0fc"/></g><g transform="translate(1.266 1.254)"><path d="M66.9,154.354v1.669a.455.455,0,0,0,.454.454h1.913a.455.455,0,0,0,.454-.454v-1.669a.455.455,0,0,0-.454-.454H67.354A.452.452,0,0,0,66.9,154.354Zm0,4.314v1.669a.455.455,0,0,0,.454.454h1.913a.455.455,0,0,0,.454-.454v-1.669a.455.455,0,0,0-.454-.454H67.354A.452.452,0,0,0,66.9,158.668Zm0,4.314v1.669a.455.455,0,0,0,.454.454h1.913a.455.455,0,0,0,.454-.454v-1.669a.455.455,0,0,0-.454-.454H67.354A.448.448,0,0,0,66.9,162.982Z" transform="translate(-66.9 -153.9)" fill="#fff"/></g></g><g transform="translate(18.647 4.541)"><path d="M378,150.254h-4.9V131.8H378a.455.455,0,0,1,.454.454V149.8A.455.455,0,0,1,378,150.254Z" transform="translate(-373.1 -131.8)" fill="#13bffc"/><g transform="translate(0 0)"><path d="M378,131.8h-.114v17.432a.455.455,0,0,1-.454.454H373.1v.568H378a.455.455,0,0,0,.454-.454V132.254A.452.452,0,0,0,378,131.8Z" transform="translate(-373.1 -131.8)" fill="#13bffc"/></g><g transform="translate(1.158 1.254)"><path d="M395.867,153.9h-1.913a.455.455,0,0,0-.454.454v1.669a.455.455,0,0,0,.454.454h1.913a.455.455,0,0,0,.454-.454v-1.669A.455.455,0,0,0,395.867,153.9Zm0,4.314h-1.913a.455.455,0,0,0-.454.454v1.669a.455.455,0,0,0,.454.454h1.913a.455.455,0,0,0,.454-.454v-1.669A.455.455,0,0,0,395.867,158.214Zm0,4.314h-1.913a.455.455,0,0,0-.454.454v1.669a.455.455,0,0,0,.454.454h1.913a.455.455,0,0,0,.454-.454v-1.669A.452.452,0,0,0,395.867,162.528Z" transform="translate(-393.5 -153.9)" fill="#fff"/></g></g><g transform="translate(5.353 0)"><path d="M152.194,74.8H138.9V52.254a.455.455,0,0,1,.454-.454h12.392a.455.455,0,0,1,.454.454V74.8Z" transform="translate(-138.9 -51.8)" fill="#31cdfe"/><path d="M151.74,51.8h-.114V74.228H138.9V74.8h13.3V52.254A.457.457,0,0,0,151.74,51.8Z" transform="translate(-138.9 -51.8)" fill="#31cdfe"/><g transform="translate(1.374 1.482)"><path d="M165.921,78.354v1.669a.455.455,0,0,1-.454.454h-1.913a.455.455,0,0,1-.454-.454V78.354a.455.455,0,0,1,.454-.454h1.913A.455.455,0,0,1,165.921,78.354Zm3.412-.454H167.42a.455.455,0,0,0-.454.454v1.669a.455.455,0,0,0,.454.454h1.913a.455.455,0,0,0,.454-.454V78.354A.455.455,0,0,0,169.333,77.9Zm3.86,0H171.28a.455.455,0,0,0-.454.454v1.669a.455.455,0,0,0,.454.454h1.913a.455.455,0,0,0,.454-.454V78.354A.452.452,0,0,0,173.193,77.9Zm-7.726,4.314h-1.913a.455.455,0,0,0-.454.454v1.669a.455.455,0,0,0,.454.454h1.913a.455.455,0,0,0,.454-.454V82.668A.455.455,0,0,0,165.467,82.214Zm3.866,0H167.42a.455.455,0,0,0-.454.454v1.669a.455.455,0,0,0,.454.454h1.913a.455.455,0,0,0,.454-.454V82.668A.455.455,0,0,0,169.333,82.214Zm3.86,0H171.28a.455.455,0,0,0-.454.454v1.669a.455.455,0,0,0,.454.454h1.913a.455.455,0,0,0,.454-.454V82.668A.452.452,0,0,0,173.193,82.214Zm-7.726,4.314h-1.913a.455.455,0,0,0-.454.454v1.669a.455.455,0,0,0,.454.454h1.913a.455.455,0,0,0,.454-.454V86.982A.455.455,0,0,0,165.467,86.528Zm3.866,0H167.42a.455.455,0,0,0-.454.454v1.669a.455.455,0,0,0,.454.454h1.913a.455.455,0,0,0,.454-.454V86.982A.455.455,0,0,0,169.333,86.528Zm3.86,0H171.28a.455.455,0,0,0-.454.454v1.669a.455.455,0,0,0,.454.454h1.913a.455.455,0,0,0,.454-.454V86.982A.452.452,0,0,0,173.193,86.528Zm-7.726,4.314h-1.913a.455.455,0,0,0-.454.454v1.669a.455.455,0,0,0,.454.454h1.913a.455.455,0,0,0,.454-.454V91.3A.452.452,0,0,0,165.467,90.842Zm3.866,0H167.42a.455.455,0,0,0-.454.454v1.669a.455.455,0,0,0,.454.454h1.913a.455.455,0,0,0,.454-.454V91.3A.452.452,0,0,0,169.333,90.842Zm3.86,0H171.28a.455.455,0,0,0-.454.454v1.669a.455.455,0,0,0,.454.454h1.913a.455.455,0,0,0,.454-.454V91.3A.448.448,0,0,0,173.193,90.842Z" transform="translate(-163.1 -77.9)" fill="#fff"/></g><g transform="translate(3.815 18.84)"><path d="M211.305,383.7h-4.751a.455.455,0,0,0-.454.454v3.7h5.659v-3.7A.452.452,0,0,0,211.305,383.7Z" transform="translate(-206.1 -383.7)" fill="#fff"/></g></g></svg>