<?xml version="1.0" encoding="UTF-8"?>
<svg width="16px" height="16px" viewBox="0 0 16 16" version="1.1" xmlns="http://www.w3.org/2000/svg" xmlns:xlink="http://www.w3.org/1999/xlink">
    <title>ic_building_floors</title>
    <defs>
        <linearGradient x1="50%" y1="0%" x2="50%" y2="100%" id="linearGradient-1">
            <stop stop-color="#00B7FC" offset="0%"></stop>
            <stop stop-color="#31CDFE" offset="100%"></stop>
        </linearGradient>
    </defs>
    <g id="Page-1" stroke="none" stroke-width="1" fill="none" fill-rule="evenodd">
        <g id="ic_building_floors" fill="url(#linearGradient-1)" fill-rule="nonzero">
            <g id="Сгруппировать_14482" transform="translate(0.000000, 0.000000)">
                <path d="M11.625,0 L11.625,2.906 L8.719,2.906 L8.719,5.813 L5.813,5.813 L5.813,8.719 L2.906,8.719 L2.906,11.625 L0,11.625 L0,16 L16,16 L16,0 L11.625,0 Z M14.75,14.75 L1.25,14.75 L1.25,12.875 L4.156,12.875 L4.156,9.969 L7.063,9.969 L7.063,7.063 L9.969,7.063 L9.969,4.156 L12.875,4.156 L12.875,1.25 L14.75,1.25 L14.75,14.75 Z" id="Контур_4434"></path>
            </g>
        </g>
    </g>
</svg>