<svg xmlns="http://www.w3.org/2000/svg" xmlns:xlink="http://www.w3.org/1999/xlink" width="24" height="24" viewBox="0 0 24 24"><defs><linearGradient id="a" x1="0.5" x2="0.5" y2="1" gradientUnits="objectBoundingBox"><stop offset="0" stop-color="#00b7fc"/><stop offset="1" stop-color="#31cdfe"/></linearGradient></defs><g transform="translate(0 0)"><path d="M12.014,24H12a2.852,2.852,0,0,1-2.848-2.848v-.666a.7.7,0,0,1,.7-.7h4.309a.7.7,0,0,1,.7.7v.666A2.852,2.852,0,0,1,12.014,24Z" fill="#1fb7e6"/><path d="M14.159,19.783H12V24h.009a2.852,2.852,0,0,0,2.848-2.848v-.666a.7.7,0,0,0-.7-.7Z" fill="#0fa4d3"/><path d="M13.41,4.395H10.6a.7.7,0,0,1-.7-.7V2.109a2.109,2.109,0,1,1,4.217,0V3.692a.7.7,0,0,1-.7.7Z" fill="#1fb7e6"/><path d="M13.41,4.395a.7.7,0,0,0,.7-.7V2.109A2.111,2.111,0,0,0,12,0V4.395Z" fill="#0fa4d3"/><path d="M19.455,21.189H4.554a1.1,1.1,0,0,1-1.1-1.1V19.08A4.447,4.447,0,0,1,4.592,16.1a3.043,3.043,0,0,0,.781-2.037V9.51a6.631,6.631,0,0,1,13.263,0v4.555a3.042,3.042,0,0,0,.781,2.037,4.447,4.447,0,0,1,1.142,2.977v1.005A1.1,1.1,0,0,1,19.455,21.189Z" fill="url(#a)"/><path d="M19.455,21.189a1.1,1.1,0,0,0,1.1-1.1V19.08A4.447,4.447,0,0,0,19.417,16.1a3.042,3.042,0,0,1-.781-2.037V9.51A6.639,6.639,0,0,0,12,2.879v18.31Z" fill="#31cdfe"/><path d="M3.451,19.08v1.005a1.1,1.1,0,0,0,1.1,1.1h14.9a1.1,1.1,0,0,0,1.1-1.1V19.08a4.454,4.454,0,0,0-.227-1.405H3.678a4.454,4.454,0,0,0-.227,1.405Z" fill="#d5f5ff"/><path d="M12,17.675v3.514h7.45a1.1,1.1,0,0,0,1.1-1.1V19.08a4.454,4.454,0,0,0-.227-1.405H12Z" fill="#edfbff"/><path d="M.7,7.766a.7.7,0,0,1-.688-.852A12.334,12.334,0,0,1,4.062.168a.7.7,0,0,1,.912,1.071A10.92,10.92,0,0,0,1.391,7.211.7.7,0,0,1,.7,7.766Z" fill="#31cdfe"/><path d="M23.3,7.766a.7.7,0,0,1-.687-.555,10.92,10.92,0,0,0-3.583-5.972A.7.7,0,0,1,19.938.168a12.334,12.334,0,0,1,4.046,6.746.7.7,0,0,1-.688.852Z" fill="#31cdfe"/><path d="M3.407,8.588a.7.7,0,0,1-.692-.833A9.491,9.491,0,0,1,5.763,2.414a.7.7,0,0,1,.929,1.055A8.079,8.079,0,0,0,4.1,8.015.7.7,0,0,1,3.407,8.588Z" fill="#31cdfe"/><path d="M20.593,8.588a.7.7,0,0,1-.69-.573,8.079,8.079,0,0,0-2.595-4.546.7.7,0,1,1,.929-1.055,9.492,9.492,0,0,1,3.047,5.341.7.7,0,0,1-.692.833Z" fill="#31cdfe"/></g></svg>