<?xml version="1.0" encoding="UTF-8"?>
<svg width="16px" height="12px" viewBox="0 0 16 12" version="1.1" xmlns="http://www.w3.org/2000/svg" xmlns:xlink="http://www.w3.org/1999/xlink">
    <title>ic_eye_hidden</title>
    <g id="Page-1" stroke="none" stroke-width="1" fill="none" fill-rule="evenodd">
        <g id="ic_eye_hidden" transform="translate(0.000342, -0.000224)" fill="#C3CAD8" fill-rule="nonzero">
            <path d="M13.7106577,0.156224205 C13.6106917,0.0561987299 13.475073,0 13.3336577,0 C13.1922423,0 13.0566236,0.0561987299 12.9566577,0.156224205 L11.2666577,1.8492242 C10.2495004,1.35241946 9.13551095,1.08544437 8.00365766,1.0672242 C3.66665766,1.0662242 0.256657658,5.3552242 0.113657658,5.5332242 C-0.0378858859,5.72638112 -0.0378858859,5.99806729 0.113657658,6.1912242 C1.14534721,7.43791566 2.37469221,8.5067938 3.75265766,9.3552242 L2.28965766,10.8232242 C2.15496853,10.9579133 2.10236644,11.154227 2.15166608,11.3382158 C2.20096572,11.5222046 2.34467731,11.6659161 2.52866608,11.7152158 C2.71265485,11.7645154 2.90896853,11.7119133 3.04365766,11.5772242 L13.7106577,0.910224205 C13.8106831,0.810258216 13.8668819,0.674639531 13.8668819,0.533224205 C13.8668819,0.391808878 13.8106831,0.256190193 13.7106577,0.156224205 Z M5.33365766,5.8662242 C5.33586047,4.39474646 6.52817992,3.20242702 7.99965766,3.2002242 C8.51969071,3.20404216 9.02671755,3.36318451 9.45565766,3.6572242 L5.78965766,7.3222242 C5.49561796,6.8932841 5.33647561,6.38625726 5.33265766,5.8662242 L5.33365766,5.8662242 Z" id="Shape"></path>
            <path d="M15.8866577,5.5332242 C15.0885578,4.56649484 14.171647,3.70435009 13.1576577,2.9672242 L10.6296577,5.4992242 C10.6506641,5.6205273 10.6630285,5.74316918 10.6666577,5.8662242 C10.6650044,7.33848227 9.47191572,8.53157091 7.99965766,8.5332242 C7.87660264,8.52959505 7.75396075,8.51723061 7.63265766,8.4962242 L5.81965766,10.3092242 C6.52369473,10.5394056 7.25897513,10.6598162 7.99965766,10.6662242 C12.3336577,10.6662242 15.7426577,6.3772242 15.8856577,6.1952242 C16.0372012,6.00206729 16.0372012,5.73038112 15.8856577,5.5372242 L15.8866577,5.5332242 Z" id="Path"></path>
        </g>
    </g>
</svg>