<?xml version="1.0" encoding="UTF-8"?>
<svg width="16px" height="14px" viewBox="0 0 16 14" version="1.1" xmlns="http://www.w3.org/2000/svg" xmlns:xlink="http://www.w3.org/1999/xlink">
    <title>ic_list_small</title>
    <g id="Page-1" stroke="none" stroke-width="1" fill="none" fill-rule="evenodd">
        <g id="ic_list_small" fill="#000000" fill-rule="nonzero">
            <path d="M14.725,5.33333333 L1.275,5.33333333 C0.570833333,5.33333333 0,5.92916667 0,6.66666667 C0,7.40416667 0.570833333,8 1.275,8 L14.725,8 C15.4291667,8 16,7.40416667 16,6.66666667 C16,5.92916667 15.4291667,5.33333333 14.725,5.33333333 Z M14.725,0 L1.275,0 C0.570833333,0 0,0.595833333 0,1.33333333 C0,2.07083333 0.570833333,2.66666667 1.275,2.66666667 L14.725,2.66666667 C15.4291667,2.66666667 16,2.07083333 16,1.33333333 C16,0.595833333 15.4291667,0 14.725,0 Z M14.725,10.6666667 L1.275,10.6666667 C0.570833333,10.6666667 0,11.2625 0,12 C0,12.7375 0.570833333,13.3333333 1.275,13.3333333 L14.725,13.3333333 C15.4291667,13.3333333 16,12.7375 16,12 C16,11.2625 15.4291667,10.6666667 14.725,10.6666667 Z" id="Shape"></path>
        </g>
    </g>
</svg>