<svg xmlns="http://www.w3.org/2000/svg" xmlns:xlink="http://www.w3.org/1999/xlink" width="24" height="24" viewBox="0 0 24 24"><defs><linearGradient id="a" x1="0.5" x2="0.5" y2="1" gradientUnits="objectBoundingBox"><stop offset="0" stop-color="#00b7fc"/><stop offset="1" stop-color="#31cdfe"/></linearGradient></defs><path d="M24,12A12.041,12.041,0,0,0,12,0h-.07a12,12,0,0,0,0,24H12a11.962,11.962,0,0,0,6.216-1.791L24,24l-1.65-6.023A11.866,11.866,0,0,0,24,12Zm0,0" fill="#31cdfe"/><path d="M22.35,17.977,24,24l-5.784-1.791A11.962,11.962,0,0,1,12,24h-.07V0H12A12.041,12.041,0,0,1,24,12,11.866,11.866,0,0,1,22.35,17.977Zm0,0" fill="url(#a)"/><path d="M18.961,12A7.031,7.031,0,1,1,11.93,4.969,7.034,7.034,0,0,1,18.961,12Zm0,0" fill="#0fa4d3"/><path d="M12.056,4.266H11.93a7.734,7.734,0,0,0,0,15.469h.127a7.735,7.735,0,0,0,0-15.469Zm5.513,4.922H15.277a10.061,10.061,0,0,0-.928-3.023A6.258,6.258,0,0,1,17.569,9.188Zm-5.639-3.5a.084.084,0,0,1,.056-.014c.014,0,.028.014.042.014.619.028,1.434,1.336,1.828,3.5H10.144C10.523,7.078,11.311,5.784,11.93,5.686ZM5.6,12a6.629,6.629,0,0,1,.169-1.406h2.77c-.042.464-.056.942-.056,1.406s.014.942.056,1.406H5.77A6.629,6.629,0,0,1,5.6,12Zm.689,2.813H8.724a10.728,10.728,0,0,0,.942,3.08A6.294,6.294,0,0,1,6.291,14.813ZM8.724,9.188H6.291a6.294,6.294,0,0,1,3.375-3.08A10.726,10.726,0,0,0,8.724,9.188Zm3.3,9.127c-.014,0-.028.014-.042.014H11.93c-.619-.113-1.406-1.406-1.786-3.516h3.712C13.462,16.978,12.647,18.286,12.028,18.314Zm2.025-4.908H9.947c-.028-.45-.056-.914-.056-1.406s.028-.956.056-1.406h4.106c.028.45.056.914.056,1.406S14.081,12.956,14.053,13.406Zm.3,4.43a10.056,10.056,0,0,0,.928-3.023h2.292A6.258,6.258,0,0,1,14.348,17.836Zm1.111-4.43c.042-.464.056-.942.056-1.406s-.014-.942-.056-1.406h2.63a5.948,5.948,0,0,1,0,2.813Zm0,0" fill="#d5f5ff"/><path d="M18.961,12a7.034,7.034,0,0,1-7.031,7.031V4.969A7.034,7.034,0,0,1,18.961,12Zm0,0" fill="#0fa4d3"/><path d="M12.056,4.266H11.93v1.42a.084.084,0,0,1,.056-.014c.014,0,.028.014.042.014.619.028,1.434,1.336,1.828,3.5H11.93v1.406h2.123c.028.45.056.914.056,1.406s-.028.956-.056,1.406H11.93v1.406h1.927c-.394,2.166-1.209,3.473-1.828,3.5-.014,0-.028.014-.042.014H11.93v1.406h.127a7.735,7.735,0,0,0,0-15.469Zm5.513,4.922H15.277a10.061,10.061,0,0,0-.928-3.023A6.258,6.258,0,0,1,17.569,9.188Zm-3.22,8.648a10.056,10.056,0,0,0,.928-3.023h2.292A6.258,6.258,0,0,1,14.348,17.836Zm1.111-4.43c.042-.464.056-.942.056-1.406s-.014-.942-.056-1.406h2.63a5.948,5.948,0,0,1,0,2.813Zm0,0" fill="#d5f5ff"/></svg>