<svg xmlns="http://www.w3.org/2000/svg" width="17.87" height="17.117" viewBox="0 0 17.87 17.117"><g transform="matrix(0.966, 0.259, -0.259, 0.966, 2.202, -1.756)" style="isolation:isolate"><g transform="translate(2.001 3.014)"><path d="M15.8,6.572l-2.91-3.2a1.482,1.482,0,0,0-2.1,0,1.449,1.449,0,0,0-.375.64A1.483,1.483,0,0,0,8.1,4.792a1.483,1.483,0,0,0-1.947.135,1.465,1.465,0,0,0-.372.625L4.408,4.18a1.482,1.482,0,0,0-2.1,2.1l5.27,5.27-3.126.491a1.734,1.734,0,0,0-1.481,1.708A1.162,1.162,0,0,0,4.136,14.9h7.3a4.229,4.229,0,0,0,3.01-1.247l1.218-1.218A4.252,4.252,0,0,0,15.8,6.572Zm-.686,5.321L13.9,13.11a3.46,3.46,0,0,1-2.463,1.02h-7.3a.387.387,0,0,1-.387-.387.958.958,0,0,1,.823-.943l3.882-.61a.387.387,0,0,0,.214-.656L2.86,5.728a.708.708,0,0,1,1-1L7.733,8.6a.387.387,0,1,0,.546-.548L6.7,6.47a.708.708,0,0,1,1-1L9.281,7.051A.387.387,0,1,0,9.828,6.5L9.021,5.7a.708.708,0,0,1,1-1l.811.811h0a.387.387,0,0,0,.539-.555l-.033-.033a.708.708,0,0,1,.988-1.014l2.9,3.185a3.479,3.479,0,0,1-.114,4.8Z" transform="translate(-1.88 -2.942)" fill="#1a2936"/></g><g transform="translate(0 1.818)"><path d="M6.654,3.872a3.48,3.48,0,1,0-4.6,4.6.387.387,0,1,0,.319-.706A2.706,2.706,0,1,1,5.948,4.191a.387.387,0,1,0,.705-.319Z" transform="translate(0 -1.818)" fill="#1a2936"/></g></g></svg>