<svg xmlns="http://www.w3.org/2000/svg" width="17.975" height="24" viewBox="0 0 17.975 24"><g transform="translate(-3.013)"><path d="M18.778,0H5.222A2.209,2.209,0,0,0,3.013,2.209V22.255A1.748,1.748,0,0,0,4.759,24a1.813,1.813,0,0,0,1.287-.532L11.213,18.3a1.112,1.112,0,0,1,1.575,0l5.167,5.166A1.813,1.813,0,0,0,19.241,24a1.748,1.748,0,0,0,1.746-1.745V2.209A2.209,2.209,0,0,0,18.778,0Z" fill="#69dbff"/><path d="M18.778,0H12V17.975a1.116,1.116,0,0,1,.787.327l5.167,5.166A1.813,1.813,0,0,0,19.241,24a1.748,1.748,0,0,0,1.746-1.745V2.209A2.209,2.209,0,0,0,18.778,0Z" fill="#31cdfe"/></g></svg>