<svg xmlns="http://www.w3.org/2000/svg" width="24" height="16.552" viewBox="0 0 24 16.552"><g transform="translate(-0.414 -4.138)"><path d="M1.241,0H22.759A1.241,1.241,0,0,1,24,1.241V15.31a1.241,1.241,0,0,1-1.241,1.241H1.241A1.241,1.241,0,0,1,0,15.31V1.241A1.241,1.241,0,0,1,1.241,0Z" transform="translate(0.414 4.138)" fill="#00b2e8"/><path d="M.832,4.457l0,0" fill="#57b27c"/><path d="M24,4.452l0,0" fill="#57b27c"/><path d="M13.9,12.116l10.312,8.007a1.231,1.231,0,0,1-1.043.567H1.655a1.231,1.231,0,0,1-1.043-.567l10.312-8.007Z" fill="#1bbbed"/><path d="M23.992,4.455,13.4,12.5a1.64,1.64,0,0,1-1.978,0L.828,4.455a1.218,1.218,0,0,1,.823-.317H23.168a1.218,1.218,0,0,1,.823.317Z" fill="#31cdfc"/></g></svg>