<svg xmlns="http://www.w3.org/2000/svg" width="16" height="16" viewBox="0 0 16 16"><path d="M8,14.667A6.667,6.667,0,1,1,14.667,8,6.674,6.674,0,0,1,8,14.667ZM8,2.333A5.667,5.667,0,1,0,13.667,8,5.673,5.673,0,0,0,8,2.333Z" fill="#1a2936"/><path d="M8,3.333a.5.5,0,0,1-.5-.5V.5a.5.5,0,0,1,1,0V2.833A.5.5,0,0,1,8,3.333Z" fill="#1a2936"/><path d="M15.5,8.5H13.167a.5.5,0,0,1,0-1H15.5a.5.5,0,0,1,0,1Z" fill="#1a2936"/><path d="M8,16a.5.5,0,0,1-.5-.5V13.167a.5.5,0,0,1,1,0V15.5A.5.5,0,0,1,8,16Z" fill="#1a2936"/><path d="M2.833,8.5H.5a.5.5,0,0,1,0-1H2.833a.5.5,0,0,1,0,1Z" fill="#1a2936"/><path d="M8,10a2,2,0,1,1,2-2A2,2,0,0,1,8,10ZM8,7A1,1,0,1,0,9,8,1,1,0,0,0,8,7Z" fill="#1a2936"/></svg>