<svg xmlns="http://www.w3.org/2000/svg" xmlns:xlink="http://www.w3.org/1999/xlink" width="11.297" height="16"
     viewBox="0 0 11.297 16">
    <defs>
        <linearGradient id="a" x1="0.5" x2="0.5" y2="1" gradientUnits="objectBoundingBox">
            <stop offset="0" stop-color="#00b7fc"/>
            <stop offset="1" stop-color="#31cdfe"/>
        </linearGradient>
    </defs>
    <g transform="translate(-2.878 -0.52)">
        <path d="M11.343,6.09A2.817,2.817,0,1,0,8.526,8.907,2.817,2.817,0,0,0,11.343,6.09Zm-4.568,0A1.751,1.751,0,1,1,8.526,7.841,1.751,1.751,0,0,1,6.775,6.09Z"
              fill="url(#a)"/>
        <path d="M11.158,11.481l.132-.16c.308-.379.655-.749.991-1.107l.33-.355a5.562,5.562,0,1,0-8.165,0l.34.368c.349.373.709.762,1.032,1.16l.078.1c-1.883.432-3.018,1.307-3.018,2.372,0,1.731,2.91,2.664,5.649,2.664s5.649-.934,5.649-2.664C14.175,12.789,13.04,11.915,11.158,11.481ZM5.567,9.5,5.23,9.134a4.483,4.483,0,0,1,2.764-7.5A4.684,4.684,0,0,1,8.535,1.6a4.44,4.44,0,0,1,2.98,1.137,4.489,4.489,0,0,1,.313,6.395l-.326.349c-.348.373-.708.756-1.038,1.162L8.526,13.013l-1.883-2.3C6.3,10.287,5.927,9.887,5.567,9.5Zm2.959,5.955c-2.8,0-4.583-.947-4.583-1.6,0-.5,1.016-1.144,2.72-1.436l1.45,1.773a.533.533,0,0,0,.825,0l1.453-1.773c1.705.292,2.718.94,2.718,1.436,0,.652-1.785,1.6-4.583,1.6Z"
              fill="url(#a)"/>
    </g>
</svg>