<svg xmlns="http://www.w3.org/2000/svg" width="16" height="16" viewBox="0 0 16 16"><g transform="translate(0 0)"><path d="M16,8a.469.469,0,0,0-.223-.4l-1.626-1,1.628-1.013a.469.469,0,0,0,0-.8L8.249.072a.469.469,0,0,0-.5,0L.22,4.79a.469.469,0,0,0,0,.8L1.838,6.592.22,7.6a.469.469,0,0,0,0,.8L1.838,9.4.22,10.415a.469.469,0,0,0,0,.795l7.531,4.719a.469.469,0,0,0,.5,0L15.78,11.21a.469.469,0,0,0,0-.8l-1.626-1L15.779,8.4A.469.469,0,0,0,16,8ZM1.354,5.186,8,1.022l6.646,4.164L8,9.323Zm13.289,5.63L8,14.978,1.352,10.813l1.372-.857,5.028,3.13a.469.469,0,0,0,.5,0l5.014-3.121ZM8,12.135,1.355,8l1.369-.856,5.028,3.13a.469.469,0,0,0,.5,0l5.014-3.121L14.641,8Z" transform="translate(0 0)" fill="#1a2936"/></g></svg>