<?xml version="1.0" encoding="UTF-8"?>
<svg width="20px" height="18px" viewBox="0 0 20 18" version="1.1" xmlns="http://www.w3.org/2000/svg" xmlns:xlink="http://www.w3.org/1999/xlink">
    <title>ic_map_region_clear</title>
    <g id="Page-1" stroke="none" stroke-width="1" fill="none" fill-rule="evenodd">
        <g id="Artboard" transform="translate(-2.000000, -3.000000)" fill="#1A2936">
            <g id="ic_map_region_clear" transform="translate(2.250521, 3.666059)">
                <g id="ic_map_region" fill-rule="nonzero">
                    <g id="Group" transform="translate(8.810108, 7.725416) rotate(15.008914) translate(-8.810108, -7.725416) translate(1.292915, 1.742623)">
                        <g transform="translate(0.000000, 0.000000)" id="Shape">
                            <path d="M13.9285745,3.63657045 L11.0182297,0.436191268 C10.7401014,0.156962155 10.3622172,8.8817842e-16 9.96810525,8.8817842e-16 C9.5739933,8.8817842e-16 9.1961091,0.156962155 8.91798083,0.436191268 C8.73954732,0.613395146 8.6102974,0.833981673 8.5429364,1.0762671 C8.15231202,0.783734455 7.64277989,0.702081368 7.18030607,0.857904083 C6.71783224,1.0137268 6.36160745,1.387082 6.22766209,1.85635953 C5.63625239,1.40774267 4.80426744,1.46543038 4.28043138,1.99137552 C4.10584421,2.16514657 3.97788611,2.38012994 3.9083873,2.61644958 L2.53522461,1.24428701 C1.95525691,0.664319309 1.01494348,0.664319309 0.434975776,1.24428701 C-0.144991925,1.82425471 -0.144991925,2.76456814 0.434975776,3.34453585 L5.70560023,8.6151603 L2.57922982,9.10621848 C1.73117559,9.23128459 1.10173538,9.95720213 1.09805434,10.8144209 C1.10409863,11.4531226 1.62446421,11.9672349 2.26319238,11.9655724 L9.56405738,11.9655724 C10.6938012,11.9685757 11.7777976,11.5194915 12.574414,10.7184095 L13.7925584,9.50026517 C15.3942035,7.89466259 15.4540488,5.31471068 13.9285745,3.63657045 Z M13.2424932,8.95820095 L12.0283493,10.1753452 C11.3764664,10.8307518 10.4894504,11.1980909 9.5650575,11.19548 L2.2641925,11.19548 C2.05043298,11.19548 1.87714664,11.0221797 1.87714664,10.8084202 C1.87984477,10.3334978 2.23005228,9.93222722 2.70024416,9.86530842 L6.58270415,9.25523614 C6.72665847,9.23277081 6.84580071,9.13136811 6.89098629,8.9928553 C6.93617188,8.85434249 6.89974432,8.70218988 6.79672951,8.59915841 L0.987041184,2.79247044 C0.734021487,2.51266048 0.744800734,2.08361422 1.0115521,1.81686286 C1.27830346,1.55011149 1.70734972,1.53933225 1.98715968,1.79235194 L5.8606186,5.66481075 C5.95738337,5.76782443 6.10260467,5.80990374 6.23945352,5.77458194 C6.37630238,5.73926014 6.48301768,5.63215394 6.51783889,5.49517685 C6.55266009,5.35819976 6.51005009,5.21313329 6.4066833,5.11674582 L4.8274962,3.53455836 C4.5744765,3.2547484 4.58525575,2.82570214 4.85200711,2.55895078 C5.11875847,2.29219942 5.54780473,2.28142017 5.82761469,2.53443987 L7.40880203,4.1156272 C7.50724036,4.21335092 7.65033611,4.25113514 7.7841865,4.2147469 C7.91803689,4.17835866 8.02230686,4.07332621 8.05771892,3.93921425 C8.09313097,3.8051023 8.05430518,3.66228563 7.95586684,3.56456191 L7.14877122,2.76446712 C6.89575152,2.48465716 6.90653077,2.0556109 7.17328213,1.78885954 C7.4400335,1.52210818 7.86907976,1.51132893 8.14888971,1.76434863 L8.95998581,2.57544472 L8.95998581,2.57544472 C9.11438531,2.71671598 9.35311374,2.70967185 9.49891493,2.55954262 C9.64471611,2.40941339 9.6447758,2.17058105 9.49904968,2.02037896 L9.46604577,1.98737505 C9.19482753,1.7129309 9.19326737,1.27186208 9.4625373,0.995506102 C9.73180723,0.719150123 10.1727678,0.709255356 10.4541628,0.973254899 L13.3545065,4.1586323 C14.6037511,5.53281605 14.553566,7.64587236 13.240493,8.95920107 L13.2424932,8.95820095 Z"></path>
                        </g>
                    </g>
                </g>
                <g id="Group-2" transform="translate(10.713945, 8.298407)" stroke="#FFFFFF">
                    <path d="M6.36402109,-0.707046723 L7.77818551,0.707117695 L4.95006187,3.53506673 L7.77811877,6.36401685 L6.36401685,7.77811877 L3.53506673,4.95006187 L0.707117695,7.77818551 L-0.707046723,6.36402109 L2.1209466,3.53506673 L-0.707113456,0.707113456 L0.707113456,-0.707113456 L3.53506673,2.1209466 L6.36402109,-0.707046723 Z" id="Combined-Shape"></path>
                </g>
            </g>
        </g>
    </g>
</svg>