<svg xmlns="http://www.w3.org/2000/svg" xmlns:xlink="http://www.w3.org/1999/xlink" width="20" height="20" viewBox="0 0 20 20">
  <defs>
    <clipPath id="clip-path">
      <rect id="Прямоугольник_8312" data-name="Прямоугольник 8312" width="20" height="20" transform="translate(154.502 -2.715)" fill="#1a2936"/>
    </clipPath>
  </defs>
  <g id="Сгруппировать_14744" data-name="Сгруппировать 14744" transform="translate(-7 0)">
    <path id="Объединение_25" data-name="Объединение 25" d="M7.5,8.61a4.611,4.611,0,0,1-.916.505c-.094.038-.187.076-.281.108a.029.029,0,0,0-.014.006c-.017.006-.035.01-.052.016a4.507,4.507,0,0,1-.967.21A4.74,4.74,0,1,1,8.619,7.5L10.7,9.566,9.58,10.707Zm-3.105-7a3.156,3.156,0,1,0,3.119,1.6,3.159,3.159,0,0,0-3.119-1.6Z" transform="translate(15.31 9.293)" fill="#1a2936"/>
    <path id="Вычитание_2" data-name="Вычитание 2" d="M3473.749,13469.78h-10.761a.99.99,0,0,1-.987-.99v-12.462a.981.981,0,0,1,.436-.818l7.911-5.342a1.006,1.006,0,0,1,.554-.169,1.022,1.022,0,0,1,.554.169l7.908,5.342a.98.98,0,0,1,.436.818v6.366a6,6,0,0,0-1.978-3.455v-2.384l-6.921-4.672-6.924,4.672v10.947h5.473a6.016,6.016,0,0,0,4.3,1.975h0Z" transform="translate(-3453.9 -13449.781)" fill="#1a2936"/>
  </g>
</svg>
