<svg xmlns="http://www.w3.org/2000/svg" width="24" height="24" viewBox="0 0 24 24"><g transform="translate(-5.067 -5.067)"><path d="M29.066,6.527V26.218a2.848,2.848,0,0,1-2.848,2.848H7.915a2.847,2.847,0,0,0,2.845-2.848V6.527a1.46,1.46,0,0,1,1.46-1.46H27.606a1.46,1.46,0,0,1,1.46,1.46Z" fill="#31cdfe"/><path d="M10.76,16.152v9.975a2.907,2.907,0,0,1-2.794,2.939,2.847,2.847,0,0,1-2.9-2.848V17.612a1.46,1.46,0,0,1,1.46-1.46Z" fill="#0fa4d3"/><path d="M13.723,7.576H26.1v5.509H13.723Z" fill="#d5f5ff"/><path d="M13.723,16.152h5.143v5.143H13.723Z" fill="#d5f5ff"/><path d="M21.318,16.618H26.1a.467.467,0,1,0,0-.933H21.318a.467.467,0,0,0,0,.933Z" fill="#d5f5ff"/><path d="M26.1,18.256H21.318a.467.467,0,0,0,0,.933H26.1a.467.467,0,1,0,0-.933Z" fill="#d5f5ff"/><path d="M26.1,20.828H21.318a.467.467,0,0,0,0,.933H26.1a.467.467,0,0,0,0-.933Z" fill="#d5f5ff"/><path d="M26.1,23.4H13.723a.467.467,0,0,0,0,.933H26.1a.467.467,0,1,0,0-.933Z" fill="#d5f5ff"/><path d="M26.1,25.97H13.723a.467.467,0,0,0,0,.933H26.1a.467.467,0,1,0,0-.933Z" fill="#d5f5ff"/></g></svg>