<svg xmlns="http://www.w3.org/2000/svg" width="20" height="20" viewBox="0 0 20 20">
  <path id="Контур_4797" data-name="Контур 4797" d="M10,20A10,10,0,1,0,0,10,10.011,10.011,0,0,0,10,20ZM3.48,14.937a13.8,13.8,0,0,1,2.911-.73,16.671,16.671,0,0,0,.6,2.509A10.076,10.076,0,0,0,7.4,17.76,8.216,8.216,0,0,1,3.48,14.937ZM1.818,10a8.136,8.136,0,0,1,.722-3.36A15.1,15.1,0,0,0,6.164,7.6c-.068.776-.1,1.582-.1,2.4s.036,1.626.1,2.4a15.1,15.1,0,0,0-3.624.957A8.135,8.135,0,0,1,1.818,10ZM10,1.818c.2,0,.766.5,1.28,2.041A14.681,14.681,0,0,1,11.8,5.991c-.584.041-1.187.062-1.8.062s-1.215-.022-1.8-.062A14.672,14.672,0,0,1,8.72,3.859C9.234,2.317,9.8,1.818,10,1.818Zm0,6.053c.693,0,1.371-.025,2.029-.074.061.709.092,1.448.092,2.2s-.032,1.493-.092,2.2c-.658-.049-1.336-.074-2.029-.074s-1.371.025-2.029.074c-.061-.709-.092-1.448-.092-2.2s.032-1.493.092-2.2C8.629,7.846,9.307,7.871,10,7.871ZM18.182,10a8.135,8.135,0,0,1-.722,3.359,15.1,15.1,0,0,0-3.624-.957c.068-.776.1-1.582.1-2.4s-.036-1.626-.1-2.4A15.1,15.1,0,0,0,17.46,6.64,8.135,8.135,0,0,1,18.182,10ZM10,18.182c-.2,0-.766-.5-1.28-2.041A14.683,14.683,0,0,1,8.2,14.009c.584-.041,1.187-.062,1.8-.062s1.215.022,1.8.062a14.681,14.681,0,0,1-.519,2.131C10.766,17.683,10.2,18.182,10,18.182Zm2.6-.422a10.091,10.091,0,0,0,.41-1.044,16.663,16.663,0,0,0,.6-2.509,13.8,13.8,0,0,1,2.911.73A8.216,8.216,0,0,1,12.6,17.76Zm3.924-12.7a13.788,13.788,0,0,1-2.911.73,16.663,16.663,0,0,0-.6-2.509A10.07,10.07,0,0,0,12.6,2.24,8.216,8.216,0,0,1,16.52,5.063ZM7.4,2.24a10.085,10.085,0,0,0-.41,1.044,16.674,16.674,0,0,0-.6,2.509,13.8,13.8,0,0,1-2.911-.73A8.215,8.215,0,0,1,7.4,2.24Z" transform="translate(0)" fill="#1a2936"/>
</svg>
