<svg xmlns="http://www.w3.org/2000/svg" xmlns:xlink="http://www.w3.org/1999/xlink" width="22.97" height="24" viewBox="0 0 22.97 24"><defs><linearGradient id="a" x1="0.061" y1="0.661" x2="0.844" y2="0.6" gradientUnits="objectBoundingBox"><stop offset="0" stop-color="#00b7fc"/><stop offset="1" stop-color="#31cdfe"/></linearGradient></defs><g transform="translate(0.331)"><path d="M-1090.71,1900.19l-7.426-8.667a2.354,2.354,0,0,0-1.787-.821h-8.373s-2.692-.045-2.915-.006a2.139,2.139,0,0,0-.6.213c-.026.012-1.6.75-.688,2.856.926,2.138,4.2,1,4.2,18.975h8.373a2.354,2.354,0,0,0,1.787-.821l7.426-8.667A2.353,2.353,0,0,0-1090.71,1900.19Zm-5.183,2.729a.31.31,0,0,1-.309.309h-.731a.31.31,0,0,1-.309-.309v-.733a.31.31,0,0,1,.309-.309h.731a.31.31,0,0,1,.309.309Zm0-1.665a.31.31,0,0,1-.309.309h-.731a.31.31,0,0,1-.309-.309v-.731a.31.31,0,0,1,.309-.309h.731a.31.31,0,0,1,.309.309Zm1.693,1.665a.31.31,0,0,1-.309.309h-.733a.31.31,0,0,1-.309-.309v-.733a.31.31,0,0,1,.309-.309h.733a.31.31,0,0,1,.309.309Zm0-1.665a.31.31,0,0,1-.309.309h-.733a.31.31,0,0,1-.309-.309v-.731a.31.31,0,0,1,.309-.309h.733a.31.31,0,0,1,.309.309Z" transform="translate(1112.783 -1890.679)" fill="#13a9d8"/></g><path d="M-1100.331,1910.512a5.3,5.3,0,0,1-4.675,5.26,5.251,5.251,0,0,1-.623.037,5.22,5.22,0,0,1-1.367-.18l-.744-.259c-1.508-.531-2.89-1.046-3.959-1.532-.172-.079-.338-.156-.491-.233l0,0a4.359,4.359,0,0,1-.619-.416A4.41,4.41,0,0,1-1114,1911.7a4.334,4.334,0,0,1-.429-1.748v-15.626a2.449,2.449,0,0,1,1.511-2.391,1.73,1.73,0,0,0-1.084,1.448,1.95,1.95,0,0,0,1.333,1.654.026.026,0,0,1,.011,0c.036.011.073.022.109.036l.019.006c.919.306,2.038.641,3.092.949,1.875.544,3.55.992,3.55.992v.015a5.3,5.3,0,0,1,4.249,5.194,5.267,5.267,0,0,1-1.444,3.634A5.293,5.293,0,0,1-1100.331,1910.512Z" transform="translate(1114.427 -1891.81)" fill="url(#a)"/></svg>