<?xml version="1.0" encoding="UTF-8"?>
<svg width="24px" height="24px" viewBox="0 0 24 24" version="1.1" xmlns="http://www.w3.org/2000/svg" xmlns:xlink="http://www.w3.org/1999/xlink">
    <title>ic_pt_warehouse</title>
    <g id="Page-1" stroke="none" stroke-width="1" fill="none" fill-rule="evenodd">
        <g id="ic_pt_warehouse" transform="translate(0.000000, 0.023000)" fill="#1A2936" fill-rule="nonzero">
            <g id="Group">
                <path d="M24,4.5 L12,3.12250226e-16 L0,4.5 L0,9.836 L1.412,9.836 L1.412,23.954 L22.588,23.954 L22.588,9.836 L24,9.836 L24,4.5 Z M7.059,18.307 L16.941,18.307 L16.941,19.719 L7.059,19.719 L7.059,18.307 Z M5.647,14.072 L5.647,12.66 L18.353,12.66 L18.353,14.072 L5.647,14.072 Z M16.941,15.484 L16.941,16.896 L7.059,16.896 L7.059,15.483 L16.941,15.484 Z M7.059,21.13 L16.941,21.13 L16.941,22.542 L7.059,22.542 L7.059,21.13 Z M21.177,22.542 L18.353,22.542 L18.353,15.483 L19.765,15.483 L19.765,11.248 L4.235,11.248 L4.235,15.483 L5.647,15.483 L5.647,22.542 L2.824,22.542 L2.824,9.836 L21.176,9.836 L21.177,22.542 Z M22.588,8.425 L1.412,8.425 L1.412,5.477 L12,1.508 L22.588,5.477 L22.588,8.425 Z" id="Shape"></path>
                <polygon id="Path" points="5.647 5.601 7.059 5.601 7.059 7.013 5.647 7.013"></polygon>
                <polygon id="Path" points="8.471 5.601 9.882 5.601 9.882 7.013 8.471 7.013"></polygon>
                <polygon id="Path" points="11.294 5.601 12.706 5.601 12.706 7.013 11.294 7.013"></polygon>
                <polygon id="Path" points="14.118 5.601 15.53 5.601 15.53 7.013 14.118 7.013"></polygon>
                <polygon id="Path" points="16.941 5.601 18.353 5.601 18.353 7.013 16.941 7.013"></polygon>
            </g>
        </g>
    </g>
</svg>