<?xml version="1.0" encoding="UTF-8"?>
<svg width="24px" height="24px" viewBox="0 0 24 24" version="1.1" xmlns="http://www.w3.org/2000/svg" xmlns:xlink="http://www.w3.org/1999/xlink">
    <title>ic_pt_shop</title>
    <g id="Page-1" stroke="none" stroke-width="1" fill="none" fill-rule="evenodd">
        <g id="ic_pt_shop" transform="translate(0.000000, -0.001009)" fill="#1A2936" fill-rule="nonzero">
            <path d="M24,7.6000093 L24,5.6000093 C23.9964059,5.47770121 23.9663854,5.35761956 23.912,5.2480093 L23.912,5.2480093 L21.96,1.3280093 C21.5529621,0.512683215 20.7192811,-0.00178160717 19.808,4.63645686e-06 L4.192,4.63645686e-06 C3.28071888,-0.00178160717 2.44703793,0.512683215 2.04,1.3280093 L0.088,5.2400093 L0.088,5.2400093 C0.0324830613,5.35205346 0.00243218394,5.47498886 0,5.6000093 L0,7.6000093 C0.00186555942,8.80154222 0.601740087,9.92330758 1.6,10.5920093 L1.6,22.4000093 L0.8,22.4000093 C0.3581722,22.4000093 0,22.7581815 0,23.2000093 C0,23.6418371 0.3581722,24.0000046 0.8,24.0000046 L23.2,24.0000046 C23.6418278,24.0000046 24,23.6418371 24,23.2000093 C24,22.7581815 23.6418278,22.4000093 23.2,22.4000093 L22.4,22.4000093 L22.4,10.5920093 C23.3982599,9.92330758 23.9981344,8.80154222 24,7.6000093 Z M22.4,7.6000093 C22.4,8.7045788 21.5045695,9.6000093 20.4,9.6000093 C19.2954305,9.6000093 18.4,8.7045788 18.4,7.6000093 L18.4,6.4000093 L22.4,6.4000093 L22.4,7.6000093 Z M1.6,7.6000093 L1.6,6.4000093 L5.6,6.4000093 L5.6,7.6000093 C5.6,8.7045788 4.7045695,9.6000093 3.6,9.6000093 C2.4954305,9.6000093 1.6,8.7045788 1.6,7.6000093 Z M7.2,6.4000093 L11.2,6.4000093 L11.2,7.6000093 C11.2,8.7045788 10.3045695,9.6000093 9.2,9.6000093 C8.0954305,9.6000093 7.2,8.7045788 7.2,7.6000093 L7.2,6.4000093 Z M12.8,6.4000093 L16.8,6.4000093 L16.8,7.6000093 C16.8,8.7045788 15.9045695,9.6000093 14.8,9.6000093 C13.6954305,9.6000093 12.8,8.7045788 12.8,7.6000093 L12.8,6.4000093 Z M3.472,2.0400093 C3.60885242,1.76840626 3.88787451,1.59789276 4.192,1.59998982 L19.808,1.59998982 C20.1121255,1.59789276 20.3911476,1.76840626 20.528,2.0400093 L21.9,4.8000093 L2.1,4.8000093 L3.472,2.0400093 Z M14.4,22.4000093 L9.6,22.4000093 L9.6,17.6000093 C9.6,17.3878361 9.68428547,17.184353 9.83431458,17.0343239 C9.98434368,16.8842948 10.1878268,16.8000093 10.4,16.8000093 L13.6,16.8000093 C13.8121732,16.8000093 14.0156563,16.8842948 14.1656854,17.0343239 C14.3157145,17.184353 14.4,17.3878361 14.4,17.6000093 L14.4,22.4000093 Z M20.8,22.4000093 L16,22.4000093 L16,17.6000093 C16,16.2745259 14.9254834,15.2000093 13.6,15.2000093 L10.4,15.2000093 C9.0745166,15.2000093 8,16.2745259 8,17.6000093 L8,22.4000093 L3.2,22.4000093 L3.2,11.2000093 C3.33242288,11.2212574 3.46599182,11.2346143 3.6,11.2400093 C4.69392212,11.2305968 5.7242147,10.7242816 6.4,9.8640093 C7.08347145,10.7097621 8.11260359,11.2012676 9.2,11.2012676 C10.2873964,11.2012676 11.3165286,10.7097621 12,9.8640093 C12.6834714,10.7097621 13.7126036,11.2012676 14.8,11.2012676 C15.8873964,11.2012676 16.9165286,10.7097621 17.6,9.8640093 C18.2837191,10.7092911 19.3128141,11.2003165 20.4,11.2000093 C20.5332166,11.2078987 20.6667834,11.2078987 20.8,11.2000093 L20.8,22.4000093 Z" id="Shape"></path>
        </g>
    </g>
</svg>