<?xml version="1.0" encoding="UTF-8"?>
<svg width="24px" height="25px" viewBox="0 0 24 25" version="1.1" xmlns="http://www.w3.org/2000/svg" xmlns:xlink="http://www.w3.org/1999/xlink">
    <title>ic_pt_floor</title>
    <g id="Page-1" stroke="none" stroke-width="1" fill="none" fill-rule="evenodd">
        <g id="ic_pt_floor" transform="translate(0.000000, 0.008000)" fill="#1A2936" fill-rule="nonzero">
            <path d="M20.245,16.489 L22.119,16.489 L22.119,18.363 L20.245,18.363 L20.245,16.489 Z M3.755,16.489 L1.881,16.489 L1.881,18.363 L3.755,18.363 L3.755,16.489 Z M11.016,23.989 L12.89,23.989 L12.89,22.11 L11.016,22.11 L11.016,23.989 Z M20.245,22.115 L18.418,22.115 L18.418,23.989 L20.245,23.989 C21.2799816,23.989 22.119,23.1499816 22.119,22.115 L22.119,20.236 L20.245,20.236 L20.245,22.115 Z M14.67,23.984 L16.544,23.984 L16.544,22.11 L14.67,22.11 L14.67,23.984 Z M7.362,23.984 L9.236,23.984 L9.236,22.11 L7.362,22.11 L7.362,23.984 Z M11.016,14.615 L12.89,14.615 L12.89,12.741 L11.016,12.741 L11.016,14.615 Z M14.67,14.615 L16.544,14.615 L16.544,12.741 L14.67,12.741 L14.67,14.615 Z M7.362,14.615 L9.236,14.615 L9.236,12.741 L7.362,12.741 L7.362,14.615 Z M3.755,20.236 L1.881,20.236 L1.881,22.11 C1.881,23.1449816 2.72001838,23.984 3.755,23.984 L5.535,23.984 L5.535,22.11 L3.755,22.11 L3.755,20.236 Z M24,9.947 L12,2.84217094e-14 L0,9.947 L1.2,11.39 L1.886,10.822 L1.886,14.615 L5.535,14.615 L5.535,12.741 L3.755,12.741 L3.755,9.268 L12,2.434 L20.245,9.269 L20.245,12.741 L18.418,12.741 L18.418,14.615 L22.118,14.615 L22.118,10.822 L22.804,11.39 L24,9.947 Z" id="Shape"></path>
        </g>
    </g>
</svg>