<?xml version="1.0" encoding="UTF-8"?>
<svg width="24px" height="24px" viewBox="0 0 24 24" version="1.1" xmlns="http://www.w3.org/2000/svg" xmlns:xlink="http://www.w3.org/1999/xlink">
    <title>ic_pt_offices</title>
    <g id="Page-1" stroke="none" stroke-width="1" fill="none" fill-rule="evenodd">
        <g id="ic_pt_offices" fill="#1A2936" fill-rule="nonzero">
            <g id="Group">
                <path d="M23.3,11.25 L16.922,11.25 L16.922,9.844 L21.844,9.844 C22.2305993,9.844 22.544,9.53059932 22.544,9.144 L22.544,0.7 C22.544,0.313400675 22.2305993,0 21.844,0 L10.594,0 C10.2074007,0 9.894,0.313400675 9.894,0.7 L9.894,3.288 C8.3690243,2.56253783 6.57857009,2.66970693 5.15101874,3.57189504 C3.72346739,4.47408314 2.85824056,6.04525915 2.859,7.734 L2.859,11.25 L0.7,11.25 C0.313400675,11.25 0,11.5634007 0,11.95 L0,23.3 C0,23.6882562 0.314743821,24.003 0.703,24.003 C1.09125618,24.003 1.406,23.6882562 1.406,23.3 L1.406,12.656 L2.859,12.656 L2.859,13.356 C2.859,13.7425993 3.17240068,14.056 3.559,14.056 L7.078,14.056 L7.078,15.462 L4.969,15.462 C3.80491658,15.4636524 2.86165236,16.4069166 2.86,17.571 L2.86,18.977 C2.86,19.3635993 3.17340068,19.677 3.56,19.677 L7.078,19.677 L7.078,22.583 L6.378,22.583 C5.98974382,22.583 5.675,22.8977438 5.675,23.286 C5.675,23.6742562 5.98974382,23.989 6.378,23.989 L9.188,23.989 C9.57625618,23.989 9.891,23.6742562 9.891,23.286 C9.891,22.8977438 9.57625618,22.583 9.188,22.583 L8.488,22.583 L8.488,19.688 L12,19.688 C12.3865993,19.688 12.7,19.3745993 12.7,18.988 L12.7,17.578 C12.6983476,16.4139166 11.7550834,15.4706524 10.591,15.469 L8.484,15.469 L8.484,14.063 L12,14.063 C12.3865993,14.063 12.7,13.7495993 12.7,13.363 L12.7,12.663 L14.106,12.663 L14.106,23.3 C14.106,23.6882562 14.4207438,24.003 14.809,24.003 C15.1972562,24.003 15.512,23.6882562 15.512,23.3 L15.512,21.1 L22.59,21.1 L22.59,23.3 C22.59,23.6893607 22.9056393,24.005 23.295,24.005 C23.6843607,24.005 24,23.6893607 24,23.3 L24,11.953 C24.0007979,11.7668292 23.9274005,11.5880098 23.7960384,11.4560848 C23.6646764,11.3241598 23.4861725,11.2499983 23.3,11.25 Z M11.3,17.578 L11.3,18.278 L4.266,18.278 L4.266,17.578 C4.266,17.1914007 4.57940068,16.878 4.966,16.878 L10.591,16.878 C10.778206,16.8755929 10.9585746,16.9482786 11.0918031,17.0798159 C11.2250315,17.2113532 11.3,17.3907785 11.3,17.578 Z M21.141,1.406 L21.141,8.438 L12.7,8.438 L12.7,7.738 C12.7033216,6.4507704 12.2004976,5.2138234 11.3,4.294 L11.3,1.406 L21.141,1.406 Z M11.3,12.656 L4.266,12.656 L4.266,7.734 C4.2983572,5.81555619 5.86278334,4.27729376 7.7815,4.27729376 C9.70021666,4.27729376 11.2646428,5.81555619 11.297,7.734 L11.3,12.656 Z M12.7,9.844 L15.513,9.844 L15.513,11.25 L12.7,11.25 L12.7,9.844 Z M22.591,12.657 L22.591,15.47 L15.516,15.47 L15.516,12.656 L22.591,12.657 Z M15.513,19.688 L15.513,16.875 L22.591,16.875 L22.591,19.688 L15.513,19.688 Z" id="Shape"></path>
            </g>
        </g>
    </g>
</svg>