<svg xmlns="http://www.w3.org/2000/svg" width="24" height="24" viewBox="0 0 24 24"><path d="M24,303.109a2.109,2.109,0,1,0-3.357,1.7,5.931,5.931,0,0,1-3.721,1.816,5.805,5.805,0,0,1-3.682-1.811,2.109,2.109,0,1,0-2.488-.005,5.931,5.931,0,0,1-3.721,1.816,5.805,5.805,0,0,1-3.682-1.811,2.108,2.108,0,1,0-1.943.284v4.387H0v1.406H4.219v-1.406H2.812v-3.258a6.765,6.765,0,0,0,4.219,1.805,6.9,6.9,0,0,0,4.266-1.822v3.275H9.891v1.406h4.219v-1.406H12.7v-3.258a6.765,6.765,0,0,0,4.219,1.805,6.9,6.9,0,0,0,4.266-1.822v3.275H19.781v1.406H24v-1.406H22.594V305.1A2.113,2.113,0,0,0,24,303.109Zm-21.891-.7a.7.7,0,1,1-.7.7A.7.7,0,0,1,2.109,302.406Zm9.891,0a.7.7,0,1,1-.7.7A.7.7,0,0,1,12,302.406Zm9.891,0a.7.7,0,1,1-.7.7A.7.7,0,0,1,21.891,302.406Z" transform="translate(0 -286.891)" fill="#1a2936"/><path d="M61,12.7H79.281V0H61Zm9.315-6.726A8.314,8.314,0,0,0,67.2,4.5l1.925-3.093h.76L72.617,3.7A6.339,6.339,0,0,0,70.315,5.977Zm-3.907-.205a6.939,6.939,0,0,1,3.317,1.534A6.315,6.315,0,0,0,69.8,11.3h-6.83Zm4.91,5.525A4.925,4.925,0,0,1,73.787,4.68l4.088,3.43V11.3Zm6.557-5.023-5.8-4.867h5.8ZM67.469,1.406,62.406,9.54V1.406Z" transform="translate(-58.141)" fill="#1a2936"/></svg>