<?xml version="1.0" encoding="UTF-8"?>
<svg width="24px" height="24px" viewBox="0 0 24 24" version="1.1" xmlns="http://www.w3.org/2000/svg" xmlns:xlink="http://www.w3.org/1999/xlink">
    <title>ic_pt_commercial_villa</title>
    <g id="Page-1" stroke="none" stroke-width="1" fill="none" fill-rule="evenodd">
        <g id="ic_pt_commercial_villa" fill="#1A2936" fill-rule="nonzero">
            <path d="M20.836,19.781 L3.164,19.781 L0,24 L24,24 L20.836,19.781 Z M3.867,21.188 L20.133,21.188 L21.188,22.594 L2.813,22.594 L3.867,21.188 Z" id="Shape"></path>
            <path d="M21.188,7.031 L21.188,0 L2.813,0 L2.813,7.031 L0,7.031 L0,18.375 L24,18.375 L24,7.031 L21.188,7.031 Z M4.219,1.406 L19.781,1.406 L19.781,7.031 L18.375,7.031 L18.375,2.813 L5.625,2.813 L5.625,7.031 L4.219,7.031 L4.219,1.406 Z M16.969,4.219 L16.969,7.031 L7.031,7.031 L7.031,4.219 L16.969,4.219 Z M8.469,16.969 L4.219,16.969 L4.219,11.25 L8.469,11.25 L8.469,16.969 Z M14.125,16.969 L9.875,16.969 L9.875,11.25 L14.125,11.25 L14.125,16.969 Z M19.781,16.969 L15.531,16.969 L15.531,11.25 L19.781,11.25 L19.781,16.969 Z M22.594,16.969 L21.188,16.969 L21.188,9.844 L2.813,9.844 L2.813,16.969 L1.406,16.969 L1.406,8.438 L22.594,8.438 L22.594,16.969 Z" id="Shape"></path>
        </g>
    </g>
</svg>