<?xml version="1.0" encoding="UTF-8"?>
<svg width="24px" height="24px" viewBox="0 0 24 24" version="1.1" xmlns="http://www.w3.org/2000/svg" xmlns:xlink="http://www.w3.org/1999/xlink">
    <title>ic_pt_land</title>
    <g id="Page-1" stroke="none" stroke-width="1" fill="none" fill-rule="evenodd">
        <g id="ic_pt_land" transform="translate(0.000000, 0.655977)" fill="#1A2936" fill-rule="nonzero">
            <g id="Shape">
                <path d="M23.994,13.0670227 L21.509,13.0670227 L21.509,9.95702272 C22.9632919,9.62659803 23.9965187,8.33537554 24,6.84402272 L24,6.20102272 C24,4.43674909 22.5697736,3.00652272 20.8055,3.00652272 C19.0412264,3.00652272 17.611,4.43674909 17.611,6.20102272 L17.611,6.84402272 C17.6142678,8.33477873 18.6465027,9.62579816 20.1,9.95702272 L20.1,13.0670227 L7.068,13.0670227 L7.068,9.95702272 C8.52229187,9.62659803 9.55551874,8.33537554 9.559,6.84402272 L9.559,6.20102272 C9.55706763,4.68615888 8.49318637,3.38020185 7.01,3.07202272 C6.77725369,1.23662538 5.16126069,-0.103940275 3.31445469,0.00634042664 C1.46764868,0.116621128 0.0226723165,1.63997038 0.01,3.49002272 L0.01,6.52102272 C0.0123132668,8.19050067 1.18671668,9.6288525 2.822,9.96502272 L2.822,13.0650227 L0,13.0650227 L0,14.4710227 L9.387,14.4710227 C13.2774839,14.477378 16.5279386,17.4353653 16.9,21.3080227 L15.536,21.3080227 C15.169191,18.1883104 12.5272002,15.8358647 9.386,15.8320227 L0,15.8320227 L0,17.2380227 L9.387,17.2380227 C11.7525802,17.2410612 13.7621658,18.9695086 14.119,21.3080227 L12.737,21.3080227 C12.397602,19.7285125 11.0025609,18.5995703 9.387,18.5970227 L0,18.5970227 L0,20.0030227 L9.387,20.0030227 C10.2264348,20.0039761 10.9780695,20.5232367 11.276,21.3080227 L0,21.3080227 L0,22.7140227 L23.994,22.7140227 L23.994,21.3080227 L18.314,21.3080227 C18.2796792,20.8686774 18.2128292,20.4324817 18.114,20.0030227 L23.995,20.0030227 L23.995,18.5970227 L17.661,18.5970227 C17.4646461,18.1246308 17.2281115,17.6699624 16.954,17.2380227 L23.994,17.2380227 L23.994,15.8320227 L15.852,15.8320227 C15.3571632,15.3151259 14.8026011,14.8589214 14.2,14.4730227 L23.995,14.4730227 L23.995,13.0670227 L23.994,13.0670227 Z M19.017,6.84402272 L19.017,6.20102272 C19.017,5.21326145 19.8177387,4.41252272 20.8055,4.41252272 C21.7932613,4.41252272 22.594,5.21326145 22.594,6.20102272 L22.594,6.84402272 C22.594,7.831784 21.7932613,8.63252272 20.8055,8.63252272 C19.8177387,8.63252272 19.017,7.831784 19.017,6.84402272 L19.017,6.84402272 Z M8.153,6.20102272 L8.153,6.84402272 C8.153,7.831784 7.35226128,8.63252272 6.3645,8.63252272 C5.37673872,8.63252272 4.576,7.831784 4.576,6.84402272 L4.576,6.20102272 C4.576,5.21326145 5.37673872,4.41252272 6.3645,4.41252272 C7.35226128,4.41252272 8.153,5.21326145 8.153,6.20102272 L8.153,6.20102272 Z M1.41199976,6.52102272 L1.41199976,3.48902272 C1.41472226,2.40178526 2.24352468,1.4947915 3.32611393,1.39432639 C4.40870317,1.29386128 5.39025429,2.03285284 5.593,3.10102272 C4.17042761,3.45709587 3.1719408,4.73456559 3.17,6.20102272 L3.17,6.84402272 C3.16911245,7.4778194 3.35787325,8.09738667 3.712,8.62302272 C3.648,8.62902272 3.584,8.63302272 3.52,8.63302272 C2.35490812,8.63136711 1.41144691,7.68611565 1.41199976,6.52102272 L1.41199976,6.52102272 Z M4.224,9.96502272 C4.48411872,9.91215812 4.73740361,9.82996633 4.979,9.72002272 C5.19683083,9.8251783 5.42599157,9.90503226 5.662,9.95802272 L5.662,13.0680227 L4.224,13.0680227 L4.224,9.96502272 Z"></path>
            </g>
        </g>
    </g>
</svg>