<?xml version="1.0" encoding="UTF-8"?>
<svg width="24px" height="24px" viewBox="0 0 24 24" version="1.1" xmlns="http://www.w3.org/2000/svg" xmlns:xlink="http://www.w3.org/1999/xlink">
    <title>outdoorTerrace</title>
    <defs>
        <linearGradient x1="50%" y1="0%" x2="50%" y2="100%" id="linearGradient-1">
            <stop stop-color="#00B7FC" offset="0%"></stop>
            <stop stop-color="#31CDFE" offset="100%"></stop>
        </linearGradient>
        <linearGradient x1="50%" y1="0%" x2="50%" y2="100%" id="linearGradient-2">
            <stop stop-color="#00B7FC" offset="0%"></stop>
            <stop stop-color="#31CDFE" offset="100%"></stop>
        </linearGradient>
    </defs>
    <g id="Page-1" stroke="none" stroke-width="1" fill="none" fill-rule="evenodd">
        <g id="outdoorTerrace" transform="translate(-0.000007, 0.034665)" fill-rule="nonzero">
            <g id="pergola" transform="translate(0.000000, -0.000000)">
                <path d="M23.4530069,22.5363347 L23.4530069,8.84233471 C23.7636688,8.76309988 23.980792,8.48294098 23.9800069,8.16233471 L23.9800069,5.77333471 C23.9798766,5.37082761 23.7405342,5.00690143 23.3710069,4.84733471 L12.2580069,0.0533347079 C12.0864163,-0.017778236 11.8935974,-0.017778236 11.7220069,0.0533347079 L0.615006865,4.75633471 C0.242284734,4.91413982 3.4213767e-06,5.27958265 3.4213767e-06,5.68433471 L3.4213767e-06,8.16333471 C-0.00107898913,8.51213164 0.254785516,8.80850802 0.600006865,8.85833471 L0.600006865,22.5363347 C0.270583674,22.6098801 0.0405572856,22.9080313 0.0530068645,23.2453347 C0.0728345225,23.6289734 0.39187984,23.9286024 0.776006865,23.9243797 L1.83100686,23.9243797 C2.21513389,23.9286024 2.53417921,23.6289734 2.55400686,23.2453347 C2.56645644,22.9080313 2.33643005,22.6098801 2.00700686,22.5363347 L2.00700686,13.1673347 L7.12900686,8.86733471 L16.9290069,8.86733471 L22.0510069,13.1673347 L22.0510069,22.5353347 C21.7215837,22.6088801 21.4915573,22.9070313 21.5040069,23.2443347 C21.5238345,23.6279734 21.8428798,23.9276024 22.2270069,23.9233347 L23.2800069,23.9233347 C23.662977,23.9259855 23.9802252,23.6268028 24.0000034,23.2443347 C24.0119644,22.9074017 23.7820475,22.6098129 23.4530069,22.5363347 Z M11.9900069,1.46333471 L19.7320069,4.65733471 L4.24800686,4.65733471 L11.9900069,1.46333471 Z M2.00700686,11.3333347 L2.00700686,8.86533471 L4.94400686,8.86533471 L2.00700686,11.3333347 Z M22.0480069,11.3333347 L19.1110069,8.86533471 L22.0480069,8.86533471 L22.0480069,11.3333347 Z M22.5750069,7.46133471 L1.40500686,7.46133471 L1.40500686,6.06133471 L22.5750069,6.06133471 L22.5750069,7.46133471 Z" id="Контур_4127" fill="#1A2936"></path>
                <path d="M17.5140069,17.7093347 L6.47200686,17.7093347 C6.08540754,17.7093347 5.77200686,18.0227354 5.77200686,18.4093347 L5.77200686,20.4233347 C5.77200686,20.809934 6.08540754,21.1233347 6.47200686,21.1233347 L7.17200686,21.1233347 L7.17200686,23.2233347 C7.17200686,23.609934 7.48540754,23.9233347 7.87200686,23.9233347 C8.25860619,23.9233347 8.57200686,23.609934 8.57200686,23.2233347 L8.57200686,21.1233347 L15.4610069,21.1233347 L15.4610069,23.2233347 C15.4610069,23.6113147 15.7755268,23.9258347 16.1635069,23.9258347 C16.5514869,23.9258347 16.8660069,23.6113147 16.8660069,23.2233347 L16.8660069,21.1233347 L17.5030069,21.1233347 C17.6886584,21.1233347 17.8667061,21.0495849 17.9979816,20.9183095 C18.1292571,20.787034 18.2030138,20.6089863 18.2030138,20.4233347 L18.2030138,18.4123347 C18.2046978,18.0288235 17.8974745,17.7153576 17.5140069,17.7093347 Z M7.17500686,19.7203347 L7.17500686,19.1143347 L16.8110069,19.1143347 L16.8110069,19.7203347 L7.17500686,19.7203347 Z" id="Контур_4128" fill="#1A2936"></path>
            </g>
        </g>
    </g>
</svg>