<svg xmlns="http://www.w3.org/2000/svg" width="24" height="20.444" viewBox="0 0 24 20.444"><path d="M21.98,38.4h-.673V22.646a.624.624,0,0,0-.62-.646H6.788a.67.67,0,0,0-.673.646v2.828a.67.67,0,0,0,.673.646H8.7v2.586H3.232a.67.67,0,0,0-.673.646V38.4H2.02a2.02,2.02,0,0,0,0,4.04H21.98a2.02,2.02,0,1,0,0-4.04Zm0,2.747H2.02a.727.727,0,1,1,0-1.455H21.98a.727.727,0,1,1,0,1.455ZM3.852,30H17.859a.624.624,0,0,0,.62-.646V25.475a.624.624,0,0,0-.62-.646H7.407V23.293H20.013v8.242H6.061a.67.67,0,0,0-.673.646v3.879a.67.67,0,0,0,.673.646H20.013v1.535H3.852V30Zm13.333-3.879v2.586H9.993V26.121Zm-3.232,9.293H6.68V32.828h7.273Zm1.293-2.586h2.182v2.586H15.246Zm3.475,0h1.293v2.586H18.721Z" transform="translate(0 -22)" fill="#1a2936"/></svg>