<?xml version="1.0" encoding="UTF-8"?>
<svg width="22px" height="24px" viewBox="0 0 22 24" version="1.1" xmlns="http://www.w3.org/2000/svg" xmlns:xlink="http://www.w3.org/1999/xlink">
    <title>ic_pt_residental_building</title>
    <g id="Page-1" stroke="none" stroke-width="1" fill="none" fill-rule="evenodd">
        <g id="ic_pt_residental_building" transform="translate(0.635000, 0.000000)" fill="#1A2936" fill-rule="nonzero">
            <polygon id="Path" points="3.5 4.8 4.906 4.8 4.906 6.8 3.5 6.8"></polygon>
            <polygon id="Path" points="7 4.8 8.406 4.8 8.406 6.8 7 6.8"></polygon>
            <polygon id="Path" points="3.5 8.8 4.906 8.8 4.906 10.8 3.5 10.8"></polygon>
            <polygon id="Path" points="7 8.8 8.406 8.8 8.406 10.8 7 10.8"></polygon>
            <polygon id="Path" points="3.5 12.8 4.906 12.8 4.906 14.8 3.5 14.8"></polygon>
            <polygon id="Path" points="7 12.8 8.406 12.8 8.406 14.8 7 14.8"></polygon>
            <polygon id="Path" points="3.5 16.8 4.906 16.8 4.906 18.8 3.5 18.8"></polygon>
            <polygon id="Path" points="7 16.8 8.406 16.8 8.406 18.8 7 18.8"></polygon>
            <polygon id="Path" points="13.719 8.8 15.125 8.8 15.125 10.8 13.719 10.8"></polygon>
            <polygon id="Path" points="13.719 12.8 15.125 12.8 15.125 14.8 13.719 14.8"></polygon>
            <path d="M18.364,21.348 C19.7509915,21.0218766 20.7313139,19.7843164 20.7313139,18.3595 C20.7313139,16.9346836 19.7509915,15.6971234 18.364,15.371 L18.364,4.789 L11.914,4.789 L11.914,2 L10.772,2 L10.772,0 L1.141,0 L1.141,2 L0,2 L0,24 L20.7,23.992 L20.7,22.586 L18.36,22.586 L18.364,21.348 Z M2.548,1.406 L9.366,1.406 L9.366,3.406 L10.507,3.406 L10.507,22.586 L1.407,22.586 L1.407,3.408 L2.548,3.408 L2.548,1.406 Z M11.914,6.2 L16.954,6.2 L16.954,15.377 C15.5700764,15.7055071 14.5930353,16.9416212 14.5930353,18.364 C14.5930353,19.7863788 15.5700764,21.0224929 16.954,21.351 L16.954,22.59 L11.914,22.59 L11.914,6.2 Z M19.325,18.364 C19.325,19.0370252 18.9195794,19.64378 18.2977852,19.9013355 C17.675991,20.1588911 16.960275,20.0165263 16.4843743,19.5406257 C16.0084737,19.064725 15.8661089,18.349009 16.1236645,17.7272148 C16.38122,17.1054206 16.9879748,16.7 17.661,16.7 C18.5775992,16.7010923 19.3211494,17.4424083 19.325,18.359 L19.325,18.364 Z" id="Shape"></path>
        </g>
    </g>
</svg>