<?xml version="1.0" encoding="UTF-8"?>
<svg width="24px" height="24px" viewBox="0 0 24 24" version="1.1" xmlns="http://www.w3.org/2000/svg" xmlns:xlink="http://www.w3.org/1999/xlink">
    <title>ic_pt_apartment</title>
    <g id="Page-1" stroke="none" stroke-width="1" fill="none" fill-rule="evenodd">
        <g id="ic_pt_apartment" transform="translate(0.000000, -0.000018)" fill="#1A2936" fill-rule="nonzero">
            <g id="Shape" transform="translate(0.000000, -0.000000)">
                <path d="M21.98,19.9600178 L17.912,19.9600178 L17.912,0.64601782 C17.9179458,0.477609058 17.8555256,0.313954868 17.7389382,0.192282131 C17.6223509,0.070609394 17.4615091,0.00126316265 17.293,8.86704359e-06 L6.707,8.86704359e-06 C6.34498045,-0.00183535203 6.04696329,0.284225694 6.034,0.64601782 L6.034,19.9600178 L2.02,19.9600178 C0.904384805,19.9600178 0,20.8644026 0,21.9800178 C0,23.095633 0.904384805,24.0000089 2.02,24.0000089 L21.98,24.0000089 C23.0956152,24.0000089 24,23.095633 24,21.9800178 C24,20.8644026 23.0956152,19.9600178 21.98,19.9600178 Z M21.98,22.7070178 L17.912,22.7070178 L17.912,21.2530178 L21.98,21.2530178 C22.3817872,21.2530178 22.7075,21.5787307 22.7075,21.9805178 C22.7075,22.382305 22.3817872,22.7080178 21.98,22.7080178 L21.98,22.7070178 Z M1.293,21.9800178 C1.29355083,21.5787352 1.61871737,21.2535687 2.02,21.2530178 L6.034,21.2530178 L6.034,22.7080178 L2.02,22.7080178 C1.61832728,22.7074661 1.293,22.3816909 1.293,21.9800178 Z M13.953,22.7070178 L12.66,22.7070178 L12.66,20.0590178 C13.4589943,20.307946 13.989971,21.0639615 13.953,21.9000178 L13.953,22.7070178 Z M7.327,22.7070178 L7.327,17.9390178 L8.7,17.9390178 L8.7,22.7070178 L7.327,22.7070178 Z M12.027,18.6670178 C11.2919051,18.6657131 10.5764233,18.90409 9.989,19.3460178 L9.989,17.9390178 L14.029,17.9390178 L14.029,19.3540178 C13.4647907,18.8966815 12.7571559,18.6533656 12.031,18.6670178 L12.027,18.6670178 Z M8.7,12.6060178 L7.327,12.6060178 L7.327,9.93901782 L8.7,9.93901782 L8.7,12.6060178 Z M9.993,9.93901782 L14.033,9.93901782 L14.033,12.6060178 L9.993,12.6060178 L9.993,9.93901782 Z M14.033,13.8990178 L14.033,16.6460178 L9.993,16.6460178 L9.993,13.9000178 L14.033,13.8990178 Z M15.326,9.93901782 L16.62,9.93901782 L16.62,12.6060178 L15.327,12.6060178 L15.326,9.93901782 Z M16.62,8.64601782 L15.327,8.64601782 L15.327,5.98001782 L16.62,5.98001782 L16.62,8.64601782 Z M14.034,8.64601782 L9.993,8.64601782 L9.993,5.98001782 L14.033,5.98001782 L14.034,8.64601782 Z M8.701,8.64601782 L7.327,8.64601782 L7.327,5.98001782 L8.7,5.98001782 L8.701,8.64601782 Z M7.327,13.9000178 L8.7,13.9000178 L8.7,16.6470178 L7.327,16.6470178 L7.327,13.9000178 Z M15.327,13.9000178 L16.62,13.9000178 L16.62,16.6470178 L15.327,16.6470178 L15.327,13.9000178 Z M15.327,17.9400178 L16.62,17.9400178 L16.62,22.7080178 L15.327,22.7080178 L15.327,17.9400178 Z M16.62,4.68701782 L15.327,4.68701782 L15.327,1.29301782 L16.62,1.29301782 L16.62,4.68701782 Z M14.034,4.68701782 L9.993,4.68701782 L9.993,1.29301782 L14.033,1.29301782 L14.034,4.68701782 Z M8.701,4.68701782 L7.327,4.68701782 L7.327,1.29301782 L8.7,1.29301782 L8.701,4.68701782 Z M9.993,21.9000178 C10.0023993,21.0539126 10.5580168,20.3110673 11.367,20.0630178 L11.367,22.7040178 L9.993,22.7040178 L9.993,21.9040178 L9.993,21.9000178 Z"></path>
            </g>
        </g>
    </g>
</svg>