<?xml version="1.0" encoding="UTF-8"?>
<svg width="24px" height="24px" viewBox="0 0 24 24" version="1.1" xmlns="http://www.w3.org/2000/svg" xmlns:xlink="http://www.w3.org/1999/xlink">
    <title>ic_pt_traditional</title>
    <g id="Page-1" stroke="none" stroke-width="1" fill="none" fill-rule="evenodd">
        <g id="ic_pt_traditional" transform="translate(0.005010, -0.000011)" fill="#1A2936" fill-rule="nonzero">
            <g id="Shape" transform="translate(0.000000, -0.000000)">
                <path d="M23.8629901,5.04501118 L20.7329901,0.345011182 C20.5868326,0.128429071 20.3422732,-0.000977336432 20.0809901,5.55923591e-06 L3.90899014,5.55923591e-06 C3.64725949,5.55923591e-06 3.4029126,0.131065285 3.25799014,0.349011182 L0.127990139,5.04901118 C-0.029206195,5.28901779 -0.0425511815,5.5957776 0.09320869,5.84852869 C0.228968562,6.10127979 0.492089982,6.25954155 0.778990139,6.26101118 L1.56199014,6.26101118 L1.56199014,23.2170112 C1.56198979,23.6490599 1.91194176,23.9994594 2.34399014,24.0000056 L21.6439901,24.0000056 C22.0764291,24.0000056 22.4269901,23.6494501 22.4269901,23.2170112 L22.4269901,6.26101118 L23.2099901,6.26101118 C23.4985814,6.26123966 23.7639032,6.10270391 23.9004374,5.84845328 C24.0369717,5.59420265 24.0225816,5.28545981 23.8629901,5.04501118 L23.8629901,5.04501118 Z M14.3429901,22.4340112 L9.64299014,22.4340112 L9.64299014,19.5650112 L10.4259901,19.5650112 C10.712222,19.5752452 10.9812017,19.4283802 11.1273538,19.1820614 C11.2735058,18.9357425 11.2735058,18.6292798 11.1273538,18.382961 C10.9812017,18.1366421 10.712222,17.9897772 10.4259901,18.0000112 L9.64699014,18.0000112 L9.64699014,15.6520112 L14.3469901,15.6520112 L14.3469901,22.4340112 L14.3429901,22.4340112 Z M20.8639901,17.2170112 L19.0379901,17.2170112 L19.0379901,15.6520112 L20.8639901,15.6520112 L20.8639901,17.2170112 Z M20.8639901,14.0870112 L18.2549901,14.0870112 C18.0473256,14.0870112 17.8481665,14.1695056 17.7013255,14.3163466 C17.5544845,14.4631876 17.4719901,14.6623467 17.4719901,14.8700112 L17.4719901,18.0000112 C17.4719901,18.2076757 17.5544845,18.4068348 17.7013255,18.5536758 C17.8481665,18.7005168 18.0473256,18.7830112 18.2549901,18.7830112 L20.8639901,18.7830112 L20.8639901,22.4350112 L15.9079901,22.4350112 L15.9079901,14.8690112 C15.9079901,14.4365722 15.5574291,14.0860112 15.1249901,14.0860112 L8.86499014,14.0860112 C8.43255118,14.0860112 8.08199014,14.4365722 8.08199014,14.8690112 L8.08199014,22.4340112 L3.12599014,22.4340112 L3.12599014,18.7820112 L5.73499014,18.7820112 C6.1666484,18.7814602 6.5164392,18.4316694 6.51699014,18.0000112 L6.51699014,14.8700112 C6.51699014,14.4375722 6.1664291,14.0870112 5.73399014,14.0870112 L3.12599014,14.0870112 L3.12599014,6.26101118 L20.8639901,6.26101118 L20.8639901,14.0870112 Z M3.12599014,17.2170112 L3.12599014,15.6520112 L4.95199014,15.6520112 L4.95199014,17.2170112 L3.12599014,17.2170112 Z M2.24099014,4.70001118 L4.32799014,1.57001118 L19.6629901,1.57001118 L21.7489901,4.70001118 L2.24099014,4.70001118 Z"></path>
                <path d="M8.86499014,7.82601118 L5.73499014,7.82601118 C5.52732563,7.82601118 5.32816651,7.90850559 5.18132553,8.05534657 C5.03448454,8.20218756 4.95199014,8.40134667 4.95199014,8.60901118 L4.95199014,11.7390112 C4.95199014,12.1714501 5.30255118,12.5220112 5.73499014,12.5220112 L8.86499014,12.5220112 C9.2974291,12.5220112 9.64799014,12.1714501 9.64799014,11.7390112 L9.64799014,8.60901118 C9.64799014,8.17657222 9.2974291,7.82601118 8.86499014,7.82601118 L8.86499014,7.82601118 Z M8.08199014,10.9560112 L6.51699014,10.9560112 L6.51699014,9.39201118 L8.08199014,9.39201118 L8.08199014,10.9570112 L8.08199014,10.9560112 Z"></path>
                <path d="M18.2549901,7.82601118 L11.9949901,7.82601118 C11.7873256,7.82601118 11.5881665,7.90850559 11.4413255,8.05534657 C11.2944845,8.20218756 11.2119901,8.40134667 11.2119901,8.60901118 L11.2119901,11.7390112 C11.2119901,12.1714501 11.5625512,12.5220112 11.9949901,12.5220112 L18.2549901,12.5220112 C18.6874291,12.5220112 19.0379901,12.1714501 19.0379901,11.7390112 L19.0379901,8.60901118 C19.0379901,8.40134667 18.9554957,8.20218756 18.8086547,8.05534657 C18.6618138,7.90850559 18.4626547,7.82601118 18.2549901,7.82601118 L18.2549901,7.82601118 Z M14.3419901,10.9560112 L12.7779901,10.9560112 L12.7779901,9.39201118 L14.3429901,9.39201118 L14.3419901,10.9560112 Z M17.4719901,10.9560112 L15.9079901,10.9560112 L15.9079901,9.39201118 L17.4729901,9.39201118 L17.4719901,10.9560112 Z"></path>
            </g>
        </g>
    </g>
</svg>