<?xml version="1.0" encoding="UTF-8"?>
<svg width="24px" height="24px" viewBox="0 0 24 24" version="1.1" xmlns="http://www.w3.org/2000/svg" xmlns:xlink="http://www.w3.org/1999/xlink">
    <title>ic_pt_building</title>
    <g id="Page-1" stroke="none" stroke-width="1" fill="none" fill-rule="evenodd">
        <g id="ic_pt_building" fill="#1A2936" fill-rule="nonzero">
            <g id="Group">
                <path d="M18,4.5 L18,0 L6,0 L6,4.5 L0,4.5 L0,24 L24,24 L24,4.5 L18,4.5 Z M6,22.5 L1.5,22.5 L1.5,20.25 L6,20.25 L6,22.5 Z M6,18.75 L1.5,18.75 L1.5,6 L6,6 L6,18.75 Z M13.5,22.5 L10.5,22.5 L10.5,19.5 L13.5,19.5 L13.5,22.5 Z M16.5,22.5 L15,22.5 L15,18 L9,18 L9,22.5 L7.5,22.5 L7.5,1.5 L16.5,1.5 L16.5,22.5 Z M22.5,22.5 L18,22.5 L18,20.25 L22.5,20.25 L22.5,22.5 Z M22.5,18.75 L18,18.75 L18,6 L22.5,6 L22.5,18.75 Z" id="Shape"></path>
                <rect id="Rectangle" x="9" y="15" width="1.5" height="1.5"></rect>
                <rect id="Rectangle" x="13.5" y="15" width="1.5" height="1.5"></rect>
                <rect id="Rectangle" x="9" y="12" width="1.5" height="1.5"></rect>
                <rect id="Rectangle" x="13.5" y="12" width="1.5" height="1.5"></rect>
                <rect id="Rectangle" x="9" y="9" width="1.5" height="1.5"></rect>
                <rect id="Rectangle" x="13.5" y="9" width="1.5" height="1.5"></rect>
                <rect id="Rectangle" x="9" y="6" width="1.5" height="1.5"></rect>
                <rect id="Rectangle" x="13.5" y="6" width="1.5" height="1.5"></rect>
                <rect id="Rectangle" x="19.5" y="15" width="1.5" height="1.5"></rect>
                <rect id="Rectangle" x="19.5" y="12" width="1.5" height="1.5"></rect>
                <rect id="Rectangle" x="19.5" y="9" width="1.5" height="1.5"></rect>
                <rect id="Rectangle" x="3" y="15" width="1.5" height="1.5"></rect>
                <rect id="Rectangle" x="3" y="12" width="1.5" height="1.5"></rect>
                <rect id="Rectangle" x="3" y="9" width="1.5" height="1.5"></rect>
                <rect id="Rectangle" x="9" y="3" width="1.5" height="1.5"></rect>
                <rect id="Rectangle" x="13.5" y="3" width="1.5" height="1.5"></rect>
            </g>
        </g>
    </g>
</svg>