<?xml version="1.0" encoding="UTF-8"?>
<svg width="24px" height="24px" viewBox="0 0 24 24" version="1.1" xmlns="http://www.w3.org/2000/svg" xmlns:xlink="http://www.w3.org/1999/xlink">
    <title>ic_pt_palace</title>
    <g id="Page-1" stroke="none" stroke-width="1" fill="none" fill-rule="evenodd">
        <g id="ic_pt_palace" fill="#1A2936" fill-rule="nonzero">
            <g id="Group">
                <path d="M22.588,15.529 L22.588,8.471 L19.732,8.471 C19.3864502,4.74314017 16.4338598,1.7905498 12.706,1.445 L12.706,0 L11.294,0 L11.294,1.444 C7.56579949,1.78962674 4.61309615,4.74275034 4.268,8.471 L1.412,8.471 L1.412,15.53 L0,15.53 L0,24 L24,24 L24,15.529 L22.588,15.529 Z M12,2.824 C14.1211139,2.82471839 16.1019003,3.88413897 17.28,5.648 L6.72,5.648 C7.89809973,3.88413897 9.8788861,2.82471839 12,2.824 L12,2.824 Z M6.01,7.059 L17.99,7.059 C18.151936,7.51564211 18.2606546,7.98944048 18.314,8.471 L5.686,8.471 C5.73934535,7.98944048 5.84806396,7.51564211 6.01,7.059 L6.01,7.059 Z M2.824,9.882 L21.176,9.882 L21.176,15.529 L19.765,15.529 L19.765,11.294 L15.529,11.294 L15.529,15.529 L14.118,15.529 L14.118,11.294 L9.882,11.294 L9.882,15.529 L8.471,15.529 L8.471,11.294 L4.235,11.294 L4.235,15.529 L2.824,15.529 L2.824,9.882 Z M18.353,15.529 L16.941,15.529 L16.941,12.706 L18.353,12.706 L18.353,15.529 Z M12.706,15.529 L11.294,15.529 L11.294,12.706 L12.706,12.706 L12.706,15.529 Z M7.059,15.529 L5.647,15.529 L5.647,12.706 L7.059,12.706 L7.059,15.529 Z M10.588,22.588 L10.588,19.765 L13.412,19.765 L13.412,22.589 L10.588,22.588 Z M22.588,22.588 L14.824,22.588 L14.824,18.353 L9.176,18.353 L9.176,22.588 L1.412,22.588 L1.412,16.941 L22.588,16.941 L22.588,22.588 Z" id="Shape"></path>
                <polygon id="Path" points="19.765 18.353 21.177 18.353 21.177 21.177 19.765 21.177"></polygon>
                <polygon id="Path" points="16.941 18.353 18.353 18.353 18.353 21.177 16.941 21.177"></polygon>
                <polygon id="Path" points="5.647 18.353 7.059 18.353 7.059 21.177 5.647 21.177"></polygon>
                <polygon id="Path" points="2.824 18.353 4.235 18.353 4.235 21.177 2.824 21.177"></polygon>
            </g>
        </g>
    </g>
</svg>