<?xml version="1.0" encoding="UTF-8"?>
<svg width="18px" height="24px" viewBox="0 0 18 24" version="1.1" xmlns="http://www.w3.org/2000/svg" xmlns:xlink="http://www.w3.org/1999/xlink">
    <title>ic_pt_worker_residental</title>
    <g id="Page-1" stroke="none" stroke-width="1" fill="none" fill-rule="evenodd">
        <g id="ic_pt_worker_residental" transform="translate(0.562000, -0.000000)" fill="#1A2936" fill-rule="nonzero">
            <path d="M15.015,15.344 L14.994,15.338 L11.485,14.452 L11.485,12.431 C12.2380655,11.6475433 12.6581545,10.6026972 12.657,9.51600004 L12.657,7.5 L13.595,7.5 C13.9832562,7.5 14.298,7.18525622 14.298,6.79700004 C14.298,6.40874386 13.9832562,6.09400004 13.595,6.09400004 L13.361,6.09400004 L13.361,5.85900004 C13.3574372,3.4122335 11.5595405,1.33845779 9.138,0.988000042 L9.138,0.700000042 C9.13800001,0.449914119 9.00458077,0.21882519 8.78800001,0.0937822243 C8.57141925,-0.0312607414 8.30458075,-0.0312607414 8.08799999,0.0937822243 C7.87141923,0.21882519 7.73799999,0.449914119 7.738,0.700000042 L7.738,0.988000042 C5.31685657,1.33890716 3.51949038,3.41256199 3.516,5.85900004 L3.516,6.09300004 L3.282,6.09300004 C2.89374382,6.09300004 2.579,6.40774386 2.579,6.79600004 C2.579,7.18425622 2.89374382,7.49900004 3.282,7.49900004 L4.22,7.49900004 L4.22,9.51600004 C4.2191309,10.62569 4.65693991,11.6907376 5.438,12.479 L5.438,14.451 L1.885,15.341 L1.864,15.347 C0.782714029,15.6907189 0.0357221124,16.6789604 0,17.813 L0,23.3 C0,23.6865994 0.313400675,24 0.7,24 L16.17,24 C16.5565993,24 16.87,23.6865994 16.87,23.3 L16.87,17.812 C16.8334762,16.6787455 16.0885072,15.690791 15.009,15.344 L15.015,15.344 Z M4.688,19.781 L12.188,19.781 L12.188,22.594 L4.688,22.594 L4.688,19.781 Z M5.438,18.375 L5.438,15.9 L6.046,15.748 L8.125,16.882 C8.33461712,16.9969146 8.58838288,16.9969146 8.798,16.882 L10.877,15.748 L11.485,15.902 L11.485,18.374 L5.438,18.375 Z M8.438,13.735 C9.00173781,13.7355851 9.55982435,13.6226755 10.079,13.403 L10.079,14.582 L8.462,15.464 L6.845,14.582 L6.845,13.422 C7.35059029,13.6289429 7.89169713,13.7352621 8.438,13.735 L8.438,13.735 Z M4.922,5.85900004 C4.92509041,4.18843508 6.10133902,2.74986966 7.738,2.41500004 L7.738,3.51500004 C7.738,3.90325622 8.05274382,4.21800004 8.441,4.21800004 C8.82925618,4.21800004 9.144,3.90325622 9.144,3.51500004 L9.144,2.41500004 C10.7798358,2.75118432 11.9546767,4.18997809 11.957,5.86000004 L11.957,6.09400004 L4.922,6.09400004 L4.922,5.85900004 Z M11.251,7.50000004 L11.251,9.51600004 C11.2220991,11.048632 9.97140439,12.2759647 8.4385,12.2759647 C6.90559561,12.2759647 5.65490087,11.048632 5.626,9.51600004 L5.626,7.50000004 L11.251,7.50000004 Z M1.406,17.812 C1.44090832,17.3101138 1.76636578,16.8751274 2.238,16.7 L4.031,16.251 L4.031,18.373 L3.985,18.373 C3.79934846,18.373 3.62130072,18.4467498 3.49002525,18.5780253 C3.35874979,18.7093008 3.285,18.8873485 3.285,19.073 L3.285,22.589 L1.406,22.589 L1.406,17.812 Z M15.47,22.594 L13.595,22.594 L13.595,19.078 C13.595,18.6914007 13.2815993,18.378 12.895,18.378 L12.895,18.378 L12.895,16.257 L14.638,16.7 C15.1097054,16.8763756 15.4352013,17.3116726 15.471,17.814 L15.47,22.594 Z" id="Shape"></path>
        </g>
    </g>
</svg>