<svg xmlns="http://www.w3.org/2000/svg" width="20.43" height="24.516" viewBox="0 0 20.43 24.516"><g transform="translate(0)"><rect width="1.572" height="1.572" transform="translate(3.143 12.73)" fill="#1a2936"/><rect width="1.572" height="1.572" transform="translate(6.286 12.73)" fill="#1a2936"/><rect width="1.572" height="1.572" transform="translate(3.143 9.587)" fill="#1a2936"/><rect width="1.572" height="1.572" transform="translate(6.286 9.587)" fill="#1a2936"/><rect width="1.572" height="1.572" transform="translate(3.143 6.443)" fill="#1a2936"/><rect width="1.572" height="1.572" transform="translate(6.286 6.443)" fill="#1a2936"/><path d="M56.53,0,51.815,3.143,47.1,0,41.6,3.666V24.516H62.03V3.666ZM47.886,22.945H46.315V19.016h1.572Zm3.143,0H49.458v-5.5H44.743v5.5H43.172V4.506L47.1,1.886,51.029,4.5Zm6.286,0H55.744V19.016h1.572Zm3.143,0H58.887v-5.5H54.172v5.5H52.6V4.506L56.53,1.886,60.459,4.5Z" transform="translate(-41.6)" fill="#1a2936"/><rect width="1.572" height="1.572" transform="translate(12.572 12.73)" fill="#1a2936"/><rect width="1.572" height="1.572" transform="translate(15.716 12.73)" fill="#1a2936"/><rect width="1.572" height="1.572" transform="translate(12.572 9.587)" fill="#1a2936"/><rect width="1.572" height="1.572" transform="translate(15.716 9.587)" fill="#1a2936"/><rect width="1.572" height="1.572" transform="translate(12.572 6.443)" fill="#1a2936"/><rect width="1.572" height="1.572" transform="translate(15.716 6.443)" fill="#1a2936"/></g></svg>