<?xml version="1.0" encoding="UTF-8"?>
<svg width="24px" height="24px" viewBox="0 0 24 24" version="1.1" xmlns="http://www.w3.org/2000/svg" xmlns:xlink="http://www.w3.org/1999/xlink">
    <title>ic_pt_villa</title>
    <g id="Page-1" stroke="none" stroke-width="1" fill="none" fill-rule="evenodd">
        <g id="ic_pt_villa" transform="translate(-0.003000, 0.000814)" fill="#1A2936" fill-rule="nonzero">
            <g id="Shape" transform="translate(0.000000, 0.000000)">
                <path d="M0.703,22.5931856 C0.314743821,22.5931856 0,22.9079294 0,23.2961856 C0,23.6844418 0.314743821,23.9991856 0.703,23.9991856 L23.303,23.9991856 C23.6895993,23.9991856 24.003,23.6857849 24.003,23.2991856 L24.003,0.699185576 C24.0027411,0.478265984 23.8982086,0.270433001 23.7210014,0.138512068 C23.5437942,0.00659113407 23.3147106,-0.0339345027 23.103,0.0291855757 L8.989,4.24818558 C8.61703623,4.35864253 8.40504307,4.7497218 8.51550002,5.12168557 C8.62595697,5.49364934 9.01703622,5.70564251 9.389,5.59518558 L11.297,5.02518558 L11.297,9.93718558 L0.703,9.93718558 C0.316400675,9.93718558 0.003,10.2505863 0.003,10.6371856 L0.003,14.8591856 C0.003,15.2457849 0.316400675,15.5591856 0.703,15.5591856 L2.863,15.5591856 L2.863,22.5901856 L0.703,22.5931856 Z M11.303,19.7801856 L10.603,19.7801856 C10.2147438,19.7801856 9.9,20.0949294 9.9,20.4831856 C9.9,20.8714418 10.2147438,21.1861856 10.603,21.1861856 L11.303,21.1861856 L11.303,22.5921856 L7.081,22.5921856 L7.081,18.3741856 L11.303,18.3741856 L11.303,19.7801856 Z M16.928,15.5611856 L16.928,22.5921856 L15.519,22.5921856 L15.519,15.5621856 L16.928,15.5611856 Z M19.74,15.5611856 L19.74,22.5921856 L18.331,22.5921856 L18.331,15.5621856 L19.74,15.5611856 Z M21.146,22.5921856 L21.146,15.5621856 L22.599,15.5621856 L22.599,22.5931856 L21.146,22.5921856 Z M22.597,1.64718558 L22.597,14.1551856 L12.703,14.1551856 L12.703,4.59918558 L22.597,1.64718558 Z M11.303,14.1551856 L9.894,14.1551856 L9.894,11.3431856 L11.303,11.3431856 L11.303,14.1551856 Z M7.084,14.1551856 L7.084,11.3431856 L8.487,11.3431856 L8.487,14.1551856 L7.084,14.1551856 Z M4.272,14.1551856 L4.272,11.3431856 L5.675,11.3431856 L5.675,14.1551856 L4.272,14.1551856 Z M1.413,14.1551856 L1.413,11.3431856 L2.863,11.3431856 L2.863,14.1551856 L1.413,14.1551856 Z M4.272,15.5611856 L14.116,15.5611856 L14.116,22.5921856 L12.703,22.5921856 L12.703,17.6711856 C12.703,17.2845863 12.3895993,16.9711856 12.003,16.9711856 L6.378,16.9711856 C5.99140068,16.9711856 5.678,17.2845863 5.678,17.6711856 L5.678,22.5931856 L4.269,22.5931856 L4.272,15.5611856 Z"></path>
                <path d="M14.815,12.749192 L20.44,12.749192 C20.8265993,12.749192 21.1400113,12.4357849 21.1400113,12.0491856 L21.1400113,6.32718558 C21.1412319,6.11016909 21.0417376,5.90485458 20.8706435,5.77134632 C20.6995493,5.63783805 20.4762076,5.59123711 20.266,5.64518558 L14.645,7.05218558 C14.3312289,7.12926645 14.1109792,7.41108694 14.1119935,7.73418558 L14.1119935,12.0461856 C14.1111982,12.2328774 14.1850065,12.4121545 14.3170188,12.5441668 C14.4490311,12.6761791 14.6283081,12.7499874 14.815,12.749192 Z M15.515,8.28218558 L19.734,7.22718558 L19.734,11.3421856 L15.519,11.3421856 L15.515,8.28218558 Z"></path>
            </g>
        </g>
    </g>
</svg>