<svg xmlns="http://www.w3.org/2000/svg" width="24" height="24" viewBox="0 0 24 24"><path d="M12,5.672A6.328,6.328,0,1,0,18.328,12,6.328,6.328,0,0,0,12,5.672Zm0,8.438A2.109,2.109,0,1,1,14.109,12,2.112,2.112,0,0,1,12,14.109Z" fill="#0fa4d3"/><path d="M14.109,12A2.112,2.112,0,0,1,12,14.109v4.219A6.328,6.328,0,0,0,12,5.672V9.891A2.112,2.112,0,0,1,14.109,12Z" fill="#0fa4d3"/><path d="M23.409,9.9l-2.634-.436A9.16,9.16,0,0,0,20,7.584L21.52,5.447a.7.7,0,0,0-.07-.9l-2-2a.7.7,0,0,0-.9-.07L16.416,4a9.16,9.16,0,0,0-1.884-.773L14.1.591A.707.707,0,0,0,13.406,0H10.594A.707.707,0,0,0,9.9.591L9.469,3.225A9.154,9.154,0,0,0,7.584,4L5.447,2.48a.7.7,0,0,0-.9.07l-2,2a.7.7,0,0,0-.07.9L4,7.584a9.165,9.165,0,0,0-.773,1.884L.591,9.9A.707.707,0,0,0,0,10.594v2.813a.707.707,0,0,0,.591.689l2.634.436A9.164,9.164,0,0,0,4,16.416L2.48,18.553a.7.7,0,0,0,.07.9l2,2a.7.7,0,0,0,.9.07L7.584,20a9.165,9.165,0,0,0,1.884.773L9.9,23.409a.707.707,0,0,0,.689.591h2.813a.707.707,0,0,0,.689-.591l.436-2.634A9.16,9.16,0,0,0,16.416,20l2.137,1.519a.7.7,0,0,0,.9-.07l2-2a.7.7,0,0,0,.07-.9L20,16.416a9.169,9.169,0,0,0,.773-1.884l2.634-.436A.707.707,0,0,0,24,13.406V10.594A.707.707,0,0,0,23.409,9.9ZM12,16.922A4.922,4.922,0,1,1,16.922,12,4.927,4.927,0,0,1,12,16.922Z" fill="#69dbff"/><path d="M24,10.594v2.813a.707.707,0,0,1-.591.689l-2.634.436A9.164,9.164,0,0,1,20,16.416l1.519,2.137a.7.7,0,0,1-.07.9l-2,2a.7.7,0,0,1-.9.07L16.416,20a9.165,9.165,0,0,1-1.884.773L14.1,23.409a.707.707,0,0,1-.689.591H12V16.922a4.922,4.922,0,0,0,0-9.844V0h1.406A.707.707,0,0,1,14.1.591l.436,2.634A9.154,9.154,0,0,1,16.416,4L18.553,2.48a.7.7,0,0,1,.9.07l2,2a.7.7,0,0,1,.07.9L20,7.584a9.165,9.165,0,0,1,.773,1.884l2.634.436A.707.707,0,0,1,24,10.594Z" fill="#31cdfe"/></svg>