<svg xmlns="http://www.w3.org/2000/svg" xmlns:xlink="http://www.w3.org/1999/xlink" width="24" height="24" viewBox="0 0 24 24"><defs><linearGradient id="a" x1="0.5" x2="0.5" y2="1" gradientUnits="objectBoundingBox"><stop offset="0" stop-color="#00b7fc"/><stop offset="1" stop-color="#31cdfe"/></linearGradient></defs><path d="M23.353.648A2.193,2.193,0,0,0,21.791,0H13.377a2.2,2.2,0,0,0-1.562.647L.647,11.815a2.209,2.209,0,0,0,0,3.125l8.413,8.413a2.209,2.209,0,0,0,3.125,0L23.353,12.185A2.2,2.2,0,0,0,24,10.623V2.209A2.193,2.193,0,0,0,23.353.648ZM19.531,5.172a.7.7,0,1,1,.7-.7A.7.7,0,0,1,19.531,5.172Z" fill="#31cdfe"/><path d="M9.061,23.352a2.209,2.209,0,0,0,3.125,0L23.353,12.185A2.2,2.2,0,0,0,24,10.623V2.209A2.193,2.193,0,0,0,23.353.648h0L20.028,3.972a.7.7,0,1,1-.994.994L4.854,19.146Z" fill="url(#a)"/><path d="M12,9.949A2.209,2.209,0,1,0,9.791,7.74,2.212,2.212,0,0,0,12,9.949Zm0-3.013a.8.8,0,1,1-.8.8A.8.8,0,0,1,12,6.936Z" fill="#fff"/><path d="M12,14.051a2.209,2.209,0,1,0,2.209,2.209A2.212,2.212,0,0,0,12,14.051Zm0,3.013a.8.8,0,1,1,.8-.8A.8.8,0,0,1,12,17.063Z" fill="#edf1f8"/><path d="M16.519,11.3H7.481a.7.7,0,1,0,0,1.406h9.037a.7.7,0,0,0,0-1.406Z" fill="#fff"/><path d="M16.519,12.7a.7.7,0,0,0,0-1.406H12.7L11.3,12.7Z" fill="#edf1f8"/></svg>