<svg id="test" xmlns="http://www.w3.org/2000/svg" xmlns:xlink="http://www.w3.org/1999/xlink" width="72.006" height="72.006" viewBox="0 0 72.006 72.006">
  <defs>
    <linearGradient id="linear-gradient" x1="0.5" y1="1" x2="0.5" gradientUnits="objectBoundingBox">
      <stop offset="0" stop-color="#00b7fc"/>
      <stop offset="1" stop-color="#31cdfe"/>
    </linearGradient>
    <linearGradient id="linear-gradient-2" x1="0.5" y1="1" x2="0.5" gradientUnits="objectBoundingBox">
      <stop offset="0" stop-color="#addcff"/>
      <stop offset="0.503" stop-color="#eaf6ff"/>
      <stop offset="1" stop-color="#eaf6ff"/>
    </linearGradient>
  </defs>
  <g id="Сгруппировать_14741" data-name="Сгруппировать 14741">
    <g id="Сгруппировать_14740" data-name="Сгруппировать 14740">
      <path id="Контур_4801" data-name="Контур 4801" d="M42.191,54.848a12.745,12.745,0,0,1,7.215-11.434,2.078,2.078,0,0,0,1.223-1.9V14.767l-12.657-2.11L35.862,0H2.11A2.089,2.089,0,0,0,0,2.11V61.177a2.089,2.089,0,0,0,2.11,2.11H41.516a2.128,2.128,0,0,0,1.772-.971,2.023,2.023,0,0,0,.126-2.067,12.221,12.221,0,0,1-1.223-5.4Zm22.25-4.811a4.218,4.218,0,0,0-5.966,0L53.02,55.492l-1.236-1.236a4.219,4.219,0,1,0-5.966,5.966l4.219,4.219a4.218,4.218,0,0,0,5.966,0L64.441,56A4.225,4.225,0,0,0,64.441,50.037Z" fill="url(#linear-gradient)"/>
    </g>
  </g>
  <g id="Сгруппировать_14743" data-name="Сгруппировать 14743" transform="translate(12.657 0)">
    <g id="Сгруппировать_14742" data-name="Сгруппировать 14742">
      <path id="Контур_4802" data-name="Контур 4802" d="M127.339,13.29,114.682.633A1.979,1.979,0,0,0,113.205,0V12.657a2.11,2.11,0,0,0,2.11,2.11h12.657A1.979,1.979,0,0,0,127.339,13.29ZM92.11,16.876h8.438a2.11,2.11,0,1,0,0-4.219H92.11a2.11,2.11,0,0,0,0,4.219Zm21.1,8.438H92.11a2.11,2.11,0,0,0,0,4.219h21.1a2.11,2.11,0,0,0,0-4.219Zm0,8.438H92.11a2.11,2.11,0,0,0,0,4.219h21.1a2.11,2.11,0,0,0,0-4.219Zm0,8.438H92.11a2.11,2.11,0,0,0,0,4.219h21.1a2.11,2.11,0,0,0,0-4.219Zm19.267-3.938a16.876,16.876,0,1,0,16.876,16.876A16.918,16.918,0,0,0,132.472,38.253Zm7.82,16.258-8.438,8.438a2.108,2.108,0,0,1-2.983,0l-4.219-4.219a2.109,2.109,0,0,1,2.983-2.983l2.728,2.728,6.947-6.947a2.109,2.109,0,1,1,2.983,2.983Z" transform="translate(-90 0)" fill="url(#linear-gradient-2)"/>
    </g>
  </g>
</svg>
