<svg width="16" height="16" viewBox="0 0 16 16" fill="none" xmlns="http://www.w3.org/2000/svg">
<mask id="mask0_1_14019" style="mask-type:luminance" maskUnits="userSpaceOnUse" x="0" y="0" width="16" height="16">
<path d="M16 0H0V16H16V0Z" fill="white"/>
</mask>
<g mask="url(#mask0_1_14019)">
<path d="M15.952 4.7C15.9384 4.03697 15.8126 3.38103 15.58 2.76C15.3791 2.22615 15.0641 1.74257 14.657 1.343C14.2574 0.935951 13.7738 0.620963 13.24 0.42C12.619 0.18734 11.963 0.0615604 11.3 0.048C10.445 0.009 10.173 0 8 0C5.827 0 5.555 0.009 4.7 0.048C4.03697 0.0615989 3.38103 0.187377 2.76 0.42C2.22615 0.620935 1.74257 0.935926 1.343 1.343C0.935951 1.74259 0.620963 2.22617 0.42 2.76C0.187358 3.38103 0.0615797 4.03697 0.048 4.7C0.009 5.555 0 5.827 0 8C0 10.173 0.009 10.445 0.048 11.3C0.0615604 11.963 0.18734 12.619 0.42 13.24C0.620906 13.7739 0.935901 14.2574 1.343 14.657C1.74255 15.0641 2.22614 15.3791 2.76 15.58C3.38164 15.8129 4.03829 15.9387 4.702 15.952C5.555 15.991 5.828 16 8 16C10.172 16 10.445 15.991 11.3 15.952C11.9637 15.9387 12.6204 15.8129 13.242 15.58C13.7735 15.3745 14.2563 15.0602 14.6592 14.6572C15.0622 14.2543 15.3765 13.7715 15.582 13.24C15.8149 12.6184 15.9407 11.9617 15.954 11.298C15.993 10.445 16.002 10.172 16.002 7.998C16.002 5.824 15.991 5.555 15.952 4.7ZM14.512 11.231C14.5061 11.7381 14.4131 12.2404 14.237 12.716C14.1039 13.061 13.9001 13.3742 13.6387 13.6357C13.3772 13.8971 13.064 14.1009 12.719 14.234C12.2434 14.4101 11.7411 14.5031 11.234 14.509C10.391 14.548 10.134 14.556 8.001 14.556C5.868 14.556 5.612 14.548 4.768 14.509C4.2609 14.503 3.7586 14.41 3.283 14.234C2.93533 14.1053 2.62094 13.9003 2.363 13.634C2.0967 13.3761 1.89166 13.0617 1.763 12.714C1.58693 12.2384 1.49391 11.7361 1.488 11.229C1.45 10.385 1.441 10.129 1.441 7.996C1.441 5.863 1.449 5.607 1.488 4.763C1.49397 4.25591 1.58699 3.75361 1.763 3.278C1.89172 2.93034 2.09675 2.61597 2.363 2.358C2.6209 2.09167 2.9353 1.88663 3.283 1.758C3.75852 1.58157 4.26084 1.48821 4.768 1.482C5.612 1.444 5.868 1.435 8.001 1.435H8C10.136 1.435 10.389 1.443 11.233 1.482C11.7401 1.48793 12.2424 1.58095 12.718 1.757C13.0657 1.88572 13.38 2.09075 13.638 2.357C13.9043 2.6149 14.1094 2.9293 14.238 3.277C14.4145 3.75251 14.5078 4.25483 14.514 4.762C14.552 5.606 14.561 5.862 14.561 7.995C14.561 10.128 14.55 10.389 14.512 11.233V11.231Z" fill="url(#paint0_linear_1_14019)"/>
<path d="M7.99997 3.89197C7.18748 3.89197 6.39324 4.1329 5.71769 4.58429C5.04213 5.03568 4.5156 5.67727 4.20467 6.4279C3.89375 7.17854 3.8124 8.00452 3.9709 8.8014C4.12941 9.59827 4.52066 10.3302 5.09517 10.9048C5.66969 11.4793 6.40166 11.8705 7.19854 12.029C7.99541 12.1875 8.82139 12.1062 9.57203 11.7953C10.3227 11.4843 10.9643 10.9578 11.4156 10.2823C11.867 9.60669 12.108 8.81245 12.108 7.99997C12.108 7.4605 12.0017 6.92631 11.7953 6.4279C11.5888 5.9295 11.2862 5.47664 10.9048 5.09517C10.5233 4.71371 10.0704 4.41112 9.57203 4.20467C9.07363 3.99822 8.53944 3.89197 7.99997 3.89197ZM7.99997 10.667C7.47249 10.667 6.95685 10.5106 6.51826 10.2175C6.07968 9.92444 5.73784 9.50791 5.53598 9.02058C5.33412 8.53325 5.28131 7.99701 5.38422 7.47966C5.48712 6.96231 5.74113 6.4871 6.11412 6.11411C6.4871 5.74113 6.96232 5.48712 7.47966 5.38421C7.99701 5.28131 8.53326 5.33412 9.02059 5.53598C9.50792 5.73784 9.92445 6.07968 10.2175 6.51826C10.5106 6.95685 10.667 7.47248 10.667 7.99997C10.667 8.7073 10.386 9.38566 9.88582 9.88582C9.38566 10.386 8.7073 10.667 7.99997 10.667Z" fill="url(#paint1_linear_1_14019)"/>
<path d="M13.2301 3.73002C13.2301 3.91989 13.1738 4.1055 13.0683 4.26337C12.9628 4.42124 12.8129 4.54428 12.6374 4.61694C12.462 4.6896 12.269 4.70862 12.0828 4.67157C11.8966 4.63453 11.7255 4.5431 11.5912 4.40884C11.457 4.27458 11.3655 4.10353 11.3285 3.91731C11.2915 3.73108 11.3105 3.53806 11.3831 3.36264C11.4558 3.18723 11.5788 3.03729 11.7367 2.93181C11.8946 2.82632 12.0802 2.77002 12.2701 2.77002C12.5247 2.77002 12.7688 2.87116 12.9489 3.0512C13.1289 3.23123 13.2301 3.47541 13.2301 3.73002Z" fill="url(#paint2_linear_1_14019)"/>
</g>
<defs>
<linearGradient id="paint0_linear_1_14019" x1="1.34417" y1="14.656" x2="14.6562" y2="1.34234" gradientUnits="userSpaceOnUse">
<stop stop-color="#FFD600"/>
<stop offset="0.5" stop-color="#FF0100"/>
<stop offset="1" stop-color="#D800B9"/>
</linearGradient>
<linearGradient id="paint1_linear_1_14019" x1="5.0915" y1="10.9084" x2="10.9084" y2="5.0915" gradientUnits="userSpaceOnUse">
<stop stop-color="#FF6400"/>
<stop offset="0.5" stop-color="#FF0100"/>
<stop offset="1" stop-color="#FD0056"/>
</linearGradient>
<linearGradient id="paint2_linear_1_14019" x1="11.5904" y1="4.4097" x2="12.9497" y2="3.05034" gradientUnits="userSpaceOnUse">
<stop stop-color="#F30072"/>
<stop offset="1" stop-color="#E50097"/>
</linearGradient>
</defs>
</svg>
