<svg width="16" height="16" viewBox="0 0 16 16" fill="none" xmlns="http://www.w3.org/2000/svg">
<mask id="mask0_1_14030" style="mask-type:luminance" maskUnits="userSpaceOnUse" x="0" y="0" width="16" height="16">
<path d="M16 0H0V16H16V0Z" fill="white"/>
</mask>
<g mask="url(#mask0_1_14030)">
<path d="M16.0001 16V10.131C16.0001 7.26003 15.3821 5.04903 12.0261 5.04903C11.3959 5.02563 10.7711 5.17373 10.2185 5.47753C9.66584 5.78132 9.20602 6.22942 8.88806 6.77403H8.84106V5.31703H5.65906V16H8.97206V10.71C8.97206 9.31703 9.23606 7.97103 10.9611 7.97103C12.6611 7.97103 12.6861 9.56003 12.6861 10.8V16H16.0001Z" fill="#0073B1"/>
<path d="M0.264038 5.31799H3.58104V16H0.264038V5.31799Z" fill="#0073B1"/>
<path d="M1.92101 1.65012e-05C1.53858 -0.0015646 1.16429 0.11051 0.845659 0.322016C0.527028 0.533522 0.278417 0.834924 0.13138 1.18797C-0.0156581 1.54101 -0.0544934 1.92978 0.0198025 2.30494C0.0940984 2.68009 0.278176 3.02472 0.548672 3.29507C0.819169 3.56543 1.16389 3.74932 1.53908 3.82343C1.91427 3.89753 2.30302 3.85849 2.65599 3.71127C3.00896 3.56405 3.31023 3.31528 3.52157 2.99654C3.73291 2.6778 3.84479 2.30345 3.84301 1.92102C3.84275 1.41144 3.64013 0.922832 3.27972 0.562604C2.9193 0.202375 2.43058 1.64323e-05 1.92101 1.65012e-05Z" fill="#0073B1"/>
</g>
</svg>
