<svg width="103" height="142" viewBox="0 0 103 142" fill="none" xmlns="http://www.w3.org/2000/svg">
<path d="M84.5631 27.237L64.0315 3.27329C62.7925 1.83213 60.9933 1.00254 59.0906 1.00254H35.9407C35.9407 1.00254 28.4979 0.877781 27.8822 0.984714C27.2663 1.09153 26.5183 1.39426 26.2197 1.57322C26.1489 1.60739 21.7964 3.64646 24.3167 9.46909C26.8778 15.3797 35.9407 12.243 35.9407 61.9332H59.0906C60.9933 61.9332 62.7925 61.1039 64.0315 59.6623L84.5631 35.6985C86.6474 33.2617 86.6474 29.6687 84.5631 27.237ZM70.2324 34.7809C70.2324 35.2527 69.8489 35.6364 69.377 35.6364H67.3549C66.8831 35.6364 66.4994 35.2527 66.4994 34.7809V32.7536C66.4994 32.2818 66.8831 31.8982 67.3549 31.8982H69.377C69.8489 31.8982 70.2324 32.2818 70.2324 32.7536V34.7809ZM70.2324 30.1769C70.2324 30.6487 69.8489 31.0323 69.377 31.0323H67.3549C66.8831 31.0323 66.4994 30.6487 66.4994 30.1769V28.1548C66.4994 27.6831 66.8831 27.2993 67.3549 27.2993H69.377C69.8489 27.2993 70.2324 27.6831 70.2324 28.1548V30.1769ZM74.9142 34.7809C74.9142 35.2527 74.5305 35.6364 74.0589 35.6364H72.0316C71.5598 35.6364 71.1762 35.2527 71.1762 34.7809V32.7536C71.1762 32.2818 71.5598 31.8982 72.0316 31.8982H74.0589C74.5305 31.8982 74.9142 32.2818 74.9142 32.7536V34.7809ZM74.9142 30.1769C74.9142 30.6487 74.5305 31.0323 74.0589 31.0323H72.0316C71.5598 31.0323 71.1762 30.6487 71.1762 30.1769V28.1548C71.1762 27.6831 71.5598 27.2993 72.0316 27.2993H74.0589C74.5305 27.2993 74.9142 27.6831 74.9142 28.1548V30.1769Z" fill="#651FB4"/>
<path d="M61.5908 52.6506C61.5908 60.158 55.9447 66.3435 48.6653 67.1936C48.1002 67.2612 47.5248 67.2974 46.944 67.2974C45.6375 67.2974 44.3672 67.1262 43.1643 66.7996C42.4696 66.561 41.7852 66.3228 41.1061 66.0842C36.9375 64.6167 33.1163 63.1909 30.161 61.8481C29.6841 61.6304 29.2279 61.418 28.8026 61.2051C28.7975 61.2051 28.7975 61.2051 28.7922 61.2002C28.1858 60.863 27.6152 60.4795 27.0812 60.0493C25.7125 58.9397 24.5875 57.5398 23.8046 55.9375C23.0944 54.4705 22.6743 52.8318 22.6172 51.1055V7.90112C22.6172 4.97192 24.0851 2.3064 26.7959 1.29102C25.3164 1.89722 23.799 3.52539 23.799 5.29321C23.799 7.38794 25.6348 9.17139 27.4856 9.86621C27.4961 9.86621 27.5065 9.87134 27.5168 9.87671C27.6152 9.90771 27.719 9.93872 27.8175 9.9751C27.8383 9.98022 27.8539 9.98535 27.8695 9.99048C30.4099 10.8359 33.5052 11.7637 36.4189 12.6143C41.6038 14.1177 46.2336 15.3567 46.2336 15.3567V15.3984C52.9375 16.7463 57.9823 22.6621 57.9823 29.76C57.9823 33.6538 56.4684 37.1897 53.99 39.8079C58.5214 42.2966 61.5908 47.1133 61.5908 52.6506Z" fill="url(#paint0_linear_7_15880)"/>
<path d="M76.8645 102.014C75.769 101.443 74.9121 100.654 74.2939 99.6465C73.6804 98.6387 73.3738 97.4941 73.3738 96.2148C73.3738 94.9336 73.6804 93.7891 74.2939 92.7812C74.9121 91.7734 75.769 90.9902 76.8645 90.4199C77.96 89.8516 79.1965 89.5684 80.5745 89.5684C81.9326 89.5684 83.1206 89.8516 84.1382 90.4199C85.1509 90.9902 85.8909 91.7988 86.3582 92.8555L83.4517 94.418C82.7798 93.2305 81.811 92.6406 80.55 92.6406C79.5713 92.6406 78.7632 92.957 78.1255 93.5996C77.4827 94.2383 77.1663 95.1094 77.1663 96.2148C77.1663 97.3203 77.4827 98.1914 78.1255 98.834C78.7632 99.4707 79.5713 99.793 80.55 99.793C81.8303 99.793 82.7944 99.1992 83.4517 98.0156L86.3582 99.5977C85.8909 100.625 85.1509 101.424 84.1382 101.998C83.1206 102.578 81.9326 102.865 80.5745 102.865C79.1965 102.865 77.96 102.578 76.8645 102.014ZM61.7329 102.014C60.613 101.443 59.7463 100.654 59.1379 99.6465C58.5342 98.6387 58.2275 97.4941 58.2275 96.2148C58.2275 94.9531 58.5293 93.8145 59.1282 92.7969C59.7271 91.7793 60.5547 90.9902 61.6013 90.4199C62.6482 89.8516 63.8264 89.5684 65.1409 89.5684C66.3726 89.5684 67.4924 89.8262 68.5002 90.3477C69.5081 90.8691 70.3113 91.6191 70.9102 92.6016C71.5139 93.5898 71.8108 94.7539 71.8108 96.0977L62.2585 97.9434C62.5312 98.5859 62.9597 99.0625 63.5439 99.3848C64.1282 99.7051 64.844 99.8613 65.6909 99.8613C66.3628 99.8613 66.9617 99.7637 67.4778 99.5645C67.9988 99.3652 68.4856 99.0488 68.9336 98.6152L70.9248 100.775C69.7075 102.168 67.9307 102.865 65.5986 102.865C64.1379 102.865 62.8525 102.578 61.7329 102.014ZM62.8381 93.3125C62.2441 93.9219 61.9324 94.7578 61.8984 95.8301L68.1887 94.6074C68.0134 93.9355 67.6531 93.4004 67.1077 93.002C66.5625 92.6016 65.9102 92.4023 65.1409 92.4023C64.1963 92.4023 63.427 92.7051 62.8381 93.3125ZM23.6067 102.047C22.6233 101.502 21.854 100.729 21.2942 99.7207C20.7344 98.7129 20.4519 97.543 20.4519 96.2148C20.4519 94.8906 20.7344 93.7227 21.2942 92.709C21.854 91.7012 22.6233 90.9277 23.6067 90.3867C24.5903 89.8418 25.6907 89.5684 26.9077 89.5684C28.5581 89.5684 29.8435 90.0898 30.7734 91.127V89.7578H34.5173V102.67H30.939V101.186C30.0139 102.305 28.6702 102.865 26.9077 102.865C25.6907 102.865 24.5903 102.592 23.6067 102.047ZM25.1794 93.6094C24.5562 94.2617 24.2446 95.1289 24.2446 96.2148C24.2446 97.3047 24.5562 98.1719 25.1794 98.8184C25.8025 99.4668 26.5962 99.793 27.5552 99.793C28.4998 99.793 29.2837 99.4668 29.9067 98.8184C30.53 98.1719 30.8464 97.3047 30.8464 96.2148C30.8464 95.1289 30.53 94.2617 29.9067 93.6094C29.2837 92.9668 28.4998 92.6406 27.5552 92.6406C26.5962 92.6406 25.8025 92.9668 25.1794 93.6094ZM97.8774 102.67V95.8535C97.8774 94.832 97.6533 94.0684 97.2056 93.5664C96.7576 93.0605 96.1101 92.8066 95.2581 92.8066C94.3184 92.8066 93.5637 93.0977 93.0039 93.6836C92.4441 94.2676 92.1665 95.1387 92.1665 96.2871V102.67H88.4226V84.8613H92.1665V91.1016C92.6582 90.6055 93.262 90.2266 93.9629 89.9629C94.6689 89.7012 95.4382 89.5684 96.2708 89.5684C97.8677 89.5684 99.1577 90.0508 100.146 91.0098C101.13 91.9688 101.621 93.3906 101.621 95.2793V102.67H97.8774ZM49.1816 102.67V88.9707C47.531 89.209 45.978 89.7441 44.5222 90.5762L43.2029 87.6699C44.3567 86.9844 45.6033 86.4629 46.9468 86.1113C48.2905 85.7617 49.6782 85.5859 51.0999 85.5859C52.541 85.5859 53.9382 85.7617 55.2869 86.1113C56.6404 86.4629 57.8867 86.9844 59.021 87.6699L57.7017 90.5762C56.2605 89.7441 54.7173 89.209 53.0667 88.9707V102.67H49.1816ZM37.9741 102.67V89.7578H41.718V102.67H37.9741ZM3.31445 102.67V85.8691H11.5229C13.5725 85.8691 15.1453 86.2637 16.2405 87.0469C17.3359 87.8301 17.8862 88.8965 17.8862 90.2402C17.8862 91.0586 17.6865 91.7832 17.2971 92.4219C16.9028 93.0645 16.3574 93.5664 15.6516 93.9355C16.6106 94.2383 17.3652 94.75 17.9106 95.459C18.4509 96.1699 18.7236 97.0469 18.7236 98.0898C18.7236 99.5586 18.1541 100.693 17.0098 101.482C15.8657 102.275 14.1958 102.67 12.0049 102.67H3.31445ZM7.18018 99.7441H11.7178C12.74 99.7441 13.5142 99.5742 14.0303 99.2383C14.5513 98.9023 14.8142 98.3867 14.8142 97.6797C14.8142 96.2871 13.782 95.5918 11.7178 95.5918H7.18018V99.7441ZM7.18018 92.7578H11.0459C12.0049 92.7578 12.7302 92.5918 13.2268 92.2559C13.7236 91.9199 13.9719 91.4238 13.9719 90.7656C13.9719 90.1094 13.7236 89.6172 13.2268 89.291C12.7302 88.9648 12.0049 88.7988 11.0459 88.7988H7.18018V92.7578ZM38.1638 87.3594C37.7307 86.959 37.5164 86.4629 37.5164 85.8691C37.5164 85.2793 37.7307 84.7832 38.1638 84.3828C38.5972 83.9844 39.1572 83.7852 39.8435 83.7852C40.53 83.7852 41.0898 83.9746 41.5232 84.3594C41.9565 84.7441 42.1709 85.2266 42.1709 85.8008C42.1709 86.4238 41.9565 86.9395 41.5232 87.3496C41.0898 87.7578 40.53 87.957 39.8435 87.957C39.1572 87.957 38.5972 87.7578 38.1638 87.3594Z" fill="#1A2936" stroke="black"/>
<path d="M93.5869 138.223L96.3181 135.496L99.1079 138.223L96.3767 140.92L93.5869 138.223ZM44.824 138.412L42.3167 140.92L39.5562 138.193L42.2825 135.496L44.824 137.973L47.3652 135.496L50.1257 138.193L47.3994 140.92L44.824 138.412ZM92.8762 133.48H86.8635H80.8459H74.8335H68.8208H62.8032H56.7908H50.7781C48.9182 133.48 47.1899 132.715 45.6028 131.188C44.3809 132.715 42.1802 133.48 38.9963 133.48C37.1365 133.48 35.4131 132.715 33.821 131.188C32.5989 132.715 30.3984 133.48 27.2192 133.48C24.449 133.48 22.5164 132.695 21.4209 131.123C19.084 132.695 16.2847 133.48 13.0178 133.48H8.77246C6.27002 133.48 4.37622 132.906 3.08594 131.762C1.79102 130.613 1.14844 128.914 1.14844 126.658C1.14844 125.154 1.36255 123.416 1.7959 121.455L4.71216 121.824C4.41992 123.562 4.27881 124.844 4.27881 125.666C4.27881 127.137 4.71704 128.213 5.59326 128.895C6.47461 129.576 7.80371 129.916 9.58057 129.916H13.0178C16.2456 129.916 18.7334 129.439 20.491 128.49C20.4277 128.096 20.3984 127.652 20.3984 127.156L20.3645 111.318L23.748 110.852V126.162C23.748 128.664 24.8921 129.916 27.1853 129.916C27.1963 129.916 27.2068 129.916 27.2173 129.918C27.2273 129.916 27.2378 129.916 27.2485 129.916C28.7578 129.916 29.8677 129.629 30.5835 129.064C31.2942 128.494 31.6497 127.57 31.6497 126.289V121.703L34.9993 121.236V127.34C34.9993 127.754 34.9651 128.168 34.9067 128.582C36.1677 129.469 37.5308 129.916 38.9963 129.916C39.0022 129.916 39.0076 129.916 39.0132 129.916C39.019 129.916 39.0244 129.916 39.0303 129.916C40.5347 129.916 41.6497 129.629 42.3604 129.064C43.0762 128.494 43.4314 127.57 43.4314 126.289V121.703L46.7761 121.236V127.34C46.7761 127.754 46.7468 128.168 46.6836 128.582C47.9446 129.469 49.3079 129.916 50.7781 129.916H56.7908H62.8032H68.8208H74.8335H80.8459H86.8635H92.8762C92.8811 129.916 92.886 129.916 92.8909 129.916C92.8958 129.916 92.9004 129.916 92.9053 129.916C95.2229 129.916 96.3767 128.709 96.3767 126.289L96.3474 118.445L99.7261 117.979V127.34C99.7261 129.326 99.1516 130.846 98.0076 131.902C96.8586 132.955 95.1499 133.48 92.8762 133.48ZM8.80176 122.662V120.057H10.603C10.228 119.479 10.0432 118.85 10.0432 118.168C10.0432 117.176 10.3743 116.377 11.0364 115.777C11.6985 115.18 12.5552 114.883 13.6069 114.883C14.3323 114.883 15.1355 115.096 16.0266 115.529V117.92C15.1794 117.609 14.4639 117.453 13.8892 117.453C13.3926 117.453 12.9934 117.574 12.6965 117.809C12.3945 118.047 12.2437 118.363 12.2437 118.758C12.2437 119.211 12.4189 119.645 12.7695 120.057H17.0781L16.3381 122.662H8.80176ZM33.1687 116.863L30.6565 119.375L27.9009 116.65L30.6272 113.953L33.1687 116.43L35.71 113.953L38.4705 116.65L35.7441 119.375L33.1687 116.863Z" fill="#1A2936" stroke="black"/>
<defs>
<linearGradient id="paint0_linear_7_15880" x1="24.9752" y1="44.9396" x2="24.9752" y2="40.919" gradientUnits="userSpaceOnUse">
<stop offset="1" stop-color="#31CDFE"/>
<stop stop-color="#00B7FC"/>
</linearGradient>
</defs>
</svg>
