<svg id="Component_12_155" data-name="Component 12 – 155" xmlns="http://www.w3.org/2000/svg" xmlns:xlink="http://www.w3.org/1999/xlink" width="32" height="32" viewBox="0 0 32 32">
  <defs>
    <clipPath id="clip-path">
      <rect id="Rectangle_8308" data-name="Rectangle 8308" width="16" height="16" transform="translate(8 8)" fill="#fff" stroke="#707070" stroke-width="1"/>
    </clipPath>
  </defs>
  <g id="Component_1_25" data-name="Component 1 – 25">
    <rect id="Rectangle_7814" data-name="Rectangle 7814" width="32" height="32" rx="9" fill="#fff" opacity="0.811"/>
    <g id="Mask_Group_14274" data-name="Mask Group 14274" clip-path="url(#clip-path)">
      <path id="_x30_4.Twitter" d="M18,5.039a6.839,6.839,0,0,1-1.89.518,3.262,3.262,0,0,0,1.443-1.813,6.555,6.555,0,0,1-2.08.794A3.28,3.28,0,0,0,9.8,6.781a3.377,3.377,0,0,0,.076.748A9.284,9.284,0,0,1,3.114,4.1,3.285,3.285,0,0,0,4.122,8.482a3.239,3.239,0,0,1-1.482-.4,3.307,3.307,0,0,0,2.628,3.259,3.256,3.256,0,0,1-1.481.052,3.311,3.311,0,0,0,3.065,2.285A6.577,6.577,0,0,1,2,15.028,9.234,9.234,0,0,0,7.032,16.5a9.272,9.272,0,0,0,9.336-9.334c0-.145-.005-.285-.012-.424A6.544,6.544,0,0,0,18,5.039Z" transform="translate(6 6)" fill="#1da1f3"/>
    </g>
  </g>
</svg>
