<svg xmlns="http://www.w3.org/2000/svg" width="6186.848" height="6807.43" viewBox="-11132.256 -16912 1546.712 1701.857"><g data-name="iPhone 12, 12 Pro – 2"><g data-name="Mask Group 12" transform="translate(-12070 -17012)" clip-path="url(&quot;#a&quot;)"><g data-name="Group 13183"><g data-name="Group 13180"><path d="M447.052 168.01c0-86.115-64.766-157.066-148.264-166.82a166.536 166.536 0 0 0-63.1 4.519 3648.645 3648.645 0 0 0-23.61 8.206C164.262 30.746 120.43 47.102 86.532 62.507c-5.471 2.497-10.705 4.935-15.581 7.374-.06 0-.06 0-.119.06a138.087 138.087 0 0 0-19.628 13.202 139.772 139.772 0 0 0-37.586 47.162A137.45 137.45 0 0 0 0 185.733v495.58a88.367 88.367 0 0 0 46.33 77.79c-16.118-9.813-32.776-27.597-32.776-47.875 0-24.026 21.058-44.485 42.29-52.455a.839.839 0 0 0 .357-.118c1.13-.357 2.32-.714 3.45-1.13.238-.06.416-.119.595-.178 29.141-9.695 64.646-20.34 98.069-30.094 59.472-17.246 112.58-31.46 112.58-31.46 76.898-15.94 134.764-83.797 134.764-165.214a167.035 167.035 0 0 0-45.793-115.257c53.796-29.485 87.224-85.966 87.186-147.313Z" fill-rule="evenodd" fill="url(&quot;#b&quot;)" transform="rotate(-102.016 1214.984 92.473)" data-name="Path 46"/><path d="M1457.908 838.245c-84.228 17.928-140.142 96.045-132.3 179.745a166.536 166.536 0 0 0 17.557 60.776 3648.645 3648.645 0 0 0 12.942 21.384c26.416 43.265 51.539 82.73 73.663 112.68 3.582 4.831 7.056 9.443 10.457 13.704.012.059.012.059.083.104a138.087 138.087 0 0 0 16.999 16.45 139.772 139.772 0 0 0 53.953 26.944 137.45 137.45 0 0 0 57.049 1.78l484.722-103.17a88.367 88.367 0 0 0 66.44-61.508c-6.242 17.807-20.17 37.802-40.003 42.024-23.5 5.001-47.894-11.336-60.109-30.444a.839.839 0 0 0-.19-.324c-.584-1.032-1.181-2.12-1.823-3.14a7.551 7.551 0 0 0-.299-.544c-15.548-26.484-33.351-58.996-49.85-89.655-29.249-54.579-54.208-103.565-54.208-103.565-31.598-71.894-110.016-114.366-189.649-97.417a167.035 167.035 0 0 0-103.199 68.784c-40.037-46.479-102.24-67.416-162.235-54.608Z" stroke-linejoin="round" stroke-linecap="round" stroke-width=".236" stroke="#1a2936" fill="transparent" data-name="Path 122"/></g><g data-name="Group 13182"><path d="M447.052 168.01c0-86.115-64.766-157.066-148.264-166.82a166.536 166.536 0 0 0-63.1 4.519 3648.645 3648.645 0 0 0-23.61 8.206C164.262 30.746 120.43 47.102 86.532 62.507c-5.471 2.497-10.705 4.935-15.581 7.374-.06 0-.06 0-.119.06a138.087 138.087 0 0 0-19.628 13.202 139.772 139.772 0 0 0-37.586 47.162A137.45 137.45 0 0 0 0 185.733v495.58a88.367 88.367 0 0 0 46.33 77.79c-16.118-9.813-32.776-27.597-32.776-47.875 0-24.026 21.058-44.485 42.29-52.455a.839.839 0 0 0 .357-.118c1.13-.357 2.32-.714 3.45-1.13.238-.06.416-.119.595-.178 29.141-9.695 64.646-20.34 98.069-30.094 59.472-17.246 112.58-31.46 112.58-31.46 76.898-15.94 134.764-83.797 134.764-165.214a167.035 167.035 0 0 0-45.793-115.257c53.796-29.485 87.224-85.966 87.186-147.313Z" fill-rule="evenodd" fill="url(&quot;#c&quot;)" transform="rotate(-102.016 1229.523 101.56)" data-name="Path 46"/><path d="M1466.585 863.445c-84.228 17.927-140.142 96.044-132.3 179.744a166.536 166.536 0 0 0 17.557 60.777 3648.645 3648.645 0 0 0 12.942 21.384c26.416 43.264 51.539 82.73 73.663 112.679 3.582 4.832 7.055 9.443 10.457 13.705.012.058.012.058.083.103a138.087 138.087 0 0 0 16.999 16.45 139.772 139.772 0 0 0 53.953 26.945 137.45 137.45 0 0 0 57.048 1.78l484.723-103.17a88.367 88.367 0 0 0 66.44-61.508c-6.242 17.806-20.17 37.802-40.003 42.023-23.5 5.002-47.894-11.336-60.11-30.443a.839.839 0 0 0-.19-.324c-.583-1.032-1.18-2.12-1.823-3.14a7.551 7.551 0 0 0-.298-.545c-15.548-26.484-33.351-58.996-49.85-89.655-29.249-54.579-54.208-103.565-54.208-103.565-31.598-71.894-110.016-114.366-189.649-97.417a167.035 167.035 0 0 0-103.199 68.785c-40.038-46.48-102.241-67.417-162.235-54.608Z" stroke-linejoin="round" stroke-linecap="round" stroke-width=".236" stroke="#1a2936" fill="transparent" data-name="Path 122"/></g></g></g><g data-name="Group 14183"><g data-name="Group 14178" transform="rotate(180 -5200.078 -8351.13)" clip-path="url(&quot;#d&quot;)"><g data-name="Group 14177"><g data-name="Group 14176"><g data-name="Group 14175" clip-path="url(&quot;#e&quot;)"><path d="M208.474 1.071c-4.472 1.422-8.407 4.1-11.416 7.748l-71.952 87.716a24.679 24.679 0 0 0-5.564 16.051 24.65 24.65 0 0 0 6.12 15.804l70.387 79.968.309.35h.391v-1.091l-70.304-79.907c-7.624-8.633-7.85-21.594-.536-30.516l71.953-87.716a23.179 23.179 0 0 1 10.92-7.418v.35c.351-.082.68-.143 1.031-.164V.659l-1.34.412ZM97.309 176.421l-6.243-.763c-.103-.02-.206-.02-.33-.02a2.666 2.666 0 0 0-2.637 2.348l-.762 6.285a2.692 2.692 0 0 0 2.328 3.008l6.243.763c1.443.185 2.782-.866 2.947-2.329l.783-6.305c.165-1.463-.866-2.802-2.329-2.988m.536 9.17a1.645 1.645 0 0 1-1.628 1.442c-.061 0-.123 0-.185-.02l-6.243-.763c-.907-.103-1.546-.948-1.422-1.854l.762-6.285c.103-.824.804-1.442 1.607-1.442h.206l6.244.783c.886.103 1.525.927 1.422 1.834l-.763 6.305Zm1.236-23.737-6.243-.783c-.103-.02-.206-.02-.309-.02a2.689 2.689 0 0 0-2.658 2.348l-.762 6.326a2.684 2.684 0 0 0 2.328 2.988l6.243.762c1.443.185 2.782-.865 2.967-2.328l.763-6.306c.185-1.483-.866-2.822-2.329-2.987m.536 9.169a1.645 1.645 0 0 1-1.628 1.442h-.185l-6.243-.783a1.619 1.619 0 0 1-1.422-1.834l.762-6.305a1.646 1.646 0 0 1 1.628-1.463.57.57 0 0 1 .186.021l6.243.762a1.65 1.65 0 0 1 1.422 1.855l-.763 6.305Zm11.91 7.15-6.264-.762c-.103-.021-.206-.021-.31-.021-1.338 0-2.492.989-2.657 2.349l-.763 6.305c-.164 1.463.866 2.802 2.329 2.988l6.264.762c1.442.186 2.781-.865 2.946-2.328l.783-6.285c.165-1.483-.865-2.823-2.328-3.008m.536 9.17a1.645 1.645 0 0 1-1.628 1.441h-.186l-6.264-.783c-.906-.103-1.524-.927-1.421-1.833l.762-6.305a1.645 1.645 0 0 1 1.628-1.443h.185l6.264.783c.886.103 1.525.948 1.422 1.834l-.762 6.305Zm1.236-23.738-6.243-.783c-.124 0-.227-.02-.33-.02-1.34 0-2.473 1.01-2.638 2.37l-.782 6.304c-.165 1.463.865 2.803 2.328 2.988l6.264.783c1.442.185 2.781-.865 2.967-2.349l.762-6.305a2.684 2.684 0 0 0-2.328-2.988m.536 9.17a1.646 1.646 0 0 1-1.628 1.462c-.062 0-.124 0-.186-.02l-6.263-.763a1.68 1.68 0 0 1-1.422-1.854l.762-6.305c.103-.824.804-1.463 1.628-1.463.062 0 .124.02.185.02l6.264.783a1.619 1.619 0 0 1 1.422 1.834l-.762 6.305Zm74.672 35.626-1.112-1.381c-.206-.247-.412-.474-.618-.721l-66.225-73.066a21.191 21.191 0 0 0-15.701-6.985 20.917 20.917 0 0 0-11.745 3.585L11.304 184.58a21.536 21.536 0 0 0-9.334 15.248l-.927 7.727-.145 1.154h1.36v-1.03h-.206L3 199.95a20.47 20.47 0 0 1 8.88-14.506l81.782-54.768c8.304-5.563 19.41-4.183 26.128 3.235l66.224 73.086c.206.227.392.454.577.68v1.03h2.184l-.268-.308Z" fill="#121e29" fill-rule="evenodd" data-name="Path 4175"/><path d="m97.31 176.42-6.244-.762c-.103-.02-.206-.02-.33-.02a2.666 2.666 0 0 0-2.637 2.348l-.762 6.285a2.692 2.692 0 0 0 2.328 3.008l6.243.763c1.443.185 2.782-.866 2.947-2.329l.783-6.305c.165-1.463-.866-2.802-2.329-2.988m-1.092 9.582h-.061l-6.244-.783a.62.62 0 0 1-.536-.68l.783-6.305a.582.582 0 0 1 .577-.536h.083l6.243.762c.33.042.556.35.515.7l-.762 6.306a.62.62 0 0 1-.598.536m2.864-24.15-6.243-.782c-.103-.02-.206-.02-.309-.02a2.689 2.689 0 0 0-2.658 2.348l-.762 6.326a2.684 2.684 0 0 0 2.328 2.988l6.243.762c1.443.185 2.782-.865 2.967-2.328l.763-6.306c.185-1.483-.866-2.822-2.329-2.987m-1.092 9.581h-.061l-6.244-.762a.64.64 0 0 1-.535-.7l.783-6.306c.04-.33.288-.556.597-.556h.062l6.243.783c.33.04.577.35.536.7l-.783 6.305a.602.602 0 0 1-.598.536m13.538 6.738-6.264-.763c-.103-.02-.206-.02-.31-.02-1.338 0-2.492.989-2.657 2.349l-.763 6.305c-.164 1.463.866 2.802 2.329 2.988l6.264.762c1.442.186 2.781-.865 2.946-2.328l.783-6.285c.165-1.483-.865-2.823-2.328-3.008m-1.092 9.581h-.062l-6.264-.762a.599.599 0 0 1-.515-.7l.762-6.306a.602.602 0 0 1 .598-.536h.062l6.264.783c.33.042.556.35.515.68l-.763 6.305a.602.602 0 0 1-.597.536m2.864-24.149-6.243-.783c-.124 0-.227-.02-.33-.02-1.34 0-2.473 1.01-2.638 2.37l-.782 6.304c-.165 1.463.865 2.803 2.328 2.988l6.264.783c1.442.185 2.781-.865 2.967-2.349l.762-6.305a2.684 2.684 0 0 0-2.328-2.988m-1.092 9.602h-.062l-6.264-.783c-.33-.041-.556-.35-.515-.7l.762-6.306c.042-.309.289-.556.598-.556.02 0 .041.02.062.02l6.264.763a.64.64 0 0 1 .535.7l-.783 6.306c-.04.309-.288.556-.597.556m-.68 4.966-6.264-.763c-.103-.02-.206-.02-.31-.02-1.338 0-2.492.989-2.657 2.349l-.763 6.305c-.164 1.463.866 2.802 2.329 2.988l6.264.762c1.442.186 2.781-.865 2.946-2.328l.783-6.285c.165-1.483-.865-2.823-2.328-3.008m-1.092 9.581h-.062l-6.264-.762a.599.599 0 0 1-.515-.7l.762-6.306a.602.602 0 0 1 .598-.536h.062l6.264.783c.33.042.556.35.515.68l-.763 6.305a.602.602 0 0 1-.597.536M97.309 176.42l-6.243-.762c-.103-.02-.206-.02-.33-.02a2.666 2.666 0 0 0-2.637 2.348l-.762 6.285a2.692 2.692 0 0 0 2.328 3.008l6.243.763c1.443.185 2.782-.866 2.947-2.329l.783-6.305c.165-1.463-.866-2.802-2.329-2.988m-1.092 9.582h-.061l-6.244-.783a.62.62 0 0 1-.536-.68l.783-6.305a.582.582 0 0 1 .577-.536h.083l6.243.762c.33.042.556.35.515.7l-.762 6.306a.62.62 0 0 1-.598.536m17.082-22.398-6.243-.783c-.124 0-.227-.02-.33-.02-1.34 0-2.473 1.01-2.638 2.37l-.782 6.304c-.165 1.463.865 2.803 2.328 2.988l6.264.783c1.442.185 2.781-.865 2.967-2.349l.762-6.305a2.684 2.684 0 0 0-2.328-2.988m-1.092 9.602h-.062l-6.264-.783c-.33-.041-.556-.35-.515-.7l.762-6.306c.042-.309.289-.556.598-.556.02 0 .041.02.062.02l6.264.763a.64.64 0 0 1 .535.7l-.783 6.306c-.04.309-.288.556-.597.556M99.08 161.853l-6.243-.783c-.103-.02-.206-.02-.309-.02a2.689 2.689 0 0 0-2.658 2.348l-.762 6.326a2.684 2.684 0 0 0 2.328 2.988l6.243.762c1.443.185 2.782-.865 2.967-2.328l.763-6.306c.185-1.483-.866-2.822-2.329-2.987m-1.092 9.581h-.061l-6.244-.762a.64.64 0 0 1-.535-.7l.783-6.306c.04-.33.288-.556.597-.556h.062l6.243.783c.33.04.577.35.536.7l-.783 6.305a.602.602 0 0 1-.598.536M210 .391a2.018 2.018 0 0 0-1.834-.288c-4.657 1.463-8.778 4.265-11.91 8.057l-71.932 87.736a25.593 25.593 0 0 0-5.811 16.69c.124 6.1 2.37 11.95 6.367 16.484l70.387 79.968c.37.412.927.68 1.483.7v-2.121l-70.304-79.907c-7.624-8.633-7.85-21.594-.536-30.516l71.953-87.716a23.179 23.179 0 0 1 10.92-7.418v.35c.351-.082.68-.143 1.031-.164.33-.082.68-.124 1.03-.124V2.06c0-.659-.309-1.277-.845-1.669M97.31 176.421l-6.243-.763c-.103-.02-.206-.02-.33-.02a2.666 2.666 0 0 0-2.637 2.348l-.762 6.285a2.692 2.692 0 0 0 2.328 3.008l6.243.763c1.443.185 2.782-.866 2.947-2.329l.783-6.305c.165-1.463-.866-2.802-2.329-2.988m-1.092 9.582h-.061l-6.244-.783a.62.62 0 0 1-.536-.68l.783-6.305a.582.582 0 0 1 .577-.536h.083l6.243.762c.33.042.556.35.515.7l-.762 6.306a.62.62 0 0 1-.598.536m2.864-24.15-6.243-.782c-.103-.02-.206-.02-.309-.02a2.689 2.689 0 0 0-2.658 2.348l-.762 6.326a2.684 2.684 0 0 0 2.328 2.988l6.243.762c1.443.185 2.782-.865 2.967-2.328l.763-6.306c.185-1.483-.866-2.822-2.329-2.987m-1.092 9.581h-.061l-6.244-.762a.64.64 0 0 1-.535-.7l.783-6.306c.04-.33.288-.556.597-.556h.062l6.243.783c.33.04.577.35.536.7l-.783 6.305a.602.602 0 0 1-.598.536m13.538 6.738-6.264-.763c-.103-.02-.206-.02-.31-.02-1.338 0-2.492.989-2.657 2.349l-.763 6.305c-.164 1.463.866 2.802 2.329 2.988l6.264.762c1.442.186 2.781-.865 2.946-2.328l.783-6.285c.165-1.483-.865-2.823-2.328-3.008m-1.092 9.581h-.062l-6.264-.762a.599.599 0 0 1-.515-.7l.762-6.306a.602.602 0 0 1 .598-.536h.062l6.264.783c.33.042.556.35.515.68l-.763 6.305a.602.602 0 0 1-.597.536m2.864-24.149-6.243-.783c-.124 0-.227-.02-.33-.02-1.34 0-2.473 1.01-2.638 2.37l-.782 6.304c-.165 1.463.865 2.803 2.328 2.988l6.264.783c1.442.185 2.781-.865 2.967-2.349l.762-6.305a2.684 2.684 0 0 0-2.328-2.988m-1.092 9.602h-.062l-6.264-.783c-.33-.041-.556-.35-.515-.7l.762-6.306c.042-.309.289-.556.598-.556.02 0 .041.02.062.02l6.264.763a.64.64 0 0 1 .535.7l-.783 6.306c-.04.309-.288.556-.597.556m75.97 33.154a20.448 20.448 0 0 0-.638-.742l-66.225-73.086a22.233 22.233 0 0 0-16.463-7.315c-4.41 0-8.654 1.298-12.322 3.75l-81.802 54.768a22.455 22.455 0 0 0-9.767 15.97l-.948 7.726a2.11 2.11 0 0 0 .515 1.607c.392.433.948.7 1.525.7h.206v-2.06h-.206L3 199.951a20.47 20.47 0 0 1 8.88-14.506l81.782-54.768c8.304-5.563 19.41-4.183 26.128 3.235l66.224 73.086c.206.227.392.454.577.68v2.06c.742 0 1.422-.411 1.793-1.03.02-.061.062-.102.082-.164.02-.041.041-.083.041-.144a2.041 2.041 0 0 0-.33-2.04" fill="#1ebcee" fill-rule="evenodd" data-name="Path 4176"/></g></g></g></g></g><g data-name="Group 12622"><g data-name="Group 12613"><g data-name="Group 12581"><g data-name="Group 12580"><path d="m-10384.437-16622.764-20.531-23.964a6.51 6.51 0 0 0-4.941-2.27h-23.15s-7.443-.125-8.059-.018c-.616.107-1.364.41-1.662.588-.071.034-4.424 2.074-1.903 7.896 2.56 5.91 11.624 2.774 11.624 52.464h23.15c1.902 0 3.702-.83 4.94-2.27l20.532-23.964a6.507 6.507 0 0 0 0-8.462Zm-14.33 7.544a.856.856 0 0 1-.856.856h-2.022a.856.856 0 0 1-.856-.856v-2.027c0-.472.384-.856.856-.856h2.022c.472 0 .856.384.856.856v2.027Zm0-4.604a.856.856 0 0 1-.856.855h-2.022a.856.856 0 0 1-.856-.855v-2.022c0-.472.384-.856.856-.856h2.022c.472 0 .856.384.856.856v2.022Zm4.681 4.604a.856.856 0 0 1-.855.856h-2.027a.856.856 0 0 1-.856-.856v-2.027c0-.472.384-.856.856-.856h2.027c.472 0 .855.384.855.856v2.027Zm0-4.604a.856.856 0 0 1-.855.855h-2.027a.856.856 0 0 1-.856-.855v-2.022c0-.472.384-.856.856-.856h2.027c.472 0 .855.384.855.856v2.022Z" fill="#651fb4" fill-rule="evenodd" data-name="Path 44"/></g><path d="M-1075.453 1943.296c0 7.507-5.646 13.693-12.926 14.543a14.493 14.493 0 0 1-5.5-.394c-.696-.238-1.38-.477-2.06-.715-4.168-1.468-7.989-2.894-10.944-4.236-.477-.218-.933-.43-1.359-.643-.005 0-.005 0-.01-.005a12.077 12.077 0 0 1-1.711-1.151 12.187 12.187 0 0 1-3.277-4.112 11.984 11.984 0 0 1-1.187-4.832v-43.204c0-2.93 1.468-5.595 4.179-6.61-1.48.606-2.997 2.234-2.997 4.002 0 2.094 1.836 3.878 3.686 4.573.01 0 .021.005.032.01.098.031.202.062.3.099.021.005.037.01.052.015 2.54.845 5.636 1.773 8.55 2.624a553.664 553.664 0 0 0 9.814 2.742v.042c6.704 1.348 11.75 7.264 11.75 14.362 0 3.893-1.515 7.43-3.993 10.047a14.635 14.635 0 0 1 7.6 12.843Z" fill-rule="evenodd" fill="url(&quot;#f&quot;)" transform="translate(-9331.955 -18540.646)" data-name="Path 45"/></g><g data-name="Intersection 8"><path d="M-10392.135-16547.987c-1.096-.57-1.953-1.36-2.57-2.367-.614-1.008-.921-2.153-.921-3.432 0-1.281.307-2.426.92-3.434.618-1.008 1.475-1.79 2.57-2.361 1.096-.568 2.333-.852 3.71-.852 1.359 0 2.547.284 3.564.852a5.091 5.091 0 0 1 2.22 2.436l-2.906 1.562c-.672-1.187-1.64-1.777-2.902-1.777-.979 0-1.787.316-2.424.959-.643.638-.96 1.51-.96 2.615 0 1.105.317 1.976.96 2.619.637.637 1.445.959 2.424.959 1.28 0 2.245-.594 2.902-1.777l2.906 1.582c-.467 1.027-1.207 1.826-2.22 2.4-1.017.58-2.205.867-3.563.867-1.378 0-2.615-.287-3.71-.851Zm-15.132 0c-1.12-.57-1.986-1.36-2.595-2.367-.604-1.008-.91-2.153-.91-3.432 0-1.262.301-2.4.9-3.418a6.317 6.317 0 0 1 2.473-2.377c1.047-.568 2.226-.852 3.54-.852 1.232 0 2.352.258 3.36.78a6.007 6.007 0 0 1 2.41 2.254c.603.988.9 2.152.9 3.496l-9.552 1.845c.272.643.7 1.12 1.285 1.442.584.32 1.3.476 2.147.476.672 0 1.27-.097 1.787-.297a4.303 4.303 0 0 0 1.456-.949l1.991 2.16c-1.217 1.393-2.994 2.09-5.326 2.09-1.46 0-2.746-.287-3.866-.851Zm1.105-8.701c-.594.609-.905 1.445-.94 2.517l6.29-1.223a2.802 2.802 0 0 0-1.08-1.605c-.545-.4-1.198-.6-1.967-.6-.945 0-1.714.303-2.303.91Zm-39.231 8.734a5.84 5.84 0 0 1-2.313-2.326c-.56-1.008-.842-2.178-.842-3.506 0-1.324.283-2.492.842-3.506a5.805 5.805 0 0 1 2.313-2.322c.984-.545 2.084-.819 3.3-.819 1.651 0 2.937.522 3.867 1.559v-1.37h3.744v12.913h-3.579v-1.484c-.925 1.119-2.269 1.68-4.031 1.68-1.217 0-2.317-.274-3.301-.82Zm1.573-8.438c-.624.653-.935 1.52-.935 2.606 0 1.09.311 1.957.935 2.603.623.649 1.416.975 2.375.975.945 0 1.729-.326 2.352-.975.623-.646.94-1.513.94-2.603 0-1.086-.317-1.953-.94-2.606-.623-.642-1.407-.968-2.352-.968-.959 0-1.752.326-2.375.968Zm72.698 9.061v-6.816c0-1.022-.225-1.786-.672-2.288-.448-.505-1.096-.76-1.948-.76-.94 0-1.694.292-2.254.878-.56.584-.837 1.455-.837 2.603v6.383h-3.744v-17.809h3.744v6.24a4.947 4.947 0 0 1 1.796-1.138 6.59 6.59 0 0 1 2.308-.395c1.597 0 2.887.483 3.875 1.442.984.959 1.476 2.38 1.476 4.27v7.39h-3.744Zm-48.696 0v-13.7c-1.65.239-3.204.774-4.66 1.606l-1.319-2.906a14.45 14.45 0 0 1 3.744-1.559 16.446 16.446 0 0 1 4.153-.525c1.441 0 2.838.176 4.187.525 1.354.352 2.6.873 3.734 1.559l-1.32 2.906a12.857 12.857 0 0 0-4.634-1.605v13.699h-3.885Zm-11.208 0v-12.912h3.744v12.912h-3.744Zm-34.66 0v-16.8h8.21c2.049 0 3.621.394 4.717 1.177 1.095.783 1.645 1.85 1.645 3.193 0 .819-.2 1.543-.589 2.182a4.12 4.12 0 0 1-1.645 1.514c.959.302 1.713.814 2.259 1.523.54.711.813 1.588.813 2.63 0 1.47-.57 2.604-1.714 3.393-1.144.793-2.814 1.188-5.005 1.188h-8.69Zm3.866-2.926h4.538c1.022 0 1.796-.17 2.312-.506.521-.336.784-.851.784-1.558 0-1.393-1.032-2.088-3.096-2.088h-4.538v4.152Zm0-6.986h3.866c.96 0 1.684-.166 2.181-.502.497-.336.745-.832.745-1.49 0-.657-.248-1.149-.745-1.475-.497-.326-1.222-.492-2.18-.492h-3.867v3.959Zm30.984-5.399a1.944 1.944 0 0 1-.647-1.49c0-.59.214-1.086.647-1.486.433-.399.993-.598 1.68-.598.686 0 1.246.19 1.68.574.433.385.647.868.647 1.442 0 .623-.214 1.138-.648 1.549-.433.408-.993.607-1.68.607-.686 0-1.246-.2-1.679-.598Z" fill="#1a2936" fill-rule="evenodd"/><path d="M-10392.135-16547.987c-1.096-.57-1.953-1.36-2.57-2.367-.614-1.008-.921-2.153-.921-3.432 0-1.281.307-2.426.92-3.434.618-1.008 1.475-1.79 2.57-2.361 1.096-.568 2.333-.852 3.71-.852 1.359 0 2.547.284 3.564.852a5.091 5.091 0 0 1 2.22 2.436l-2.906 1.562c-.672-1.187-1.64-1.777-2.902-1.777-.979 0-1.787.316-2.424.959-.643.638-.96 1.51-.96 2.615 0 1.105.317 1.976.96 2.619.637.637 1.445.959 2.424.959 1.28 0 2.245-.594 2.902-1.777l2.906 1.582c-.467 1.027-1.207 1.826-2.22 2.4-1.017.58-2.205.867-3.563.867-1.378 0-2.615-.287-3.71-.851Zm-15.132 0c-1.12-.57-1.986-1.36-2.595-2.367-.604-1.008-.91-2.153-.91-3.432 0-1.262.301-2.4.9-3.418a6.317 6.317 0 0 1 2.473-2.377c1.047-.568 2.226-.852 3.54-.852 1.232 0 2.352.258 3.36.78a6.007 6.007 0 0 1 2.41 2.254c.603.988.9 2.152.9 3.496l-9.552 1.845c.272.643.7 1.12 1.285 1.442.584.32 1.3.476 2.147.476.672 0 1.27-.097 1.787-.297a4.303 4.303 0 0 0 1.456-.949l1.991 2.16c-1.217 1.393-2.994 2.09-5.326 2.09-1.46 0-2.746-.287-3.866-.851Zm1.105-8.701c-.594.609-.905 1.445-.94 2.517l6.29-1.223a2.802 2.802 0 0 0-1.08-1.605c-.545-.4-1.198-.6-1.967-.6-.945 0-1.714.303-2.303.91Zm-39.231 8.734a5.84 5.84 0 0 1-2.313-2.326c-.56-1.008-.842-2.178-.842-3.506 0-1.324.283-2.492.842-3.506a5.805 5.805 0 0 1 2.313-2.322c.984-.545 2.084-.819 3.3-.819 1.651 0 2.937.522 3.867 1.559v-1.37h3.744v12.913h-3.579v-1.484c-.925 1.119-2.269 1.68-4.031 1.68-1.217 0-2.317-.274-3.301-.82Zm1.573-8.438c-.624.653-.935 1.52-.935 2.606 0 1.09.311 1.957.935 2.603.623.649 1.416.975 2.375.975.945 0 1.729-.326 2.352-.975.623-.646.94-1.513.94-2.603 0-1.086-.317-1.953-.94-2.606-.623-.642-1.407-.968-2.352-.968-.959 0-1.752.326-2.375.968Zm72.698 9.061v-6.816c0-1.022-.225-1.786-.672-2.288-.448-.505-1.096-.76-1.948-.76-.94 0-1.694.292-2.254.878-.56.584-.837 1.455-.837 2.603v6.383h-3.744v-17.809h3.744v6.24a4.947 4.947 0 0 1 1.796-1.138 6.59 6.59 0 0 1 2.308-.395c1.597 0 2.887.483 3.875 1.442.984.959 1.476 2.38 1.476 4.27v7.39h-3.744Zm-48.696 0v-13.7c-1.65.239-3.204.774-4.66 1.606l-1.319-2.906a14.45 14.45 0 0 1 3.744-1.559 16.446 16.446 0 0 1 4.153-.525c1.441 0 2.838.176 4.187.525 1.354.352 2.6.873 3.734 1.559l-1.32 2.906a12.857 12.857 0 0 0-4.634-1.605v13.699h-3.885Zm-11.208 0v-12.912h3.744v12.912h-3.744Zm-34.66 0v-16.8h8.21c2.049 0 3.621.394 4.717 1.177 1.095.783 1.645 1.85 1.645 3.193 0 .819-.2 1.543-.589 2.182a4.12 4.12 0 0 1-1.645 1.514c.959.302 1.713.814 2.259 1.523.54.711.813 1.588.813 2.63 0 1.47-.57 2.604-1.714 3.393-1.144.793-2.814 1.188-5.005 1.188h-8.69Zm3.866-2.926h4.538c1.022 0 1.796-.17 2.312-.506.521-.336.784-.851.784-1.558 0-1.393-1.032-2.088-3.096-2.088h-4.538v4.152Zm0-6.986h3.866c.96 0 1.684-.166 2.181-.502.497-.336.745-.832.745-1.49 0-.657-.248-1.149-.745-1.475-.497-.326-1.222-.492-2.18-.492h-3.867v3.959Zm30.984-5.399a1.944 1.944 0 0 1-.647-1.49c0-.59.214-1.086.647-1.486.433-.399.993-.598 1.68-.598.686 0 1.246.19 1.68.574.433.385.647.868.647 1.442 0 .623-.214 1.138-.648 1.549-.433.408-.993.607-1.68.607-.686 0-1.246-.2-1.679-.598Z" stroke-linejoin="round" stroke-linecap="round" stroke="rgba(0,0,0,0 )" fill="transparent"/></g><g data-name="Intersection 7"><path d="m-10375.412-16511.778 2.73-2.727 2.79 2.727-2.73 2.697-2.79-2.697Zm-48.763.19-2.508 2.507-2.76-2.727 2.726-2.697 2.542 2.477 2.54-2.477 2.761 2.697-2.726 2.727-2.575-2.508Zm48.052-4.932h-42.098c-1.86 0-3.588-.766-5.176-2.293-1.221 1.527-3.422 2.293-6.606 2.293-1.86 0-3.583-.766-5.175-2.293-1.222 1.527-3.423 2.293-6.602 2.293-2.77 0-4.703-.786-5.798-2.358-2.337 1.572-5.137 2.358-8.404 2.358h-4.245c-2.502 0-4.396-.575-5.686-1.72-1.295-1.148-1.938-2.847-1.938-5.103 0-1.504.214-3.242.648-5.203l2.916.37c-.292 1.738-.434 3.019-.434 3.841 0 1.47.439 2.547 1.315 3.229.881.681 2.21 1.021 3.987 1.021h3.437c3.228 0 5.716-.477 7.474-1.426a8.49 8.49 0 0 1-.093-1.334l-.034-15.838 3.384-.466v15.31c0 2.502 1.144 3.754 3.437 3.754.011 0 .021 0 .032.002.01-.002.02-.002.031-.002 1.51 0 2.62-.287 3.335-.852.71-.57 1.066-1.494 1.066-2.775v-4.586l3.35-.467v6.104a8.9 8.9 0 0 1-.093 1.242c1.261.887 2.624 1.334 4.09 1.334h.034c1.504 0 2.62-.287 3.33-.852.716-.57 1.071-1.494 1.071-2.775v-4.586l3.345-.467v6.104c0 .414-.03.828-.093 1.242 1.261.887 2.625 1.334 4.095 1.334h42.127c2.318 0 3.471-1.207 3.471-3.627l-.029-7.844 3.379-.466v9.36c0 1.987-.575 3.507-1.719 4.563-1.149 1.053-2.857 1.579-5.131 1.579Zm-84.075-10.819v-2.605h1.802a3.398 3.398 0 0 1-.56-1.889c0-.992.33-1.791.993-2.39.662-.598 1.519-.895 2.57-.895.726 0 1.53.213 2.42.646v2.391c-.847-.31-1.562-.467-2.137-.467-.497 0-.896.121-1.193.356a1.149 1.149 0 0 0-.453.949c0 .453.176.887.526 1.299h4.309l-.74 2.605h-7.537Zm24.367-5.799-2.512 2.512-2.755-2.725 2.726-2.697 2.541 2.477 2.542-2.477 2.76 2.697-2.726 2.725-2.576-2.512Z" fill="#1a2936" fill-rule="evenodd"/><path d="m-10375.412-16511.778 2.73-2.727 2.79 2.727-2.73 2.697-2.79-2.697Zm-48.763.19-2.508 2.507-2.76-2.727 2.726-2.697 2.542 2.477 2.54-2.477 2.761 2.697-2.726 2.727-2.575-2.508Zm48.052-4.932h-42.098c-1.86 0-3.588-.766-5.176-2.293-1.221 1.527-3.422 2.293-6.606 2.293-1.86 0-3.583-.766-5.175-2.293-1.222 1.527-3.423 2.293-6.602 2.293-2.77 0-4.703-.786-5.798-2.358-2.337 1.572-5.137 2.358-8.404 2.358h-4.245c-2.502 0-4.396-.575-5.686-1.72-1.295-1.148-1.938-2.847-1.938-5.103 0-1.504.214-3.242.648-5.203l2.916.37c-.292 1.738-.434 3.019-.434 3.841 0 1.47.439 2.547 1.315 3.229.881.681 2.21 1.021 3.987 1.021h3.437c3.228 0 5.716-.477 7.474-1.426a8.49 8.49 0 0 1-.093-1.334l-.034-15.838 3.384-.466v15.31c0 2.502 1.144 3.754 3.437 3.754.011 0 .021 0 .032.002.01-.002.02-.002.031-.002 1.51 0 2.62-.287 3.335-.852.71-.57 1.066-1.494 1.066-2.775v-4.586l3.35-.467v6.104a8.9 8.9 0 0 1-.093 1.242c1.261.887 2.624 1.334 4.09 1.334h.034c1.504 0 2.62-.287 3.33-.852.716-.57 1.071-1.494 1.071-2.775v-4.586l3.345-.467v6.104c0 .414-.03.828-.093 1.242 1.261.887 2.625 1.334 4.095 1.334h42.127c2.318 0 3.471-1.207 3.471-3.627l-.029-7.844 3.379-.466v9.36c0 1.987-.575 3.507-1.719 4.563-1.149 1.053-2.857 1.579-5.131 1.579 0 0 0 0 0 0Zm-84.075-10.819v-2.605h1.802a3.398 3.398 0 0 1-.56-1.889c0-.992.33-1.791.993-2.39.662-.598 1.519-.895 2.57-.895.726 0 1.53.213 2.42.646v2.391c-.847-.31-1.562-.467-2.137-.467-.497 0-.896.121-1.193.356a1.149 1.149 0 0 0-.453.949c0 .453.176.887.526 1.299h4.309l-.74 2.605h-7.537Zm24.367-5.799-2.512 2.512-2.755-2.725 2.726-2.697 2.541 2.477 2.542-2.477 2.76 2.697-2.726 2.725-2.576-2.512Z" stroke-linejoin="round" stroke-linecap="round" stroke="rgba(0,0,0,0 )" fill="transparent"/></g></g></g></g><defs><linearGradient x1=".742" y1=".467" x2="1.117" y2=".36" id="b"><stop stop-color="#00cfff" offset="0"/><stop stop-color="#0074ff" offset="1"/></linearGradient><linearGradient x1="1.128" y1=".179" x2=".35" y2=".266" id="c"><stop stop-color="#00cfff" offset="0"/><stop stop-color="#0074ff" offset="1"/></linearGradient><linearGradient x1=".061" y1=".661" x2=".844" y2=".6" id="f"><stop stop-color="#00b7fc" offset="0"/><stop stop-color="#31cdfe" offset="1"/></linearGradient><clipPath id="a"><path d="M0 0h391v391H0V0z" data-name="Rectangle 8043" transform="translate(1459 553)"/></clipPath><clipPath id="e"><path d="M0 0h210.843v209.739H0V0z" data-name="Rectangle 8046"/></clipPath><clipPath id="d"><path d="M0 0h210.843v209.739H0V0z" data-name="Rectangle 8047"/></clipPath></defs></svg>