<svg id="Component_12_153" data-name="Component 12 – 153" xmlns="http://www.w3.org/2000/svg" xmlns:xlink="http://www.w3.org/1999/xlink" width="32" height="32" viewBox="0 0 32 32">
  <defs>
    <clipPath id="clip-path">
      <rect id="Rectangle_8308" data-name="Rectangle 8308" width="16" height="16" transform="translate(8 8)" fill="#fff" stroke="#707070" stroke-width="1"/>
    </clipPath>
    <linearGradient id="linear-gradient" x1="0.084" y1="0.916" x2="0.916" y2="0.084" gradientUnits="objectBoundingBox">
      <stop offset="0" stop-color="#ffd600"/>
      <stop offset="0.5" stop-color="#ff0100"/>
      <stop offset="1" stop-color="#d800b9"/>
    </linearGradient>
    <linearGradient id="linear-gradient-2" x1="0.146" y1="0.854" x2="0.854" y2="0.146" gradientUnits="objectBoundingBox">
      <stop offset="0" stop-color="#ff6400"/>
      <stop offset="0.5" stop-color="#ff0100"/>
      <stop offset="1" stop-color="#fd0056"/>
    </linearGradient>
    <linearGradient id="linear-gradient-3" x1="0.146" y1="0.854" x2="0.854" y2="0.146" gradientUnits="objectBoundingBox">
      <stop offset="0" stop-color="#f30072"/>
      <stop offset="1" stop-color="#e50097"/>
    </linearGradient>
  </defs>
  <g id="Component_1_25" data-name="Component 1 – 25">
    <rect id="Rectangle_7814" data-name="Rectangle 7814" width="32" height="32" rx="9" fill="#fff" opacity="0.811"/>
    <g id="Mask_Group_14272" data-name="Mask Group 14272" clip-path="url(#clip-path)">
      <g id="instagram" transform="translate(8 8)">
        <path id="Path_4787" data-name="Path 4787" d="M15.952,4.7A5.873,5.873,0,0,0,15.58,2.76a3.921,3.921,0,0,0-.923-1.417A3.922,3.922,0,0,0,13.24.42,5.872,5.872,0,0,0,11.3.048C10.445.009,10.173,0,8,0S5.555.009,4.7.048A5.874,5.874,0,0,0,2.76.42a3.921,3.921,0,0,0-1.417.923A3.922,3.922,0,0,0,.42,2.76,5.873,5.873,0,0,0,.048,4.7C.009,5.555,0,5.827,0,8s.009,2.445.048,3.3A5.872,5.872,0,0,0,.42,13.24a3.92,3.92,0,0,0,.923,1.417,3.92,3.92,0,0,0,1.417.923,5.87,5.87,0,0,0,1.942.372C5.555,15.991,5.828,16,8,16s2.445-.009,3.3-.048a5.871,5.871,0,0,0,1.942-.372,4.09,4.09,0,0,0,2.34-2.34,5.871,5.871,0,0,0,.372-1.942c.039-.853.048-1.126.048-3.3S15.991,5.555,15.952,4.7Zm-1.44,6.531a4.426,4.426,0,0,1-.275,1.485,2.649,2.649,0,0,1-1.518,1.518,4.426,4.426,0,0,1-1.485.275c-.843.039-1.1.047-3.233.047s-2.389-.008-3.233-.047a4.428,4.428,0,0,1-1.485-.275,2.479,2.479,0,0,1-.92-.6,2.478,2.478,0,0,1-.6-.92,4.426,4.426,0,0,1-.275-1.485c-.038-.844-.047-1.1-.047-3.233s.008-2.389.047-3.233a4.429,4.429,0,0,1,.275-1.485,2.48,2.48,0,0,1,.6-.92,2.477,2.477,0,0,1,.92-.6,4.425,4.425,0,0,1,1.485-.276c.844-.038,1.1-.047,3.233-.047H8c2.136,0,2.389.008,3.233.047a4.427,4.427,0,0,1,1.485.275,2.48,2.48,0,0,1,.92.6,2.477,2.477,0,0,1,.6.92,4.422,4.422,0,0,1,.276,1.485c.038.844.047,1.1.047,3.233S14.55,10.389,14.512,11.233Zm0,0" fill="url(#linear-gradient)"/>
        <path id="Path_4788" data-name="Path 4788" d="M8,3.892A4.108,4.108,0,1,0,12.108,8,4.108,4.108,0,0,0,8,3.892Zm0,6.775A2.667,2.667,0,1,1,10.667,8,2.667,2.667,0,0,1,8,10.667Zm0,0" fill="url(#linear-gradient-2)"/>
        <path id="Path_4789" data-name="Path 4789" d="M13.23,3.73a.96.96,0,1,1-.96-.96A.96.96,0,0,1,13.23,3.73Zm0,0" fill="url(#linear-gradient-3)"/>
      </g>
    </g>
  </g>
</svg>
