<?xml version="1.0" encoding="UTF-8"?>
<svg width="405px" height="151px" viewBox="0 0 405 151" version="1.1" xmlns="http://www.w3.org/2000/svg" xmlns:xlink="http://www.w3.org/1999/xlink">
    <title>Artboard</title>
    <defs>
        <linearGradient x1="74.2%" y1="46.7%" x2="111.7%" y2="36%" id="linearGradient-1">
            <stop stop-color="#00CFFF" offset="0%"></stop>
            <stop stop-color="#0074FF" offset="100%"></stop>
        </linearGradient>
        <linearGradient x1="112.8%" y1="17.9%" x2="35%" y2="26.6%" id="linearGradient-2">
            <stop stop-color="#00CFFF" offset="0%"></stop>
            <stop stop-color="#0074FF" offset="100%"></stop>
        </linearGradient>
    </defs>
    <g id="Artboard" stroke="none" stroke-width="1" fill="none" fill-rule="evenodd">
        <g id="Group_13183" transform="translate(282.107096, 211.236264) rotate(-19.000000) translate(-282.107096, -211.236264) translate(-322.888558, -407.085390)">
            <g id="Group_13180" transform="translate(604.995654, 604.995654) rotate(-45.000000) translate(-604.995654, -604.995654) translate(192.483658, 161.914591)">
                <path d="M638.696506,225.129034 C638.684217,172.925854 614.408877,123.693753 573.004162,91.9003298 C531.599448,60.1069065 477.769294,49.3641691 427.332506,62.829034 C419.363506,65.565034 411.512506,68.301034 403.722506,71.035034 C355.906506,87.866034 312.075506,104.220034 278.176506,119.627034 C272.704506,122.127034 267.471506,124.562034 262.595506,127.001034 C262.535506,127.001034 262.535506,127.001034 262.476506,127.061034 C255.566883,130.89198 248.998784,135.308853 242.844506,140.263034 C227.033215,153.061336 214.20601,169.156601 205.258506,187.425034 C196.892206,204.744942 192.254229,223.627987 191.644486,242.853034 L191.644486,738.433034 C191.622573,770.904739 209.411499,800.77258 237.973506,816.220034 C221.856506,806.407034 205.198506,788.620034 205.198506,768.345034 C205.198506,744.319034 226.256506,723.860034 247.488506,715.891034 C247.614637,715.878762 247.73635,715.838078 247.844506,715.772034 C248.975506,715.416034 250.164506,715.058034 251.294506,714.642034 C251.532506,714.582034 251.710506,714.523034 251.889506,714.464034 C281.030506,704.769034 316.536506,694.125034 349.958506,684.370034 C409.430506,667.124034 462.539506,652.910034 462.539506,652.910034 C539.439506,636.971034 597.302506,569.110034 597.302506,487.696034 C597.395339,444.823593 580.999716,403.556877 551.509506,372.438034 C605.305494,342.953626 638.733865,286.472078 638.696506,225.126034 L638.696506,225.129034 Z" id="Path_46" fill="url(#linearGradient-1)" fill-rule="nonzero" transform="translate(415.170496, 436.681063) rotate(-38.016000) translate(-415.170496, -436.681063) "></path>
                <path d="M633.379506,237.929034 C633.367217,185.725854 609.091877,136.493753 567.687162,104.70033 C526.282448,72.9069065 472.452294,62.1641691 422.015506,75.629034 C414.046506,78.365034 406.195506,81.101034 398.405506,83.835034 C350.589506,100.666034 306.758506,117.020034 272.859506,132.427034 C267.387506,134.927034 262.154506,137.362034 257.278506,139.801034 C257.218506,139.801034 257.218506,139.801034 257.159506,139.861034 C250.249883,143.69198 243.681784,148.108853 237.527506,153.063034 C221.716215,165.861336 208.88901,181.956601 199.941506,200.225034 C191.575206,217.544942 186.937229,236.427987 186.327486,255.653034 L186.327486,751.233034 C186.305573,783.704739 204.094499,813.57258 232.656506,829.020034 C216.539506,819.207034 199.881506,801.420034 199.881506,781.145034 C199.881506,757.119034 220.939506,736.660034 242.171506,728.691034 C242.297637,728.678762 242.41935,728.638078 242.527506,728.572034 C243.658506,728.216034 244.847506,727.858034 245.977506,727.442034 C246.215506,727.382034 246.393506,727.323034 246.572506,727.264034 C275.713506,717.569034 311.219506,706.925034 344.641506,697.170034 C404.113506,679.924034 457.222506,665.710034 457.222506,665.710034 C534.122506,649.771034 591.985506,581.910034 591.985506,500.496034 C592.078339,457.623593 575.682716,416.356877 546.192506,385.238034 C599.988494,355.753626 633.416865,299.272078 633.379506,237.926034 L633.379506,237.929034 Z" id="Path_122" stroke="#1A2936" stroke-width="0.236" transform="translate(409.853496, 449.481063) rotate(-38.016000) translate(-409.853496, -449.481063) "></path>
            </g>
            <g id="Group_13182" transform="translate(604.995654, 631.647654) rotate(-45.000000) translate(-604.995654, -631.647654) translate(192.483658, 188.566591)">
                <path d="M638.696506,225.129034 C638.684217,172.925854 614.408877,123.693753 573.004162,91.9003298 C531.599448,60.1069065 477.769294,49.3641691 427.332506,62.829034 C419.363506,65.565034 411.512506,68.301034 403.722506,71.035034 C355.906506,87.866034 312.075506,104.220034 278.176506,119.627034 C272.704506,122.127034 267.471506,124.562034 262.595506,127.001034 C262.535506,127.001034 262.535506,127.001034 262.476506,127.061034 C255.566883,130.89198 248.998784,135.308853 242.844506,140.263034 C227.033215,153.061336 214.20601,169.156601 205.258506,187.425034 C196.892206,204.744942 192.254229,223.627987 191.644486,242.853034 L191.644486,738.433034 C191.622573,770.904739 209.411499,800.77258 237.973506,816.220034 C221.856506,806.407034 205.198506,788.620034 205.198506,768.345034 C205.198506,744.319034 226.256506,723.860034 247.488506,715.891034 C247.614637,715.878762 247.73635,715.838078 247.844506,715.772034 C248.975506,715.416034 250.164506,715.058034 251.294506,714.642034 C251.532506,714.582034 251.710506,714.523034 251.889506,714.464034 C281.030506,704.769034 316.536506,694.125034 349.958506,684.370034 C409.430506,667.124034 462.539506,652.910034 462.539506,652.910034 C539.439506,636.971034 597.302506,569.110034 597.302506,487.696034 C597.395339,444.823593 580.999716,403.556877 551.509506,372.438034 C605.305494,342.953626 638.733865,286.472078 638.696506,225.126034 L638.696506,225.129034 Z" id="Path_46-2" fill="url(#linearGradient-2)" fill-rule="nonzero" transform="translate(415.170496, 436.681063) rotate(-38.016000) translate(-415.170496, -436.681063) "></path>
                <path d="M633.379506,237.929034 C633.367217,185.725854 609.091877,136.493753 567.687162,104.70033 C526.282448,72.9069065 472.452294,62.1641691 422.015506,75.629034 C414.046506,78.365034 406.195506,81.101034 398.405506,83.835034 C350.589506,100.666034 306.758506,117.020034 272.859506,132.427034 C267.387506,134.927034 262.154506,137.362034 257.278506,139.801034 C257.218506,139.801034 257.218506,139.801034 257.159506,139.861034 C250.249883,143.69198 243.681784,148.108853 237.527506,153.063034 C221.716215,165.861336 208.88901,181.956601 199.941506,200.225034 C191.575206,217.544942 186.937229,236.427987 186.327486,255.653034 L186.327486,751.233034 C186.305573,783.704739 204.094499,813.57258 232.656506,829.020034 C216.539506,819.207034 199.881506,801.420034 199.881506,781.145034 C199.881506,757.119034 220.939506,736.660034 242.171506,728.691034 C242.297637,728.678762 242.41935,728.638078 242.527506,728.572034 C243.658506,728.216034 244.847506,727.858034 245.977506,727.442034 C246.215506,727.382034 246.393506,727.323034 246.572506,727.264034 C275.713506,717.569034 311.219506,706.925034 344.641506,697.170034 C404.113506,679.924034 457.222506,665.710034 457.222506,665.710034 C534.122506,649.771034 591.985506,581.910034 591.985506,500.496034 C592.078339,457.623593 575.682716,416.356877 546.192506,385.238034 C599.988494,355.753626 633.416865,299.272078 633.379506,237.926034 L633.379506,237.929034 Z" id="Path_122-2" stroke="#1A2936" stroke-width="0.236" transform="translate(409.853496, 449.481063) rotate(-38.016000) translate(-409.853496, -449.481063) "></path>
            </g>
        </g>
    </g>
</svg>