<svg width="135" height="48" viewBox="0 0 135 48" fill="none" xmlns="http://www.w3.org/2000/svg">
<path d="M129.955 43.5191L131.98 41.4917L134.05 43.5191L132.024 45.5191L129.955 43.5191ZM93.7744 43.6539L91.9131 45.5191L89.8652 43.4937L91.8857 41.4937L93.7744 43.3355L95.6631 41.4937L97.7109 43.4937L95.6846 45.5191L93.7744 43.6539ZM124.962 39.9996H98.1914C97.4707 39.9837 96.7598 39.8265 96.1006 39.5347C95.4414 39.2429 94.846 38.8232 94.3496 38.3003C93.4456 39.4337 91.8129 39.9996 89.4502 39.9996C88.7296 39.9838 88.0194 39.8265 87.3604 39.5347C86.7013 39.2429 86.1065 38.8232 85.6104 38.3003C84.705 39.4337 83.0713 39.9996 80.71 39.9996C78.6573 39.9996 77.2242 39.4162 76.4102 38.2496C74.5588 39.4506 72.3857 40.0609 70.1797 39.9996H67.0283C65.5118 40.1076 64.0081 39.6526 62.8057 38.7222C62.3049 38.2341 61.9172 37.6436 61.6689 36.9898C61.4207 36.336 61.3185 35.6346 61.3691 34.9371C61.3903 33.6376 61.5523 32.3458 61.8535 31.0816L64.0137 31.3531C63.8377 32.2933 63.7314 33.2468 63.6943 34.2027C63.655 34.651 63.7233 35.1006 63.8936 35.5171C64.0638 35.9337 64.3308 36.3048 64.6729 36.5972C65.5499 37.1646 66.588 37.4305 67.6299 37.355H70.1807C72.0865 37.4538 73.988 37.0902 75.7227 36.2945C75.6733 35.9695 75.6509 35.6407 75.6543 35.3121L75.6279 23.5562L78.1348 23.2144V34.5757C78.1348 36.4327 78.9894 37.3531 80.6904 37.3531H80.7383C81.6099 37.4207 82.479 37.1983 83.2109 36.7203C83.493 36.4611 83.7112 36.1403 83.8486 35.7828C83.986 35.4252 84.0388 35.0411 84.0029 34.6597V31.2593L86.4883 30.9136V35.441C86.4893 35.7483 86.4659 36.0552 86.4189 36.3589C87.2987 37.0052 88.3625 37.3531 89.4541 37.3511H89.4795C90.3507 37.4182 91.2204 37.1959 91.9521 36.7183C92.2343 36.4592 92.4523 36.1383 92.5898 35.7808C92.7274 35.4233 92.7808 35.0392 92.7451 34.6578V31.2574L95.2295 30.9117V35.4371C95.2281 35.7443 95.2057 36.051 95.1611 36.355C96.0409 37.0013 97.1046 37.3492 98.1963 37.3472H129.453C131.172 37.3472 132.031 36.4511 132.029 34.6558L132.008 28.8414L134.515 28.4957V35.4371C134.556 36.06 134.463 36.6849 134.243 37.2691C134.023 37.8533 133.68 38.3849 133.238 38.8257C132.162 39.6798 130.802 40.0974 129.432 39.9957L124.962 39.9996ZM67.0508 31.9761V30.0406H68.3838C68.1109 29.6248 67.9665 29.1375 67.9688 28.6402C67.9549 28.3087 68.0137 27.978 68.1406 27.6714C68.2676 27.3649 68.46 27.0914 68.7041 26.8668C69.2319 26.408 69.9156 26.169 70.6143 26.1988C71.2408 26.2222 71.8537 26.3868 72.4062 26.6832V28.4546C71.9014 28.2497 71.3655 28.1298 70.8213 28.1031C70.5037 28.0909 70.1904 28.1867 69.9326 28.3726C69.8261 28.455 69.7405 28.5596 69.6826 28.6812C69.6248 28.8028 69.5964 28.9372 69.5996 29.0718C69.6086 29.4316 69.7497 29.7754 69.9951 30.0386H73.1953L72.6445 31.9742L67.0508 31.9761ZM85.127 27.6773L83.2607 29.5445L81.2129 27.5171L83.2393 25.5171L85.127 27.357L87.0107 25.5171L89.0586 27.5171L87.0332 29.5445L85.127 27.6773ZM116.172 16.4117C115.369 16.0086 114.697 15.3863 114.233 14.6168C113.77 13.8472 113.534 12.9603 113.553 12.0621C113.537 11.1555 113.778 10.2628 114.245 9.48589C114.71 8.72647 115.377 8.11333 116.172 7.71245C117.033 7.27856 117.988 7.06027 118.952 7.07573C119.882 7.05437 120.802 7.27352 121.623 7.71245C122.366 8.12169 122.953 8.76608 123.29 9.54448L121.112 10.7144C120.913 10.3084 120.602 9.96624 120.217 9.73003C119.831 9.49382 119.386 9.3733 118.934 9.38042C118.598 9.37077 118.264 9.4287 117.951 9.5523C117.639 9.6759 117.355 9.86235 117.116 10.0992C116.649 10.6466 116.393 11.3425 116.393 12.0621C116.393 12.7817 116.649 13.4776 117.116 14.025C117.354 14.2629 117.637 14.4501 117.95 14.5738C118.263 14.6975 118.597 14.7547 118.934 14.7437C119.386 14.7546 119.832 14.6342 120.219 14.398C120.605 14.1618 120.916 13.8196 121.112 13.4117L123.29 14.6011C122.942 15.3648 122.358 15.9949 121.623 16.4C120.804 16.8434 119.883 17.0672 118.952 17.0464C117.988 17.0608 117.034 16.8406 116.173 16.4058L116.172 16.4117ZM104.819 16.4117C104.017 16.0165 103.344 15.4003 102.88 14.6363C102.418 13.8588 102.181 12.9682 102.195 12.064C102.183 11.1631 102.417 10.2756 102.871 9.49761C103.313 8.74507 103.952 8.12762 104.72 7.71245C105.537 7.28139 106.45 7.06264 107.374 7.07573C108.249 7.06261 109.114 7.26373 109.894 7.66167C110.644 8.0437 111.273 8.63023 111.705 9.35308C112.17 10.1467 112.404 11.0546 112.38 11.9742L105.219 13.3589C105.407 13.8172 105.746 14.1976 106.18 14.4371C106.677 14.6925 107.231 14.8177 107.79 14.8003C108.248 14.807 108.702 14.7311 109.133 14.5757C109.539 14.4126 109.909 14.1677 110.22 13.8589L111.713 15.4839C111.203 16.0243 110.58 16.4461 109.889 16.7164C109.197 16.9867 108.454 17.1002 107.713 17.0484C106.711 17.0653 105.721 16.8447 104.82 16.4058L104.819 16.4117ZM105.65 9.88628C105.184 10.403 104.933 11.0789 104.95 11.775L109.665 10.857C109.548 10.3715 109.26 9.94393 108.854 9.65191C108.423 9.3454 107.904 9.18874 107.375 9.20659C107.057 9.19258 106.738 9.24482 106.441 9.36089C106.145 9.47696 105.876 9.65413 105.651 9.88042L105.65 9.88628ZM76.2285 16.4371C75.4917 16.0362 74.889 15.4285 74.4932 14.689C74.0778 13.8749 73.8613 12.9741 73.8613 12.0601C73.8613 11.1462 74.0778 10.2453 74.4932 9.4312C74.892 8.69494 75.4941 8.08924 76.2285 7.68706C76.9867 7.27449 77.839 7.06374 78.7021 7.07573C79.2418 7.04604 79.781 7.13525 80.2822 7.33745C80.7834 7.53965 81.2336 7.84981 81.6016 8.24566V7.22027H84.4121V16.9078H81.7324V15.7906C81.3583 16.2184 80.8899 16.5545 80.3652 16.773C79.8406 16.9915 79.2733 17.0862 78.7061 17.0503C77.8413 17.0606 76.988 16.8465 76.2305 16.4293L76.2285 16.4371ZM77.4072 10.1109C76.9564 10.6619 76.71 11.3521 76.71 12.064C76.71 12.776 76.9564 13.4661 77.4072 14.0171C77.8798 14.4829 78.5162 14.7437 79.1797 14.7437C79.8432 14.7437 80.4805 14.4829 80.9531 14.0171C81.4069 13.4674 81.6553 12.7768 81.6553 12.064C81.6553 11.3512 81.4069 10.6606 80.9531 10.1109C80.4817 9.643 79.8439 9.38042 79.1797 9.38042C78.5155 9.38042 77.8787 9.643 77.4072 10.1109ZM131.932 16.9058V11.7925C131.98 11.1761 131.799 10.5638 131.425 10.0718C131.238 9.87725 131.011 9.72623 130.76 9.62847C130.508 9.53071 130.239 9.48815 129.97 9.50542C129.657 9.49063 129.345 9.54247 129.054 9.65581C128.762 9.76916 128.499 9.94168 128.278 10.1636C127.82 10.7067 127.592 11.408 127.645 12.1168V16.9058H124.839V3.5523H127.645V8.22808C128.029 7.84987 128.491 7.55733 128.997 7.37066C129.551 7.17016 130.136 7.07033 130.725 7.07573C131.257 7.05265 131.789 7.13671 132.288 7.32183C132.788 7.50695 133.245 7.78951 133.634 8.15386C134.025 8.58572 134.324 9.09316 134.513 9.64409C134.702 10.195 134.778 10.7781 134.734 11.3589V16.9058H131.932ZM95.4062 16.9058V6.62847C94.1775 6.80398 92.9929 7.21236 91.916 7.82964L90.9248 5.64605C91.8028 5.12755 92.7495 4.73444 93.7363 4.47808C94.7524 4.21382 95.7978 4.08276 96.8477 4.08745C97.9081 4.08241 98.9653 4.21345 99.9922 4.47808C100.977 4.73082 101.92 5.12417 102.792 5.64605L101.806 7.82964C100.734 7.2105 99.5536 6.80194 98.3281 6.62847V16.9039L95.4062 16.9058ZM87.0059 16.9058V7.22027H89.8115V16.9058H87.0059ZM61.0146 16.9058V4.3062H67.1709C68.4129 4.22436 69.6497 4.53151 70.709 5.18511C71.0993 5.44721 71.4169 5.80407 71.6318 6.22222C71.8468 6.64037 71.9515 7.10579 71.9375 7.57573C71.9527 8.14896 71.8041 8.71371 71.5078 9.20464C71.2115 9.69557 70.7799 10.0916 70.2656 10.3453C70.9359 10.542 71.5282 10.9438 71.959 11.4937C72.3778 12.0628 72.5931 12.7562 72.5693 13.4625C72.5917 13.9617 72.485 14.4578 72.2598 14.9039C72.0345 15.35 71.6982 15.7309 71.2832 16.0093C70.15 16.6773 68.8419 16.9881 67.5293 16.9019L61.0146 16.9058ZM63.915 14.7066H67.3154C67.9184 14.7453 68.5194 14.6134 69.0508 14.3257C69.2437 14.2003 69.4004 14.0254 69.5039 13.8199C69.6074 13.6143 69.6538 13.3855 69.6396 13.1558C69.6396 12.1131 68.8654 11.5907 67.3154 11.5894H63.915V14.7066ZM63.915 9.46636H66.8154C67.3868 9.50434 67.9563 9.37187 68.4521 9.0855C68.6255 8.95684 68.7663 8.7881 68.8633 8.59527C68.9603 8.40243 69.0107 8.19003 69.0107 7.97417C69.0107 7.75831 68.9603 7.54591 68.8633 7.35308C68.7663 7.16025 68.6255 6.99346 68.4521 6.8648C67.9529 6.58828 67.385 6.46071 66.8154 6.49761H63.915V9.46636ZM87.1523 5.41363C86.9994 5.27146 86.8773 5.09918 86.7939 4.90777C86.7105 4.71635 86.667 4.50914 86.667 4.30034C86.667 4.09155 86.7105 3.88434 86.7939 3.69292C86.8773 3.50151 86.9994 3.32923 87.1523 3.18706C87.5067 2.8952 87.9501 2.73526 88.4092 2.73198C88.8682 2.72871 89.3144 2.88271 89.6729 3.16948C89.8293 3.30129 89.9543 3.46724 90.0381 3.65386C90.1219 3.84048 90.1627 4.04311 90.1572 4.24761C90.1635 4.46424 90.1235 4.68042 90.04 4.88042C89.9566 5.08043 89.8312 5.25983 89.6729 5.40777C89.3193 5.70319 88.8729 5.8648 88.4121 5.8648C87.9513 5.8648 87.5059 5.70319 87.1523 5.40777V5.41363Z" fill="#1A2936"/>
<path d="M44.501 19.2197L29.751 2.00472C29.312 1.49309 28.7675 1.0825 28.155 0.800985C27.5424 0.519466 26.8761 0.373689 26.2019 0.373739H9.57194C9.57194 0.373739 4.225 0.284799 3.783 0.360799C3.36613 0.44145 2.96358 0.584002 2.58891 0.783773C2.53791 0.808773 -0.589032 2.27277 1.22197 6.45577C3.06197 10.7018 9.57292 8.44873 9.57292 44.1447H26.2029C26.8771 44.1448 27.5434 43.999 28.1559 43.7175C28.7685 43.436 29.313 43.0254 29.752 42.5138L44.502 25.2988C45.2267 24.4519 45.6249 23.3738 45.6247 22.2591C45.6245 21.1444 45.226 20.0664 44.501 19.2197ZM34.206 24.6388C34.206 24.8019 34.1411 24.9582 34.0258 25.0736C33.9105 25.1889 33.7541 25.2537 33.591 25.2537H32.138C32.0572 25.2537 31.9772 25.2378 31.9026 25.2069C31.828 25.176 31.7602 25.1307 31.703 25.0736C31.6459 25.0165 31.6007 24.9487 31.5697 24.8741C31.5388 24.7995 31.523 24.7195 31.523 24.6388V23.1827C31.523 23.1019 31.5388 23.022 31.5697 22.9473C31.6007 22.8727 31.6459 22.805 31.703 22.7479C31.7602 22.6908 31.828 22.6455 31.9026 22.6146C31.9772 22.5837 32.0572 22.5677 32.138 22.5677H33.591C33.7541 22.5677 33.9105 22.6325 34.0258 22.7479C34.1411 22.8632 34.206 23.0196 34.206 23.1827V24.6388ZM34.206 21.3317C34.206 21.4949 34.1411 21.6512 34.0258 21.7666C33.9105 21.8819 33.7541 21.9467 33.591 21.9467H32.138C32.0572 21.9467 31.9772 21.9309 31.9026 21.9C31.828 21.8691 31.7602 21.8237 31.703 21.7666C31.6459 21.7095 31.6007 21.6417 31.5697 21.5671C31.5388 21.4925 31.523 21.4125 31.523 21.3317V19.8787C31.523 19.798 31.5388 19.718 31.5697 19.6434C31.6007 19.5688 31.6459 19.501 31.703 19.4439C31.7602 19.3868 31.828 19.3414 31.9026 19.3105C31.9772 19.2796 32.0572 19.2638 32.138 19.2638H33.591C33.7541 19.2638 33.9105 19.3286 34.0258 19.4439C34.1411 19.5593 34.206 19.7156 34.206 19.8787V21.3317ZM37.569 24.6388C37.569 24.8019 37.5042 24.9582 37.3888 25.0736C37.2735 25.1889 37.117 25.2537 36.9539 25.2537H35.498C35.3349 25.2537 35.1784 25.1889 35.063 25.0736C34.9477 24.9582 34.883 24.8019 34.883 24.6388V23.1827C34.883 23.0196 34.9477 22.8632 35.063 22.7479C35.1784 22.6325 35.3349 22.5677 35.498 22.5677H36.9539C37.117 22.5677 37.2735 22.6325 37.3888 22.7479C37.5042 22.8632 37.569 23.0196 37.569 23.1827V24.6388ZM37.569 21.3317C37.569 21.4949 37.5042 21.6512 37.3888 21.7666C37.2735 21.8819 37.117 21.9467 36.9539 21.9467H35.498C35.3349 21.9467 35.1784 21.8819 35.063 21.7666C34.9477 21.6512 34.883 21.4949 34.883 21.3317V19.8787C34.883 19.7156 34.9477 19.5593 35.063 19.4439C35.1784 19.3286 35.3349 19.2638 35.498 19.2638H36.9539C37.117 19.2638 37.2735 19.3286 37.3888 19.4439C37.5042 19.5593 37.569 19.7156 37.569 19.8787V21.3317Z" fill="url(#paint0_linear_1_275)"/>
<path d="M27.9978 37.4766C27.9982 40.0531 27.0529 42.5402 25.3412 44.4661C23.6296 46.3919 21.2706 47.6225 18.7118 47.9246C18.3013 47.9736 17.8882 47.9983 17.4748 47.9985C16.5579 47.9999 15.645 47.8794 14.7598 47.6405C14.2598 47.4695 13.7688 47.2976 13.2808 47.1266C10.2858 46.0726 7.54075 45.0485 5.41775 44.0835C5.07475 43.9275 4.7478 43.7746 4.4418 43.6216C4.4418 43.6216 4.44184 43.6216 4.43484 43.6216C4.00229 43.3816 3.59111 43.1049 3.20584 42.7946C2.21555 41.9929 1.41218 40.9848 0.851834 39.8406C0.327777 38.756 0.0371532 37.5734 -0.00119362 36.3695V5.33252C-0.0536448 4.32788 0.206644 3.33172 0.743924 2.4812C1.2812 1.63069 2.06904 0.967652 2.99881 0.583496C2.40965 0.817471 1.89673 1.20988 1.51675 1.71729C1.13677 2.22469 0.90447 2.82731 0.84573 3.4585C0.922474 4.20352 1.2136 4.91039 1.68374 5.49341C2.15389 6.07643 2.78294 6.51064 3.49478 6.74353C3.50254 6.74419 3.51003 6.74666 3.51675 6.75061C3.58775 6.77261 3.66182 6.79553 3.73282 6.82153L3.7698 6.83252C5.5948 7.43952 7.81877 8.10653 9.91177 8.71753C13.6358 9.79753 16.9628 10.6875 16.9628 10.6875V10.7175C19.3441 11.199 21.4856 12.4894 23.024 14.3699C24.5623 16.2503 25.4027 18.605 25.4027 21.0345C25.4084 23.7194 24.3817 26.3038 22.5348 28.2526C24.1891 29.1586 25.5691 30.493 26.5303 32.1158C27.4915 33.7387 27.9984 35.5904 27.9978 37.4766Z" fill="url(#paint1_linear_1_275)"/>
<defs>
<linearGradient id="paint0_linear_1_275" x1="23.1414" y1="0.330078" x2="23.1414" y2="44.1447" gradientUnits="userSpaceOnUse">
<stop stop-color="#721FBD"/>
<stop offset="1" stop-color="#3A1E96"/>
</linearGradient>
<linearGradient id="paint1_linear_1_275" x1="13.995" y1="0.583496" x2="13.995" y2="47.9985" gradientUnits="userSpaceOnUse">
<stop stop-color="#00B7FC"/>
<stop offset="1" stop-color="#31CDFE"/>
</linearGradient>
</defs>
</svg>
