<svg xmlns="http://www.w3.org/2000/svg" xmlns:xlink="http://www.w3.org/1999/xlink" width="16" height="16" viewBox="0 0 16 16"><defs><linearGradient id="a" x1="0.5" x2="0.5" y2="1" gradientUnits="objectBoundingBox"><stop offset="0" stop-color="#00b7fc"/><stop offset="1" stop-color="#31cdfe"/></linearGradient><clipPath id="b"><rect width="16" height="16" transform="translate(0.355 -0.001)" stroke="#707070" stroke-width="1" fill="url(#a)"/></clipPath></defs><g transform="translate(-0.355 0.001)" clip-path="url(#b)"><g transform="translate(0.506 0.999)"><path d="M14.492,32.914h-.363V30.09H15.3a.462.462,0,0,0,.449-.571l-.706-2.92a.462.462,0,0,0-.449-.353h-1.86a.462.462,0,0,0-.449.353l-.706,2.92a.462.462,0,0,0,.449.571h1.174V31.2a1.378,1.378,0,0,0-.725-.205h-9.2A1.387,1.387,0,0,0,1.9,32.378v.535H1.274A1.275,1.275,0,0,0,0,34.187v4.17a1.275,1.275,0,0,0,1.274,1.274H14.492a1.275,1.275,0,0,0,1.274-1.274v-4.17A1.275,1.275,0,0,0,14.492,32.914ZM1.274,38.707a.351.351,0,0,1-.35-.35v-4.17a.35.35,0,0,1,.35-.35H2.923a.35.35,0,0,1,.35.35v4.17a.35.35,0,0,1-.35.35Zm2.011-6.791h9.2a.462.462,0,0,1,.462.462v.535h-.1a1.275,1.275,0,0,0-1.274,1.274V35.81H4.2V34.187a1.275,1.275,0,0,0-1.274-1.274h-.1v-.535A.462.462,0,0,1,3.285,31.916ZM4.2,38.357V36.734h7.373v1.623a1.27,1.27,0,0,0,.049.35H4.147A1.27,1.27,0,0,0,4.2,38.357Zm8.3,0v-4.17a.35.35,0,0,1,.35-.35h1.649a.35.35,0,0,1,.35.35v4.17a.351.351,0,0,1-.35.35H12.843A.35.35,0,0,1,12.493,38.357ZM14.234,27.17l.483,2h-2.1l.483-2Zm0,0" transform="translate(0 -25.438)" fill="url(#a)"/><path d="M19.548,4.044h7.817a.462.462,0,0,0,.462-.462V.462A.462.462,0,0,0,27.365,0H19.548a.462.462,0,0,0-.462.462v3.12A.462.462,0,0,0,19.548,4.044ZM20.01.924H26.9v2.2H20.01Zm0,0" transform="translate(-18.498 0)" fill="url(#a)"/></g></g></svg>