<?xml version="1.0" encoding="UTF-8"?>
<svg width="15px" height="16px" viewBox="0 0 15 16" version="1.1" xmlns="http://www.w3.org/2000/svg" xmlns:xlink="http://www.w3.org/1999/xlink">
    <title>Group</title>
    <g id="Page-1" stroke="none" stroke-width="1" fill="none" fill-rule="evenodd">
        <g id="three_connected_dots" transform="translate(0.000000, -1.000000)" fill="#1A2936" fill-rule="nonzero">
            <g id="Group" transform="translate(0.000000, 1.000000)">
                <path d="M4.58948473,9.52714469 L9.46948473,12.3171447 C9.13173155,13.6379053 9.81482829,15.0063478 11.0734007,15.5302574 C12.3319731,16.054167 13.7843239,15.5746535 14.4835306,14.4043562 C15.1827373,13.2340589 14.916746,11.7279033 13.8589811,10.8678922 C12.8012162,10.0078811 11.2724744,10.0548369 10.2694847,10.9781447 L5.38948473,8.18914469 C5.4406812,7.9930836 5.46887107,7.79172737 5.47348473,7.58914469 L10.2734847,4.84914469 C11.2936489,5.79948809 12.8575677,5.85448001 13.9419633,4.97813903 C15.026359,4.10179805 15.3007926,2.5611643 14.5857012,1.36428011 C13.8706098,0.167395917 12.3838973,-0.321022111 11.0983252,0.218599739 C9.81275309,0.758221588 9.12006304,2.16144882 9.47348473,3.51014469 L5.03848473,6.04214469 C4.41839529,5.07357768 3.25863045,4.59639937 2.13645942,4.84812372 C1.0142884,5.09984808 0.16947252,6.02669206 0.0225161727,7.16732205 C-0.124440174,8.30795205 0.457861477,9.41866282 1.47958235,9.94660166 C2.50130323,10.4745405 3.74414403,10.3069088 4.58948473,9.52714469 L4.58948473,9.52714469 Z" id="coolicon"></path>
            </g>
        </g>
    </g>
</svg>