<svg width="16" height="16" viewBox="0 0 16 16" fill="none" xmlns="http://www.w3.org/2000/svg">
<mask id="mask0_1_14041" style="mask-type:luminance" maskUnits="userSpaceOnUse" x="0" y="0" width="16" height="16">
<path d="M16 0H0V16H16V0Z" fill="white"/>
</mask>
<g mask="url(#mask0_1_14041)">
<path d="M16 3.03902C15.3981 3.30152 14.7616 3.47598 14.11 3.55702C14.7967 3.14965 15.3101 2.50458 15.553 1.74402C14.91 2.12536 14.2065 2.3939 13.473 2.53802C13.0232 2.05816 12.4395 1.72462 11.7977 1.5807C11.1559 1.43679 10.4856 1.48915 9.87399 1.73098C9.26233 1.97282 8.73751 2.39297 8.36767 2.93686C7.99782 3.48076 7.80004 4.12329 7.8 4.78102C7.79741 5.03241 7.8229 5.28329 7.876 5.52902C6.57106 5.46543 5.29424 5.12713 4.12902 4.53624C2.96379 3.94536 1.93639 3.11519 1.114 2.10002C0.693418 2.82169 0.563543 3.67648 0.750795 4.49051C0.938047 5.30453 1.42836 6.01665 2.122 6.48202C1.60309 6.46936 1.09481 6.33218 0.64 6.08202C0.634822 6.84503 0.893656 7.58636 1.37262 8.18033C1.85159 8.7743 2.52122 9.18437 3.268 9.34102C2.78489 9.47196 2.2781 9.48975 1.787 9.39302C1.99894 10.044 2.40749 10.6134 2.95639 11.0226C3.5053 11.4318 4.16756 11.6608 4.852 11.678C4.17159 12.2108 3.39287 12.6042 2.56034 12.8358C1.7278 13.0675 0.857784 13.1328 0 13.028C1.49988 13.9946 3.24768 14.5058 5.032 14.5C6.26023 14.5085 7.4779 14.2729 8.61431 13.8069C9.75071 13.3408 10.7832 12.6537 11.6518 11.7852C12.5204 10.9168 13.2078 9.88449 13.6741 8.74818C14.1404 7.61187 14.3762 6.39425 14.368 5.16602C14.368 5.02102 14.363 4.88102 14.356 4.74202C15.003 4.27901 15.5601 3.7019 16 3.03902Z" fill="#1DA1F3"/>
</g>
</svg>
