<?xml version="1.0" encoding="UTF-8"?>
<svg width="30px" height="30px" viewBox="0 0 22 20" version="1.1" xmlns="http://www.w3.org/2000/svg" xmlns:xlink="http://www.w3.org/1999/xlink">
    <title>acTypeCentral</title>
    <defs>
        <linearGradient x1="50%" y1="0%" x2="50%" y2="100%" id="linearGradient-1">
            <stop stop-color="#00B7FC" offset="0%"></stop>
            <stop stop-color="#31CDFE" offset="100%"></stop>
        </linearGradient>
        <linearGradient x1="50%" y1="0%" x2="50%" y2="100%" id="linearGradient-2">
            <stop stop-color="#00B7FC" offset="0%"></stop>
            <stop stop-color="#31CDFE" offset="100%"></stop>
        </linearGradient>
        <linearGradient x1="50%" y1="0%" x2="50%" y2="100%" id="linearGradient-3">
            <stop stop-color="#00B7FC" offset="0%"></stop>
            <stop stop-color="#31CDFE" offset="100%"></stop>
        </linearGradient>
        <linearGradient x1="50%" y1="0%" x2="50%" y2="100%" id="linearGradient-4">
            <stop stop-color="#00B7FC" offset="0%"></stop>
            <stop stop-color="#31CDFE" offset="100%"></stop>
        </linearGradient>
        <linearGradient x1="50%" y1="0%" x2="50%" y2="100%" id="linearGradient-5">
            <stop stop-color="#00B7FC" offset="0%"></stop>
            <stop stop-color="#31CDFE" offset="100%"></stop>
        </linearGradient>
        <linearGradient x1="50%" y1="0%" x2="50%" y2="100%" id="linearGradient-6">
            <stop stop-color="#00B7FC" offset="0%"></stop>
            <stop stop-color="#31CDFE" offset="100%"></stop>
        </linearGradient>
    </defs>
    <g id="Page-1" stroke="none" stroke-width="1" fill="none" fill-rule="evenodd">
        <g id="acTypeCentral" fill-rule="nonzero">
            <g id="air-conditioner" transform="translate(0.000000, 0.000000)">
                <path d="M 20.074219 19.613281 L 3.925781 19.613281 C 3.683594 19.613281 3.484375 19.414062 3.484375 19.171875 L 3.484375 3.027344 C 3.484375 2.785156 3.683594 2.585938 3.925781 2.585938 L 20.050781 2.585938 C 20.292969 2.585938 20.492188 2.785156 20.492188 3.027344 L 20.492188 19.152344 C 20.515625 19.414062 20.316406 19.613281 20.074219 19.613281 Z M 20.074219 19.613281 "/>
                <path fill="url(#linearGradient-1)" d="M 19.765625 19.964844 L 4.234375 19.964844 C 3.617188 19.964844 3.132812 19.460938 3.132812 18.867188 L 3.132812 3.332031 C 3.132812 2.71875 3.640625 2.234375 4.234375 2.234375 L 15.210938 2.234375 C 15.410156 2.234375 15.585938 2.410156 15.585938 2.609375 C 15.585938 2.804688 15.433594 2.980469 15.210938 2.980469 L 4.234375 2.980469 C 4.035156 2.980469 3.859375 3.15625 3.859375 3.355469 L 3.859375 18.886719 C 3.859375 19.085938 4.035156 19.261719 4.234375 19.261719 L 19.765625 19.261719 C 19.964844 19.261719 20.140625 19.085938 20.140625 18.886719 L 20.140625 3.332031 C 20.140625 3.136719 19.964844 2.960938 19.765625 2.960938 L 18.183594 2.960938 C 17.984375 2.960938 17.808594 2.785156 17.808594 2.585938 C 17.808594 2.386719 17.984375 2.210938 18.183594 2.210938 L 19.765625 2.210938 C 20.382812 2.210938 20.867188 2.71875 20.867188 3.3125 L 20.867188 18.84375 C 20.867188 19.480469 20.382812 19.964844 19.765625 19.964844 Z M 16.707031 2.960938 C 16.507812 2.960938 16.332031 2.785156 16.332031 2.585938 C 16.332031 2.386719 16.507812 2.210938 16.707031 2.210938 C 16.90625 2.210938 17.082031 2.386719 17.082031 2.585938 C 17.058594 2.804688 16.90625 2.960938 16.707031 2.960938 Z M 16.707031 2.960938 "/>
                <path fill="url(#linearGradient-2)" d="M 7.929688 7.402344 C 7.839844 7.402344 7.730469 7.359375 7.664062 7.292969 L 5.089844 4.699219 C 4.9375 4.542969 4.9375 4.324219 5.089844 4.167969 C 5.246094 4.015625 5.464844 4.015625 5.621094 4.167969 L 8.214844 6.765625 C 8.371094 6.917969 8.371094 7.140625 8.214844 7.292969 C 8.128906 7.359375 8.019531 7.402344 7.929688 7.402344 Z M 16.070312 7.402344 C 15.980469 7.402344 15.871094 7.359375 15.804688 7.292969 C 15.652344 7.140625 15.652344 6.917969 15.804688 6.765625 L 18.402344 4.167969 C 18.554688 4.015625 18.777344 4.015625 18.929688 4.167969 C 19.082031 4.324219 19.082031 4.542969 18.929688 4.699219 L 16.332031 7.292969 C 16.246094 7.359375 16.15625 7.402344 16.070312 7.402344 Z M 18.664062 18.117188 C 18.578125 18.117188 18.46875 18.074219 18.402344 18.007812 L 15.804688 15.433594 C 15.652344 15.28125 15.652344 15.058594 15.804688 14.90625 C 15.960938 14.75 16.179688 14.75 16.332031 14.90625 L 18.929688 17.5 C 19.082031 17.65625 19.082031 17.875 18.929688 18.03125 C 18.839844 18.09375 18.753906 18.117188 18.664062 18.117188 Z M 5.15625 18.316406 C 5.070312 18.316406 4.960938 18.273438 4.894531 18.207031 C 4.738281 18.050781 4.738281 17.832031 4.894531 17.675781 L 7.664062 14.90625 C 7.820312 14.75 8.039062 14.75 8.195312 14.90625 C 8.347656 15.058594 8.347656 15.28125 8.195312 15.433594 L 5.421875 18.207031 C 5.355469 18.273438 5.246094 18.316406 5.15625 18.316406 Z M 4.980469 16.269531 C 4.785156 16.269531 4.609375 16.09375 4.609375 15.894531 L 4.609375 6.304688 C 4.609375 6.105469 4.785156 5.929688 4.980469 5.929688 C 5.179688 5.929688 5.355469 6.105469 5.355469 6.304688 L 5.355469 15.917969 C 5.355469 16.117188 5.179688 16.269531 4.980469 16.269531 Z M 6.457031 14.421875 C 6.257812 14.421875 6.082031 14.246094 6.082031 14.046875 L 6.082031 8.152344 C 6.082031 7.953125 6.257812 7.777344 6.457031 7.777344 C 6.652344 7.777344 6.828125 7.953125 6.828125 8.152344 L 6.828125 14.070312 C 6.828125 14.269531 6.652344 14.421875 6.457031 14.421875 Z M 19.019531 16.269531 C 18.820312 16.269531 18.644531 16.09375 18.644531 15.894531 L 18.644531 6.304688 C 18.644531 6.105469 18.820312 5.929688 19.019531 5.929688 C 19.214844 5.929688 19.390625 6.105469 19.390625 6.304688 L 19.390625 15.917969 C 19.390625 16.117188 19.238281 16.269531 19.019531 16.269531 Z M 17.542969 14.421875 C 17.347656 14.421875 17.167969 14.246094 17.167969 14.046875 L 17.167969 8.152344 C 17.167969 7.953125 17.347656 7.777344 17.542969 7.777344 C 17.742188 7.777344 17.917969 7.953125 17.917969 8.152344 L 17.917969 14.070312 C 17.917969 14.269531 17.742188 14.421875 17.542969 14.421875 Z M 16.796875 4.457031 L 7.203125 4.457031 C 7.003906 4.457031 6.828125 4.28125 6.828125 4.082031 C 6.828125 3.882812 7.003906 3.707031 7.203125 3.707031 L 16.816406 3.707031 C 17.015625 3.707031 17.191406 3.882812 17.191406 4.082031 C 17.167969 4.28125 17.015625 4.457031 16.796875 4.457031 Z M 14.949219 5.929688 L 9.050781 5.929688 C 8.855469 5.929688 8.675781 5.753906 8.675781 5.554688 C 8.675781 5.359375 8.855469 5.183594 9.050781 5.183594 L 14.96875 5.183594 C 15.167969 5.183594 15.34375 5.359375 15.34375 5.554688 C 15.320312 5.753906 15.167969 5.929688 14.949219 5.929688 Z M 16.796875 18.492188 L 7.203125 18.492188 C 7.003906 18.492188 6.828125 18.316406 6.828125 18.117188 C 6.828125 17.917969 7.003906 17.742188 7.203125 17.742188 L 16.816406 17.742188 C 17.015625 17.742188 17.191406 17.917969 17.191406 18.117188 C 17.167969 18.335938 17.015625 18.492188 16.796875 18.492188 Z M 14.949219 17.019531 L 9.050781 17.019531 C 8.855469 17.019531 8.675781 16.839844 8.675781 16.644531 C 8.675781 16.445312 8.855469 16.269531 9.050781 16.269531 L 14.96875 16.269531 C 15.167969 16.269531 15.34375 16.445312 15.34375 16.644531 C 15.320312 16.839844 15.167969 17.019531 14.949219 17.019531 Z M 14.949219 17.019531 "/>
                <path d="M 7.929688 7.03125 L 16.070312 7.03125 L 16.070312 15.167969 L 7.929688 15.167969 Z M 7.929688 7.03125 "/>
                <path fill="url(#linearGradient-3)" d="M 16.070312 15.542969 L 7.929688 15.542969 C 7.730469 15.542969 7.554688 15.367188 7.554688 15.167969 L 7.554688 7.03125 C 7.554688 6.832031 7.730469 6.65625 7.929688 6.65625 L 16.070312 6.65625 C 16.269531 6.65625 16.445312 6.832031 16.445312 7.03125 L 16.445312 15.167969 C 16.445312 15.367188 16.269531 15.542969 16.070312 15.542969 Z M 8.304688 14.796875 L 15.695312 14.796875 L 15.695312 7.402344 L 8.304688 7.402344 Z M 8.304688 14.796875 "/>
                <path fill="url(#linearGradient-4)" d="M 14.597656 15.542969 C 14.398438 15.542969 14.222656 15.367188 14.222656 15.167969 L 14.222656 7.03125 C 14.222656 6.832031 14.398438 6.65625 14.597656 6.65625 C 14.792969 6.65625 14.96875 6.832031 14.96875 7.03125 L 14.96875 15.167969 C 14.949219 15.367188 14.792969 15.542969 14.597656 15.542969 Z M 9.402344 15.542969 C 9.207031 15.542969 9.03125 15.367188 9.03125 15.167969 L 9.03125 7.03125 C 9.03125 6.832031 9.207031 6.65625 9.402344 6.65625 C 9.601562 6.65625 9.777344 6.832031 9.777344 7.03125 L 9.777344 15.167969 C 9.777344 15.367188 9.625 15.542969 9.402344 15.542969 Z M 10.898438 15.542969 C 10.703125 15.542969 10.527344 15.367188 10.527344 15.167969 L 10.527344 7.03125 C 10.527344 6.832031 10.703125 6.65625 10.898438 6.65625 C 11.097656 6.65625 11.273438 6.832031 11.273438 7.03125 L 11.273438 15.167969 C 11.25 15.367188 11.097656 15.542969 10.898438 15.542969 Z M 13.101562 15.542969 C 12.902344 15.542969 12.726562 15.367188 12.726562 15.167969 L 12.726562 7.03125 C 12.726562 6.832031 12.902344 6.65625 13.101562 6.65625 C 13.296875 6.65625 13.472656 6.832031 13.472656 7.03125 L 13.472656 15.167969 C 13.472656 15.367188 13.320312 15.542969 13.101562 15.542969 Z M 13.101562 15.542969 "/>
                <path fill="url(#linearGradient-5)" d="M 16.070312 14.046875 L 7.929688 14.046875 C 7.730469 14.046875 7.554688 13.871094 7.554688 13.671875 C 7.554688 13.476562 7.730469 13.300781 7.929688 13.300781 L 16.070312 13.300781 C 16.269531 13.300781 16.445312 13.476562 16.445312 13.671875 C 16.445312 13.894531 16.269531 14.046875 16.070312 14.046875 Z M 16.070312 8.878906 L 7.929688 8.878906 C 7.730469 8.878906 7.554688 8.703125 7.554688 8.503906 C 7.554688 8.304688 7.730469 8.128906 7.929688 8.128906 L 16.070312 8.128906 C 16.269531 8.128906 16.445312 8.304688 16.445312 8.503906 C 16.445312 8.703125 16.269531 8.878906 16.070312 8.878906 Z M 16.070312 10.351562 L 7.929688 10.351562 C 7.730469 10.351562 7.554688 10.175781 7.554688 9.976562 C 7.554688 9.78125 7.730469 9.605469 7.929688 9.605469 L 16.070312 9.605469 C 16.269531 9.605469 16.445312 9.78125 16.445312 9.976562 C 16.445312 10.199219 16.269531 10.351562 16.070312 10.351562 Z M 16.070312 12.574219 L 7.929688 12.574219 C 7.730469 12.574219 7.554688 12.398438 7.554688 12.199219 C 7.554688 12 7.730469 11.824219 7.929688 11.824219 L 16.070312 11.824219 C 16.269531 11.824219 16.445312 12 16.445312 12.199219 C 16.445312 12.417969 16.269531 12.574219 16.070312 12.574219 Z M 16.070312 12.574219 "/>
            </g>
        </g>
    </g>
</svg>