<?xml version="1.0" encoding="UTF-8"?>
<svg xmlns="http://www.w3.org/2000/svg" xmlns:xlink="http://www.w3.org/1999/xlink" width="24px" height="22px" viewBox="0 0 23 22" version="1.1">
<defs>
<linearGradient id="linear0" gradientUnits="userSpaceOnUse" x1="0.5" y1="0" x2="0.5" y2="1" gradientTransform="matrix(21.183594,0,0,16.335938,0.90625,2.851562)">
<stop offset="0" style="stop-color:rgb(0%,71.764706%,98.823529%);stop-opacity:1;"/>
<stop offset="1" style="stop-color:rgb(19.215686%,80.392157%,99.607843%);stop-opacity:1;"/>
</linearGradient>
<linearGradient id="linear1" gradientUnits="userSpaceOnUse" x1="0.5" y1="0" x2="0.5" y2="1" gradientTransform="matrix(16.757812,0,0,11.328125,3.066406,5.355469)">
<stop offset="0" style="stop-color:rgb(0%,71.764706%,98.823529%);stop-opacity:1;"/>
<stop offset="1" style="stop-color:rgb(19.215686%,80.392157%,99.607843%);stop-opacity:1;"/>
</linearGradient>
</defs>
<g id="surface1">
<path style=" stroke:none;fill-rule:nonzero;fill:url(#linear0);" d="M 20.332031 2.851562 L 2.667969 2.851562 C 1.699219 2.851562 0.90625 3.667969 0.90625 4.671875 L 0.90625 17.371094 C 0.90625 18.371094 1.699219 19.1875 2.667969 19.1875 L 20.328125 19.1875 C 21.296875 19.1875 22.089844 18.371094 22.089844 17.371094 L 22.089844 4.671875 C 22.09375 3.667969 21.300781 2.851562 20.332031 2.851562 Z M 20.917969 17.367188 C 20.917969 17.699219 20.65625 17.972656 20.332031 17.972656 L 2.667969 17.972656 C 2.34375 17.972656 2.082031 17.699219 2.082031 17.367188 L 2.082031 4.671875 C 2.082031 4.335938 2.34375 4.066406 2.667969 4.066406 L 20.328125 4.066406 C 20.652344 4.066406 20.914062 4.335938 20.914062 4.671875 L 20.914062 17.367188 Z M 20.917969 17.367188 "/>
<path style=" stroke:none;fill-rule:nonzero;fill:url(#linear1);" d="M 12.574219 5.355469 L 3.652344 5.355469 C 3.328125 5.355469 3.066406 5.625 3.066406 5.960938 C 3.066406 6.296875 3.328125 6.566406 3.652344 6.566406 L 12.574219 6.566406 C 12.902344 6.566406 13.164062 6.296875 13.164062 5.960938 C 13.164062 5.625 12.902344 5.355469 12.574219 5.355469 Z M 12.574219 7.882812 L 3.652344 7.882812 C 3.328125 7.882812 3.066406 8.152344 3.066406 8.488281 C 3.066406 8.824219 3.328125 9.09375 3.652344 9.09375 L 12.574219 9.09375 C 12.902344 9.09375 13.164062 8.824219 13.164062 8.488281 C 13.164062 8.152344 12.902344 7.882812 12.574219 7.882812 Z M 12.574219 10.414062 L 3.652344 10.414062 C 3.328125 10.414062 3.066406 10.683594 3.066406 11.019531 C 3.066406 11.355469 3.328125 11.625 3.652344 11.625 L 12.574219 11.625 C 12.902344 11.625 13.164062 11.355469 13.164062 11.019531 C 13.164062 10.683594 12.902344 10.414062 12.574219 10.414062 Z M 12.574219 12.941406 L 3.652344 12.941406 C 3.328125 12.941406 3.066406 13.210938 3.066406 13.546875 C 3.066406 13.882812 3.328125 14.152344 3.652344 14.152344 L 12.574219 14.152344 C 12.902344 14.152344 13.164062 13.882812 13.164062 13.546875 C 13.164062 13.214844 12.902344 12.941406 12.574219 12.941406 Z M 12.574219 15.472656 L 3.652344 15.472656 C 3.328125 15.472656 3.066406 15.742188 3.066406 16.078125 C 3.066406 16.410156 3.328125 16.683594 3.652344 16.683594 L 12.574219 16.683594 C 12.902344 16.683594 13.164062 16.410156 13.164062 16.078125 C 13.164062 15.742188 12.902344 15.472656 12.574219 15.472656 Z M 19.238281 5.355469 L 15.183594 5.355469 C 14.859375 5.355469 14.59375 5.625 14.59375 5.960938 L 14.59375 10.136719 C 14.59375 10.472656 14.859375 10.746094 15.183594 10.746094 L 19.238281 10.746094 C 19.5625 10.746094 19.824219 10.472656 19.824219 10.136719 L 19.824219 5.960938 C 19.824219 5.625 19.5625 5.355469 19.238281 5.355469 Z M 18.648438 9.53125 L 15.769531 9.53125 L 15.769531 6.566406 L 18.648438 6.566406 Z M 15.179688 12.238281 C 14.855469 12.238281 14.589844 12.511719 14.589844 12.84375 L 14.589844 16.078125 C 14.589844 16.410156 14.855469 16.683594 15.179688 16.683594 C 15.503906 16.683594 15.765625 16.410156 15.765625 16.078125 L 15.765625 12.84375 C 15.765625 12.511719 15.503906 12.238281 15.179688 12.238281 Z M 17.207031 12.238281 C 16.882812 12.238281 16.617188 12.511719 16.617188 12.84375 L 16.617188 16.078125 C 16.617188 16.410156 16.882812 16.683594 17.207031 16.683594 C 17.53125 16.683594 17.792969 16.410156 17.792969 16.078125 L 17.792969 12.84375 C 17.796875 12.511719 17.53125 12.238281 17.207031 12.238281 Z M 19.238281 12.238281 C 18.914062 12.238281 18.648438 12.511719 18.648438 12.84375 L 18.648438 16.078125 C 18.648438 16.410156 18.914062 16.683594 19.238281 16.683594 C 19.5625 16.683594 19.824219 16.410156 19.824219 16.078125 L 19.824219 12.84375 C 19.824219 12.511719 19.5625 12.238281 19.238281 12.238281 Z M 19.238281 12.238281 "/>
</g>
</svg>
