<?xml version="1.0" encoding="UTF-8"?>
<svg width="22px" height="25px" viewBox="0 0 22 25" version="1.1" xmlns="http://www.w3.org/2000/svg" xmlns:xlink="http://www.w3.org/1999/xlink">
    <title>driverRoom</title>
    <g id="Page-1" stroke="none" stroke-width="1" fill="none" fill-rule="evenodd">
        <g id="driverRoom" transform="translate(0.265000, 0.994000)" fill="#31CDFE" fill-rule="nonzero">
            <g id="taxi-driver٢" transform="translate(-0.000000, 0.000000)">
                <polygon id="Контур_4141" points="14.857 19.775 17.657 19.775 17.657 21.182 14.857 21.182"></polygon>
                <path d="M20.009,16.438 L13.968,15.217 L13.811,13.546 C14.3848192,12.8942481 14.7584245,12.0907883 14.887,11.232 L15.197,11.232 C16.4305753,11.2314651 17.4707081,10.3124508 17.6231826,9.08833487 C17.7756571,7.86421892 16.9927513,6.71812905 15.797,6.415 C15.813,6.373 15.897,5.966 15.922,5.844 L15.336,5.018 L15.804,4.552 L16.475,1.98 L10.737,0 L5.057,1.979 L5.663,4.548 L6.137,5.02 L5.557,5.845 C5.612,6.103 5.604,6.102 5.682,6.416 C4.48624873,6.71912905 3.70334293,7.86521892 3.85581741,9.08933487 C4.00829189,10.3134508 5.0484247,11.2324651 6.282,11.233 L6.592,11.233 C6.72063033,12.0917718 7.09422879,12.8952168 7.668,13.547 L7.511,15.218 L1.467,16.438 L0,24.006 L21.476,24.006 L20.009,16.438 Z M7.42,5.644 L14.057,5.644 L14.414,6.144 C14.16,6.99 13.682,7.125 13.404,7.125 L8.073,7.125 C7.794,7.125 7.317,6.99 7.063,6.144 L7.42,5.644 Z M7.942,8.53 C7.985,8.53 8.029,8.53 8.073,8.53 L13.403,8.53 C13.447,8.53 13.491,8.53 13.534,8.53 L13.534,10.53 C13.5920093,12.1363052 12.3400796,13.487048 10.734,13.551 C9.12792044,13.487048 7.8759907,12.1363052 7.934,10.53 L7.942,8.53 Z M10.742,14.957 C11.3494547,14.9585813 11.9492909,14.8217885 12.496,14.557 L12.596,15.64 C12.1794474,16.2564563 11.483999,16.6258613 10.74,16.6258613 C9.99600104,16.6258613 9.30055265,16.2564563 8.884,15.64 L8.984,14.557 C9.53101274,14.8219367 10.1312078,14.9587333 10.739,14.957 L10.742,14.957 Z M10.742,18.028 C11.8852314,18.0372019 12.9646033,17.501786 13.649,16.586 L13.889,16.635 L10.742,21.927 L7.591,16.635 L7.831,16.586 C8.51539672,17.501786 9.59476857,18.0372019 10.738,18.028 L10.742,18.028 Z M15.197,7.747 C15.5760659,7.73524143 15.9314796,7.93075707 16.1244885,8.25721808 C16.3174974,8.58367909 16.3174974,8.98932091 16.1244885,9.31578192 C15.9314796,9.64224293 15.5760659,9.83775857 15.197,9.826 L14.94,9.826 L14.94,7.93 C15.0026871,7.8723543 15.0621126,7.81125956 15.118,7.747 L15.196,7.747 L15.197,7.747 Z M10.739,1.489 L14.787,2.889 L14.542,3.83 L14.13,4.24 L7.347,4.24 L6.941,3.84 L6.718,2.89 L10.739,1.489 Z M5.239,8.789 C5.23955127,8.21485236 5.70485236,7.74955127 6.279,7.749 L6.357,7.749 C6.41288743,7.81325956 6.47231292,7.8743543 6.535,7.932 L6.535,9.832 L6.279,9.832 C6.0023879,9.83147176 5.73735955,9.72087482 5.54242267,9.52462461 C5.3474858,9.3283744 5.2386709,9.06260941 5.24,8.786 L5.239,8.789 Z M2.669,17.63 L6.13,16.93 L9.502,22.6 L1.702,22.6 L2.669,17.63 Z M11.975,22.6 L15.346,16.931 L18.807,17.631 L19.771,22.6 L11.975,22.6 Z" id="Контур_4142"></path>
            </g>
        </g>
    </g>
</svg>