<?xml version="1.0" encoding="UTF-8"?>
<svg width="18px" height="24px" viewBox="0 0 18 24" version="1.1" xmlns="http://www.w3.org/2000/svg" xmlns:xlink="http://www.w3.org/1999/xlink">
    <title>footballCourt</title>
    <defs>
        <linearGradient x1="50%" y1="0%" x2="50%" y2="100%" id="linearGradient-1">
            <stop stop-color="#00B7FC" offset="0%"></stop>
            <stop stop-color="#31CDFE" offset="100%"></stop>
        </linearGradient>
    </defs>
    <g id="Page-1" stroke="none" stroke-width="1" fill="none" fill-rule="evenodd">
        <g id="footballCourt" transform="translate(0.529000, 0.000000)" fill="url(#linearGradient-1)" fill-rule="nonzero">
            <path d="M0,0 L0,24 L16.941,24 L16.941,0 L0,0 Z M9.882,1.412 L9.882,2.824 L7.059,2.824 L7.059,1.412 L9.882,1.412 Z M11.294,4.236 L11.294,1.412 L12.706,1.412 L12.706,5.647 L4.235,5.647 L4.235,1.412 L5.647,1.412 L5.647,4.235 L11.294,4.236 Z M2.823,1.412 L2.823,7.059 L14.118,7.059 L14.118,1.412 L15.53,1.412 L15.53,11.294 L11.93,11.294 C11.5862903,9.6579752 10.1432397,8.4865905 8.4715,8.4865905 C6.79976033,8.4865905 5.35670972,9.6579752 5.013,11.294 L1.413,11.294 L1.413,1.412 L2.823,1.412 Z M6.474,11.294 C6.77754365,10.4528891 7.57579296,9.89232493 8.47,9.89232493 C9.36420704,9.89232493 10.1624564,10.4528891 10.466,11.294 L6.474,11.294 Z M10.466,12.706 C10.1624564,13.5471109 9.36420704,14.1076751 8.47,14.1076751 C7.57579296,14.1076751 6.77754365,13.5471109 6.474,12.706 L10.466,12.706 Z M7.059,22.588 L7.059,21.176 L9.883,21.176 L9.883,22.588 L7.059,22.588 Z M5.647,19.765 L5.647,22.589 L4.235,22.589 L4.235,18.353 L12.706,18.353 L12.706,22.588 L11.294,22.588 L11.294,19.765 L5.647,19.765 Z M14.118,22.589 L14.118,16.941 L2.823,16.941 L2.823,22.588 L1.412,22.588 L1.412,12.706 L5.012,12.706 C5.35570972,14.3420248 6.79876033,15.5134095 8.4705,15.5134095 C10.1422397,15.5134095 11.5852903,14.3420248 11.929,12.706 L15.529,12.706 L15.529,22.588 L14.118,22.589 Z" id="football-court"></path>
        </g>
    </g>
</svg>