<?xml version="1.0" encoding="UTF-8"?>
<svg width="25px" height="24px" viewBox="0 0 25 24" version="1.1" xmlns="http://www.w3.org/2000/svg" xmlns:xlink="http://www.w3.org/1999/xlink">
    <title>garden</title>
    <defs>
        <rect id="path-1" x="1.5959456e-16" y="0" width="24" height="24"></rect>
        <linearGradient x1="50%" y1="0%" x2="50%" y2="100%" id="linearGradient-3">
            <stop stop-color="#00B7FC" offset="0%"></stop>
            <stop stop-color="#31CDFE" offset="100%"></stop>
        </linearGradient>
    </defs>
    <g id="Page-1" stroke="none" stroke-width="1" fill="none" fill-rule="evenodd">
        <g id="Группа_масок_40-Clipped" transform="translate(0.949000, 0.000000)">
            <mask id="mask-2" fill="white">
                <use xlink:href="#path-1"></use>
            </mask>
            <g id="Прямоугольник_7923"></g>
            <g id="Группа_масок_40" mask="url(#mask-2)" fill="url(#linearGradient-3)" fill-rule="nonzero">
                <g transform="translate(0.045498, -0.001338)" id="gardening">
                    <path d="M8.15650154,22.4013381 L4.96450154,19.9013381 L4.96450154,9.48033813 L7.21750154,9.48033813 C7.41429218,9.48033813 7.60302278,9.40216335 7.74217477,9.26301136 C7.88132677,9.12385937 7.95950154,8.93512876 7.95950154,8.73833813 L7.95950154,4.50133813 C7.90789046,3.47051568 7.55421233,2.47764345 6.94250154,1.64633813 C6.35920592,0.687818017 5.34520259,0.0738925603 4.22550154,0.00133812756 C3.07573345,0.071802317 2.03749155,0.712914817 1.45950154,1.70933813 C0.87801805,2.52944762 0.540669405,3.49746141 0.486501543,4.50133813 L0.486501543,8.73833813 C0.486501543,9.14813341 0.818706259,9.48033813 1.22850154,9.48033813 L3.48150154,9.48033813 L3.48150154,19.9013381 L0.289501543,22.4013381 C0.0369492651,22.5957041 -0.0632846708,22.9296301 0.0404783264,23.2309506 C0.144241324,23.5322711 0.428824106,23.7336813 0.747501543,23.7313584 L7.69950154,23.7313584 C8.01799428,23.7332469 8.30217886,23.5316849 8.40567828,23.2304722 C8.50917771,22.9292594 8.40890227,22.5955935 8.15650154,22.4013381 Z M1.96950154,8.00133813 L1.96950154,4.50133813 C2.02709153,3.79726122 2.27377814,3.12180978 2.68350154,2.54633813 C3.00681534,1.97402456 3.57552517,1.58234502 4.22550154,1.48433813 C4.86064933,1.57304788 5.41875556,1.95127474 5.73650154,2.50833813 C6.1661049,3.08963414 6.42263471,3.78053131 6.47650154,4.50133813 L6.47650154,8.00133813 L4.96450154,8.00133813 L4.96450154,6.41933813 C4.97447025,6.1479311 4.8353619,5.89276354 4.60183743,5.7541004 C4.36831295,5.61543725 4.07769014,5.61543725 3.84416566,5.7541004 C3.61064119,5.89276354 3.47153284,6.1479311 3.48150154,6.41933813 L3.48150154,8.00133813 L1.96950154,8.00133813 Z M2.89350154,22.2523381 L4.22350154,21.2013381 L5.55250154,22.2443381 L2.89350154,22.2523381 Z M17.3325015,12.0013381 L18.8455015,10.5923381 C18.9681682,10.6023381 19.0905015,10.6073381 19.2125015,10.6073381 C20.5383156,10.6092646 21.7980311,10.0286178 22.6577325,9.019311 C23.5174339,8.01000425 23.8903026,6.67396423 23.6775015,5.36533813 C23.6265647,5.05138532 23.3812007,4.80481463 23.0675015,4.75233813 C21.7018554,4.52292874 20.3064386,4.93261307 19.2815543,5.86386501 C18.25667,6.79511695 17.7155781,8.1450239 17.8135015,9.52633813 L17.2135015,10.0873381 L17.2135015,6.20133813 C18.7611163,5.82587041 19.7838285,4.35285522 19.5947574,2.77160906 C19.4056863,1.19036289 18.0645113,0 16.4720015,0 C14.8794918,0 13.5383168,1.19036289 13.3492457,2.77160906 C13.1601745,4.35285522 14.1828868,5.82587041 15.7305015,6.20133813 L15.7305015,11.7743381 L15.1305015,11.2193381 C15.2265621,9.83796727 14.6837183,8.48885522 13.6576807,7.55898429 C12.6316431,6.62911335 11.2357865,6.22123211 9.87050154,6.45233813 C9.557191,6.50520221 9.31231338,6.75168822 9.26150154,7.06533813 C9.05062981,8.37320577 9.42452531,9.70771363 10.2842227,10.7156348 C11.1439202,11.7235559 12.4027446,12.3032714 13.7275015,12.3013381 C13.8515015,12.3013381 13.9758349,12.2963381 14.1005015,12.2863381 L15.6145015,13.6933381 C15.6496075,13.725946 15.6877853,13.7550817 15.7285015,13.7803381 L15.7285015,14.4453381 L11.4285015,14.4453381 C11.0187063,14.4453381 10.6865015,14.7775428 10.6865015,15.1873381 L10.6865015,17.8873381 C10.6865015,18.2971334 11.0187063,18.6293381 11.4285015,18.6293381 L12.3055015,18.6293381 L13.0555015,23.1093381 C13.115518,23.4663808 13.42445,23.7279798 13.7865015,23.7283381 L19.1505015,23.7283381 C19.5125531,23.7279798 19.8214851,23.4663808 19.8815015,23.1093381 L20.6315015,18.6293381 L21.5055015,18.6293381 C21.9152968,18.6293381 22.2475015,18.2971334 22.2475015,17.8873381 L22.2475015,15.1873381 C22.2475015,14.7775428 21.9152968,14.4453381 21.5055015,14.4453381 L17.2055015,14.4453381 L17.2055015,12.0883381 C17.2507218,12.0637953 17.2932816,12.0346401 17.3325015,12.0013381 Z M20.1795015,7.05633813 C20.7317206,6.50843026 21.4728078,6.19281512 22.2505015,6.17433813 C22.2066419,7.79031152 20.9026767,9.08767773 19.2865015,9.12333813 C19.3080181,8.34412959 19.6276447,7.6028678 20.1795015,7.05233813 L20.1795015,7.05633813 Z M10.6895015,7.87933813 C12.3057333,7.91280542 13.611462,9.20841567 13.6575015,10.8243381 C12.0414832,10.7903679 10.7360423,9.49504333 10.6895015,7.87933813 L10.6895015,7.87933813 Z M18.5245015,22.2523381 L14.4155015,22.2523381 L13.8055015,18.6323381 L19.1235015,18.6323381 L18.5245015,22.2523381 Z M20.7695015,17.1523381 L12.1695015,17.1523381 L12.1695015,15.9303381 L20.7695015,15.9303381 L20.7695015,17.1523381 Z M14.8085015,3.15233813 C14.8085015,2.23444087 15.5526043,1.49033813 16.4705015,1.49033813 C17.3883988,1.49033813 18.1325015,2.23444087 18.1325015,3.15233813 C18.1325015,4.07023538 17.3883988,4.81434085 16.4705015,4.81434085 C16.0283244,4.81513829 15.6040566,4.63970127 15.2915773,4.3268467 C14.9790981,4.01399213 14.8041706,3.58951396 14.805494,3.14733813 L14.8085015,3.15233813 Z"></path>
                </g>
            </g>
        </g>
    </g>
</svg>