<?xml version="1.0" encoding="UTF-8"?>
<svg width="24px" height="22px" viewBox="0 0 24 25" version="1.1" xmlns="http://www.w3.org/2000/svg" xmlns:xlink="http://www.w3.org/1999/xlink">
    <title>isFurnishedUn</title>
    <defs>
        <linearGradient x1="50%" y1="0%" x2="50%" y2="100%" id="linearGradient-1">
            <stop stop-color="#00B7FC" offset="0%"></stop>
            <stop stop-color="#31CDFE" offset="100%"></stop>
        </linearGradient>
        <linearGradient x1="50%" y1="0%" x2="50%" y2="100%" id="linearGradient-2">
            <stop stop-color="#00B7FC" offset="0%"></stop>
            <stop stop-color="#31CDFE" offset="100%"></stop>
        </linearGradient>
        <linearGradient x1="50%" y1="0%" x2="50%" y2="100%" id="linearGradient-3">
            <stop stop-color="#00B7FC" offset="0%"></stop>
            <stop stop-color="#31CDFE" offset="100%"></stop>
        </linearGradient>
    </defs>
    <g id="Page-1" stroke="url(#linearGradient-1)" stroke-width="0.7" fill="none" fill-rule="evenodd">
        <g id="isFurnishedUn" transform="translate(-0.001280, 0.452989)" fill-rule="nonzero">
            <g>
                <path fill="url(#linearGradient-1)" d="M 12 23.648438 C 5.566406 23.648438 0.351562 18.433594 0.351562 12 C 0.351562 5.566406 5.566406 0.351562 12 0.351562 C 18.433594 0.351562 23.648438 5.566406 23.648438 12 C 23.648438 18.433594 18.433594 23.648438 12 23.648438 Z M 12 1.058594 C 5.957031 1.058594 1.058594 5.957031 1.058594 12 C 1.058594 18.042969 5.957031 22.941406 12 22.941406 C 18.042969 22.941406 22.941406 18.042969 22.941406 12 C 22.941406 5.957031 18.042969 1.058594 12 1.058594 Z M 12 21.050781 C 7.003906 21.050781 2.949219 16.996094 2.949219 12 C 2.949219 7.003906 7.003906 2.949219 12 2.949219 C 16.996094 2.949219 21.050781 7.003906 21.050781 12 C 21.042969 16.996094 16.996094 21.042969 12 21.050781 Z M 12 3.65625 C 7.390625 3.65625 3.65625 7.390625 3.65625 12 C 3.65625 16.609375 7.390625 20.34375 12 20.34375 C 16.609375 20.34375 20.34375 16.609375 20.34375 12 C 20.339844 7.394531 16.605469 3.660156 12 3.65625 Z M 12 3.65625 "/>
                <path fill="url(#linearGradient-2)" d="M 4.753906 16.917969 L 16.917969 4.753906 L 17.417969 5.253906 L 5.253906 17.417969 Z M 4.753906 16.917969 "/>
                <path fill="url(#linearGradient-3)" d="M 6.589844 18.75 L 18.753906 6.585938 L 19.25 7.085938 L 7.085938 19.25 Z M 6.589844 18.75 "/>
            </g>
        </g>
    </g>
</svg>