<?xml version="1.0" encoding="UTF-8"?>
<svg width="20px" height="24px" viewBox="0 0 20 24" version="1.1" xmlns="http://www.w3.org/2000/svg" xmlns:xlink="http://www.w3.org/1999/xlink">
    <title>maidRoom</title>
    <defs>
        <linearGradient x1="50%" y1="0%" x2="50%" y2="100%" id="linearGradient-1">
            <stop stop-color="#00B7FC" offset="0%"></stop>
            <stop stop-color="#31CDFE" offset="100%"></stop>
        </linearGradient>
    </defs>
    <g id="Page-1" stroke="none" stroke-width="1" fill="none" fill-rule="evenodd">
        <g id="maidRoom" transform="translate(0.855000, 0.000000)" fill="url(#linearGradient-1)" fill-rule="nonzero">
            <g id="maid">
                <path d="M16.709,16.1 C16.8224209,15.6800826 16.8795871,15.246965 16.879,14.812 C16.8510536,13.9272974 16.6291608,13.0595259 16.229,12.27 C15.777648,12.5132028 15.2809497,12.6606123 14.77,12.703 C14.3820136,12.7042476 14.0012662,12.5979845 13.67,12.396 C13.9257093,11.7447026 14.0586161,11.0516885 14.062,10.352 C14.970569,9.20727443 15.4663082,7.78946743 15.469,6.328 C15.469,2.8331421 12.6358579,3.71258579e-16 9.141,3.71258579e-16 C5.6461421,3.71258579e-16 2.813,2.8331421 2.813,6.328 C2.81540727,7.78934816 3.31078974,9.20714264 4.219,10.352 L4.219,10.594 C4.21857234,11.2198919 4.33805935,11.8400702 4.571,12.421 C4.25035528,12.6063917 3.88638179,12.7036813 3.516,12.703 C3.00505567,12.6605839 2.50836303,12.5131762 2.057,12.27 C1.65748065,13.059767 1.43562486,13.9273938 1.407,14.812 C1.40641291,15.246965 1.46357906,15.6800826 1.577,16.1 C0.592776816,16.7504496 0.0004934834,17.8512628 -8.8817842e-16,19.031 L-8.8817842e-16,24 L18.286,24 L18.286,19.031 C18.2855065,17.8512628 17.6932232,16.7504496 16.709,16.1 L16.709,16.1 Z M14.067,18.328 L4.223,18.328 L4.223,16.922 L14.067,16.922 L14.067,18.328 Z M4.223,19.734 L14.067,19.734 L14.067,22.593 L4.223,22.593 L4.223,19.734 Z M5.629,10.593 L5.629,9.141 C5.629,8.876 5.662,8.803 6.529,8.532 C7.60934573,8.31174034 8.55387727,7.66208165 9.146,6.732 C9.73837609,7.66183711 10.682792,8.31141627 11.763,8.532 C12.629,8.803 12.663,8.875 12.663,9.141 L12.663,10.3 C12.7228562,11.2769331 12.3814631,12.235986 11.7177745,12.9553596 C11.0540858,13.6747332 10.125583,14.0921231 9.147,14.111 C7.20608062,14.1087957 5.63320434,12.5359194 5.631,10.595 L5.629,10.593 Z M5.651,7.34 C5.82146111,5.8392454 6.93187147,4.61529779 8.409,4.3 C8.24,6.229 7.547,6.744 6.109,7.194 C5.963,7.235 5.808,7.284 5.651,7.341 L5.651,7.34 Z M9.881,4.3 C11.3131957,4.67503483 12.384912,5.86626759 12.607,7.33 C12.461,7.278 12.317,7.23 12.182,7.19 C10.798,6.757 10.057,6.285 9.881,4.3 L9.881,4.3 Z M9.145,1.4 C11.8622031,1.40275607 14.0642439,3.60479688 14.067,6.322 C14.0663985,6.59000127 14.0443279,6.85752367 14.001,7.122 C13.6721458,4.78536709 11.7617621,2.99230222 9.409,2.812 C6.86324644,2.67437201 4.63408487,4.50422894 4.273,7.028 C4.2400143,6.79611982 4.22330677,6.56221439 4.223,6.328 C4.22575607,3.61079688 6.42779688,1.40875607 9.145,1.406 L9.145,1.4 Z M2.81699987,14.813 C2.81699987,14.558062 2.84476263,14.303882 2.9,14.055 C3.71768519,14.2010817 4.5606884,14.053379 5.28,13.638 C6.21204303,14.8237381 7.63679608,15.5160243 9.145,15.516 C10.6505833,15.5227775 12.071741,14.821273 12.982,13.622 C13.7072935,14.0490185 14.5614995,14.2022648 15.39,14.054 C15.5004183,14.5536389 15.5004183,15.0713611 15.39,15.571 C15.1853942,15.5340488 14.9779154,15.5153088 14.77,15.515 L3.52,15.515 C3.31208456,15.5153088 3.10460581,15.5340488 2.9,15.571 C2.84502911,15.3220741 2.81719994,15.0679233 2.81699987,14.813 Z M1.411,19.031 C1.41235763,18.1377631 1.97524622,17.3418722 2.817,17.043 L2.817,22.594 L1.411,22.594 L1.411,19.031 Z M16.88,22.594 L15.473,22.594 L15.473,17.043 C16.3147538,17.3418722 16.8776424,18.1377631 16.879,19.031 L16.88,22.594 Z" id="Контур_4143"></path>
            </g>
        </g>
    </g>
</svg>