<?xml version="1.0" encoding="UTF-8"?>
<svg width="16px" height="16px" viewBox="0 0 16 16" version="1.1" xmlns="http://www.w3.org/2000/svg" xmlns:xlink="http://www.w3.org/1999/xlink">
    <title>nf_gasStation</title>
    <g id="Page-1" stroke="none" stroke-width="1" fill="none" fill-rule="evenodd">
        <g id="nf_gasStation" transform="translate(0.000000, -0.000000)" fill="#1A2936" fill-rule="nonzero">
            <path d="M15.817,7.55800001 L10.9,2.64100001 L10.9,2.64100001 L8.442,0.183000011 C8.32476595,0.0657968624 8.16577213,0 8,0 L3.083,0 C2.73782203,0 2.458,0.279822042 2.458,0.625000011 L2.458,3.08300001 C2.458,3.42817798 2.73782203,3.70800001 3.083,3.70800001 L6.512,3.70800001 L7.993,5.18800001 L8.033,8.74000001 C8.05932182,11.1710384 9.88007397,13.2076309 12.293,13.505 L12.293,15.374 C12.293,15.719178 12.572822,15.999 12.918,15.999 L15.376,15.999 C15.7203974,15.9984494 15.9994494,15.7193974 16,15.375 L16,8 C16,7.83422788 15.9342031,7.67523406 15.817,7.55800001 Z M6.771,2.45800001 L3.708,2.45800001 L3.708,1.25000001 L7.741,1.25000001 L9.574,3.08300001 L8.614,4.04300001 L7.214,2.64300001 C7.0968498,2.52481776 6.93740661,2.45823314 6.771,2.45800001 Z M9.282,8.72700001 L9.242,5.18300001 L10.458,3.96700001 L14.75,8.25900001 L14.75,12.2920038 L12.887,12.2920038 C10.910415,12.2948387 9.30121478,10.7034936 9.282,8.72700001 L9.282,8.72700001 Z M13.542,14.75 L13.542,13.542 L14.75,13.542 L14.75,14.75 L13.542,14.75 Z M2.641,5.10000001 C2.534,5.20800001 0,7.77200001 0,10.458 C0,12.16097 1.38052999,13.5415 3.0835,13.5415 C4.78647001,13.5415 6.167,12.16097 6.167,10.458 C6.167,7.77200001 3.633,5.20700001 3.526,5.09900001 C3.4086119,4.98158028 3.24932663,4.91569501 3.08329252,4.91588222 C2.91725841,4.91607022 2.75812245,4.9823153 2.641,5.10000001 Z M3.083,12.292 C2.07072893,12.2908969 1.25055105,11.4702715 1.25,10.458 C1.42463003,8.97113897 2.0664074,7.57799541 3.083,6.47900001 C4.09970864,7.57791787 4.74150431,8.97110117 4.916,10.458 C4.91544895,11.4702715 4.09527107,12.2908969 3.083,12.292 L3.083,12.292 Z" id="gas-station"></path>
        </g>
    </g>
</svg>