<?xml version="1.0" encoding="UTF-8"?>
<svg width="16px" height="16px" viewBox="0 0 16 16" version="1.1" xmlns="http://www.w3.org/2000/svg" xmlns:xlink="http://www.w3.org/1999/xlink">
    <title>nf_school</title>
    <g id="Page-1" stroke="none" stroke-width="1" fill="none" fill-rule="evenodd">
        <g id="nf_school" transform="translate(0.000000, 0.742000)" fill="#1A2936" fill-rule="nonzero">
            <path d="M16,8.969 L13.6,5.099 L9.793,5.099 L8.472,3.739 L8.472,2.848 L11.115,2.848 L11.115,0 L7.528,0 L7.528,3.74 L6.207,5.099 L2.4,5.099 L0,8.969 L0.776,8.969 L0.776,14.517 L15.224,14.517 L15.224,8.969 L16,8.969 Z M10.171,1.905 L8.471,1.905 L8.471,0.943 L10.171,0.943 L10.171,1.905 Z M13.077,6.042 L14.306,8.025 L11.489,8.025 L11.489,6.842 L10.711,6.042 L13.077,6.042 Z M2.922,6.042 L5.289,6.042 L4.511,6.842 L4.511,8.025 L1.694,8.025 L2.922,6.042 Z M1.722,13.573 L1.722,8.973 L4.511,8.973 L4.511,13.573 L1.722,13.573 Z M7.343,13.573 L7.343,10.818 L8.659,10.818 L8.659,13.573 L7.343,13.573 Z M10.533,13.573 L9.6,13.573 L9.6,9.873 L6.4,9.873 L6.4,13.573 L5.455,13.573 L5.455,7.225 L8,4.607 L10.545,7.225 L10.545,13.573 L10.53,13.573 L10.533,13.573 Z M14.283,13.573 L11.489,13.573 L11.489,8.973 L14.28,8.973 L14.283,13.573 Z" id="Контур_4076"></path>
            <polygon id="Контур_4077" points="12.409 9.875 13.38 9.875 13.38 10.818 12.409 10.818"></polygon>
            <polygon id="Контур_4078" points="12.409 11.724 13.38 11.724 13.38 12.667 12.409 12.667"></polygon>
            <polygon id="Контур_4079" points="2.62 9.875 3.591 9.875 3.591 10.818 2.62 10.818"></polygon>
            <polygon id="Контур_4080" points="2.62 11.724 3.591 11.724 3.591 12.667 2.62 12.667"></polygon>
            <polygon id="Контур_4081" points="7.325 7.35 8.675 7.35 8.675 8.293 7.325 8.293"></polygon>
        </g>
    </g>
</svg>