<?xml version="1.0" encoding="UTF-8"?>
<svg width="25px" height="24px" viewBox="0 0 25 24" version="1.1" xmlns="http://www.w3.org/2000/svg" xmlns:xlink="http://www.w3.org/1999/xlink">
    <title>privatePool</title>
    <defs>
        <linearGradient x1="50%" y1="0%" x2="50%" y2="100%" id="linearGradient-1">
            <stop stop-color="#00B7FC" offset="0%"></stop>
            <stop stop-color="#31CDFE" offset="100%"></stop>
        </linearGradient>
    </defs>
    <g id="Page-1" stroke="none" stroke-width="1" fill="none" fill-rule="evenodd">
        <g id="privatePool" transform="translate(0.051000, -0.000016)" fill="url(#linearGradient-1)" fill-rule="nonzero">
            <path d="M-1.5959456e-16,24.000008 L-1.5959456e-16,14.000008 L2.472,14.000008 L2.778,14.367016 C3.23856685,14.8135356 3.86699909,15.0436094 4.507,15.000008 C5.03716601,15.0330014 5.5622605,14.8802467 5.992,14.568016 L5.992,3.99201599 C5.99411961,2.93114938 6.41758113,1.91457535 7.16922739,1.16592967 C7.92087366,0.417283986 8.93913339,-0.00210786049 10,7.96701886e-06 L10,1.98601599 C8.89628199,1.9936799 8.00435768,2.88827998 8,3.99201599 L8,5.00000797 L14,5.00000797 L14,4.00000797 C14,1.790877 15.790861,7.96701886e-06 18,7.96701886e-06 L18,1.98601599 C17.4685258,1.9860136 16.9589066,2.19755071 16.5836609,2.57392216 C16.2084152,2.95029361 15.9984056,3.4605442 16,3.99201599 L16,14.539016 C16.0656559,14.4900122 16.1284271,14.4372577 16.188,14.381016 L16.966,13.424016 L17.752,14.367016 C18.2179467,14.8127308 18.8495929,15.0423873 19.493,15.000008 C20.1222336,15.0355169 20.7388328,14.8134979 21.201,14.385016 L21.493,14.018016 L23.978,14.018016 L24,24.000008 L-1.5959456e-16,24.000008 Z M1.992,22.008016 L22.008,22.008016 L22.008,16.314016 C20.4536565,17.1929842 18.5523435,17.1929842 16.998,16.314016 C16.2472562,16.774991 15.380879,17.0129152 14.5,17.000016 C13.6182674,17.0146864 12.7507622,16.776643 12,16.314016 C11.2486353,16.7752551 10.3815424,17.0131854 9.5,17.000016 C8.61813296,17.0157541 7.75033289,16.7776298 7,16.314016 C5.44596589,17.1928057 3.54503411,17.1928057 1.991,16.314016 L1.992,22.008016 Z M9.5,15.000016 C10.1292336,15.0355169 10.7458328,14.8134979 11.208,14.385016 L11.985,13.428016 L12.771,14.371016 C13.110095,14.6917351 13.5387409,14.9016983 14,14.973016 L14,12.000016 L8,12.000016 L8,14.555016 C8.43189809,14.875557 8.96317285,15.0331685 9.5,15.000016 L9.5,15.000016 Z M14,10.000016 L14,7.00001599 L8,7.00001599 L8,10.000016 L14,10.000016 Z" id="Объединение_14"></path>
        </g>
    </g>
</svg>