<?xml version="1.0" encoding="UTF-8"?>
<svg width="24px" height="18px" viewBox="0 0 24 18" version="1.1" xmlns="http://www.w3.org/2000/svg" xmlns:xlink="http://www.w3.org/1999/xlink">
    <title>spa</title>
    <defs>
        <linearGradient x1="50%" y1="0%" x2="50%" y2="100%" id="linearGradient-1">
            <stop stop-color="#00B7FC" offset="0%"></stop>
            <stop stop-color="#31CDFE" offset="100%"></stop>
        </linearGradient>
        <linearGradient x1="50%" y1="0%" x2="50%" y2="100%" id="linearGradient-2">
            <stop stop-color="#00B7FC" offset="0%"></stop>
            <stop stop-color="#31CDFE" offset="100%"></stop>
        </linearGradient>
        <linearGradient x1="50%" y1="0%" x2="50%" y2="100%" id="linearGradient-3">
            <stop stop-color="#00B7FC" offset="0%"></stop>
            <stop stop-color="#31CDFE" offset="100%"></stop>
        </linearGradient>
    </defs>
    <g id="Page-1" stroke="none" stroke-width="1" fill="none" fill-rule="evenodd">
        <g id="spa" transform="translate(-0.002098, 0.983166)" fill-rule="nonzero">
            <g id="Сгруппировать_12831">
                <path d="M23.763098,12.0618343 C22.6988872,11.1295045 21.4834621,10.3855047 20.169098,9.86183428 C21.1203057,8.23112988 21.6777601,6.40091266 21.797098,4.51683428 C21.8044419,4.30886181 21.7250457,4.10718744 21.5778953,3.96003704 C21.4307449,3.81288664 21.2290705,3.73349045 21.021098,3.74083428 C18.976366,3.86878066 16.9986523,4.51918128 15.277098,5.62983428 C14.8451333,3.62654935 13.9069524,1.76740176 12.552098,0.229834279 C12.4068645,0.0827733369 12.2087855,0 12.002098,0 C11.7954106,0 11.5973316,0.0827733369 11.452098,0.229834279 C10.0968082,1.76724346 9.15826808,3.62642055 8.72609805,5.62983428 C7.00473827,4.51954614 5.0274437,3.86917013 2.98309805,3.74083428 C2.77512558,3.73349045 2.57345121,3.81288664 2.42630081,3.96003704 C2.27915041,4.10718744 2.19975422,4.30886181 2.20709805,4.51683428 C2.32631888,6.40124858 2.88377596,8.23181707 3.83509805,9.86283428 C2.52057381,10.3867888 1.30486572,11.1307548 0.240098049,12.0628343 C0.0870083604,12.2047629 3.05311332e-16,12.4040756 3.05311332e-16,12.6128343 C3.05311332e-16,12.8215929 0.0870083604,13.0209057 0.240098049,13.1628343 C2.15048608,14.8756415 4.58645105,15.888041 7.14809805,16.0338343 C8.86070273,15.9890713 10.5327091,15.5026945 12.002098,14.6218343 C13.4713362,15.5018118 15.1430482,15.9871698 16.855098,16.0308343 C19.416745,15.885041 21.85271,14.8726415 23.763098,13.1598343 C23.9161877,13.0179057 24.0031961,12.8185929 24.0031961,12.6098343 C24.0031961,12.4010756 23.9161877,12.2017629 23.763098,12.0598343 L23.763098,12.0618343 Z M7.14909805,14.5298343 C5.26132649,14.4320087 3.44786217,13.7627707 1.94909805,12.6108343 C2.81037188,11.9792026 3.75897792,11.4762662 4.76509805,11.1178343 C4.86509805,11.2238343 4.95809805,11.3288343 5.06009805,11.4308343 C6.41206043,12.7037051 8.08650872,13.5824273 9.90209805,13.9718343 C9.02737491,14.3282723 8.09357542,14.5175422 7.14909805,14.5298343 L7.14909805,14.5298343 Z M6.12209805,10.3708343 C4.85658461,8.96704584 4.04751158,7.21184561 3.80209805,5.33783428 C5.56364271,5.5785709 7.22314116,6.30581355 8.59409805,7.43783428 C8.7123719,9.25466434 9.30358692,11.0090044 10.309098,12.5268343 C8.74262176,12.2043245 7.29449912,11.4586469 6.12209805,10.3708343 L6.12209805,10.3708343 Z M12.002098,12.3398343 C10.8483876,10.8421283 10.1792483,9.0279861 10.084098,7.13983428 C10.1827714,5.25423416 10.8516006,3.44302497 12.002098,1.94583428 C13.1540903,3.44456755 13.823335,5.25804987 13.921098,7.14583428 C13.8220107,9.03151745 13.1528421,10.8427012 12.002098,12.3398343 L12.002098,12.3398343 Z M15.410098,7.43383428 C16.7806627,6.30242442 18.4393424,5.5752371 20.200098,5.33383428 C19.9553107,7.20763571 19.1469385,8.96282883 17.882098,10.3668343 C16.7096902,11.4528995 15.261823,12.1965484 13.696098,12.5168343 C14.7003942,11.0007047 15.2912309,9.24853267 15.410098,7.43383428 L15.410098,7.43383428 Z M16.856098,14.5338343 C15.914826,14.5200138 14.984463,14.3300746 14.113098,13.9738343 C15.9243946,13.5840548 17.594627,12.7064047 18.943098,11.4358343 C19.043098,11.3358343 19.143098,11.2298343 19.237098,11.1238343 C20.243383,11.4817131 21.1923037,11.983964 22.054098,12.6148343 C20.5552262,13.7653161 18.7421269,14.4331532 16.855098,14.5298343 L16.856098,14.5338343 Z" id="Контур_4145" fill="url(#linearGradient-1)"></path>
                <path d="M7.61909805,3.62983428 C8.03331161,3.62983428 8.36909805,3.29404784 8.36909805,2.87983428 C8.36909805,2.46562072 8.03331161,2.12983428 7.61909805,2.12983428 L7.61909805,2.12983428 C7.20488449,2.12983428 6.86909805,2.46562072 6.86909805,2.87983428 C6.86909805,3.29404784 7.20488449,3.62983428 7.61909805,3.62983428 L7.61909805,3.62983428 Z" id="Контур_4146" fill="url(#linearGradient-2)"></path>
                <path d="M1.75909805,10.0048343 C2.17331161,10.0048343 2.50909805,9.66904784 2.50909805,9.25483428 C2.50909805,8.84062072 2.17331161,8.50483428 1.75909805,8.50483428 L1.75909805,8.50483428 C1.34488449,8.50483428 1.00909805,8.84062072 1.00909805,9.25483428 C1.00909805,9.66904784 1.34488449,10.0048343 1.75909805,10.0048343 Z" id="Контур_4147" fill="url(#linearGradient-2)"></path>
                <path d="M21.5080953,9.25483428 C21.5075461,9.66959959 21.8433323,10.0062808 22.2580976,10.0068336 C22.6728629,10.0073851 23.0095443,9.67159914 23.0100974,9.25683383 C23.0106491,8.84206853 22.6748634,8.50538693 22.260098,8.50482355 L22.260098,8.50482355 C22.0606769,8.50376712 21.869086,8.58237769 21.7278842,8.72320388 C21.5866825,8.86403008 21.507562,9.05541096 21.5080953,9.25483428 L21.5080953,9.25483428 Z" id="Контур_4148" fill="url(#linearGradient-3)"></path>
                <path d="M16.400098,3.62983428 C16.8143116,3.62983428 17.150098,3.29404784 17.150098,2.87983428 C17.150098,2.46562072 16.8143116,2.12983428 16.400098,2.12983428 L16.400098,2.12983428 C15.9858845,2.12983428 15.650098,2.46562072 15.650098,2.87983428 C15.650098,3.29404784 15.9858845,3.62983428 16.400098,3.62983428 Z" id="Контур_4149" fill="url(#linearGradient-2)"></path>
            </g>
        </g>
    </g>
</svg>