<?xml version="1.0" encoding="UTF-8"?>
<svg width="25px" height="20px" viewBox="0 0 25 20" version="1.1" xmlns="http://www.w3.org/2000/svg" xmlns:xlink="http://www.w3.org/1999/xlink">
    <title>sportsHalls</title>
    <defs>
        <linearGradient x1="50%" y1="0%" x2="50%" y2="100%" id="linearGradient-1">
            <stop stop-color="#00B7FC" offset="0%"></stop>
            <stop stop-color="#31CDFE" offset="100%"></stop>
        </linearGradient>
    </defs>
    <g id="Page-1" stroke="none" stroke-width="1" fill="none" fill-rule="evenodd">
        <g id="sportsHalls" transform="translate(-0.004174, 0.257958)" fill="url(#linearGradient-1)" fill-rule="nonzero">
            <path d="M23.3041738,18.0760415 L21.7451738,18.0760415 L21.7451738,12.8820415 L23.9601738,6.97604154 C24.0427215,6.76016371 24.0133896,6.517454 23.881791,6.32745615 C23.7501925,6.1374583 23.5332917,6.02466474 23.3021738,6.02604154 L19.4851738,6.02604154 L19.4851738,4.42004154 L22.9241738,4.42004154 C23.1687256,4.42193213 23.3965335,4.296056 23.5250823,4.0880071 C23.6536312,3.8799582 23.6642809,3.61990478 23.5531738,3.40204154 L22.9531738,2.21004154 L23.5531738,1.01804154 C23.6642809,0.800178302 23.6536312,0.540124882 23.5250823,0.33207598 C23.3965335,0.124027077 23.1687256,-0.00184905494 22.9241738,2.05394188e-05 L18.7821738,2.05394188e-05 C18.3955745,2.05394188e-05 18.0821738,0.313442215 18.0821738,0.70004154 L18.0821738,6.02604154 L12.7041738,6.02604154 L12.7041738,4.42004154 L16.1431738,4.42004154 C16.3877256,4.42193213 16.6155335,4.296056 16.7440823,4.0880071 C16.8726312,3.8799582 16.8832809,3.61990478 16.7721738,3.40204154 L16.1721738,2.21004154 L16.7721738,1.01804154 C16.8832809,0.800178302 16.8726312,0.540124882 16.7440823,0.33207598 C16.6155335,0.124027077 16.3877256,-0.00184905494 16.1431738,2.05394188e-05 L12.0041738,2.05394188e-05 C11.6175745,2.05394188e-05 11.3041738,0.313442215 11.3041738,0.70004154 L11.3041738,6.02604154 L5.92917384,6.02604154 L5.92917384,4.42004154 L9.36817384,4.42004154 C9.61272565,4.42193213 9.84053345,4.296056 9.96908233,4.0880071 C10.0976312,3.8799582 10.1082809,3.61990478 9.99717384,3.40204154 L9.40417384,2.21104154 L10.0041738,1.01904154 C10.1152809,0.801178302 10.1046312,0.541124882 9.97608233,0.33307598 C9.84753345,0.125027077 9.61972565,-0.000849054936 9.37517384,0.0010415396 L5.22617384,0.0010415396 C4.83957452,0.0010415396 4.52617384,0.314442215 4.52617384,0.70104154 L4.52617384,6.02604154 L0.704173844,6.02604154 C0.473056002,6.02466474 0.256155154,6.1374583 0.124556641,6.32745615 C-0.00704187093,6.517454 -0.0363738081,6.76016371 0.0461738436,6.97604154 L2.26117384,12.8820415 L2.26117384,18.0760415 L0.704173844,18.0760415 C0.315917664,18.0760415 0.00117384357,18.3907854 0.00117384357,18.7790415 C0.00117384357,19.1672977 0.315917664,19.4820415 0.704173844,19.4820415 L23.3041738,19.4820415 C23.69243,19.4820415 24.0071738,19.1672977 24.0071738,18.7790415 C24.0071738,18.3907854 23.69243,18.0760415 23.3041738,18.0760415 L23.3041738,18.0760415 Z M19.4851738,1.40704154 L21.7851738,1.40704154 L21.5411738,1.89604154 C21.4416694,2.09390241 21.4416694,2.32718067 21.5411738,2.52504154 L21.7851738,3.01404154 L19.4851738,3.01404154 L19.4851738,1.40704154 Z M12.7071738,1.40704154 L15.0041738,1.40704154 L14.7641738,1.89504154 C14.6646694,2.09290241 14.6646694,2.32618067 14.7641738,2.52404154 L15.0041738,3.01404154 L12.7041738,3.01404154 L12.7071738,1.40704154 Z M5.92917384,1.40704154 L8.22917384,1.40704154 L7.98617384,1.89504154 C7.88666943,2.09290241 7.88666943,2.32618067 7.98617384,2.52404154 L8.23017384,3.01304154 L5.93017384,3.01304154 L5.92917384,1.40704154 Z M5.27617384,18.0760415 L3.67017384,18.0760415 L3.67017384,13.4570415 L5.27617384,13.4570415 L5.27617384,18.0760415 Z M8.28817384,18.0760415 L6.68217384,18.0760415 L6.68217384,13.4570415 L8.28817384,13.4570415 L8.28817384,18.0760415 Z M14.3131738,18.0760415 L9.69517384,18.0760415 L9.69517384,13.4570415 L14.3141738,13.4570415 L14.3131738,18.0760415 Z M17.3251738,18.0760415 L15.7201738,18.0760415 L15.7201738,13.4570415 L17.3261738,13.4570415 L17.3251738,18.0760415 Z M20.3381738,18.0760415 L18.7321738,18.0760415 L18.7321738,13.4570415 L20.3381738,13.4570415 L20.3381738,18.0760415 Z M3.45417384,12.0510415 L1.72217384,7.43304154 L22.2861738,7.43304154 L20.5541738,12.0510415 L3.45417384,12.0510415 Z" id="sports-stadium_1_"></path>
        </g>
    </g>
</svg>