<?xml version="1.0" encoding="UTF-8"?>
<svg width="25px" height="25px" viewBox="0 0 25 25" version="1.1" xmlns="http://www.w3.org/2000/svg" xmlns:xlink="http://www.w3.org/1999/xlink">
    <title>volleyballCourt</title>
    <defs>
        <linearGradient x1="50%" y1="0%" x2="50%" y2="100%" id="linearGradient-1">
            <stop stop-color="#00B7FC" offset="0%"></stop>
            <stop stop-color="#31CDFE" offset="100%"></stop>
        </linearGradient>
    </defs>
    <g id="Page-1" stroke="none" stroke-width="1" fill="none" fill-rule="evenodd">
        <g id="volleyballCourt" transform="translate(0.453829, 0.993747)" fill="url(#linearGradient-1)" fill-rule="nonzero">
            <g id="Сгруппировать_12833">
                <path d="M9.85735788,23.8050551 C9.82397545,23.8014372 9.7909154,23.7952932 9.758462,23.7866762 C3.25852186,22.5505121 -1.01380117,16.2856601 0.208736519,9.78314331 C1.43127421,3.28062648 7.68715769,-1.00481816 14.1922227,0.204087721 C20.6972876,1.4129936 24.995835,7.65988114 23.8005663,14.1674657 C22.6052975,20.6750502 16.3674334,24.9866815 9.85735788,23.8050551 Z M11.5971705,22.2912585 C12.8382799,22.2925514 14.0692892,22.0682387 15.2301705,21.6292529 C16.6767116,18.0595771 17.1170001,14.1616573 16.5031705,10.3592529 C15.088273,10.8591682 13.7451297,11.5426751 12.5081705,12.3922529 C12.6828171,14.4003797 12.5291375,16.4235466 12.0531705,18.3822529 C12.0481705,18.4072529 12.0411705,18.4352529 12.0341705,18.4602529 C11.7182528,19.7669553 11.2661112,21.0369067 10.6851705,22.2492529 C10.9871705,22.2772529 11.2911705,22.2912585 11.5971705,22.2912585 Z M8.92617055,21.9392529 C9.446308,20.9234753 9.8653232,19.8590226 10.1771705,18.7612529 C6.81461749,17.5195847 3.79049816,15.5059028 1.34817055,12.8822529 C1.72249651,17.1935666 4.75035164,20.8118136 8.92817055,21.9402529 L8.92617055,21.9392529 Z M17.4781705,20.4392529 C21.0302745,17.960712 22.6504622,13.5234844 21.5311705,9.33925287 C20.3924513,9.39902223 19.2623577,9.57051244 18.1571705,9.85125287 C18.7617135,13.3853458 18.5298511,17.0119216 17.4801705,20.4402529 L17.4781705,20.4392529 Z M10.5701705,17.0782529 C10.8477712,15.6037424 10.9264719,14.0986745 10.8041705,12.6032529 C8.97606917,11.7478977 7.29946025,10.6005487 5.84017055,9.20625287 C5.83411948,9.20134331 5.8284375,9.19599557 5.82317055,9.19025287 C4.83570727,8.2529236 3.95011786,7.21381415 3.18117055,6.09025287 C2.28808624,7.35842773 1.69513178,8.8131153 1.44717055,10.3442529 C3.81457673,13.3823963 6.97109019,15.7118168 10.5721705,17.0782529 L10.5701705,17.0782529 Z M11.4781705,11.0212529 C14.2717223,9.08282443 17.531794,7.92467741 20.9221705,7.66625287 C20.2663173,6.26513112 19.3043403,5.02908463 18.1071705,4.04925287 C14.2953538,4.5813714 10.7024219,6.14852337 7.71917055,8.58025287 C8.8590223,9.55691481 10.1233808,10.3780753 11.4791705,11.0222529 L11.4781705,11.0212529 Z M6.45517055,7.39725287 C9.21506352,5.11124783 12.4709585,3.50179197 15.9631705,2.69725287 C12.0440049,0.860810758 7.39447169,1.67470892 4.33217055,4.73325287 C4.95064399,5.68881043 5.66174429,6.58111906 6.45517055,7.39725287 L6.45517055,7.39725287 Z" id="Объединение_13"></path>
            </g>
        </g>
    </g>
</svg>