<svg xmlns="http://www.w3.org/2000/svg" xmlns:xlink="http://www.w3.org/1999/xlink" width="24" height="15.703" viewBox="0 0 24 15.703"><defs><linearGradient id="a" x1="0.5" x2="0.5" y2="1" gradientUnits="objectBoundingBox"><stop offset="0" stop-color="#00b7fc"/><stop offset="1" stop-color="#31cdfe"/></linearGradient></defs><path d="M6.352,3A6.352,6.352,0,1,0,12.7,9.352,6.359,6.359,0,0,0,6.352,3Zm0,0" fill="url(#a)"/><path d="M6.352,3V15.7a6.352,6.352,0,0,0,0-12.7Zm0,0" fill="#31cdfe"/><path d="M6.352,5.344a4.008,4.008,0,1,0,4.008,4.008A4.012,4.012,0,0,0,6.352,5.344Zm0,0" fill="#b7eefe"/><path d="M6.352,5.344v8.016a4.008,4.008,0,0,0,0-8.016Zm0,0" fill="#d5f5ff"/><path d="M13.688,0H24V15.7H13.688Zm0,0" fill="#31cdfe" opacity="0.336"/><path d="M18.844,0H24V15.7H18.844Zm0,0" fill="#31cdfe" opacity="0.182"/><path d="M13.688,3.926H24V7.852H13.688Zm0,0" fill="url(#a)"/><path d="M13.688,11.777H24V15.7H13.688Zm0,0" fill="url(#a)"/><path d="M18.844,3.926H24V7.852H18.844Zm0,0" fill="#31cdfe"/><path d="M18.844,11.777H24V15.7H18.844Zm0,0" fill="#31cdfe"/></svg>