<?xml version="1.0" encoding="UTF-8"?>
<svg width="24px" height="24px" viewBox="0 0 24 24" version="1.1" xmlns="http://www.w3.org/2000/svg" xmlns:xlink="http://www.w3.org/1999/xlink">
    <title>acType</title>
    <defs>
        <linearGradient x1="50%" y1="0%" x2="50%" y2="100%" id="linearGradient-1">
            <stop stop-color="#00B7FC" offset="0%"></stop>
            <stop stop-color="#31CDFE" offset="100%"></stop>
        </linearGradient>
        <linearGradient x1="50%" y1="0%" x2="50%" y2="100%" id="linearGradient-2">
            <stop stop-color="#00B7FC" offset="0%"></stop>
            <stop stop-color="#31CDFE" offset="100%"></stop>
        </linearGradient>
        <linearGradient x1="50%" y1="0%" x2="50%" y2="100%" id="linearGradient-3">
            <stop stop-color="#00B7FC" offset="0%"></stop>
            <stop stop-color="#31CDFE" offset="100%"></stop>
        </linearGradient>
        <linearGradient x1="50%" y1="0%" x2="50%" y2="100%" id="linearGradient-4">
            <stop stop-color="#00B7FC" offset="0%"></stop>
            <stop stop-color="#31CDFE" offset="100%"></stop>
        </linearGradient>
        <linearGradient x1="50%" y1="0%" x2="50%" y2="100%" id="linearGradient-5">
            <stop stop-color="#00B7FC" offset="0%"></stop>
            <stop stop-color="#31CDFE" offset="100%"></stop>
        </linearGradient>
        <linearGradient x1="50%" y1="0%" x2="50%" y2="100%" id="linearGradient-6">
            <stop stop-color="#00B7FC" offset="0%"></stop>
            <stop stop-color="#31CDFE" offset="100%"></stop>
        </linearGradient>
    </defs>
    <g id="Page-1" stroke="none" stroke-width="1" fill="none" fill-rule="evenodd">
        <g id="acType" transform="translate(0.000000, 0.796000)" fill-rule="nonzero">
            <g id="air-conditioner" transform="translate(0.000000, 0.000000)">
                <path d="M21.593,2.32452946e-16 L2.407,2.32452946e-16 C1.07794593,0.00165396863 0.00110192113,1.07894536 0,2.408 L0,11.215 C0.00165291189,12.5436641 1.07833587,13.6203471 2.407,13.622 L21.593,13.622 C22.9220541,13.620346 23.9988981,12.5430546 24,11.214 L24,2.408 C23.9988981,1.07894536 22.9220541,0.00165396863 21.593,2.32452946e-16 Z M19.556,12.215 L4.444,12.215 L4.444,10.958 C4.44455113,10.4534402 4.8534402,10.0445511 5.358,10.044 L18.643,10.044 C19.1475598,10.0445511 19.5564489,10.4534402 19.557,10.958 L19.557,12.215 L19.556,12.215 Z M22.593,11.215 C22.593,11.7672847 22.1452847,12.215 21.593,12.215 L20.963,12.215 L20.963,10.958 C20.9613472,9.6773846 19.9236154,8.63965276 18.643,8.638 L5.357,8.638 C4.0763846,8.63965276 3.03865276,9.6773846 3.037,10.958 L3.037,12.215 L2.407,12.215 C1.85471525,12.215 1.407,11.7672847 1.407,11.215 L1.407,2.408 C1.407,1.85571525 1.85471525,1.408 2.407,1.408 L21.593,1.408 C22.1452847,1.408 22.593,1.85571525 22.593,2.408 L22.593,11.215 Z" id="Контур_4405" fill="url(#linearGradient-1)"></path>
                <path d="M10.632,3.977 L13.368,3.977 C13.7562562,3.977 14.071,3.66225618 14.071,3.274 C14.071,2.88574382 13.7562562,2.571 13.368,2.571 L10.632,2.571 C10.2437438,2.571 9.92900001,2.88574383 9.92900001,3.274 C9.92900001,3.66225617 10.2437438,3.977 10.632,3.977 L10.632,3.977 Z" id="Контур_4406" fill="url(#linearGradient-2)"></path>
                <path d="M14.917,4.845 L9.083,4.845 C8.69474382,4.845 8.38,5.15974382 8.38,5.548 C8.38,5.93625618 8.69474382,6.251 9.083,6.251 L14.918,6.251 C15.3062562,6.251 15.621,5.93625618 15.621,5.548 C15.621,5.15974382 15.3062562,4.845 14.918,4.845 L14.917,4.845 Z" id="Контур_4407" fill="url(#linearGradient-3)"></path>
                <path d="M12,14.6029742 C11.6134007,14.6029742 11.3,14.9164007 11.3,15.303 L11.3,19.75 C11.3,20.1382562 11.6147438,20.453 12.003,20.453 C12.3912562,20.453 12.7060065,20.1382562 12.7060065,19.75 L12.7060065,15.306 C12.7068093,15.1187847 12.6325903,14.939047 12.4999263,14.8069467 C12.3672623,14.6748465 12.1872101,14.6013935 12,14.6029742 L12,14.6029742 Z" id="Контур_4408" fill="url(#linearGradient-4)"></path>
                <path d="M9.19,14.603 C8.80340068,14.603 8.49,14.9164007 8.49,15.303 L8.49,19.796 C8.49,20.4587417 7.9527417,20.996 7.29,20.996 C6.90174382,20.996 6.587,21.3107438 6.587,21.699 C6.587,22.0872562 6.90174382,22.402 7.29,22.402 C8.72684326,22.3975926 9.88945582,21.2318499 9.89000644,19.795 L9.89000644,15.306 C9.89079788,15.1198292 9.81740048,14.9410098 9.68603843,14.8090848 C9.55467639,14.6771598 9.3761725,14.603 9.19,14.603 Z" id="Контур_4409" fill="url(#linearGradient-5)"></path>
                <path d="M16.709,21 C16.0462583,21 15.509,20.4627417 15.509,19.8 L15.509,15.306 C15.509,14.9177438 15.1942562,14.603 14.806,14.603 C14.4177438,14.603 14.103,14.9177438 14.103,15.306 L14.103,19.799 C14.1035442,21.2358499 15.2661567,22.4015926 16.703,22.406 C17.0912562,22.406 17.406,22.0912562 17.406,21.703 C17.406,21.3147438 17.0912562,21 16.703,21 L16.709,21 Z" id="Контур_4410" fill="url(#linearGradient-6)"></path>
            </g>
        </g>
    </g>
</svg>