<?xml version="1.0" encoding="UTF-8"?>
<svg width="24px" height="22px" viewBox="0 0 24 22" version="1.1" xmlns="http://www.w3.org/2000/svg" xmlns:xlink="http://www.w3.org/1999/xlink">
    <title>clubHouse</title>
    <defs>
        <linearGradient x1="50%" y1="0%" x2="50%" y2="100%" id="linearGradient-1">
            <stop stop-color="#00B7FC" offset="0%"></stop>
            <stop stop-color="#31CDFE" offset="100%"></stop>
        </linearGradient>
        <linearGradient x1="50%" y1="0%" x2="50%" y2="100%" id="linearGradient-2">
            <stop stop-color="#00B7FC" offset="0%"></stop>
            <stop stop-color="#31CDFE" offset="100%"></stop>
        </linearGradient>
        <linearGradient x1="50%" y1="0%" x2="50%" y2="100%" id="linearGradient-3">
            <stop stop-color="#00B7FC" offset="0%"></stop>
            <stop stop-color="#31CDFE" offset="100%"></stop>
        </linearGradient>
    </defs>
    <g id="Page-1" stroke="none" stroke-width="1" fill="none" fill-rule="evenodd">
        <g id="clubHouse" transform="translate(0.000000, 0.545500)" fill-rule="nonzero">
            <polygon id="Контур_4159" fill="url(#linearGradient-1)" points="10.594 3.03550007 12 3.03550007 12 4.44150007 10.594 4.44150007"></polygon>
            <polygon id="Контур_4160" fill="url(#linearGradient-2)" points="12 4.44050007 13.406 4.44050007 13.406 5.84950007 12 5.84950007"></polygon>
            <path d="M24,8.88050007 L24,6.23750007 L22.377,4.61450007 L16.437,4.61450007 C16.437,4.55650007 16.437,4.49850007 16.437,4.44050007 C16.437,2.8540622 15.5906455,1.38813315 14.21675,0.594914206 C12.8428545,-0.198304735 11.1501455,-0.198304735 9.77624998,0.594914206 C8.40235449,1.38813315 7.55599998,2.8540622 7.556,4.44050007 C7.556,4.49850007 7.556,4.55650007 7.556,4.61450007 L1.623,4.61450007 L0,6.23750007 L0,8.88050007 L1.388,8.88050007 L1.388,19.5015001 L0,19.5015001 L0,20.9075001 L24,20.9075001 L24,19.5015001 L22.612,19.5015001 L22.612,8.88050007 L24,8.88050007 Z M21.795,6.02050007 L22.595,6.82050007 L22.595,7.46950007 L15.24,7.46950007 C15.6346468,7.04872986 15.9437151,6.55523955 16.15,6.01650007 L21.795,6.02050007 Z M12,1.40650007 C13.6271377,1.46343408 14.9192691,2.7945207 14.9279052,4.4226315 C14.9364552,6.05074231 13.6584461,7.39539391 12.032,7.46950007 L11.967,7.46950007 C10.3405387,7.3951602 9.06271217,6.05028606 9.07152805,4.42215089 C9.08043556,2.79401572 10.3728259,1.46313088 12,1.40650007 L12,1.40650007 Z M1.406,6.81950007 L2.206,6.01950007 L7.85,6.01950007 C8.05660721,6.55718509 8.36566077,7.04963307 8.76,7.46950007 L1.406,7.46950007 L1.406,6.81950007 Z M2.794,19.5015001 L2.794,16.4285001 L7.114,16.4285001 L7.114,19.5015001 L2.794,19.5015001 Z M8.521,19.5015001 L8.521,13.4075001 L11.3,13.4075001 L11.3,19.5015001 L8.521,19.5015001 Z M12.703,19.5015001 L12.703,13.4075001 L15.479,13.4075001 L15.479,19.5015001 L12.703,19.5015001 Z M16.885,19.5015001 L16.885,16.4285001 L21.205,16.4285001 L21.205,19.5015001 L16.885,19.5015001 Z M21.205,15.0225001 L16.885,15.0225001 L16.885,12.0015001 L7.115,12.0015001 L7.115,15.0225001 L2.794,15.0225001 L2.794,8.88050007 L21.206,8.88050007 L21.206,15.0225001 L21.205,15.0225001 Z" id="Контур_4161" fill="url(#linearGradient-3)"></path>
        </g>
    </g>
</svg>