<?xml version="1.0" encoding="UTF-8"?>
<svg width="20px" height="24px" viewBox="0 0 20 24" version="1.1" xmlns="http://www.w3.org/2000/svg" xmlns:xlink="http://www.w3.org/1999/xlink">
    <title>electricity</title>
    <defs>
        <linearGradient x1="50%" y1="0%" x2="50%" y2="100%" id="linearGradient-1">
            <stop stop-color="#00B7FC" offset="0%"></stop>
            <stop stop-color="#31CDFE" offset="100%"></stop>
        </linearGradient>
        <linearGradient x1="50%" y1="0%" x2="50%" y2="100%" id="linearGradient-2">
            <stop stop-color="#00B7FC" offset="0%"></stop>
            <stop stop-color="#31CDFE" offset="100%"></stop>
        </linearGradient>
        <linearGradient x1="50%" y1="0%" x2="50%" y2="100%" id="linearGradient-3">
            <stop stop-color="#00B7FC" offset="0%"></stop>
            <stop stop-color="#31CDFE" offset="100%"></stop>
        </linearGradient>
    </defs>
    <g id="Page-1" stroke="none" stroke-width="1" fill="none" fill-rule="evenodd">
        <g id="electricity" transform="translate(0.290000, 0.000000)" fill-rule="nonzero">
            <g id="bill" transform="translate(9.708000, 12.000000) rotate(180.000000) translate(-9.708000, -12.000000) translate(0.000000, 0.000000)">
                <path d="M19.406,0 L2.628,0 L2.628,18.663 L0.006,18.663 L0,21.98 C0.0012959184,23.0283162 0.803571618,23.9017895 1.848,23.992 L1.841,24 L16.406,24 C18.0674635,23.9977965 19.4137965,22.6514635 19.416,20.99 L19.406,0 Z M1.406,21.982 L1.406,20.067 L2.628,20.067 L2.628,21.98 C2.63707504,22.2043664 2.52254928,22.4156846 2.32961392,22.5305697 C2.13667856,22.6454549 1.89632144,22.6454549 1.70338608,22.5305697 C1.51045072,22.4156846 1.39592496,22.2043664 1.405,21.98 L1.406,21.982 Z M16.406,22.595 L3.937,22.595 C4.00197104,22.3964133 4.03570639,22.1889408 4.037,21.98 L4.037,1.4 L18.0060029,1.4 L18.0060029,20.99 C18.0076624,21.8759654 17.2919585,22.5961423 16.406,22.6 L16.406,22.595 Z" id="Контур_4421" fill="url(#linearGradient-1)"></path>
                <path d="M5.488,19.049 L16.544,19.049 L16.544,9.677 L5.488,9.677 L5.488,19.049 Z M6.888,16.373 L11.607,16.373 L11.607,17.644 L6.893,17.644 L6.888,16.373 Z M11.607,14.973 L6.893,14.973 L6.893,13.745 L11.612,13.745 L11.612,14.969 L11.607,14.973 Z M13.007,13.749 L15.13,13.749 L15.13,14.973 L13.016,14.973 L13.007,13.749 Z M13.007,17.649 L13.007,16.374 L15.13,16.374 L15.13,17.645 L13.007,17.649 Z M15.13,12.349 L13.016,12.349 L13.016,11.082 L15.139,11.082 L15.13,12.349 Z M11.603,11.09 L11.603,12.34 L6.893,12.34 L6.893,11.082 L11.603,11.09 Z" id="Контур_4423" fill="url(#linearGradient-2)"></path>
                <polygon id="Контур_4424" fill="url(#linearGradient-3)" points="10.114 7.908 10.24 7.908 13.682 4.454 11.682 4.454 13.169 2.17 12.981 2.17 9.216 5.495 11.324 5.495"></polygon>
            </g>
        </g>
    </g>
</svg>