<?xml version="1.0" encoding="UTF-8"?>
<svg width="24px" height="22px" viewBox="0 0 24 22" version="1.1" xmlns="http://www.w3.org/2000/svg" xmlns:xlink="http://www.w3.org/1999/xlink">
    <title>isFurnished</title>
    <defs>
        <linearGradient x1="50%" y1="0%" x2="50%" y2="100%" id="linearGradient-1">
            <stop stop-color="#00B7FC" offset="0%"></stop>
            <stop stop-color="#31CDFE" offset="100%"></stop>
        </linearGradient>
        <linearGradient x1="50%" y1="0%" x2="50%" y2="100%" id="linearGradient-2">
            <stop stop-color="#00B7FC" offset="0%"></stop>
            <stop stop-color="#31CDFE" offset="100%"></stop>
        </linearGradient>
        <linearGradient x1="50%" y1="0%" x2="50%" y2="100%" id="linearGradient-3">
            <stop stop-color="#00B7FC" offset="0%"></stop>
            <stop stop-color="#31CDFE" offset="100%"></stop>
        </linearGradient>
    </defs>
    <g id="Page-1" stroke="none" stroke-width="1" fill="none" fill-rule="evenodd">
        <g id="isFurnished" transform="translate(-0.001280, 0.452989)" fill-rule="nonzero">
            <g id="sofa">
                <path d="M4.97027994,21.0940106 C5.35853612,21.0940106 5.67327994,20.7792668 5.67327994,20.3910106 C5.67327994,20.0027544 5.35853612,19.6880106 4.97027994,19.6880106 L4.27027994,19.6880106 L4.27027994,7.03101059 L6.37627994,7.03101059 C6.59329643,7.03224246 6.79861093,6.93274821 6.9321192,6.76165404 C7.06562747,6.59055986 7.1122284,6.3672182 7.05827994,6.15701059 L5.65227994,0.533010589 C5.57519906,0.21923948 5.29337857,-0.0010102576 4.97027994,5.27194414e-06 L2.15727994,5.27194414e-06 C1.83630149,-0.00123358799 1.55560566,0.215986241 1.47627994,0.527010589 L0.0232799394,6.15201059 C-0.0323259068,6.36223237 0.0129229205,6.58635783 0.145732596,6.75854028 C0.278542272,6.93072274 0.483828677,7.03140623 0.701279939,7.03101059 L2.86027994,7.03101059 L2.86027994,19.6880106 L2.16027994,19.6880106 C1.77202376,19.6880106 1.45727994,20.0027544 1.45727994,20.3910106 C1.45727994,20.7792668 1.77202376,21.0940106 2.16027994,21.0940106 L4.97027994,21.0940106 Z M2.70127994,1.40601059 L4.42127994,1.40601059 L5.47527994,5.62501059 L1.61227994,5.62501059 L2.70127994,1.40601059 Z" id="Контур_4411" fill="url(#linearGradient-1)"></path>
                <path d="M21.8922799,11.2470106 L21.1382799,11.2470106 C20.7706226,8.81645443 18.6784774,7.02166783 16.2202799,7.02799383 L13.4072799,7.02799383 C10.9618269,7.03128333 8.88853444,8.8270585 8.53627994,11.2470106 L7.78227994,11.2470106 C6.75278731,11.2448354 5.87216603,11.986258 5.69890567,13.0010686 C5.52564532,14.0158793 6.11038366,15.0074853 7.08227994,15.3470106 L7.08227994,17.5770106 C7.0839323,18.741094 8.02719652,19.6843582 9.19127994,19.6860106 L9.89127994,19.6860106 L9.89127994,20.3860106 C9.89127993,20.6371683 10.025271,20.8692476 10.2427799,20.9948265 C10.4602889,21.1204053 10.728271,21.1204053 10.9457799,20.9948265 C11.1632889,20.8692476 11.2972799,20.6371683 11.2972799,20.3860106 L11.2972799,19.6860106 L18.3752799,19.6860106 L18.3752799,20.3860106 C18.3752799,20.7742668 18.6900238,21.0890106 19.0782799,21.0890106 C19.4665361,21.0890106 19.7812799,20.7742668 19.7812799,20.3860106 L19.7812799,19.6860106 L20.4812799,19.6860106 C21.6453634,19.6843582 22.5886276,18.741094 22.5902799,17.5770106 L22.5902799,15.3470106 C23.5621762,15.0074853 24.1469146,14.0158793 23.9736542,13.0010686 C23.8003939,11.986258 22.9197726,11.2448354 21.8902799,11.2470106 L21.8922799,11.2470106 Z M13.4072799,8.4379845 L16.2202799,8.4379845 C17.9555439,8.43140735 19.4418716,9.67889117 19.7362799,11.3890106 C18.9184786,11.7009237 18.3776368,12.4847467 18.3762799,13.3600106 L18.3762799,15.4690106 L11.3012799,15.4690106 L11.3012799,13.3600106 C11.2999231,12.4847467 10.7590813,11.7009237 9.94127994,11.3890106 C10.2206244,9.68926083 11.6887301,8.44115949 13.4112799,8.43901059 L13.4072799,8.4379845 Z M21.8912799,14.0630106 C21.5046806,14.0630106 21.1912799,14.3764113 21.1912799,14.7630106 L21.1912799,17.5760106 C21.1912799,17.9626099 20.8778793,18.2760106 20.4912799,18.2760106 L9.18927994,18.2760106 C8.80268061,18.2760106 8.48927994,17.9626099 8.48927994,17.5760106 L8.48927994,14.7660106 C8.48927994,14.3794113 8.17587926,14.0660106 7.78927994,14.0660106 C7.40102376,14.0660106 7.08627994,13.7512668 7.08627994,13.3630106 C7.08627994,12.9747544 7.40102376,12.6600106 7.78927994,12.6600106 L9.18927994,12.6600106 C9.57587926,12.6600106 9.88927994,12.9734113 9.88927994,13.3600106 L9.88927994,16.1730106 C9.88927994,16.5596099 10.2026806,16.8730106 10.5892799,16.8730106 L19.0732799,16.8730106 C19.4598793,16.8730106 19.7732799,16.5596099 19.7732799,16.1730106 L19.7732799,13.3600106 C19.7732799,12.9734113 20.0866806,12.6600106 20.4732799,12.6600106 L21.8792799,12.6600106 C22.2675361,12.6600106 22.5822799,12.9747544 22.5822799,13.3630106 C22.5822799,13.7512668 22.2675361,14.0660106 21.8792799,14.0660106 L21.8912799,14.0630106 Z" id="Контур_4412" fill="url(#linearGradient-2)"></path>
                <circle id="Эллипс_128" fill="url(#linearGradient-3)" cx="13.4072799" cy="10.5470106" r="1"></circle>
                <circle id="Эллипс_129" fill="url(#linearGradient-3)" cx="13.4072799" cy="13.3590106" r="1"></circle>
                <circle id="Эллипс_130" fill="url(#linearGradient-3)" cx="16.2202799" cy="10.5470106" r="1"></circle>
                <circle id="Эллипс_131" fill="url(#linearGradient-3)" cx="16.2202799" cy="13.3590106" r="1"></circle>
            </g>
        </g>
    </g>
</svg>