<?xml version="1.0" encoding="UTF-8"?>
<svg width="24px" height="24px" viewBox="0 0 24 24" version="1.1" xmlns="http://www.w3.org/2000/svg" xmlns:xlink="http://www.w3.org/1999/xlink">
    <title>maintenance</title>
    <defs>
        <linearGradient x1="50%" y1="0%" x2="50%" y2="100%" id="linearGradient-1">
            <stop stop-color="#00B7FC" offset="0%"></stop>
            <stop stop-color="#31CDFE" offset="100%"></stop>
        </linearGradient>
        <linearGradient x1="50%" y1="0%" x2="50%" y2="100%" id="linearGradient-2">
            <stop stop-color="#00B7FC" offset="0%"></stop>
            <stop stop-color="#31CDFE" offset="100%"></stop>
        </linearGradient>
    </defs>
    <g id="Page-1" stroke="none" stroke-width="1" fill="none" fill-rule="evenodd">
        <g id="maintenance" transform="translate(-0.000638, -0.000638)" fill-rule="nonzero">
            <g transform="translate(0.000000, -0.000000)">
                <g id="Сгруппировать_14475" fill="url(#linearGradient-1)">
                    <path d="M23.3836376,18.4116376 L16.7166376,11.7446376 C16.6360471,11.6641075 16.5490991,11.5902017 16.4566376,11.5236376 L18.2126376,9.76763757 C20.0297067,10.0924336 21.875787,9.37346728 22.9945714,7.90528671 C24.1133557,6.43710614 24.3168313,4.46644057 23.5216376,2.80063757 C23.4243386,2.59343915 23.2318801,2.44690372 23.0062626,2.40823784 C22.7806452,2.36957195 22.5503764,2.44366117 22.3896376,2.60663757 C21.9716376,3.02463757 22.3366376,2.66963757 20.2896376,4.64163757 L19.3606376,4.64163757 L19.3606376,3.71463757 C21.3326376,1.66563757 20.9776376,2.02963757 21.3956376,1.61463757 C21.5594265,1.45377955 21.6339314,1.22283407 21.5950261,0.996585308 C21.5561209,0.770336546 21.4087511,0.577544118 21.2006376,0.480637575 C19.5346541,-0.3147323 17.5637062,-0.111181016 16.0954373,1.00788137 C14.6271685,2.12694375 13.9083896,3.97340678 14.2336376,5.79063757 L12.5006376,7.52663757 L11.9426376,6.96863757 C11.811201,6.83611872 11.6322839,6.76157875 11.4456376,6.76157875 C11.2589913,6.76157875 11.0800742,6.83611872 10.9486376,6.96863757 L10.4486376,7.46863757 L6.87563757,3.89363757 L6.87563757,2.20063757 C6.87656338,1.89763342 6.68243279,1.62843362 6.39463757,1.53363757 L1.92063757,0.0366375748 C1.66785035,-0.0485051782 1.38864488,0.0174183356 1.20063757,0.206637575 L0.206637575,1.20063757 C0.0174183356,1.38864488 -0.0485051782,1.66785035 0.0366375748,1.92063757 L1.52863757,6.39563757 C1.62343362,6.68343279 1.89263342,6.87756338 2.19563757,6.87663757 L3.89563757,6.87663757 L7.46863757,10.4496376 L6.96863757,10.9496376 C6.83611872,11.0810742 6.76157875,11.2599913 6.76157875,11.4466376 C6.76157875,11.6332839 6.83611872,11.812201 6.96863757,11.9436376 L7.52663757,12.5016376 L5.79063757,14.2346376 C3.67377367,13.8558187 1.55604786,14.8951439 0.560634069,16.8013884 C-0.434779725,18.7076328 -0.0774019755,21.039422 1.44322561,22.5600495 C2.9638532,24.0806771 5.29564234,24.4380549 7.20188678,23.4426411 C9.10813123,22.4472273 10.1474564,20.3295015 9.76863757,18.2126376 L11.5246376,16.4566376 C11.5912017,16.5490991 11.6651075,16.6360471 11.7456376,16.7166376 L18.4126376,23.3836376 C19.2369861,24.2058821 20.571289,24.2058821 21.3956376,23.3836376 L23.3846376,21.3946376 C24.2066058,20.5700134 24.2061585,19.2357105 23.3836376,18.4116376 Z M15.5006376,6.51263757 C15.678792,6.3353845 15.7482556,6.07623174 15.6826376,5.83363757 C15.3759998,4.68970516 15.6656887,3.46825871 16.4533813,2.5838672 C17.241074,1.69947568 18.420983,1.27091327 19.5926376,1.44363757 L18.1496376,2.94363757 C18.0221398,3.07376124 17.9503934,3.24846382 17.9496376,3.43063757 L17.9496376,5.34463757 C17.9496376,5.7312369 18.2630382,6.04463757 18.6496376,6.04463757 L20.5706376,6.04463757 C20.7528113,6.04388178 20.9275139,5.97213534 21.0576376,5.84463757 L22.5576376,4.40163757 C22.7303619,5.57329213 22.3017995,6.75320116 21.417408,7.54089383 C20.5330164,8.3285865 19.31157,8.61827534 18.1676376,8.31163757 C17.9250434,8.2460195 17.6658907,8.31548313 17.4886376,8.49363757 L15.0006376,10.9946376 C14.3585736,10.723451 13.8928938,10.1513729 13.7576376,9.46763757 C13.7151724,9.15058415 13.6112289,8.84486809 13.4516376,8.56763757 L15.5006376,6.51263757 Z M4.68163757,5.67563757 C4.54929427,5.54276626 4.36916987,5.46855501 4.18163757,5.46963757 L2.70063757,5.46963757 L1.50863757,1.88863757 L1.88863757,1.50863757 L5.46963757,2.70063757 L5.46963757,4.18463757 C5.46855501,4.37216987 5.54276626,4.55229427 5.67563757,4.68463757 L9.45463757,8.46063757 L8.46063757,9.45463757 L4.68163757,5.67563757 Z M8.50063757,17.4896376 C8.32248313,17.6668907 8.2530195,17.9260434 8.31863757,18.1686376 C8.73098276,19.7058352 8.05931907,21.3283238 6.68111319,22.1242847 C5.30290731,22.9202456 3.56189595,22.6911592 2.43650597,21.5657692 C1.311116,20.4403792 1.08202959,18.6993678 1.87799049,17.321162 C2.67395139,15.9429561 4.29643992,15.2712924 5.83363757,15.6836376 C6.07623174,15.7492556 6.3353845,15.679792 6.51263757,15.5016376 L8.56563757,13.4486376 C8.84285746,13.6082524 9.14857827,13.7121975 9.46563757,13.7546376 C10.1507806,13.889895 10.7238586,14.356903 10.9946376,15.0006376 L8.50063757,17.4896376 Z M22.3886376,20.4006376 L21.8886376,20.9006376 L15.4206376,14.4266376 C15.2430766,14.2490766 14.9842758,14.1797311 14.7417229,14.2447229 C14.4991701,14.3097148 14.3097148,14.4991701 14.2447229,14.7417229 C14.1797311,14.9842758 14.2490766,15.2430766 14.4266376,15.4206376 L20.9006376,21.8916376 L20.4006376,22.3916376 C20.269201,22.5241564 20.0902839,22.5986964 19.9036376,22.5986964 C19.7169913,22.5986964 19.5380742,22.5241564 19.4066376,22.3916376 L12.7396376,15.7246376 C12.5961698,15.5607508 12.5122989,15.3531881 12.5016376,15.1356376 C12.225719,13.7425782 11.136697,12.6535562 9.74363757,12.3776376 C9.52606993,12.3670541 9.3184826,12.2831733 9.15463757,12.1396376 L8.46163757,11.4466376 L11.4436376,8.46063757 L12.1366376,9.15363757 C12.2801054,9.31752437 12.3639762,9.52508705 12.3746376,9.74263757 C12.6505562,11.135697 13.7395782,12.224719 15.1326376,12.5006376 C15.3502052,12.5112211 15.5577926,12.5951019 15.7216376,12.7386376 L22.3886376,19.4056376 C22.5214648,19.5371129 22.596201,19.716245 22.596201,19.9031376 C22.596201,20.0900301 22.5214648,20.2691623 22.3886376,20.4006376 Z" id="Контур_4430"></path>
                </g>
                <g id="Сгруппировать_14477" transform="translate(2.814561, 16.970138)" fill="url(#linearGradient-2)">
                    <path d="M3.60007637,0.6175 C2.77639882,-0.205943604 1.44116279,-0.205817172 0.617641196,0.617782405 C-0.205880399,1.44138198 -0.205880399,2.77661802 0.617641196,3.6002176 C1.44116279,4.42381717 2.77639882,4.4239436 3.60007637,3.6005 C3.99596549,3.20509884 4.21841475,2.66852683 4.21841475,2.109 C4.21841475,1.54947317 3.99596549,1.01290116 3.60007637,0.6175 Z M2.60607637,2.6065 C2.33212122,2.87821785 1.8899501,2.87700924 1.61748444,2.60379781 C1.34501879,2.33058639 1.34501879,1.88841361 1.61748444,1.61520219 C1.8899501,1.34199076 2.33212122,1.34078215 2.60607637,1.6125 C2.73846309,1.74406989 2.81282312,1.923062 2.8126357,2.10970831 C2.81244758,2.29635461 2.73772755,2.47519675 2.60507637,2.6065 L2.60607637,2.6065 Z" id="Контур_4431"></path>
                </g>
            </g>
        </g>
    </g>
</svg>