<?xml version="1.0" encoding="UTF-8"?>
<svg width="16px" height="16px" viewBox="0 0 16 16" version="1.1" xmlns="http://www.w3.org/2000/svg" xmlns:xlink="http://www.w3.org/1999/xlink">
    <title>nf_mosque</title>
    <g id="Page-1" stroke="none" stroke-width="1" fill="none" fill-rule="evenodd">
        <g id="nf_mosque" fill="#1A2936" fill-rule="nonzero">
            <path d="M12.8,9.333 L12.8,7.2 L11.99,7.2 L11.99,5.385 C11.9881996,3.50626509 10.8904929,1.80128308 9.181,1.022 L8.469,0.7 L8.469,0 L7.531,0 L7.531,0.7 L6.819,1.024 C5.11016505,1.80298204 4.01258259,3.50698955 4.01,5.385 L4.01,7.2 L3.2,7.2 L3.2,9.333 L0,9.333 L0,16 L16,16 L16,9.333 L12.8,9.333 Z M3.2,15.063 L0.937,15.063 L0.937,12.135 L3.2,12.135 L3.2,15.063 Z M3.2,11.198 L0.937,11.198 L0.937,10.271 L3.2,10.271 L3.2,11.198 Z M7.207,1.875 L8,1.515 L8.793,1.875 C10.1068236,2.47483214 10.9763075,3.75745587 11.047,5.2 L4.953,5.2 C5.02369254,3.75745587 5.89317641,2.47483214 7.207,1.875 Z M4.947,6.135 L11.047,6.135 L11.047,7.2 L4.947,7.2 L4.947,6.135 Z M9.647,15.062 L6.355,15.062 L6.355,12.262 C6.35546942,11.1920194 7.00676501,10.2299232 8,9.832 C8.99458956,10.2304653 9.64616614,11.194561 9.645,12.266 L9.645,15.066 L9.647,15.062 Z M11.867,15.062 L10.582,15.062 L10.582,12.262 C10.6325702,10.6560417 9.55806388,9.23155097 8,8.839 C6.43300614,9.22063205 5.35266845,10.6545272 5.418,12.266 L5.418,15.066 L4.135,15.066 L4.135,8.135 L11.864,8.135 L11.867,15.062 Z M15.067,15.062 L12.8,15.062 L12.8,12.135 L15.06,12.135 L15.067,15.062 Z M15.067,11.197 L12.8,11.197 L12.8,10.27 L15.06,10.27 L15.067,11.197 Z" id="Контур_4082"></path>
        </g>
    </g>
</svg>