<?xml version="1.0" encoding="UTF-8"?>
<svg width="16px" height="16px" viewBox="0 0 16 16" version="1.1" xmlns="http://www.w3.org/2000/svg" xmlns:xlink="http://www.w3.org/1999/xlink">
    <title>nf_store</title>
    <g id="Page-1" stroke="none" stroke-width="1" fill="none" fill-rule="evenodd">
        <g id="nf_store" transform="translate(0.001406, 0.023000)" fill="#1A2936" fill-rule="nonzero">
            <path d="M15.9895938,5.714 C15.9895938,5.693 15.3565938,2.997 15.3565938,2.997 C15.2995819,2.75709291 15.085182,2.587808 14.8385938,2.588 L11.2565938,2.588 L11.2565938,0.532 C11.2565938,0.238184513 11.0184093,0 10.7245938,0 L5.26259379,0 C4.96877831,0 4.73059379,0.238184513 4.73059379,0.532 L4.73059379,2.587 L1.15759379,2.587 C0.911005614,2.586808 0.696605666,2.75609291 0.639593795,2.996 C0.639593795,2.996 0.0115937945,5.696 0.00959379454,5.713 C-0.101494692,6.95284606 0.763961678,8.06794492 1.99259379,8.268 L1.99259379,15.418 C1.99259379,15.7118155 2.23077831,15.95 2.52459379,15.95 L13.4605938,15.95 C13.7544093,15.95 13.9925938,15.7118155 13.9925938,15.418 L13.9925938,8.268 C15.2269765,8.07541237 16.1003853,6.95839379 15.9895938,5.714 Z M11.2895938,5.999 C11.2895938,6.68162395 10.7362177,7.23500162 10.0535938,7.23500162 L9.76359379,7.23500162 C9.43526648,7.23553138 9.12021916,7.10540761 8.8879626,6.87333865 C8.65570604,6.6412697 8.52532773,6.32632764 8.52559339,5.998 L8.52559339,3.651 L11.2885938,3.651 L11.2895938,5.999 Z M7.46359379,5.999 C7.46194094,6.6817188 6.90831438,7.23445098 6.22559379,7.235 L5.93259379,7.235 C5.25026475,7.23334875 4.69769322,6.68033015 4.69659379,5.998 L4.69659379,3.651 L7.46159379,3.651 L7.46359379,5.999 Z M5.79459379,1.068 L10.1945938,1.068 L10.1945938,2.587 L5.79459379,2.587 L5.79459379,1.068 Z M1.06459379,5.85 L1.58059379,3.65 L3.6325945,3.65 L3.6325945,5.95 C3.63308605,6.42170638 3.37528962,6.85582501 2.96087646,7.08114451 C2.54646329,7.30646401 2.04195163,7.28681792 1.64631507,7.02995442 C1.2506785,6.77309093 1.0274214,6.32023968 1.06459379,5.85 Z M6.61159379,14.89 L6.61159379,11.098 L9.37659379,11.098 L9.37659379,14.89 L6.61159379,14.89 Z M10.4405938,14.89 L10.4405938,10.568 C10.4405938,10.2741845 10.2024093,10.036 9.90859379,10.036 L6.07959379,10.036 C5.78577831,10.036 5.54759379,10.2741845 5.54759379,10.568 L5.54759379,14.891 L3.05559379,14.891 L3.05559379,8.191 C3.48601127,8.05307466 3.86779486,7.79450305 4.15559379,7.446 C4.66246043,8.05504744 5.43794357,8.37370323 6.22659379,8.297 C6.91183888,8.29638324 7.56112257,7.9902557 7.99759379,7.462 C8.50444411,8.06017328 9.27216723,8.37211917 10.0525938,8.297 C10.7446043,8.29689335 11.3995209,7.98413579 11.8345938,7.446 C12.1234939,7.79195999 12.5050924,8.04832482 12.9345938,8.185 L12.9345938,14.891 L10.4405938,14.89 Z M12.3515938,5.948 L12.3515938,3.648 L14.4035938,3.648 L14.9215938,5.848 C14.9426427,6.30974187 14.7146556,6.74735894 14.3241872,6.99471096 C13.9337187,7.24206299 13.4406469,7.26121885 13.032165,7.04490607 C12.6236832,6.8285933 12.3624316,6.40998317 12.3475938,5.948 L12.3515938,5.948 Z" id="Контур_4083"></path>
        </g>
    </g>
</svg>