<?xml version="1.0" encoding="UTF-8"?>
<svg width="24px" height="24px" viewBox="0 0 24 24" version="1.1" xmlns="http://www.w3.org/2000/svg" xmlns:xlink="http://www.w3.org/1999/xlink">
    <title>playground</title>
    <g id="Page-1" stroke="none" stroke-width="1" fill="none" fill-rule="evenodd">
        <g id="playground" transform="translate(0.547000, 0.000000)" fill="#31CDFE" fill-rule="nonzero">
            <path d="M20.672,19.734 L17.621,14.934 C17.0320076,14.0014344 16.0049879,13.4371213 14.902,13.44 L13.38,13.44 L13.38,6.925 L7.297,0 L6.082,0 L2.22044605e-16,6.925 L2.22044605e-16,24.0000115 L4.7,24.0000115 L4.7,21.563 L8.676,21.563 L8.676,24.0000115 L13.376,24.0000115 L13.376,17.7 L14.396,17.7 L17.447,22.5 C18.0353114,23.4360675 19.0644124,24.0029612 20.17,24.0000115 L22.906,24.0000115 L22.906,19.734 L20.672,19.734 Z M10.082,22.593 L10.082,17.7 L11.973,17.7 L11.973,22.591 L10.082,22.593 Z M1.405,22.593 L1.405,17.7 L3.296,17.7 L3.296,22.591 L1.405,22.593 Z M1.405,8.374 L11.973,8.374 L11.973,16.3 L10.088,16.3 L10.088,13.445 C10.088,11.5672319 8.56576815,10.045 6.688,10.045 C4.81023185,10.045 3.288,11.5672319 3.288,13.445 L3.288,16.3 L1.406,16.3 L1.405,8.374 Z M1.835,6.969 L6.69,1.439 L11.547,6.968 L1.835,6.968 L1.835,6.969 Z M4.7,13.445 C4.69999999,12.7333269 5.07967304,12.0757139 5.69599999,11.7198774 C6.31232694,11.3640408 7.07167306,11.3640408 7.68800001,11.7198774 C8.30432696,12.0757139 8.684,12.7333269 8.684,13.445 L8.684,16.3 L4.698,16.3 L4.7,13.445 Z M4.7,20.156 L4.7,17.7 L8.676,17.7 L8.676,20.153 L4.7,20.156 Z M21.5,22.5940146 L20.17,22.5940146 C19.5474513,22.5964942 18.96746,22.2783492 18.635,21.752 L15.172,16.3 L13.38,16.3 L13.38,14.843995 L14.902,14.843995 C15.5234835,14.8425398 16.1021073,15.1605563 16.434,15.686 L19.899,21.141 L21.499,21.141 L21.499,22.5940146 L21.5,22.5940146 Z" id="Контур_4162"></path>
        </g>
    </g>
</svg>