<?xml version="1.0" encoding="UTF-8"?>
<svg width="22px" height="24px" viewBox="0 0 22 24" version="1.1" xmlns="http://www.w3.org/2000/svg" xmlns:xlink="http://www.w3.org/1999/xlink">
    <title>publicElevator</title>
    <defs>
        <linearGradient x1="50%" y1="0%" x2="50%" y2="100%" id="linearGradient-1">
            <stop stop-color="#00B7FC" offset="0%"></stop>
            <stop stop-color="#31CDFE" offset="100%"></stop>
        </linearGradient>
        <linearGradient x1="50%" y1="0%" x2="50%" y2="100%" id="linearGradient-2">
            <stop stop-color="#00B7FC" offset="0%"></stop>
            <stop stop-color="#31CDFE" offset="100%"></stop>
        </linearGradient>
        <linearGradient x1="50%" y1="0%" x2="50%" y2="100%" id="linearGradient-3">
            <stop stop-color="#00B7FC" offset="0%"></stop>
            <stop stop-color="#31CDFE" offset="100%"></stop>
        </linearGradient>
        <linearGradient x1="50%" y1="0%" x2="50%" y2="100%" id="linearGradient-4">
            <stop stop-color="#00B7FC" offset="0%"></stop>
            <stop stop-color="#31CDFE" offset="100%"></stop>
        </linearGradient>
    </defs>
    <g id="Page-1" stroke="none" stroke-width="1" fill="none" fill-rule="evenodd">
        <g id="publicElevator" transform="translate(0.456000, 0.000000)" fill-rule="nonzero">
            <path d="M21.091,23.3 L21.091,0.7 C21.091,0.313400675 20.7775993,0 20.391,0 L0.7,0 C0.313400675,0 -5.55111512e-16,0.313400675 -5.55111512e-16,0.7 L-5.55111512e-16,23.3 C-5.55111512e-16,23.6865993 0.313400675,24.0000114 0.7,24.0000114 L20.387,24.0000114 C20.5733436,24.0010648 20.7524207,23.9277854 20.8845626,23.7963943 C21.0167044,23.6650033 21.091,23.4863467 21.091,23.3 Z M19.684,1.406 L19.684,5.625 L1.403,5.625 L1.403,1.406 L19.684,1.406 Z M1.403,7.031 L11.247,7.031 L11.247,22.594 L1.403,22.594 L1.403,7.031 Z M12.653,22.594 L12.653,7.031 L19.684,7.031 L19.684,22.594 L12.653,22.594 Z" id="Контур_4169" fill="url(#linearGradient-1)"></path>
            <path d="M17.07,17.136 L16.87,17.336 L16.87,16.219 C16.87,15.8307438 16.5552562,15.516 16.167,15.516 C15.7787438,15.516 15.464,15.8307438 15.464,16.219 L15.464,17.341 L15.264,17.141 C15.0892971,16.9604022 14.8315173,16.8867259 14.5877636,16.9477242 C14.3440099,17.0087224 14.1513144,17.1951282 14.0822636,17.4367242 C14.0132128,17.6783202 14.0782971,17.9384022 14.253,18.119 L15.664,19.572 C15.7960343,19.7098366 15.9786284,19.7877792 16.1695,19.7877792 C16.3603716,19.7877792 16.5429657,19.7098366 16.675,19.572 L18.081,18.119 C18.2557029,17.9384022 18.3207872,17.6783202 18.2517364,17.4367242 C18.1826856,17.1951281 17.9899901,17.0087224 17.7462364,16.9477242 C17.5024827,16.8867259 17.2447029,16.9604022 17.07,17.141 L17.07,17.136 Z" id="Контур_4170" fill="url(#linearGradient-2)"></path>
            <path d="M16.666,10.097 L16.666,10.097 C16.5345634,9.96448114 16.3556463,9.88994117 16.169,9.88994117 C15.9823537,9.88994117 15.8034366,9.96448114 15.672,10.097 L15.672,10.097 L14.266,11.503 C13.9915145,11.7774855 13.9915145,12.2225145 14.266,12.497 C14.5404855,12.7714855 14.9855145,12.7714855 15.26,12.497 L15.466,12.291 L15.466,13.406 C15.466,13.7942562 15.7807438,14.109 16.169,14.109 C16.5572562,14.109 16.872,13.7942562 16.872,13.406 L16.872,12.291 L17.078,12.497 C17.3524855,12.7714855 17.7975145,12.7714855 18.072,12.497 C18.3464855,12.2225145 18.3464855,11.7774855 18.072,11.503 L16.666,10.097 Z" id="Контур_4171" fill="url(#linearGradient-3)"></path>
            <circle id="Эллипс_9" fill="url(#linearGradient-4)" cx="9.138" cy="3.516" r="1"></circle>
            <circle id="Эллипс_10" fill="url(#linearGradient-4)" cx="6.325" cy="3.516" r="1"></circle>
            <circle id="Эллипс_11" fill="url(#linearGradient-4)" cx="11.95" cy="3.516" r="1"></circle>
            <circle id="Эллипс_12" fill="url(#linearGradient-4)" cx="14.763" cy="3.516" r="1"></circle>
        </g>
    </g>
</svg>