<?xml version="1.0" encoding="UTF-8"?>
<svg width="24px" height="24px" viewBox="0 0 24 24" version="1.1" xmlns="http://www.w3.org/2000/svg" xmlns:xlink="http://www.w3.org/1999/xlink">
    <title>shipsParking</title>
    <defs>
        <linearGradient x1="50%" y1="0%" x2="50%" y2="100%" id="linearGradient-1">
            <stop stop-color="#00B7FC" offset="0%"></stop>
            <stop stop-color="#31CDFE" offset="100%"></stop>
        </linearGradient>
    </defs>
    <g id="Page-1" stroke="none" stroke-width="1" fill="none" fill-rule="evenodd">
        <g id="shipsParking" transform="translate(0.013361, 0.003000)" fill="url(#linearGradient-1)" fill-rule="nonzero">
            <g id="Layer_28" transform="translate(0.000000, 0.000000)">
                <path d="M23.5566386,20.594 C22.5531854,20.008792 21.2817969,20.1703813 20.4566386,20.988 L19.5496386,21.844 L23.8796386,13.176 C23.9832664,12.9689741 23.9992615,12.7289657 23.9240222,12.5100194 C23.8487829,12.291073 23.6886344,12.1115951 23.4796386,12.012 L20.5536386,10.703 L20.5536386,4.275 C20.5536386,4.04797468 20.4634531,3.83024774 20.302922,3.6697166 C20.1423908,3.50918546 19.9246639,3.419 19.6976386,3.419 L17.1296386,3.419 L17.1296386,0.856 C17.1296386,0.383244254 16.7463943,-2.22044605e-16 16.2736386,-2.22044605e-16 L7.71763857,-2.22044605e-16 C7.24488282,-2.22044605e-16 6.86163857,0.383244254 6.86163857,0.856 L6.86163857,3.42 L4.29463857,3.42 C3.82188282,3.42 3.43863857,3.80324425 3.43863857,4.276 L3.43863857,10.702 L0.512638566,12.056 C0.302590306,12.1553604 0.141960538,12.3358432 0.0676385664,12.556 C-0.0225461888,12.769188 -0.0225461888,13.009812 0.0676385664,13.223 L4.44863857,21.9 L3.54163857,20.993 C2.71549851,20.1724081 1.44050175,20.0106731 0.435638566,20.599 C0.0814832131,20.8574652 -0.0201234391,21.3417421 0.200281647,21.7207565 C0.420686733,22.0997708 0.891839751,22.2509755 1.29163857,22.071 C1.62587902,21.8807797 2.04594861,21.9368162 2.31863857,22.208 L3.31863857,23.201 C3.79889925,23.6949795 4.46071827,23.9704061 5.14963857,23.963 C5.83330504,23.9621339 6.48838227,23.6885852 6.96963857,23.203 L7.96963857,22.245 C8.30351529,21.9130821 8.84276184,21.9130821 9.17663857,22.245 L10.1766386,23.245 C11.1788524,24.2459527 12.8024248,24.2459527 13.8046386,23.245 L14.7976386,22.245 C14.9583465,22.0831085 15.1770248,21.9920587 15.4051386,21.9920587 C15.6332523,21.9920587 15.8519306,22.0831085 16.0126386,22.245 L17.0126386,23.245 C17.2130123,23.4350913 17.4409083,23.5938769 17.6886386,23.716 C18.0473537,23.8833651 18.4399148,23.9655052 18.8356386,23.956 C19.5127037,23.9583624 20.1619373,23.6867663 20.6356386,23.203 L21.6626386,22.245 C21.9338267,21.9781912 22.3485632,21.9223769 22.6806386,22.108 C23.0804374,22.2879755 23.5515904,22.1367708 23.7719955,21.7577565 C23.9924006,21.3787421 23.8907939,20.8944652 23.5366386,20.636 L23.5566386,20.594 Z M8.56963857,1.708 L15.4156386,1.708 L15.4156386,3.42 L8.56963857,3.42 L8.56963857,1.708 Z M5.15063857,5.131 L18.8416386,5.131 L18.8416386,9.914 L12.3556386,6.92 C12.1388532,6.81730083 11.887424,6.81730083 11.6706386,6.92 L5.15063857,9.915 L5.15063857,5.131 Z M6.75863857,20.987 L6.19363857,21.56 L2.03563857,13.243 L11.1356386,9.033 L11.1356386,21.74 L10.3826386,20.987 C9.38042477,19.9860473 7.75685236,19.9860473 6.75463857,20.987 L6.75863857,20.987 Z M13.6046386,20.987 L12.8606386,21.74 L12.8606386,9.033 L21.9606386,13.243 L17.7976386,21.556 L17.2326386,20.983 C16.7509624,20.4995372 16.096596,20.22778 15.4141386,20.22778 C14.7316811,20.22778 14.0773148,20.4995372 13.5956386,20.983 L13.6046386,20.987 Z" id="Контур_4144"></path>
            </g>
        </g>
    </g>
</svg>