<?xml version="1.0" encoding="UTF-8"?>
<svg width="24px" height="24px" viewBox="0 0 24 24" version="1.1" xmlns="http://www.w3.org/2000/svg" xmlns:xlink="http://www.w3.org/1999/xlink">
    <title>tennisCourt</title>
    <defs>
        <linearGradient x1="50%" y1="0%" x2="50%" y2="100%" id="linearGradient-1">
            <stop stop-color="#00B7FC" offset="0%"></stop>
            <stop stop-color="#31CDFE" offset="100%"></stop>
        </linearGradient>
        <linearGradient x1="50%" y1="0%" x2="50%" y2="100%" id="linearGradient-2">
            <stop stop-color="#00B7FC" offset="0%"></stop>
            <stop stop-color="#31CDFE" offset="100%"></stop>
        </linearGradient>
    </defs>
    <g id="Page-1" stroke="none" stroke-width="1" fill="none" fill-rule="evenodd">
        <g id="tennisCourt" transform="translate(0.139920, -0.000839)" fill-rule="nonzero">
            <g id="tennis_1_" transform="translate(0.000000, 0.000000)">
                <path d="M17.9220804,18.3088395 C16.350278,18.3088395 15.0760804,19.5830371 15.0760804,21.1548395 C15.0760804,22.7266419 16.350278,24.0008395 17.9220804,24.0008395 C19.4938828,24.0008395 20.7680804,22.7266419 20.7680804,21.1548395 C20.7664268,19.5837225 19.4931973,18.310493 17.9220804,18.3088395 Z M17.9220804,22.5778395 C17.1361792,22.5778395 16.4990804,21.9407407 16.4990804,21.1548395 C16.4990804,20.3689383 17.1361792,19.7318395 17.9220804,19.7318395 C18.7079816,19.7318395 19.3450804,20.3689383 19.3450804,21.1548395 C19.3439788,21.9402839 18.7075248,22.5767379 17.9220804,22.5778395 L17.9220804,22.5778395 Z" id="Контур_4150" fill="url(#linearGradient-1)"></path>
                <path d="M21.6780804,2.04883946 C18.5080804,-1.19916054 12.9900804,-0.378160541 9.55808036,3.05383946 C6.60808036,6.04583946 5.93608036,9.83683946 6.95108036,12.6518395 L5.45108036,15.2418395 L0.208080364,20.4798395 C-0.0693601212,20.7577872 -0.0693601212,21.2078917 0.208080364,21.4858395 L2.22808036,23.5058395 C2.36143877,23.639329 2.54239032,23.7143337 2.73108036,23.7143337 C2.9197704,23.7143337 3.10072196,23.639329 3.23408036,23.5058395 L8.46808036,18.2718395 L11.1180804,16.7878395 C14.5390231,17.7972749 18.2364667,16.7796157 20.6590804,14.1618395 C24.0730804,10.7828395 24.9230804,5.30083946 21.6780804,2.04883946 Z M21.9520804,9.39383946 L21.1670804,8.60883946 L22.2820804,7.49383946 C22.251551,8.138435 22.1406943,8.77670072 21.9520804,9.39383946 Z M20.1430804,12.6348395 L18.6430804,11.1348395 L20.1620804,9.61583946 L21.3720804,10.8258395 C21.0356251,11.4755286 20.6234219,12.0830919 20.1440804,12.6358395 L20.1430804,12.6348395 Z M17.3270804,14.8688395 L16.1170804,13.6588395 L17.6360804,12.1398395 L19.1360804,13.6398395 C18.5833156,14.1191587 17.9757551,14.5313599 17.3260804,14.8678395 L17.3270804,14.8688395 Z M12.1540804,15.6098395 C11.4060437,15.4316384 10.7031906,15.0999626 10.0900804,14.6358395 L12.5900804,12.1358395 L14.1080804,13.6588395 L12.1540804,15.6098395 Z M8.27108036,7.82483946 L9.05408036,8.60783946 L7.94008036,9.72283946 C7.97048557,9.07815194 8.08168802,8.43982974 8.27108036,7.82283946 L8.27108036,7.82483946 Z M10.0790804,4.58183946 L11.5790804,6.08183946 L10.0600804,7.60083946 L8.85308036,6.39483946 C9.18878219,5.74455884 9.60031478,5.13632307 10.0790804,4.58283946 L10.0790804,4.58183946 Z M12.8970804,2.35083946 L14.1080804,3.55783946 L12.5850804,5.07683946 L11.0850804,3.57683946 C11.6385354,3.09803656 12.2467757,2.68650085 12.8970804,2.35083946 L12.8970804,2.35083946 Z M18.0660804,1.60983946 C18.8146701,1.78715056 19.5182225,2.1181539 20.1320804,2.58183946 L17.6320804,5.08183946 L16.1170804,3.55783946 L18.0660804,1.60983946 Z M22.1080804,5.65183946 L20.1610804,7.60083946 L18.6420804,6.08283946 L21.1420804,3.58283946 C21.6042827,4.19792998 21.9332722,4.90256682 22.1080804,5.65183946 L22.1080804,5.65183946 Z M19.1550804,8.60883946 L17.6360804,10.1278395 L16.1170804,8.60883946 L17.6360804,7.08983946 L19.1550804,8.60883946 Z M16.6300804,6.08283946 L15.1080804,7.60083946 L13.5920804,6.08283946 L15.1080804,4.56383946 L16.6300804,6.08283946 Z M14.1080804,8.60883946 L12.5890804,10.1278395 L11.0660804,8.60883946 L12.5850804,7.08983946 L14.1080804,8.60883946 Z M8.10808036,11.5638395 L10.0570804,9.61483946 L11.5760804,11.1338395 L9.07608036,13.6338395 C8.61331905,13.018456 8.28366585,12.3135158 8.10808036,11.5638395 Z M13.5880804,11.1338395 L15.1080804,9.61483946 L16.6270804,11.1338395 L15.1080804,12.6528395 L13.5880804,11.1338395 Z M16.2210804,1.43383946 L15.1080804,2.55183946 L14.3250804,1.76883946 C14.9420682,1.57943684 15.5803917,1.46823416 16.2250804,1.43783946 L16.2210804,1.43383946 Z M4.75708036,19.9768395 L3.74308036,18.9618395 L6.02008036,16.6848395 L7.03408036,17.7008395 L4.75708036,19.9768395 Z M2.73608036,22.0008395 L1.72208036,20.9828395 L2.73608036,19.9688395 L3.75008036,20.9828395 L2.73608036,22.0008395 Z M8.16108036,16.8198395 L6.90808036,15.5628395 L7.71708036,14.1628395 C8.2112624,14.8981743 8.8448924,15.5294261 9.58208036,16.0208395 L8.16108036,16.8198395 Z M13.9950804,15.7838395 L15.1080804,14.6648395 L15.8930804,15.4498395 C15.2759465,15.6384738 14.6376782,15.7493309 13.9930804,15.7798395 L13.9950804,15.7838395 Z" id="Контур_4151" fill="url(#linearGradient-2)"></path>
            </g>
        </g>
    </g>
</svg>